# Blender v3.4.1 OBJ File: 'restaurant_bits_extra_export.blend'
# www.blender.org
mtllib food_ingredient_mushroom_chopped.mtl
o food_ingredient_mushroom_chopped_Cube.18463
v -0.413674 0.075164 -0.051033
v -0.413674 0.075164 0.025290
v -0.377943 0.007721 -0.051033
v -0.377943 0.007721 0.025290
v -0.344963 0.132650 -0.069663
v -0.344963 0.132650 0.043920
v -0.291788 0.032284 0.043920
v -0.291788 0.032284 -0.069663
v -0.393890 0.101032 -0.064628
v -0.421966 0.079205 -0.012871
v -0.161962 0.252510 0.032611
v -0.400611 0.038898 0.032743
v -0.101811 0.181746 0.032611
v -0.379256 -0.001409 -0.012871
v -0.101811 0.181746 -0.058354
v -0.400611 0.038898 -0.058486
v -0.161962 0.252510 -0.058354
v -0.393890 0.101032 0.038886
v -0.345428 0.009562 0.038886
v -0.345428 0.009562 -0.064628
v -0.318376 0.082467 -0.090960
v -0.281818 0.013465 -0.012871
v -0.318375 0.082467 0.065217
v -0.354934 0.151469 -0.012871
v -0.403383 0.117805 -0.012871
v -0.370132 0.055046 0.058152
v -0.336882 -0.007713 -0.012871
v -0.370132 0.055046 -0.083894
v -0.410689 0.033559 -0.012871
v -0.132228 0.217360 -0.075410
v -0.089839 0.167997 -0.012871
v -0.132228 0.217360 0.049667
v -0.173453 0.265923 -0.012871
v -0.310928 0.293907 0.135860
v -0.281408 0.260565 -0.165490
v -0.081650 0.034934 0.135860
v -0.081650 0.034934 -0.120957
v -0.238890 0.394144 0.207691
v -0.238890 0.394143 -0.192788
v 0.026577 0.094293 -0.192788
v 0.026577 0.094293 0.207691
v -0.316553 0.304628 -0.088180
v -0.307788 0.338004 -0.196425
v -0.130730 0.094738 -0.177246
v -0.037498 0.032707 -0.196425
v -0.037498 0.032707 0.211328
v -0.257513 0.237942 0.192149
v -0.130730 0.094738 0.192149
v -0.307788 0.338004 0.211328
v -0.033568 0.162228 0.264009
v -0.178745 0.326209 0.264009
v 0.063909 0.052126 -0.102054
v 0.063909 0.052126 0.116958
v -0.178745 0.326209 -0.249105
v -0.033568 0.162228 -0.249105
v -0.276222 0.436310 0.116958
v -0.276222 0.436310 -0.102054
v -0.233438 0.267656 -0.094469
v -0.098317 0.115034 -0.094469
v -0.233438 0.267656 0.109372
v -0.098317 0.115034 0.109372
v -0.099085 0.101613 0.268801
v -0.246853 0.268520 0.268801
v 0.000273 -0.010613 -0.104009
v 0.000273 -0.010613 0.118912
v -0.246853 0.268520 -0.253898
v -0.099085 0.101613 -0.253898
v -0.346211 0.380747 0.118912
v -0.346211 0.380747 -0.104008
v -0.085887 0.417604 0.113951
v -0.085887 0.417604 -0.116748
v 0.067037 0.244873 -0.116748
v 0.067037 0.244873 0.113951
v -0.168196 0.473603 0.098651
v -0.168196 0.473603 -0.083748
v -0.137985 0.438451 0.173978
v -0.137985 0.438451 -0.159075
v -0.087542 0.382503 -0.205420
v 0.033365 0.245936 -0.205420
v 0.082788 0.189084 -0.159075
v 0.114019 0.154836 -0.083748
v 0.114019 0.154836 0.098651
v 0.082788 0.189084 0.173978
v 0.033365 0.245936 0.220324
v -0.087542 0.382503 0.220324
v 0.598709 0.017444 0.118242
v 0.598876 0.016607 -0.103551
v 0.377817 -0.002547 0.118151
v 0.377984 -0.003384 -0.103642
v 0.576609 0.080708 0.101672
v 0.612945 0.009808 0.072647
v 0.613044 0.009316 -0.057877
v 0.554222 0.003766 -0.117007
v 0.424229 -0.007999 -0.117061
v 0.365319 -0.013103 -0.057979
v 0.365220 -0.012611 0.072544
v 0.424041 -0.007060 0.131675
v 0.554034 0.004704 0.131728
v 0.576752 0.079995 -0.087492
v 0.388356 0.062945 -0.087570
v 0.388213 0.063659 0.101594
v 0.424479 -0.026474 -0.059277
v 0.557246 -0.014459 -0.059222
v 0.424378 -0.025971 0.074032
v 0.557146 -0.013956 0.074087
v 0.683108 0.090099 0.093458
v 0.683239 0.089447 -0.079188
v 0.639307 0.087057 0.164737
v 0.639545 0.085867 -0.150508
v 0.568626 0.078633 -0.194402
v 0.396682 0.063072 -0.194473
v 0.325580 0.057453 -0.150638
v 0.281896 0.053126 -0.079354
v 0.281765 0.053778 0.093292
v 0.325342 0.058643 0.164607
v 0.396378 0.064592 0.208507
v 0.568322 0.080153 0.208578
vt 0.531580 0.548807
vt 0.525218 0.543601
vt 0.523984 0.546363
vt 0.530283 0.551904
vt 0.522646 0.539343
vt 0.521568 0.540008
vt 0.522646 0.539343
vt 0.525218 0.543601
vt 0.531580 0.548807
vt 0.528307 0.536031
vt 0.535036 0.540545
vt 0.524344 0.533373
vt 0.527292 0.528241
vt 0.531519 0.528544
vt 0.538494 0.532284
vt 0.532630 0.525700
vt 0.539790 0.529186
vt 0.527121 0.526738
vt 0.527292 0.528241
vt 0.531519 0.528544
vt 0.538494 0.532284
vt 0.528307 0.536031
vt 0.535036 0.540545
vt 0.524344 0.533373
vt 0.523034 0.532494
vt 0.563194 0.556889
vt 0.559239 0.562751
vt 0.555373 0.568538
vt 0.563194 0.556889
vt 0.564750 0.554625
vt 0.555373 0.568538
vt 0.559239 0.562751
vt 0.553879 0.570746
vt 0.540517 0.656876
vt 0.554562 0.622840
vt 0.554562 0.622840
vt 0.540517 0.656876
vt 0.545371 0.649935
vt 0.558490 0.619892
vt 0.558490 0.619892
vt 0.545371 0.649935
vt 0.565049 0.615199
vt 0.580769 0.603743
vt 0.572066 0.611757
vt 0.553191 0.638751
vt 0.587194 0.598975
vt 0.579886 0.600574
vt 0.559434 0.514521
vt 0.563648 0.516765
vt 0.546080 0.533640
vt 0.539843 0.532856
vt 0.591255 0.596102
vt 0.591255 0.596102
vt 0.584740 0.593632
vt 0.584740 0.593632
vt 0.587194 0.598975
vt 0.579886 0.600574
vt 0.563648 0.516765
vt 0.546080 0.533640
vt 0.580769 0.603743
vt 0.565049 0.615199
vt 0.553191 0.638751
vt 0.572066 0.611757
vt 0.563548 0.574831
vt 0.544335 0.588939
vt 0.565815 0.507909
vt 0.565815 0.507909
vt 0.535273 0.537728
vt 0.559434 0.514521
vt 0.542949 0.530355
vt 0.536005 0.536543
vt 0.544335 0.588939
vt 0.563548 0.574831
vt 0.576466 0.565344
vt 0.576466 0.565344
vt 0.563548 0.558784
vt 0.544335 0.572893
vt 0.542949 0.566140
vt 0.559434 0.542565
vt 0.571555 0.552960
vt 0.565815 0.532721
vt 0.571555 0.569006
vt 0.536413 0.594813
vt 0.536413 0.578766
vt 0.536005 0.575352
vt 0.531418 0.598426
vt 0.531418 0.598426
vt 0.576466 0.549298
vt 0.576466 0.549298
vt 0.565815 0.532721
vt 0.571555 0.552960
vt 0.571555 0.569006
vt 0.544335 0.572893
vt 0.563548 0.558784
vt 0.559434 0.542565
vt 0.539843 0.569864
vt 0.536413 0.578766
vt 0.536413 0.594813
vt 0.531418 0.582379
vt 0.531418 0.582379
vt 0.535273 0.577117
vt 0.565989 0.665796
vt 0.565989 0.665796
vt 0.554562 0.656534
vt 0.554562 0.656534
vt 0.558490 0.653586
vt 0.558490 0.653586
vt 0.585872 0.637361
vt 0.580769 0.637437
vt 0.565049 0.648893
vt 0.587194 0.632669
vt 0.585872 0.637361
vt 0.591255 0.629796
vt 0.591255 0.629796
vt 0.587194 0.632669
vt 0.565049 0.648893
vt 0.580769 0.637437
vt 0.565989 0.667179
vt 0.565989 0.667179
vt 0.585872 0.638744
vt 0.585872 0.638744
vt 0.548823 0.528506
vt 0.548810 0.528587
vt 0.535784 0.567073
vt 0.535801 0.566965
vt 0.582271 0.572551
vt 0.579168 0.533535
vt 0.581019 0.532278
vt 0.587966 0.573052
vt 0.587983 0.572945
vt 0.581032 0.532197
vt 0.579190 0.533397
vt 0.582302 0.572355
vt 0.556458 0.529501
vt 0.573360 0.531437
vt 0.573042 0.571415
vt 0.550686 0.568853
vt 0.573384 0.531283
vt 0.573082 0.571164
vt 0.550726 0.568603
vt 0.556483 0.529346
vt 0.550470 0.530106
vt 0.541481 0.567678
vt 0.550448 0.530244
vt 0.541451 0.567873
vt 0.572327 0.514505
vt 0.572314 0.514587
vt 0.555052 0.512609
vt 0.555065 0.512527
vt 0.574120 0.683183
vt 0.574138 0.683066
vt 0.549643 0.680259
vt 0.549625 0.680376
vt 0.587966 0.654272
vt 0.587983 0.654164
vt 0.582271 0.653771
vt 0.582302 0.653575
vt 0.573082 0.652384
vt 0.550726 0.649822
vt 0.541481 0.648897
vt 0.535801 0.648185
vt 0.535784 0.648292
vt 0.541451 0.649093
vt 0.550686 0.650073
vt 0.573042 0.652634
vn -0.5164 0.7810 -0.3512
vn -0.6136 0.4267 -0.6644
vn -0.7379 0.6749 0.0000
vn -0.5510 0.8345 0.0000
vn -0.8789 0.0687 -0.4721
vn -0.9922 0.1245 0.0000
vn -0.8789 0.0687 0.4721
vn -0.6136 0.4267 0.6644
vn -0.5164 0.7810 0.3512
vn -0.2049 0.2897 0.9349
vn -0.2970 -0.1574 0.9418
vn -0.0157 -0.0216 0.9996
vn -0.7232 -0.3832 0.5745
vn -0.4368 -0.7657 0.4721
vn 0.0084 -0.7474 0.6644
vn 0.1573 -0.3081 0.9383
vn 0.4704 -0.8071 0.3567
vn 0.1439 -0.9896 -0.0000
vn 0.4994 -0.8664 -0.0000
vn -0.4543 -0.8909 -0.0000
vn -0.4368 -0.7657 -0.4721
vn 0.0084 -0.7474 -0.6644
vn 0.4704 -0.8071 -0.3567
vn 0.1573 -0.3081 -0.9383
vn -0.2970 -0.1574 -0.9418
vn -0.0157 -0.0216 -0.9996
vn -0.7232 -0.3832 -0.5745
vn -0.2049 0.2897 -0.9349
vn -0.8836 -0.4682 0.0000
vn 0.2547 -0.2486 -0.9345
vn 0.0643 0.0242 -0.9976
vn -0.1525 0.3196 -0.9352
vn 0.5881 -0.7256 0.3572
vn 0.6296 -0.7769 -0.0000
vn 0.5881 -0.7256 -0.3572
vn -0.1525 0.3196 0.9352
vn 0.0643 0.0242 0.9976
vn 0.2547 -0.2486 0.9345
vn -0.4980 0.7917 -0.3540
vn -0.5324 0.8465 0.0000
vn -0.4980 0.7917 0.3540
vn -0.4484 0.8522 0.2697
vn -0.2800 0.9292 0.2414
vn 0.0971 0.9798 -0.1746
vn -0.4484 0.8522 -0.2697
vn -0.2804 0.6699 0.6875
vn -0.1168 0.7563 0.6437
vn 0.1884 0.8429 -0.5040
vn -0.2804 0.6699 -0.6875
vn 0.4191 0.6071 -0.6751
vn 0.6539 0.3424 -0.6747
vn 0.3503 -0.0500 -0.9353
vn -0.0072 0.3538 -0.9353
vn 0.8603 0.0874 -0.5022
vn 0.6310 -0.3595 -0.6875
vn -0.7416 -0.5039 0.4428
vn -0.8622 -0.4661 0.1984
vn -0.5818 -0.7867 0.2065
vn -0.5363 -0.7398 0.4062
vn 0.8884 -0.3905 -0.2414
vn 0.8884 -0.3905 0.2414
vn 0.7915 -0.5484 0.2697
vn 0.7915 -0.5484 -0.2697
vn 0.7366 -0.2076 0.6437
vn 0.6310 -0.3595 0.6875
vn -0.8657 -0.4638 -0.1884
vn -0.5780 -0.7928 -0.1933
vn 0.4643 0.0886 0.8813
vn 0.1442 0.4501 0.8813
vn -0.0072 0.3538 0.9353
vn 0.3503 -0.0500 0.9353
vn 0.2250 -0.1676 -0.9599
vn -0.1391 0.2436 -0.9599
vn -0.9463 -0.2603 -0.1919
vn -0.9463 -0.2603 0.1919
vn -0.3724 -0.9210 0.1143
vn -0.7411 -0.6709 0.0249
vn -0.7558 -0.6543 0.0249
vn -0.3986 -0.8954 -0.1984
vn -0.1391 0.2436 0.9599
vn 0.2250 -0.1676 0.9599
vn 0.6792 -0.6806 0.2746
vn 0.6792 -0.6806 -0.2746
vn -0.6429 -0.6916 0.3292
vn -0.7644 -0.5544 0.3292
vn -0.5234 -0.8047 0.2801
vn -0.5041 -0.8452 0.1777
vn 0.5115 -0.4899 0.7059
vn -0.4243 0.5671 0.7059
vn -0.8622 -0.4221 0.2801
vn -0.9003 -0.3958 0.1811
vn -0.5933 0.7567 -0.2746
vn -0.5933 0.7567 0.2746
vn -0.4723 -0.8781 -0.0771
vn -0.4723 -0.8781 0.0771
vn -0.5041 -0.8452 -0.1777
vn -0.5234 -0.8047 -0.2801
vn 0.5115 -0.4899 -0.7059
vn -0.7515 -0.5599 -0.3489
vn -0.6449 -0.6914 -0.3257
vn -0.6384 -0.6982 -0.3241
vn -0.8212 -0.4852 -0.3004
vn -0.8785 -0.4036 -0.2555
vn -0.4243 0.5671 -0.7059
vn -0.9305 -0.3578 0.0790
vn -0.9206 -0.3801 -0.0901
vn -0.9192 -0.3809 -0.0996
vn 0.6552 0.7467 0.1151
vn 0.6439 0.7513 -0.1447
vn 0.5540 0.8304 0.0593
vn 0.5697 0.7920 0.2194
vn 0.8219 0.5513 -0.1431
vn 0.8189 0.5626 0.1141
vn 0.8891 0.4540 0.0583
vn 0.8932 0.4465 -0.0535
vn 0.8544 0.4729 0.2154
vn 0.6918 0.6825 0.2360
vn 0.7618 0.6037 0.2351
vn -0.4218 -0.8945 -0.1480
vn -0.4220 -0.8934 0.1541
vn -0.5909 -0.7860 0.1821
vn -0.5906 -0.7873 -0.1770
vn 0.5507 -0.6751 0.4908
vn 0.4940 -0.7573 0.4271
vn 0.5754 -0.8031 0.1545
vn 0.7222 -0.6671 0.1826
vn 0.7225 -0.6685 -0.1765
vn 0.5757 -0.8043 -0.1476
vn 0.4946 -0.7605 -0.4206
vn 0.5515 -0.6788 -0.4849
vn -0.0740 -0.8606 0.5040
vn 0.2269 -0.8333 0.5041
vn 0.2441 -0.7086 0.6621
vn -0.1135 -0.7409 0.6619
vn 0.2276 -0.8371 -0.4974
vn 0.2451 -0.7135 -0.6563
vn -0.1125 -0.7459 -0.6565
vn -0.0732 -0.8643 -0.4976
vn -0.3497 -0.8369 -0.4210
vn -0.4202 -0.7668 -0.4853
vn -0.3503 -0.8337 0.4268
vn -0.4210 -0.7631 0.4904
vn 0.2375 -0.9603 -0.1461
vn 0.2373 -0.9592 0.1537
vn -0.0613 -0.9862 0.1536
vn -0.0611 -0.9874 -0.1462
vn -0.0906 0.9959 -0.0043
vn -0.0906 0.9959 -0.0034
vn -0.0897 0.9960 -0.0034
vn -0.0897 0.9960 -0.0043
vn -0.0884 0.9961 -0.0068
vn -0.0884 0.9961 -0.0008
vn -0.0935 0.9956 -0.0072
vn -0.0935 0.9956 -0.0004
vn -0.0931 0.9956 -0.0056
vn -0.0872 0.9962 -0.0056
vn -0.0867 0.9962 -0.0004
vn -0.0919 0.9958 -0.0008
vn -0.0919 0.9957 -0.0068
vn -0.0867 0.9962 -0.0072
vn -0.0872 0.9962 -0.0020
vn -0.0931 0.9957 -0.0020
usemtl restaurant
s 1
f 5/1/1 9/2/2 25/3/3 24/4/4
f 9/2/2 1/5/5 10/6/6 25/3/3
f 25/3/3 10/6/6 2/7/7 18/8/8
f 24/4/4 25/3/3 18/8/8 6/9/9
f 6/9/10 18/8/8 26/10/11 23/11/12
f 18/8/8 2/7/7 12/12/13 26/10/11
f 26/10/11 12/12/13 4/13/14 19/14/15
f 23/11/12 26/10/11 19/14/15 7/15/16
f 7/15/17 19/14/15 27/16/18 22/17/19
f 19/14/15 4/13/14 14/18/20 27/16/18
f 27/16/18 14/18/20 3/19/21 20/20/22
f 22/17/19 27/16/18 20/20/22 8/21/23
f 8/21/24 20/20/22 28/22/25 21/23/26
f 20/20/22 3/19/21 16/24/27 28/22/25
f 28/22/25 16/24/27 1/5/5 9/2/2
f 21/23/26 28/22/25 9/2/2 5/1/28
f 4/13/14 12/12/13 29/25/29 14/18/20
f 12/12/13 2/7/7 10/6/6 29/25/29
f 29/25/29 10/6/6 1/5/5 16/24/27
f 14/18/20 29/25/29 16/24/27 3/19/21
f 15/26/30 8/21/24 21/23/26 30/27/31
f 30/27/31 21/23/26 5/1/28 17/28/32
f 13/29/33 7/15/17 22/17/19 31/30/34
f 31/30/34 22/17/19 8/21/23 15/26/35
f 11/31/36 6/9/10 23/11/12 32/32/37
f 32/32/37 23/11/12 7/15/16 13/29/38
f 17/28/39 5/1/1 24/4/4 33/33/40
f 33/33/40 24/4/4 6/9/9 11/31/41
f 56/34/42 74/35/43 75/36/44 57/37/45
f 38/38/46 76/39/47 74/35/43 56/34/42
f 57/37/45 75/36/44 77/40/48 39/41/49
f 78/42/50 79/43/51 55/44/52 54/45/53
f 77/40/48 78/42/50 54/45/53 39/41/49
f 55/44/52 79/43/51 80/46/54 40/47/55
f 44/48/56 59/49/57 58/50/58 35/51/59
f 81/52/60 82/53/61 53/54/62 52/55/63
f 80/46/54 81/52/60 52/55/63 40/47/55
f 53/54/62 82/53/61 83/56/64 41/57/65
f 59/49/57 61/58/66 60/59/67 58/50/58
f 84/60/68 85/61/69 51/62/70 50/63/71
f 83/56/64 84/60/68 50/63/71 41/57/65
f 51/62/70 85/61/69 76/39/47 38/38/46
f 54/45/53 55/44/52 67/64/72 66/65/73
f 36/66/74 61/58/66 59/49/57 37/67/75
f 35/51/59 58/50/58 42/68/76
f 60/59/67 61/58/66 48/69/77 47/70/78
f 44/48/56 37/67/75 59/49/57
f 42/68/76 58/50/58 60/59/67 34/71/79
f 61/58/66 36/66/74 48/69/77
f 34/71/79 60/59/67 47/70/78
f 50/63/71 51/62/70 63/72/80 62/73/81
f 52/55/63 53/54/62 65/74/82 64/75/83
f 62/76/84 63/77/85 47/78/78 48/79/77
f 46/80/86 62/76/84 48/79/77 36/81/87
f 41/57/65 50/63/71 62/73/81 46/82/88
f 63/72/80 51/62/70 38/38/46 49/83/89
f 47/78/78 63/77/85 49/84/90 34/85/91
f 56/34/42 57/37/45 69/86/92 68/87/93
f 64/88/94 65/89/95 36/81/87 37/90/96
f 45/91/97 64/88/94 37/90/96
f 40/47/55 52/55/63 64/75/83 45/92/98
f 65/74/82 53/54/62 41/57/65 46/82/88
f 36/81/87 65/89/95 46/80/86
f 66/93/99 67/94/100 44/95/101 35/96/102
f 43/97/103 66/93/99 35/96/102
f 39/41/49 54/45/53 66/65/73 43/98/104
f 67/64/72 55/44/52 40/47/55 45/92/98
f 44/95/101 67/94/100 45/91/97 37/90/96
f 68/99/105 69/100/106 42/101/107 34/85/91
f 34/85/91 49/84/90 68/99/105
f 49/83/89 38/38/46 56/34/42 68/87/93
f 69/86/92 57/37/45 39/41/49 43/98/104
f 42/101/107 69/100/106 43/97/103 35/96/102
f 70/102/108 71/103/109 75/104/44 74/105/110
f 70/102/108 74/105/110 76/106/111
f 71/103/109 77/107/48 75/104/44
f 71/103/109 72/108/112 79/109/51 78/110/50
f 71/103/109 78/110/50 77/107/48
f 72/108/112 80/111/54 79/109/51
f 72/108/112 73/112/113 82/113/114 81/114/115
f 72/108/112 81/114/115 80/111/54
f 73/112/113 83/115/116 82/113/114
f 73/112/113 70/102/108 85/116/117 84/117/118
f 73/112/113 84/117/118 83/115/116
f 70/102/108 76/106/111 85/116/117
f 71/118/109 70/119/108 73/120/113 72/121/112
f 95/122/119 96/123/120 114/124/121 113/125/122
f 108/126/123 86/127/124 91/128/125 106/129/126
f 107/130/127 92/131/128 87/132/129 109/133/130
f 97/134/131 98/135/132 117/136/133 116/137/134
f 87/132/129 93/138/135 110/139/136 109/133/130
f 111/140/137 94/141/138 89/142/139 112/143/140
f 89/142/139 95/122/119 113/125/122 112/143/140
f 114/124/121 96/123/120 88/144/141 115/145/142
f 88/144/141 97/134/131 116/137/134 115/145/142
f 117/136/133 98/135/132 86/127/124 108/126/123
f 103/146/143 105/147/144 104/148/145 102/149/146
f 93/138/135 103/146/143 102/149/146 94/141/138
f 91/128/125 105/147/144 103/146/143 92/131/128
f 89/142/139 94/141/138 102/149/146 95/122/119
f 104/148/145 105/147/144 98/135/132 97/134/131
f 93/138/135 87/132/129 92/131/128 103/146/143
f 95/122/119 102/149/146 104/148/145 96/123/120
f 105/147/144 91/128/125 86/127/124 98/135/132
f 96/123/120 104/148/145 97/134/131 88/144/141
f 93/138/135 94/141/138 111/140/137 110/139/136
f 91/128/125 92/131/128 107/130/127 106/129/126
f 90/150/147 99/151/148 100/152/149 101/153/150
f 99/151/148 90/150/147 106/154/151 107/155/152
f 90/150/147 108/156/153 106/154/151
f 99/151/148 107/155/152 109/157/154
f 100/152/149 99/151/148 110/158/155 111/159/156
f 99/151/148 109/157/154 110/158/155
f 100/152/149 111/159/156 112/160/157
f 101/153/150 100/152/149 113/161/158 114/162/159
f 100/152/149 112/160/157 113/161/158
f 101/153/150 114/162/159 115/163/160
f 90/150/147 101/153/150 116/164/161 117/165/162
f 101/153/150 115/163/160 116/164/161
f 90/150/147 117/165/162 108/156/153
