# Blender v3.4.1 OBJ File: 'restaurant_bits_extra_export.blend'
# www.blender.org
mtllib food_ingredient_mushroom.mtl
o food_ingredient_mushroom_Cube.18456
v -0.068894 -0.191377 -0.052030
v -0.068894 -0.191377 0.024294
v 0.005287 -0.209329 -0.052030
v 0.005287 -0.209329 0.024294
v -0.066390 -0.101824 -0.070660
v -0.066390 -0.101824 0.042923
v 0.044007 -0.128541 0.042923
v 0.044007 -0.128541 -0.070660
v -0.075148 -0.159416 -0.065625
v -0.077417 -0.194906 -0.013868
v -0.034825 0.114646 0.031614
v -0.033082 -0.205635 0.031747
v 0.058030 0.112775 0.031614
v 0.011253 -0.216365 -0.013868
v 0.058030 0.112775 -0.059351
v -0.033082 -0.205635 -0.059483
v -0.034825 0.114646 -0.059351
v -0.075148 -0.159416 0.037889
v 0.025462 -0.183765 0.037889
v 0.025462 -0.183765 -0.065625
v -0.011192 -0.115183 -0.091956
v 0.064706 -0.133550 -0.013868
v -0.011191 -0.115182 0.064220
v -0.087089 -0.096815 -0.013868
v -0.093999 -0.155405 -0.013868
v -0.024969 -0.172111 0.057155
v 0.044061 -0.188817 -0.013868
v -0.024969 -0.172111 -0.084891
v -0.035765 -0.216721 -0.013868
v 0.011203 0.113608 -0.076407
v 0.076261 0.112626 -0.013868
v 0.011203 0.113608 0.048670
v -0.052485 0.114934 -0.013868
v -0.164566 0.030552 0.134864
v -0.108786 0.325045 0.123616
v -0.120033 0.030553 -0.166487
v -0.108786 0.325045 -0.110706
v 0.181317 0.030552 0.134864
v 0.125536 0.325045 0.123616
v 0.181317 0.030553 -0.121954
v 0.125536 0.325045 -0.110706
v -0.191864 0.150933 0.206694
v -0.191864 0.150933 -0.193785
v 0.208615 0.150933 -0.193785
v 0.208615 0.150933 0.206694
v -0.176322 0.033447 -0.089177
v -0.158151 0.255854 0.172982
v -0.123018 0.334250 0.075403
v -0.123018 0.334250 -0.062493
v -0.195501 0.062134 -0.197422
v 0.104007 0.033447 -0.178242
v -0.060573 0.334250 -0.124938
v 0.077324 0.334250 -0.124938
v 0.212252 0.062134 -0.197422
v 0.139769 0.334250 -0.062493
v 0.139769 0.334250 0.075403
v 0.212252 0.062134 0.210332
v -0.087256 0.033447 0.191152
v 0.104007 0.033447 0.191152
v 0.077324 0.334250 0.137848
v -0.060573 0.334250 0.137848
v -0.195501 0.062134 0.210332
v -0.158151 0.255854 -0.160072
v 0.174902 0.255854 -0.160072
v 0.174902 0.255854 0.172982
v 0.117881 0.150933 0.263012
v -0.101131 0.150933 0.263012
v 0.264932 0.150933 -0.103051
v 0.264932 0.150933 0.115961
v -0.101131 0.150933 -0.250102
v 0.117881 0.150933 -0.250102
v -0.248182 0.150933 0.115961
v -0.248182 0.150933 -0.103051
v -0.204497 0.256536 0.097654
v -0.204497 0.256536 -0.084744
v -0.082824 0.256536 -0.206417
v 0.099575 0.256536 -0.206417
v 0.221247 0.256536 -0.084744
v 0.221247 0.256536 0.097654
v 0.099575 0.256536 0.219327
v -0.082824 0.256536 0.219327
v -0.093545 0.071170 -0.095465
v 0.110296 0.071170 -0.095465
v -0.093545 0.071170 0.108375
v 0.110296 0.071170 0.108375
v 0.078795 0.353947 -0.063965
v -0.062045 0.353947 -0.063965
v 0.078795 0.353947 0.076875
v -0.062045 0.353947 0.076875
v 0.119835 0.061698 0.267804
v -0.103085 0.061698 0.267804
v 0.269725 0.061698 -0.105005
v 0.269725 0.061698 0.117915
v -0.103085 0.061698 -0.254894
v 0.119835 0.061698 -0.254894
v -0.252974 0.061698 0.117915
v -0.252974 0.061698 -0.105005
vt 0.556163 0.533772
vt 0.555025 0.524291
vt 0.552574 0.524951
vt 0.553472 0.534597
vt 0.555838 0.519030
vt 0.554730 0.518449
vt 0.555838 0.519030
vt 0.555025 0.524291
vt 0.556163 0.533772
vt 0.561549 0.522201
vt 0.563340 0.531573
vt 0.560494 0.516683
vt 0.565483 0.516074
vt 0.568106 0.520283
vt 0.570517 0.529374
vt 0.570524 0.519451
vt 0.573208 0.528549
vt 0.566259 0.514916
vt 0.565483 0.516074
vt 0.568106 0.520283
vt 0.570517 0.529374
vt 0.561549 0.522201
vt 0.563340 0.531573
vt 0.560494 0.516683
vt 0.560146 0.514858
vt 0.572340 0.569099
vt 0.566252 0.569236
vt 0.560268 0.569407
vt 0.572340 0.569099
vt 0.574710 0.569074
vt 0.560268 0.569407
vt 0.566252 0.569236
vt 0.557971 0.569454
vt 0.532528 0.606630
vt 0.538207 0.624015
vt 0.538207 0.624015
vt 0.532528 0.606630
vt 0.582968 0.668058
vt 0.582968 0.668058
vt 0.593561 0.624015
vt 0.593561 0.624015
vt 0.539850 0.606630
vt 0.544233 0.623902
vt 0.550652 0.666543
vt 0.548801 0.668058
vt 0.548801 0.668058
vt 0.550652 0.666543
vt 0.544233 0.623902
vt 0.539850 0.606630
vt 0.574849 0.668058
vt 0.556920 0.668058
vt 0.554027 0.624015
vt 0.577742 0.624015
vt 0.554027 0.624015
vt 0.577742 0.624015
vt 0.580122 0.606630
vt 0.551647 0.606630
vt 0.556920 0.668058
vt 0.574849 0.668058
vt 0.581118 0.666543
vt 0.587536 0.623902
vt 0.591919 0.606630
vt 0.578318 0.523571
vt 0.579135 0.527742
vt 0.552633 0.527742
vt 0.549189 0.523251
vt 0.599241 0.606630
vt 0.599241 0.606630
vt 0.581118 0.666543
vt 0.587536 0.623902
vt 0.591919 0.606630
vt 0.579135 0.527742
vt 0.552633 0.527742
vt 0.551647 0.606630
vt 0.580122 0.606630
vt 0.580376 0.583557
vt 0.551392 0.583557
vt 0.588370 0.523251
vt 0.588370 0.523251
vt 0.541870 0.523571
vt 0.578318 0.523571
vt 0.553450 0.523571
vt 0.543399 0.523251
vt 0.556728 0.671300
vt 0.556728 0.671300
vt 0.575040 0.671300
vt 0.575040 0.671300
vt 0.551392 0.583557
vt 0.580376 0.583557
vt 0.599864 0.583557
vt 0.599864 0.583557
vt 0.580376 0.567510
vt 0.551392 0.567510
vt 0.553450 0.556040
vt 0.578318 0.556040
vt 0.592392 0.567547
vt 0.588370 0.555564
vt 0.592392 0.583593
vt 0.539377 0.583593
vt 0.539377 0.567547
vt 0.543399 0.555564
vt 0.531904 0.583557
vt 0.531904 0.583557
vt 0.599864 0.567510
vt 0.599864 0.567510
vt 0.588370 0.555564
vt 0.592392 0.567547
vt 0.592392 0.583593
vt 0.551392 0.567510
vt 0.580376 0.567510
vt 0.578318 0.556040
vt 0.549189 0.555564
vt 0.539377 0.567547
vt 0.539377 0.583593
vt 0.531904 0.567510
vt 0.531904 0.567510
vt 0.541870 0.556040
vn -0.9271 0.1310 -0.3512
vn -0.7263 -0.1766 -0.6644
vn -0.9945 -0.1051 0.0000
vn -0.9901 0.1406 0.0000
vn -0.6340 -0.6125 -0.4721
vn -0.7509 -0.6604 -0.0000
vn -0.6340 -0.6125 0.4721
vn -0.7263 -0.1766 0.6644
vn -0.9271 0.1310 0.3512
vn -0.3527 0.0387 0.9349
vn -0.0791 -0.3267 0.9418
vn 0.0057 -0.0261 0.9996
vn -0.1925 -0.7955 0.5745
vn 0.2838 -0.8346 0.4721
vn 0.5652 -0.4891 0.6644
vn 0.3349 -0.0865 0.9383
vn 0.9162 -0.1828 0.3567
vn 0.8363 -0.5482 0.0000
vn 0.9797 -0.2004 -0.0000
vn 0.3659 -0.9307 0.0000
vn 0.2838 -0.8346 -0.4721
vn 0.5652 -0.4891 -0.6644
vn 0.9162 -0.1828 -0.3567
vn 0.3349 -0.0865 -0.9383
vn -0.0791 -0.3267 -0.9418
vn 0.0057 -0.0261 -0.9996
vn -0.1925 -0.7955 -0.5745
vn -0.3527 0.0387 -0.9349
vn -0.2352 -0.9719 -0.0000
vn 0.3549 0.0259 -0.9345
vn 0.0245 0.0642 -0.9976
vn -0.3404 0.0977 -0.9352
vn 0.9331 -0.0407 0.3572
vn 0.9991 -0.0435 0.0000
vn 0.9331 -0.0407 -0.3572
vn -0.3404 0.0977 0.9352
vn 0.0245 0.0642 0.9976
vn 0.3549 0.0259 0.9345
vn -0.9228 0.1519 -0.3540
vn -0.9867 0.1625 0.0000
vn -0.9228 0.1519 0.3540
vn -0.9353 0.2291 0.2697
vn -0.7963 0.5644 0.2177
vn -0.7963 0.5644 -0.2177
vn -0.9353 0.2291 -0.2697
vn 0.5008 0.8523 -0.1510
vn 0.5008 0.8523 0.1510
vn 0.7963 0.5644 0.2177
vn 0.7963 0.5644 -0.2177
vn -0.6875 0.2341 0.6875
vn -0.5830 0.5658 0.5830
vn -0.4239 0.8004 0.4239
vn -0.5008 0.8523 0.1510
vn -0.5008 0.8523 -0.1510
vn -0.4239 0.8004 -0.4239
vn -0.5830 0.5658 -0.5830
vn -0.6875 0.2341 -0.6875
vn 0.1510 0.8523 0.5008
vn -0.1510 0.8523 0.5008
vn -0.2177 0.5644 0.7963
vn 0.2177 0.5644 0.7963
vn -0.2177 0.5644 -0.7963
vn 0.2177 0.5644 -0.7963
vn 0.2697 0.2291 -0.9353
vn -0.2697 0.2291 -0.9353
vn -0.1510 0.8523 -0.5008
vn 0.1510 0.8523 -0.5008
vn 0.4239 0.8004 -0.4239
vn 0.5830 0.5658 -0.5830
vn 0.6875 0.2341 -0.6875
vn -0.1143 -0.8893 0.4428
vn -0.2226 -0.9545 0.1984
vn 0.2033 -0.9571 0.2065
vn 0.1984 -0.8920 0.4062
vn 0.9353 0.2291 0.2697
vn 0.9353 0.2291 -0.2697
vn 0.4239 0.8004 0.4239
vn 0.5830 0.5658 0.5830
vn 0.6875 0.2341 0.6875
vn -0.2265 -0.9556 -0.1884
vn 0.2105 -0.9583 -0.1933
vn -0.2697 0.2291 0.9353
vn 0.2697 0.2291 0.9353
vn 0.2746 0.0574 -0.9599
vn -0.2746 0.0574 -0.9599
vn -0.4323 -0.8811 -0.1919
vn -0.4323 -0.8811 0.1919
vn 0.4428 -0.8893 0.1143
vn 0.0111 -0.9996 0.0249
vn -0.0111 -0.9996 0.0249
vn 0.4062 -0.8920 -0.1984
vn -0.1499 0.9773 -0.1499
vn -0.1499 0.9773 0.1499
vn 0.1499 0.9773 0.1499
vn 0.1499 0.9773 -0.1499
vn -0.2746 0.0574 0.9599
vn 0.2746 0.0574 0.9599
vn 0.9599 0.0574 0.2746
vn 0.9599 0.0574 -0.2746
vn 0.0916 -0.9398 0.3292
vn -0.0916 -0.9398 0.3292
vn 0.2555 -0.9253 0.2801
vn 0.2986 -0.9377 0.1777
vn 0.7059 0.0582 0.7059
vn -0.7059 0.0582 0.7059
vn -0.2555 -0.9253 0.2801
vn -0.3004 -0.9365 0.1811
vn -0.9599 0.0574 -0.2746
vn -0.9599 0.0574 0.2746
vn 0.3444 -0.9357 -0.0771
vn 0.3444 -0.9357 0.0771
vn 0.2986 -0.9377 -0.1777
vn 0.2555 -0.9253 -0.2801
vn 0.7059 0.0582 -0.7059
vn -0.0790 -0.9338 -0.3489
vn 0.0901 -0.9412 -0.3257
vn 0.0996 -0.9408 -0.3241
vn -0.1811 -0.9365 -0.3004
vn -0.2801 -0.9253 -0.2555
vn -0.7059 0.0582 -0.7059
vn -0.3489 -0.9338 0.0790
vn -0.3257 -0.9412 -0.0901
vn -0.3241 -0.9408 -0.0996
usemtl restaurant
s 1
f 5/1/1 9/2/2 25/3/3 24/4/4
f 9/2/2 1/5/5 10/6/6 25/3/3
f 25/3/3 10/6/6 2/7/7 18/8/8
f 24/4/4 25/3/3 18/8/8 6/9/9
f 6/9/10 18/8/8 26/10/11 23/11/12
f 18/8/8 2/7/7 12/12/13 26/10/11
f 26/10/11 12/12/13 4/13/14 19/14/15
f 23/11/12 26/10/11 19/14/15 7/15/16
f 7/15/17 19/14/15 27/16/18 22/17/19
f 19/14/15 4/13/14 14/18/20 27/16/18
f 27/16/18 14/18/20 3/19/21 20/20/22
f 22/17/19 27/16/18 20/20/22 8/21/23
f 8/21/24 20/20/22 28/22/25 21/23/26
f 20/20/22 3/19/21 16/24/27 28/22/25
f 28/22/25 16/24/27 1/5/5 9/2/2
f 21/23/26 28/22/25 9/2/2 5/1/28
f 4/13/14 12/12/13 29/25/29 14/18/20
f 12/12/13 2/7/7 10/6/6 29/25/29
f 29/25/29 10/6/6 1/5/5 16/24/27
f 14/18/20 29/25/29 16/24/27 3/19/21
f 15/26/30 8/21/24 21/23/26 30/27/31
f 30/27/31 21/23/26 5/1/28 17/28/32
f 13/29/33 7/15/17 22/17/19 31/30/34
f 31/30/34 22/17/19 8/21/23 15/26/35
f 11/31/36 6/9/10 23/11/12 32/32/37
f 32/32/37 23/11/12 7/15/16 13/29/38
f 17/28/39 5/1/1 24/4/4 33/33/40
f 33/33/40 24/4/4 6/9/9 11/31/41
f 72/34/42 74/35/43 75/36/44 73/37/45
f 55/38/46 56/39/47 79/40/48 78/41/49
f 42/42/50 47/43/51 74/35/43 72/34/42
f 47/43/51 35/44/52 48/45/53 74/35/43
f 75/36/44 49/46/54 37/47/55 63/48/56
f 73/37/45 75/36/44 63/48/56 43/49/57
f 60/50/58 61/51/59 81/52/60 80/53/61
f 76/54/62 77/55/63 71/56/64 70/57/65
f 63/48/56 76/54/62 70/57/65 43/49/57
f 37/47/55 52/58/66 76/54/62 63/48/56
f 77/55/63 53/59/67 41/60/68 64/61/69
f 71/56/64 77/55/63 64/61/69 44/62/70
f 51/63/71 83/64/72 82/65/73 36/66/74
f 78/41/49 79/40/48 69/67/75 68/68/76
f 64/61/69 78/41/49 68/68/76 44/62/70
f 41/60/68 55/38/46 78/41/49 64/61/69
f 79/40/48 56/39/47 39/69/77 65/70/78
f 69/67/75 79/40/48 65/70/78 45/71/79
f 83/64/72 85/72/80 84/73/81 82/65/73
f 80/53/61 81/52/60 67/74/82 66/75/83
f 65/70/78 80/53/61 66/75/83 45/71/79
f 39/69/77 60/50/58 80/53/61 65/70/78
f 81/52/60 61/51/59 35/44/52 47/43/51
f 67/74/82 81/52/60 47/43/51 42/42/50
f 70/57/65 71/56/64 95/76/84 94/77/85
f 38/78/86 85/72/80 83/64/72 40/79/87
f 36/66/74 82/65/73 46/80/88
f 84/73/81 85/72/80 59/81/89 58/82/90
f 51/63/71 40/79/87 83/64/72
f 46/80/88 82/65/73 84/73/81 34/83/91
f 85/72/80 38/78/86 59/81/89
f 87/84/92 89/85/93 88/86/94 86/87/95
f 34/83/91 84/73/81 58/82/90
f 52/58/66 87/84/92 86/87/95 53/59/67
f 48/45/53 89/85/93 87/84/92 49/46/54
f 41/60/68 53/59/67 86/87/95 55/38/46
f 88/86/94 89/85/93 61/51/59 60/50/58
f 52/58/66 37/47/55 49/46/54 87/84/92
f 55/38/46 86/87/95 88/86/94 56/39/47
f 89/85/93 48/45/53 35/44/52 61/51/59
f 66/75/83 67/74/82 91/88/96 90/89/97
f 56/39/47 88/86/94 60/50/58 39/69/77
f 68/68/76 69/67/75 93/90/98 92/91/99
f 90/92/100 91/93/101 58/94/90 59/95/89
f 57/96/102 90/92/100 59/95/89 38/97/103
f 45/71/79 66/75/83 90/89/97 57/98/104
f 91/88/96 67/74/82 42/42/50 62/99/105
f 58/94/90 91/93/101 62/100/106 34/101/107
f 72/34/42 73/37/45 97/102/108 96/103/109
f 92/104/110 93/105/111 38/97/103 40/106/112
f 54/107/113 92/104/110 40/106/112
f 44/62/70 68/68/76 92/91/99 54/108/114
f 93/90/98 69/67/75 45/71/79 57/98/104
f 38/97/103 93/105/111 57/96/102
f 94/109/115 95/110/116 51/111/117 36/112/118
f 50/113/119 94/109/115 36/112/118
f 43/49/57 70/57/65 94/77/85 50/114/120
f 95/76/84 71/56/64 44/62/70 54/108/114
f 51/111/117 95/110/116 54/107/113 40/106/112
f 52/58/66 53/59/67 77/55/63 76/54/62
f 96/115/121 97/116/122 46/117/123 34/101/107
f 34/101/107 62/100/106 96/115/121
f 62/99/105 42/42/50 72/34/42 96/103/109
f 97/102/108 73/37/45 43/49/57 50/114/120
f 46/117/123 97/116/122 50/113/119 36/112/118
f 48/45/53 49/46/54 75/36/44 74/35/43
