# Blender v3.4.1 OBJ File: 'restaurant_bits_extra_export.blend'
# www.blender.org
mtllib food_ingredient_dough_base.mtl
o food_ingredient_dough_base_Cylinder.925
v 0.012054 -0.000020 0.013814
v 0.011127 0.148340 0.012750
v 0.851611 -0.000020 -0.133963
v 0.899938 0.046122 -0.142470
v 0.899938 0.046122 0.170097
v 0.851562 -0.000020 0.161582
v 0.792846 0.046122 0.463814
v 0.750105 -0.000020 0.439180
v 0.531457 0.046122 0.630703
v 0.502851 -0.000020 0.596728
v 0.254565 0.046122 0.760868
v 0.241191 -0.000020 0.719669
v 0.017492 0.046122 0.858207
v 0.017193 -0.000020 0.811842
v -0.296304 0.046122 0.859537
v -0.279475 -0.000020 0.813380
v -0.567470 0.046122 0.703254
v -0.535959 -0.000020 0.665766
v -0.748696 0.046122 0.463814
v -0.707359 -0.000020 0.439362
v -0.850062 0.046122 0.155587
v -0.803156 -0.000020 0.147873
v -0.789940 0.046122 -0.142470
v -0.746274 -0.000020 -0.133960
v -0.768737 0.046122 -0.436186
v -0.726335 -0.000020 -0.411748
v -0.567470 0.046122 -0.675626
v -0.536063 -0.000020 -0.638262
v -0.296304 0.046122 -0.831910
v -0.279573 -0.000020 -0.786022
v 0.011127 0.148340 -0.776014
v 0.011777 0.105570 -0.864458
v 0.700828 0.105570 -0.513241
v 0.630159 0.148340 -0.460461
v 0.789328 0.148340 -0.124227
v 0.877911 0.105570 -0.138960
v 0.789282 0.148340 0.149719
v 0.877911 0.105570 0.165950
v 0.695240 0.148340 0.407030
v 0.773442 0.105570 0.452472
v 0.466056 0.148340 0.553064
v 0.518456 0.105570 0.615273
v 0.223518 0.148340 0.667021
v 0.248347 0.105570 0.742250
v 0.015890 0.148340 0.752458
v 0.017081 0.105570 0.837205
v -0.259097 0.148340 0.753883
v -0.289028 0.105570 0.838502
v -0.496837 0.148340 0.617056
v -0.553552 0.105570 0.686047
v -0.655711 0.148340 0.407199
v -0.730339 0.105570 0.452472
v -0.744507 0.148340 0.137012
v -0.829222 0.105570 0.151796
v -0.691782 0.148340 -0.124225
v -0.770572 0.105570 -0.138960
v -0.673300 0.148340 -0.381711
v -0.749889 0.105570 -0.425481
v -0.496933 0.148340 -0.591671
v -0.553552 0.105570 -0.659056
v -0.259188 0.148340 -0.728633
v -0.289029 0.105570 -0.811511
v 0.012054 -0.000020 -0.837138
v 0.012054 0.046122 -0.886186
v 0.277469 0.046122 -0.739044
v 0.262934 -0.000020 -0.697817
v 0.457020 0.046122 -0.713353
v 0.432678 -0.000020 -0.673574
v 0.718409 0.046122 -0.526149
v 0.679893 -0.000020 -0.496706
v 0.270689 0.105570 -0.720921
v 0.243672 0.148340 -0.646874
v 0.401011 0.148340 -0.624403
v 0.445842 0.105570 -0.695859
vt 0.592571 0.575985
vt 0.591503 0.663174
vt 0.586439 0.663174
vt 0.587379 0.575985
vt 0.549526 0.553325
vt 0.590228 0.537700
vt 0.590226 0.537700
vt 0.585307 0.537700
vt 0.573320 0.537700
vt 0.560635 0.537700
vt 0.549776 0.537700
vt 0.535393 0.537700
vt 0.522959 0.537700
vt 0.514649 0.537700
vt 0.510005 0.537700
vt 0.512763 0.537700
vt 0.513729 0.537700
vt 0.522954 0.537700
vt 0.535389 0.537700
vt 0.549526 0.537700
vt 0.583771 0.575985
vt 0.582918 0.663174
vt 0.591503 0.663174
vt 0.592571 0.575985
vt 0.581903 0.537700
vt 0.574077 0.663174
vt 0.574707 0.575985
vt 0.560982 0.663174
vt 0.561283 0.575985
vt 0.549770 0.663174
vt 0.549790 0.575985
vt 0.534930 0.663174
vt 0.534577 0.575985
vt 0.522106 0.663174
vt 0.521431 0.575985
vt 0.513535 0.663174
vt 0.512645 0.575985
vt 0.508741 0.663174
vt 0.507731 0.575985
vt 0.511585 0.663174
vt 0.510646 0.575985
vt 0.512587 0.663174
vt 0.511674 0.575985
vt 0.522106 0.663174
vt 0.521431 0.575985
vt 0.534930 0.663174
vt 0.534577 0.575985
vt 0.549513 0.663174
vt 0.549526 0.575985
vt 0.549482 0.560320
vt 0.549482 0.622820
vt 0.536377 0.622820
vt 0.579492 0.622820
vt 0.568383 0.622820
vt 0.582647 0.622820
vt 0.587207 0.622820
vt 0.571537 0.622820
vt 0.559778 0.622820
vt 0.549713 0.622820
vt 0.536381 0.622820
vt 0.524855 0.622820
vt 0.517153 0.622820
vt 0.512848 0.622820
vt 0.515405 0.622820
vt 0.516300 0.622820
vt 0.524851 0.622820
vt 0.561689 0.537700
vt 0.560755 0.622820
vt 0.587209 0.622820
vt 0.569918 0.537700
vt 0.562394 0.575985
vt 0.562065 0.663174
vt 0.570557 0.663174
vt 0.571098 0.575985
vt 0.579492 0.638445
vt 0.587209 0.638445
vt 0.590226 0.568950
vt 0.590228 0.568950
vt 0.587207 0.638445
vt 0.585307 0.568950
vt 0.582647 0.638445
vt 0.573320 0.568950
vt 0.571537 0.638445
vt 0.560635 0.568950
vt 0.559778 0.638445
vt 0.549776 0.568950
vt 0.549713 0.638445
vt 0.535393 0.568950
vt 0.536381 0.638445
vt 0.522959 0.568950
vt 0.524855 0.638445
vt 0.514649 0.568950
vt 0.517153 0.638445
vt 0.510005 0.568950
vt 0.512848 0.638445
vt 0.512763 0.568950
vt 0.515405 0.638445
vt 0.513729 0.568950
vt 0.516300 0.638445
vt 0.522954 0.568950
vt 0.524851 0.638445
vt 0.535389 0.568950
vt 0.536377 0.638445
vt 0.549482 0.638445
vt 0.561689 0.568950
vt 0.549526 0.568950
vt 0.569918 0.568950
vt 0.560755 0.638445
vt 0.568383 0.638445
vt 0.581903 0.568950
vn 0.9214 0.3528 0.1631
vn 0.7421 0.6573 0.1310
vn 0.5984 0.6393 0.4829
vn 0.7361 0.3507 0.5790
vn 0.0000 -1.0000 0.0000
vn 0.4011 -0.9113 -0.0925
vn 0.3962 -0.9155 0.0701
vn 0.3300 -0.9012 0.2810
vn 0.0912 -0.9049 0.4157
vn -0.1023 -0.9074 0.4076
vn -0.2706 -0.9130 0.3053
vn -0.3608 -0.9137 0.1871
vn -0.4277 -0.9037 0.0191
vn -0.4045 -0.9017 -0.1526
vn -0.2593 -0.9148 -0.3096
vn -0.1378 -0.9149 -0.3794
vn 0.0867 -0.8988 -0.4296
vn 0.7227 0.3439 -0.5995
vn 0.5881 0.6420 -0.4919
vn 0.7407 0.6508 -0.1669
vn 0.9143 0.3507 -0.2026
vn 0.3214 -0.9072 -0.2716
vn 0.3724 0.6369 0.6750
vn 0.4601 0.3160 0.8297
vn 0.3101 0.6380 0.7049
vn 0.3822 0.3124 0.8697
vn 0.1515 0.6347 0.7578
vn 0.1785 0.3289 0.9274
vn -0.1953 0.6456 0.7383
vn -0.2438 0.3499 0.9045
vn -0.5021 0.6516 0.5686
vn -0.6188 0.3486 0.7040
vn -0.6742 0.6487 0.3531
vn -0.8317 0.3405 0.4385
vn -0.7727 0.6331 0.0449
vn -0.9407 0.3337 0.0616
vn -0.7518 0.6515 -0.1023
vn -0.9408 0.3140 -0.1278
vn -0.7177 0.6333 -0.2896
vn -0.8684 0.3403 -0.3606
vn -0.4881 0.6497 -0.5827
vn -0.6035 0.3421 -0.7203
vn -0.2596 0.6500 -0.7142
vn -0.3207 0.3423 -0.8832
vn 0.1304 0.6304 -0.7652
vn 0.1460 0.3402 -0.9289
vn 0.0000 1.0000 0.0000
vn 0.0564 0.9621 -0.2668
vn -0.0845 0.9689 -0.2325
vn 0.1964 0.9661 -0.1673
vn 0.0931 0.9628 -0.2538
vn 0.2005 0.9642 0.1738
vn 0.2391 0.9701 0.0421
vn 0.1206 0.9674 0.2228
vn 0.1009 0.9683 0.2284
vn 0.0576 0.9649 0.2563
vn -0.0617 0.9667 0.2485
vn -0.1650 0.9688 0.1852
vn -0.2209 0.9686 0.1139
vn -0.2655 0.9640 0.0102
vn -0.2314 0.9723 -0.0319
vn -0.2518 0.9633 -0.0929
vn -0.1590 0.9689 -0.1898
vn 0.0703 0.9757 -0.2074
vn 0.2433 0.9683 -0.0569
vn 0.1524 -0.9018 -0.4044
vn 0.3017 0.3093 -0.9018
vn 0.2387 0.6613 -0.7111
vn 0.2892 0.6275 -0.7230
vn 0.3599 0.3250 -0.8745
vn 0.6691 -0.7284 -0.1474
vn 0.6739 -0.7292 0.1191
vn 0.5434 -0.7272 0.4194
vn 0.3544 -0.6864 0.6351
vn 0.3476 -0.6857 0.6396
vn 0.2939 -0.6821 0.6696
vn 0.2954 -0.6820 0.6690
vn 0.1291 -0.7030 0.6993
vn -0.1819 -0.7280 0.6611
vn -0.4525 -0.7280 0.5150
vn -0.6127 -0.7209 0.3239
vn -0.6964 -0.7160 0.0486
vn -0.7143 -0.6932 -0.0962
vn -0.7140 -0.6932 -0.0984
vn -0.6338 -0.7251 -0.2693
vn -0.4410 -0.7270 -0.5263
vn -0.2344 -0.7272 -0.6452
vn 0.0996 -0.7247 -0.6819
vn 0.2306 -0.6872 -0.6889
vn 0.2322 -0.6872 -0.6884
vn 0.2738 -0.7065 -0.6526
vn 0.5312 -0.7242 -0.4397
usemtl restaurant
s 1
f 5/1/1 38/2/2 40/3/3 7/4/4
f 1/5/5 3/6/6 6/7/7
f 1/5/5 6/7/7 8/8/8
f 1/5/5 8/8/8 10/9/5
f 1/5/5 10/9/5 12/10/5
f 1/5/5 12/10/5 14/11/9
f 1/5/5 14/11/9 16/12/10
f 1/5/5 16/12/10 18/13/11
f 1/5/5 18/13/11 20/14/12
f 1/5/5 20/14/12 22/15/13
f 1/5/5 22/15/13 24/16/5
f 1/5/5 24/16/5 26/17/14
f 1/5/5 26/17/14 28/18/15
f 1/5/5 28/18/15 30/19/16
f 1/5/5 30/19/16 63/20/17
f 69/21/18 33/22/19 36/23/20 4/24/21
f 1/5/5 70/25/22 3/6/6
f 7/4/4 40/3/3 42/26/23 9/27/24
f 9/27/24 42/26/23 44/28/25 11/29/26
f 11/29/26 44/28/25 46/30/27 13/31/28
f 13/31/28 46/30/27 48/32/29 15/33/30
f 15/33/30 48/32/29 50/34/31 17/35/32
f 17/35/32 50/34/31 52/36/33 19/37/34
f 19/37/34 52/36/33 54/38/35 21/39/36
f 21/39/36 54/38/35 56/40/37 23/41/38
f 23/41/38 56/40/37 58/42/39 25/43/40
f 25/43/40 58/42/39 60/44/41 27/45/42
f 27/45/42 60/44/41 62/46/43 29/47/44
f 29/47/44 62/46/43 32/48/45 64/49/46
f 2/50/47 31/51/48 61/52/49
f 2/50/47 34/53/50 73/54/51
f 2/50/47 39/55/52 37/56/53
f 2/50/47 41/57/54 39/55/52
f 2/50/47 43/58/55 41/57/54
f 2/50/47 45/59/56 43/58/55
f 2/50/47 47/60/57 45/59/56
f 2/50/47 49/61/58 47/60/57
f 2/50/47 51/62/59 49/61/58
f 2/50/47 53/63/60 51/62/59
f 2/50/47 55/64/61 53/63/60
f 2/50/47 57/65/62 55/64/61
f 2/50/47 59/66/63 57/65/62
f 2/50/47 61/52/49 59/66/63
f 1/5/5 63/20/17 66/67/5
f 2/50/47 72/68/64 31/51/48
f 2/50/47 35/69/65 34/53/50
f 1/5/5 66/67/5 68/70/66
f 2/50/47 37/56/53 35/69/65
f 65/71/67 71/72/68 74/73/69 67/74/70
f 1/5/5 68/70/66 70/25/22
f 2/50/47 73/54/51 72/68/64
f 64/49/46 32/48/45 71/72/68 65/71/67
f 67/74/70 74/73/69 33/22/19 69/21/18
f 36/23/20 33/22/19 34/75/50 35/76/65
f 4/24/71 5/1/72 6/77/7 3/78/6
f 38/2/2 36/23/20 35/76/65 37/79/53
f 5/1/72 7/4/73 8/80/8 6/77/7
f 40/3/3 38/2/2 37/79/53 39/81/52
f 7/4/73 9/27/74 10/82/75 8/80/8
f 42/26/23 40/3/3 39/81/52 41/83/54
f 9/27/74 11/29/76 12/84/77 10/82/75
f 44/28/25 42/26/23 41/83/54 43/85/55
f 11/29/76 13/31/78 14/86/9 12/84/77
f 46/30/27 44/28/25 43/85/55 45/87/56
f 13/31/78 15/33/79 16/88/10 14/86/9
f 48/32/29 46/30/27 45/87/56 47/89/57
f 15/33/79 17/35/80 18/90/11 16/88/10
f 50/34/31 48/32/29 47/89/57 49/91/58
f 17/35/80 19/37/81 20/92/12 18/90/11
f 52/36/33 50/34/31 49/91/58 51/93/59
f 19/37/81 21/39/82 22/94/13 20/92/12
f 54/38/35 52/36/33 51/93/59 53/95/60
f 21/39/82 23/41/83 24/96/84 22/94/13
f 56/40/37 54/38/35 53/95/60 55/97/61
f 23/41/83 25/43/85 26/98/14 24/96/84
f 58/42/39 56/40/37 55/97/61 57/99/62
f 25/43/85 27/45/86 28/100/15 26/98/14
f 60/44/41 58/42/39 57/99/62 59/101/63
f 27/45/86 29/47/87 30/102/16 28/100/15
f 62/46/43 60/44/41 59/101/63 61/103/49
f 32/48/45 62/46/43 61/103/49 31/104/48
f 64/49/88 65/71/89 66/105/90 63/106/17
f 65/71/89 67/74/91 68/107/66 66/105/90
f 74/73/69 71/72/68 72/108/64 73/109/51
f 67/74/91 69/21/92 70/110/22 68/107/66
f 69/21/92 4/24/71 3/78/6 70/110/22
f 29/47/87 64/49/88 63/106/17 30/102/16
f 71/72/68 32/48/45 31/104/48 72/108/64
f 33/22/19 74/73/69 73/109/51 34/75/50
f 4/24/21 36/23/20 38/2/2 5/1/1
