# Blender v3.4.1 OBJ File: 'restaurant_bits_extra_export.blend'
# www.blender.org
mtllib food_ingredient_pepperoni_slices.mtl
o food_ingredient_pepperoni_slices_Cylinder.336
v -0.000989 0.210413 -0.301735
v 0.001235 0.185018 -0.304502
v -0.001496 0.224559 -0.432787
v -0.067346 0.226861 -0.415463
v 0.064271 0.220963 -0.414723
v 0.112332 0.217035 -0.366112
v 0.129810 0.213828 -0.299979
v 0.112022 0.212202 -0.234044
v 0.063733 0.212591 -0.185974
v -0.002118 0.214893 -0.168650
v -0.067884 0.218489 -0.186714
v -0.115946 0.222417 -0.235325
v -0.133424 0.225624 -0.301458
v -0.115635 0.227250 -0.367393
v -0.065906 0.200376 -0.419918
v 0.000838 0.198044 -0.437477
v 0.067498 0.194399 -0.419168
v 0.116212 0.190417 -0.369897
v 0.133927 0.187167 -0.302866
v 0.115896 0.185518 -0.236036
v 0.066952 0.185913 -0.187314
v 0.000208 0.188246 -0.169755
v -0.066452 0.191891 -0.188064
v -0.115166 0.195872 -0.237335
v -0.132881 0.199122 -0.304366
v -0.114850 0.200771 -0.371196
v 0.294069 0.214255 0.098736
v 0.291949 0.195480 0.095769
v 0.294659 0.221627 0.002308
v 0.245742 0.222790 0.015805
v 0.343625 0.220334 0.014940
v 0.379521 0.219257 0.050318
v 0.392728 0.218685 0.098961
v 0.379708 0.218771 0.147835
v 0.343948 0.219492 0.183846
v 0.295031 0.220655 0.197343
v 0.246065 0.221948 0.184710
v 0.210169 0.223025 0.149333
v 0.196962 0.223597 0.100690
v 0.209983 0.223511 0.051815
v 0.242858 0.203160 0.011558
v 0.292438 0.201981 -0.002123
v 0.342070 0.200671 0.010682
v 0.378453 0.199579 0.046539
v 0.391839 0.198999 0.095843
v 0.378642 0.199086 0.145381
v 0.342397 0.199817 0.181880
v 0.292816 0.200996 0.195560
v 0.243185 0.202306 0.182756
v 0.206802 0.203398 0.146899
v 0.193415 0.203978 0.097595
v 0.206613 0.203891 0.048057
v -0.398820 0.211475 0.199641
v -0.395306 0.192822 0.197291
v -0.308317 0.224637 0.168189
v -0.337083 0.222236 0.126438
v -0.304148 0.225344 0.218598
v -0.325691 0.224168 0.264159
v -0.367175 0.221423 0.292662
v -0.417484 0.217847 0.296471
v -0.463138 0.214395 0.274566
v -0.491903 0.211995 0.232814
v -0.496072 0.211288 0.182405
v -0.474529 0.212464 0.136845
v -0.433045 0.215208 0.108341
v -0.382736 0.218785 0.104532
v -0.332548 0.202765 0.122973
v -0.303392 0.205199 0.165291
v -0.299166 0.205915 0.216385
v -0.321002 0.204723 0.262564
v -0.363049 0.201941 0.291454
v -0.414041 0.198316 0.295315
v -0.460314 0.194818 0.273112
v -0.489470 0.192385 0.230794
v -0.493696 0.191668 0.179700
v -0.471860 0.192860 0.133521
v -0.429813 0.195642 0.104631
v -0.378821 0.199267 0.100770
v -0.501741 0.211475 -0.194889
v -0.498227 0.192822 -0.197239
v -0.411238 0.224637 -0.226341
v -0.440004 0.222236 -0.268092
v -0.407069 0.225344 -0.175932
v -0.428612 0.224168 -0.130371
v -0.470096 0.221423 -0.101868
v -0.520405 0.217847 -0.098059
v -0.566058 0.214395 -0.119964
v -0.594824 0.211995 -0.161716
v -0.598993 0.211288 -0.212125
v -0.577450 0.212464 -0.257685
v -0.535966 0.215208 -0.286189
v -0.485657 0.218785 -0.289998
v -0.435469 0.202765 -0.271557
v -0.406313 0.205199 -0.229239
v -0.402087 0.205915 -0.178145
v -0.423923 0.204723 -0.131966
v -0.465970 0.201941 -0.103076
v -0.516961 0.198316 -0.099215
v -0.563235 0.194818 -0.121418
v -0.592391 0.192385 -0.163736
v -0.596617 0.191668 -0.214830
v -0.574781 0.192860 -0.261009
v -0.532734 0.195642 -0.289899
v -0.481742 0.199267 -0.293760
v 0.500078 0.211867 -0.294111
v 0.503372 0.186589 -0.296878
v 0.498974 0.225980 -0.425163
v 0.433085 0.225497 -0.407839
v 0.564834 0.225165 -0.407099
v 0.613018 0.223272 -0.358488
v 0.630616 0.220806 -0.292355
v 0.612912 0.218430 -0.226420
v 0.564649 0.216778 -0.178350
v 0.498761 0.216295 -0.161026
v 0.432901 0.217110 -0.179090
v 0.384716 0.219003 -0.227701
v 0.367119 0.221469 -0.293834
v 0.384823 0.223846 -0.359769
v 0.435643 0.199097 -0.412294
v 0.502426 0.199586 -0.429854
v 0.569180 0.198761 -0.411544
v 0.618018 0.196842 -0.362273
v 0.635855 0.194343 -0.295243
v 0.617911 0.191934 -0.228412
v 0.568993 0.190260 -0.179690
v 0.502210 0.189771 -0.162131
v 0.435456 0.190596 -0.180440
v 0.386617 0.192515 -0.229711
v 0.368781 0.195014 -0.296742
v 0.386725 0.197423 -0.363572
v -0.001185 0.211867 0.502573
v 0.002110 0.186589 0.499806
v -0.002289 0.225980 0.371521
v -0.068178 0.225497 0.388845
v 0.063571 0.225165 0.389585
v 0.111755 0.223272 0.438196
v 0.129353 0.220806 0.504329
v 0.111649 0.218430 0.570264
v 0.063387 0.216778 0.618334
v -0.002502 0.216295 0.635657
v -0.068362 0.217110 0.617594
v -0.116546 0.219003 0.568983
v -0.134144 0.221469 0.502850
v -0.116440 0.223846 0.436915
v -0.065620 0.199097 0.384389
v 0.001163 0.199586 0.366830
v 0.067917 0.198761 0.385139
v 0.116756 0.196842 0.434410
v 0.134592 0.194343 0.501441
v 0.116648 0.191934 0.568271
v 0.067730 0.190260 0.616994
v 0.000947 0.189771 0.634553
v -0.065807 0.190596 0.616244
v -0.114645 0.192515 0.566973
v -0.132482 0.195014 0.499942
v -0.114537 0.197423 0.433112
vt 0.791974 0.361080
vt 0.791590 0.413170
vt 0.797355 0.416718
vt 0.797817 0.364676
vt 0.803125 0.419350
vt 0.803665 0.367344
vt 0.807355 0.420362
vt 0.807953 0.368369
vt 0.808910 0.419482
vt 0.809529 0.367477
vt 0.807375 0.416946
vt 0.807973 0.364907
vt 0.803160 0.413433
vt 0.803701 0.361347
vt 0.797395 0.409885
vt 0.797857 0.357750
vt 0.791625 0.407253
vt 0.792009 0.355082
vt 0.787396 0.406241
vt 0.787722 0.354057
vt 0.785840 0.407121
vt 0.786145 0.354949
vt 0.787375 0.409658
vt 0.787702 0.357520
vt 0.797537 0.336160
vt 0.803125 0.449531
vt 0.797355 0.446899
vt 0.807355 0.450543
vt 0.808910 0.449663
vt 0.807375 0.447127
vt 0.803160 0.443614
vt 0.797395 0.440066
vt 0.791625 0.437434
vt 0.787396 0.436422
vt 0.785840 0.437302
vt 0.787375 0.439838
vt 0.791590 0.443351
vt 0.797978 0.291768
vt 0.791974 0.297283
vt 0.797817 0.300879
vt 0.803665 0.303547
vt 0.807953 0.304572
vt 0.809529 0.303680
vt 0.807973 0.301110
vt 0.803701 0.297549
vt 0.797857 0.293953
vt 0.792009 0.291285
vt 0.787722 0.290260
vt 0.786145 0.291152
vt 0.787702 0.293722
vt 0.805158 0.360181
vt 0.805323 0.407547
vt 0.809591 0.409243
vt 0.809483 0.361899
vt 0.813908 0.409742
vt 0.813859 0.362405
vt 0.817120 0.408911
vt 0.817115 0.361563
vt 0.818365 0.406973
vt 0.818377 0.359599
vt 0.817310 0.404447
vt 0.817308 0.357039
vt 0.814236 0.402010
vt 0.814192 0.354568
vt 0.809970 0.400315
vt 0.809868 0.352850
vt 0.805652 0.399816
vt 0.805491 0.352344
vt 0.802441 0.400646
vt 0.802236 0.353186
vt 0.801195 0.402584
vt 0.800974 0.355150
vt 0.802251 0.405110
vt 0.802044 0.357711
vt 0.809744 0.329279
vt 0.813908 0.439922
vt 0.809591 0.439423
vt 0.817120 0.439092
vt 0.818365 0.437154
vt 0.817310 0.434628
vt 0.814236 0.432191
vt 0.809970 0.430495
vt 0.805652 0.429996
vt 0.802441 0.430827
vt 0.801195 0.432765
vt 0.802251 0.435291
vt 0.805323 0.437728
vt 0.809643 0.289362
vt 0.805158 0.296384
vt 0.809483 0.298102
vt 0.813859 0.298608
vt 0.817115 0.297766
vt 0.818377 0.295802
vt 0.817308 0.293241
vt 0.814192 0.290771
vt 0.809868 0.289053
vt 0.805491 0.288547
vt 0.802236 0.289389
vt 0.800974 0.291353
vt 0.802044 0.293914
vt 0.805158 0.360181
vt 0.805323 0.407547
vt 0.809591 0.409243
vt 0.809483 0.361899
vt 0.813908 0.409742
vt 0.813859 0.362405
vt 0.817120 0.408911
vt 0.817115 0.361563
vt 0.818365 0.406973
vt 0.818377 0.359599
vt 0.817310 0.404447
vt 0.817308 0.357039
vt 0.814236 0.402010
vt 0.814192 0.354568
vt 0.809970 0.400315
vt 0.809868 0.352850
vt 0.805652 0.399816
vt 0.805491 0.352344
vt 0.802441 0.400646
vt 0.802236 0.353186
vt 0.801195 0.402584
vt 0.800974 0.355150
vt 0.802251 0.405110
vt 0.802044 0.357711
vt 0.809744 0.329279
vt 0.813908 0.439922
vt 0.809591 0.439423
vt 0.817120 0.439092
vt 0.818365 0.437154
vt 0.817310 0.434628
vt 0.814236 0.432191
vt 0.809970 0.430495
vt 0.805652 0.429996
vt 0.802441 0.430827
vt 0.801195 0.432765
vt 0.802251 0.435291
vt 0.805323 0.437728
vt 0.809643 0.289362
vt 0.805158 0.296384
vt 0.809483 0.298102
vt 0.813859 0.298608
vt 0.817115 0.297766
vt 0.818377 0.295802
vt 0.817308 0.293241
vt 0.814192 0.290771
vt 0.809868 0.289053
vt 0.805491 0.288547
vt 0.802236 0.289389
vt 0.800974 0.291353
vt 0.802044 0.293914
vt 0.805158 0.360181
vt 0.805323 0.407547
vt 0.809591 0.409243
vt 0.809483 0.361899
vt 0.813908 0.409742
vt 0.813859 0.362405
vt 0.817120 0.408911
vt 0.817115 0.361563
vt 0.818365 0.406973
vt 0.818377 0.359599
vt 0.817310 0.404447
vt 0.817308 0.357039
vt 0.814236 0.402010
vt 0.814192 0.354568
vt 0.809970 0.400315
vt 0.809868 0.352850
vt 0.805652 0.399816
vt 0.805491 0.352344
vt 0.802441 0.400646
vt 0.802236 0.353186
vt 0.801195 0.402584
vt 0.800974 0.355150
vt 0.802251 0.405110
vt 0.802044 0.357711
vt 0.809744 0.329279
vt 0.813908 0.439922
vt 0.809591 0.439423
vt 0.817120 0.439092
vt 0.818365 0.437154
vt 0.817310 0.434628
vt 0.814236 0.432191
vt 0.809970 0.430495
vt 0.805652 0.429996
vt 0.802441 0.430827
vt 0.801195 0.432765
vt 0.802251 0.435291
vt 0.805323 0.437728
vt 0.809643 0.289362
vt 0.805158 0.296384
vt 0.809483 0.298102
vt 0.813859 0.298608
vt 0.817115 0.297766
vt 0.818377 0.295802
vt 0.817308 0.293241
vt 0.814192 0.290771
vt 0.809868 0.289053
vt 0.805491 0.288547
vt 0.802236 0.289389
vt 0.800974 0.291353
vt 0.802044 0.293914
vt 0.791974 0.361080
vt 0.791590 0.413170
vt 0.797355 0.416718
vt 0.797817 0.364676
vt 0.803125 0.419350
vt 0.803665 0.367344
vt 0.807355 0.420362
vt 0.807953 0.368369
vt 0.808910 0.419482
vt 0.809529 0.367477
vt 0.807375 0.416946
vt 0.807973 0.364907
vt 0.803160 0.413433
vt 0.803701 0.361347
vt 0.797395 0.409885
vt 0.797857 0.357750
vt 0.791625 0.407253
vt 0.792009 0.355082
vt 0.787396 0.406241
vt 0.787722 0.354057
vt 0.785840 0.407121
vt 0.786145 0.354949
vt 0.787375 0.409658
vt 0.787702 0.357520
vt 0.797537 0.336160
vt 0.803125 0.449531
vt 0.797355 0.446899
vt 0.807355 0.450543
vt 0.808910 0.449663
vt 0.807375 0.447127
vt 0.803160 0.443614
vt 0.797395 0.440066
vt 0.791625 0.437434
vt 0.787396 0.436422
vt 0.785840 0.437302
vt 0.787375 0.439838
vt 0.791590 0.443351
vt 0.797978 0.291768
vt 0.791974 0.297283
vt 0.797817 0.300879
vt 0.803665 0.303547
vt 0.807953 0.304572
vt 0.809529 0.303680
vt 0.807973 0.301110
vt 0.803701 0.297549
vt 0.797857 0.293953
vt 0.792009 0.291285
vt 0.787722 0.290260
vt 0.786145 0.291152
vt 0.787702 0.293722
vt 0.791974 0.361080
vt 0.791590 0.413170
vt 0.797355 0.416718
vt 0.797817 0.364676
vt 0.803125 0.419350
vt 0.803665 0.367344
vt 0.807355 0.420362
vt 0.807953 0.368369
vt 0.808910 0.419482
vt 0.809529 0.367477
vt 0.807375 0.416946
vt 0.807973 0.364907
vt 0.803160 0.413433
vt 0.803701 0.361347
vt 0.797395 0.409885
vt 0.797857 0.357750
vt 0.791625 0.407253
vt 0.792009 0.355082
vt 0.787396 0.406241
vt 0.787722 0.354057
vt 0.785840 0.407121
vt 0.786145 0.354949
vt 0.787375 0.409658
vt 0.787702 0.357520
vt 0.797537 0.336160
vt 0.803125 0.449531
vt 0.797355 0.446899
vt 0.807355 0.450543
vt 0.808910 0.449663
vt 0.807375 0.447127
vt 0.803160 0.443614
vt 0.797395 0.440066
vt 0.791625 0.437434
vt 0.787396 0.436422
vt 0.785840 0.437302
vt 0.787375 0.439838
vt 0.791590 0.443351
vt 0.797978 0.291768
vt 0.791974 0.297283
vt 0.797817 0.300879
vt 0.803665 0.303547
vt 0.807953 0.304572
vt 0.809529 0.303680
vt 0.807973 0.301110
vt 0.803701 0.297549
vt 0.797857 0.293953
vt 0.792009 0.291285
vt 0.787722 0.290260
vt 0.786145 0.291152
vt 0.787702 0.293722
vn -0.4700 0.1215 -0.8743
vn -0.5134 0.1152 -0.8504
vn -0.0090 0.1734 -0.9848
vn 0.0337 0.1770 -0.9836
vn 0.4936 0.2015 -0.8460
vn 0.5146 0.2020 -0.8333
vn 0.8569 0.1929 -0.4780
vn 0.8574 0.1928 -0.4772
vn 0.9884 0.1504 0.0202
vn 0.9882 0.1529 -0.0027
vn 0.8505 0.0847 0.5191
vn 0.8709 0.0904 0.4830
vn 0.4754 0.0132 0.8797
vn 0.5183 0.0196 0.8550
vn -0.0290 -0.0439 0.9986
vn 0.0147 -0.0401 0.9991
vn -0.5181 -0.0712 0.8523
vn -0.4962 -0.0706 0.8654
vn -0.8685 -0.0628 0.4917
vn -0.8681 -0.0628 0.4925
vn -0.9997 -0.0214 0.0083
vn -0.9997 -0.0188 -0.0155
vn -0.8748 0.0434 -0.4825
vn -0.8533 0.0493 -0.5191
vn 0.0438 0.9984 0.0370
vn 0.0086 0.9952 0.0979
vn 0.0441 0.9933 0.1071
vn -0.0174 0.9973 0.0720
vn -0.0266 0.9990 0.0364
vn -0.0165 0.9999 0.0011
vn 0.0098 0.9997 -0.0243
vn 0.0449 0.9984 -0.0332
vn 0.0797 0.9965 -0.0236
vn 0.1049 0.9945 0.0019
vn 0.1141 0.9928 0.0366
vn 0.1048 0.9919 0.0715
vn 0.0792 0.9921 0.0973
vn -0.0440 -0.9983 -0.0369
vn -0.0744 -0.9933 -0.0889
vn -0.0441 -0.9943 -0.0973
vn -0.0136 -0.9959 -0.0893
vn 0.0087 -0.9977 -0.0670
vn 0.0166 -0.9992 -0.0364
vn 0.0080 -0.9999 -0.0061
vn -0.0146 -0.9998 0.0158
vn -0.0449 -0.9987 0.0236
vn -0.0749 -0.9971 0.0153
vn -0.0967 -0.9953 -0.0067
vn -0.1046 -0.9938 -0.0366
vn -0.0965 -0.9931 -0.0667
vn -0.4840 0.2524 -0.8379
vn -0.4844 0.2524 -0.8376
vn 0.0114 0.2187 -0.9757
vn -0.0153 0.2216 -0.9750
vn 0.5124 0.1429 -0.8468
vn 0.4700 0.1512 -0.8696
vn 0.8773 0.0441 -0.4780
vn 0.8480 0.0552 -0.5272
vn 0.9986 -0.0486 0.0224
vn 0.9988 -0.0407 -0.0278
vn 0.8544 -0.1096 0.5079
vn 0.8691 -0.1073 0.4828
vn 0.4985 -0.1250 0.8578
vn 0.4989 -0.1250 0.8576
vn 0.0198 -0.0925 0.9955
vn -0.0083 -0.0894 0.9960
vn -0.4714 -0.0186 0.8817
vn -0.5146 -0.0098 0.8574
vn -0.8448 0.0793 0.5291
vn -0.8730 0.0903 0.4792
vn -0.9844 0.1734 0.0286
vn -0.9833 0.1810 -0.0203
vn -0.8489 0.2364 -0.4728
vn -0.8346 0.2385 -0.4965
vn 0.0256 0.9997 0.0057
vn -0.0100 0.9977 0.0665
vn 0.0255 0.9968 0.0764
vn -0.0356 0.9986 0.0403
vn -0.0449 0.9990 0.0051
vn -0.0355 0.9989 -0.0299
vn -0.0102 0.9984 -0.0554
vn 0.0245 0.9976 -0.0650
vn 0.0595 0.9967 -0.0560
vn 0.0856 0.9959 -0.0306
vn 0.0958 0.9954 0.0046
vn 0.0870 0.9954 0.0404
vn 0.0612 0.9959 0.0668
vn -0.0255 -0.9997 -0.0055
vn -0.0562 -0.9967 -0.0581
vn -0.0255 -0.9975 -0.0664
vn 0.0051 -0.9983 -0.0579
vn 0.0272 -0.9990 -0.0354
vn 0.0352 -0.9994 -0.0051
vn 0.0272 -0.9993 0.0251
vn 0.0054 -0.9989 0.0472
vn -0.0246 -0.9982 0.0554
vn -0.0548 -0.9974 0.0476
vn -0.0773 -0.9967 0.0257
vn -0.0860 -0.9963 -0.0046
vn -0.0784 -0.9963 -0.0354
vn 0.6127 0.2746 -0.7411
vn 0.6123 0.2745 -0.7414
vn 0.9067 0.2771 -0.3179
vn 0.8971 0.2785 -0.3430
vn 0.9544 0.2220 0.1998
vn 0.9614 0.2292 0.1520
vn 0.7333 0.1220 0.6689
vn 0.7693 0.1343 0.6246
vn 0.3083 0.0063 0.9513
vn 0.3551 0.0173 0.9347
vn -0.1916 -0.0916 0.9772
vn -0.1634 -0.0870 0.9827
vn -0.6363 -0.1480 0.7571
vn -0.6359 -0.1480 0.7574
vn -0.9247 -0.1508 0.3497
vn -0.9345 -0.1493 0.3232
vn -0.9832 -0.0979 -0.1538
vn -0.9751 -0.0901 -0.2028
vn -0.7802 -0.0002 -0.6255
vn -0.7432 0.0122 -0.6690
vn -0.3611 0.1158 -0.9253
vn -0.3153 0.1263 -0.9406
vn 0.1508 0.2162 -0.9646
vn 0.1777 0.2205 -0.9591
vn -0.0721 0.9974 -0.0074
vn -0.1408 0.9898 -0.0209
vn -0.1385 0.9902 0.0159
vn -0.1246 0.9908 -0.0537
vn -0.0944 0.9928 -0.0741
vn -0.0585 0.9953 -0.0768
vn -0.0261 0.9978 -0.0613
vn -0.0057 0.9995 -0.0316
vn -0.0027 1.0000 0.0044
vn -0.0180 0.9991 0.0374
vn -0.0478 0.9971 0.0587
vn -0.0844 0.9945 0.0622
vn -0.1178 0.9920 0.0465
vn 0.0720 -0.9974 0.0076
vn 0.1113 -0.9930 -0.0389
vn 0.1291 -0.9915 -0.0126
vn 0.1312 -0.9912 0.0191
vn 0.1172 -0.9920 0.0474
vn 0.0913 -0.9937 0.0650
vn 0.0603 -0.9959 0.0673
vn 0.0323 -0.9980 0.0540
vn 0.0147 -0.9995 0.0284
vn 0.0122 -0.9999 -0.0027
vn 0.0254 -0.9992 -0.0311
vn 0.0511 -0.9975 -0.0494
vn 0.0826 -0.9952 -0.0523
vn -0.4747 0.1016 -0.8743
vn -0.5178 0.0934 -0.8504
vn -0.0163 0.1729 -0.9848
vn 0.0261 0.1782 -0.9836
vn 0.4847 0.2222 -0.8460
vn 0.5056 0.2235 -0.8333
vn 0.8480 0.2289 -0.4780
vn 0.8484 0.2289 -0.4772
vn 0.9812 0.1921 0.0202
vn 0.9809 0.1945 -0.0027
vn 0.8462 0.1206 0.5191
vn 0.8663 0.1271 0.4830
vn 0.4744 0.0332 0.8797
vn 0.5170 0.0415 0.8550
vn -0.0271 -0.0451 0.9986
vn 0.0164 -0.0395 0.9991
vn -0.5147 -0.0930 0.8523
vn -0.4927 -0.0915 0.8654
vn -0.8651 -0.0994 0.4917
vn -0.8646 -0.0994 0.4925
vn -0.9979 -0.0636 0.0083
vn -0.9980 -0.0610 -0.0155
vn -0.8759 0.0064 -0.4825
vn -0.8546 0.0132 -0.5191
vn 0.0016 0.9993 0.0370
vn -0.0335 0.9946 0.0979
vn 0.0021 0.9943 0.1071
vn -0.0595 0.9956 0.0720
vn -0.0688 0.9970 0.0364
vn -0.0587 0.9983 0.0011
vn -0.0325 0.9992 -0.0243
vn 0.0027 0.9994 -0.0332
vn 0.0375 0.9990 -0.0236
vn 0.0628 0.9980 0.0019
vn 0.0721 0.9967 0.0366
vn 0.0628 0.9955 0.0715
vn 0.0372 0.9946 0.0973
vn -0.0018 -0.9993 -0.0369
vn -0.0324 -0.9955 -0.0889
vn -0.0021 -0.9953 -0.0973
vn 0.0285 -0.9956 -0.0893
vn 0.0509 -0.9965 -0.0670
vn 0.0588 -0.9976 -0.0364
vn 0.0502 -0.9987 -0.0061
vn 0.0277 -0.9995 0.0158
vn -0.0027 -0.9997 0.0236
vn -0.0327 -0.9993 0.0153
vn -0.0545 -0.9985 -0.0067
vn -0.0625 -0.9974 -0.0366
vn -0.0544 -0.9963 -0.0667
usemtl restaurant
s 1
f 15/1/1 4/2/2 3/3/3 16/4/4
f 16/4/4 3/3/3 5/5/5 17/6/6
f 17/6/6 5/5/5 6/7/7 18/8/8
f 18/8/8 6/7/7 7/9/9 19/10/10
f 19/10/10 7/9/9 8/11/11 20/12/12
f 20/12/12 8/11/11 9/13/13 21/14/14
f 21/14/14 9/13/13 10/15/15 22/16/16
f 22/16/16 10/15/15 11/17/17 23/18/18
f 23/18/18 11/17/17 12/19/19 24/20/20
f 24/20/20 12/19/19 13/21/21 25/22/22
f 25/22/22 13/21/21 14/23/23 26/24/24
f 26/24/24 14/23/23 4/2/2 15/1/1
f 1/25/25 5/26/26 3/27/27
f 1/25/25 6/28/28 5/26/26
f 1/25/25 7/29/29 6/28/28
f 1/25/25 8/30/30 7/29/29
f 1/25/25 9/31/31 8/30/30
f 1/25/25 10/32/32 9/31/31
f 1/25/25 11/33/33 10/32/32
f 1/25/25 12/34/34 11/33/33
f 1/25/25 13/35/35 12/34/34
f 1/25/25 14/36/36 13/35/35
f 1/25/25 4/37/37 14/36/36
f 2/38/38 15/39/39 16/40/40
f 2/38/38 16/40/40 17/41/41
f 2/38/38 17/41/41 18/42/42
f 2/38/38 18/42/42 19/43/43
f 2/38/38 19/43/43 20/44/44
f 2/38/38 20/44/44 21/45/45
f 2/38/38 21/45/45 22/46/46
f 2/38/38 22/46/46 23/47/47
f 2/38/38 23/47/47 24/48/48
f 2/38/38 24/48/48 25/49/49
f 2/38/38 25/49/49 26/50/50
f 2/38/38 26/50/50 15/39/39
f 1/25/25 3/27/27 4/37/37
f 41/51/51 30/52/52 29/53/53 42/54/54
f 42/54/54 29/53/53 31/55/55 43/56/56
f 43/56/56 31/55/55 32/57/57 44/58/58
f 44/58/58 32/57/57 33/59/59 45/60/60
f 45/60/60 33/59/59 34/61/61 46/62/62
f 46/62/62 34/61/61 35/63/63 47/64/64
f 47/64/64 35/63/63 36/65/65 48/66/66
f 48/66/66 36/65/65 37/67/67 49/68/68
f 49/68/68 37/67/67 38/69/69 50/70/70
f 50/70/70 38/69/69 39/71/71 51/72/72
f 51/72/72 39/71/71 40/73/73 52/74/74
f 52/74/74 40/73/73 30/52/52 41/51/51
f 27/75/75 31/76/76 29/77/77
f 27/75/75 32/78/78 31/76/76
f 27/75/75 33/79/79 32/78/78
f 27/75/75 34/80/80 33/79/79
f 27/75/75 35/81/81 34/80/80
f 27/75/75 36/82/82 35/81/81
f 27/75/75 37/83/83 36/82/82
f 27/75/75 38/84/84 37/83/83
f 27/75/75 39/85/85 38/84/84
f 27/75/75 40/86/86 39/85/85
f 27/75/75 30/87/87 40/86/86
f 28/88/88 41/89/89 42/90/90
f 28/88/88 42/90/90 43/91/91
f 28/88/88 43/91/91 44/92/92
f 28/88/88 44/92/92 45/93/93
f 28/88/88 45/93/93 46/94/94
f 28/88/88 46/94/94 47/95/95
f 28/88/88 47/95/95 48/96/96
f 28/88/88 48/96/96 49/97/97
f 28/88/88 49/97/97 50/98/98
f 28/88/88 50/98/98 51/99/99
f 28/88/88 51/99/99 52/100/100
f 28/88/88 52/100/100 41/89/89
f 27/75/75 29/77/77 30/87/87
f 67/101/101 56/102/102 55/103/103 68/104/104
f 68/104/104 55/103/103 57/105/105 69/106/106
f 69/106/106 57/105/105 58/107/107 70/108/108
f 70/108/108 58/107/107 59/109/109 71/110/110
f 71/110/110 59/109/109 60/111/111 72/112/112
f 72/112/112 60/111/111 61/113/113 73/114/114
f 73/114/114 61/113/113 62/115/115 74/116/116
f 74/116/116 62/115/115 63/117/117 75/118/118
f 75/118/118 63/117/117 64/119/119 76/120/120
f 76/120/120 64/119/119 65/121/121 77/122/122
f 77/122/122 65/121/121 66/123/123 78/124/124
f 78/124/124 66/123/123 56/102/102 67/101/101
f 53/125/125 57/126/126 55/127/127
f 53/125/125 58/128/128 57/126/126
f 53/125/125 59/129/129 58/128/128
f 53/125/125 60/130/130 59/129/129
f 53/125/125 61/131/131 60/130/130
f 53/125/125 62/132/132 61/131/131
f 53/125/125 63/133/133 62/132/132
f 53/125/125 64/134/134 63/133/133
f 53/125/125 65/135/135 64/134/134
f 53/125/125 66/136/136 65/135/135
f 53/125/125 56/137/137 66/136/136
f 54/138/138 67/139/139 68/140/140
f 54/138/138 68/140/140 69/141/141
f 54/138/138 69/141/141 70/142/142
f 54/138/138 70/142/142 71/143/143
f 54/138/138 71/143/143 72/144/144
f 54/138/138 72/144/144 73/145/145
f 54/138/138 73/145/145 74/146/146
f 54/138/138 74/146/146 75/147/147
f 54/138/138 75/147/147 76/148/148
f 54/138/138 76/148/148 77/149/149
f 54/138/138 77/149/149 78/150/150
f 54/138/138 78/150/150 67/139/139
f 53/125/125 55/127/127 56/137/137
f 93/151/101 82/152/102 81/153/103 94/154/104
f 94/154/104 81/153/103 83/155/105 95/156/106
f 95/156/106 83/155/105 84/157/107 96/158/108
f 96/158/108 84/157/107 85/159/109 97/160/110
f 97/160/110 85/159/109 86/161/111 98/162/112
f 98/162/112 86/161/111 87/163/113 99/164/114
f 99/164/114 87/163/113 88/165/115 100/166/116
f 100/166/116 88/165/115 89/167/117 101/168/118
f 101/168/118 89/167/117 90/169/119 102/170/120
f 102/170/120 90/169/119 91/171/121 103/172/122
f 103/172/122 91/171/121 92/173/123 104/174/124
f 104/174/124 92/173/123 82/152/102 93/151/101
f 79/175/125 83/176/126 81/177/127
f 79/175/125 84/178/128 83/176/126
f 79/175/125 85/179/129 84/178/128
f 79/175/125 86/180/130 85/179/129
f 79/175/125 87/181/131 86/180/130
f 79/175/125 88/182/132 87/181/131
f 79/175/125 89/183/133 88/182/132
f 79/175/125 90/184/134 89/183/133
f 79/175/125 91/185/135 90/184/134
f 79/175/125 92/186/136 91/185/135
f 79/175/125 82/187/137 92/186/136
f 80/188/138 93/189/139 94/190/140
f 80/188/138 94/190/140 95/191/141
f 80/188/138 95/191/141 96/192/142
f 80/188/138 96/192/142 97/193/143
f 80/188/138 97/193/143 98/194/144
f 80/188/138 98/194/144 99/195/145
f 80/188/138 99/195/145 100/196/146
f 80/188/138 100/196/146 101/197/147
f 80/188/138 101/197/147 102/198/148
f 80/188/138 102/198/148 103/199/149
f 80/188/138 103/199/149 104/200/150
f 80/188/138 104/200/150 93/189/139
f 79/175/125 81/177/127 82/187/137
f 119/201/151 108/202/152 107/203/153 120/204/154
f 120/204/154 107/203/153 109/205/155 121/206/156
f 121/206/156 109/205/155 110/207/157 122/208/158
f 122/208/158 110/207/157 111/209/159 123/210/160
f 123/210/160 111/209/159 112/211/161 124/212/162
f 124/212/162 112/211/161 113/213/163 125/214/164
f 125/214/164 113/213/163 114/215/165 126/216/166
f 126/216/166 114/215/165 115/217/167 127/218/168
f 127/218/168 115/217/167 116/219/169 128/220/170
f 128/220/170 116/219/169 117/221/171 129/222/172
f 129/222/172 117/221/171 118/223/173 130/224/174
f 130/224/174 118/223/173 108/202/152 119/201/151
f 105/225/175 109/226/176 107/227/177
f 105/225/175 110/228/178 109/226/176
f 105/225/175 111/229/179 110/228/178
f 105/225/175 112/230/180 111/229/179
f 105/225/175 113/231/181 112/230/180
f 105/225/175 114/232/182 113/231/181
f 105/225/175 115/233/183 114/232/182
f 105/225/175 116/234/184 115/233/183
f 105/225/175 117/235/185 116/234/184
f 105/225/175 118/236/186 117/235/185
f 105/225/175 108/237/187 118/236/186
f 106/238/188 119/239/189 120/240/190
f 106/238/188 120/240/190 121/241/191
f 106/238/188 121/241/191 122/242/192
f 106/238/188 122/242/192 123/243/193
f 106/238/188 123/243/193 124/244/194
f 106/238/188 124/244/194 125/245/195
f 106/238/188 125/245/195 126/246/196
f 106/238/188 126/246/196 127/247/197
f 106/238/188 127/247/197 128/248/198
f 106/238/188 128/248/198 129/249/199
f 106/238/188 129/249/199 130/250/200
f 106/238/188 130/250/200 119/239/189
f 105/225/175 107/227/177 108/237/187
f 145/251/151 134/252/152 133/253/153 146/254/154
f 146/254/154 133/253/153 135/255/155 147/256/156
f 147/256/156 135/255/155 136/257/157 148/258/158
f 148/258/158 136/257/157 137/259/159 149/260/160
f 149/260/160 137/259/159 138/261/161 150/262/162
f 150/262/162 138/261/161 139/263/163 151/264/164
f 151/264/164 139/263/163 140/265/165 152/266/166
f 152/266/166 140/265/165 141/267/167 153/268/168
f 153/268/168 141/267/167 142/269/169 154/270/170
f 154/270/170 142/269/169 143/271/171 155/272/172
f 155/272/172 143/271/171 144/273/173 156/274/174
f 156/274/174 144/273/173 134/252/152 145/251/151
f 131/275/175 135/276/176 133/277/177
f 131/275/175 136/278/178 135/276/176
f 131/275/175 137/279/179 136/278/178
f 131/275/175 138/280/180 137/279/179
f 131/275/175 139/281/181 138/280/180
f 131/275/175 140/282/182 139/281/181
f 131/275/175 141/283/183 140/282/182
f 131/275/175 142/284/184 141/283/183
f 131/275/175 143/285/185 142/284/184
f 131/275/175 144/286/186 143/285/185
f 131/275/175 134/287/187 144/286/186
f 132/288/188 145/289/189 146/290/190
f 132/288/188 146/290/190 147/291/191
f 132/288/188 147/291/191 148/292/192
f 132/288/188 148/292/192 149/293/193
f 132/288/188 149/293/193 150/294/194
f 132/288/188 150/294/194 151/295/195
f 132/288/188 151/295/195 152/296/196
f 132/288/188 152/296/196 153/297/197
f 132/288/188 153/297/197 154/298/198
f 132/288/188 154/298/198 155/299/199
f 132/288/188 155/299/199 156/300/200
f 132/288/188 156/300/200 145/289/189
f 131/275/175 133/277/177 134/287/187
