# Blender v3.4.1 OBJ File: 'restaurant_bits_extra_export.blend'
# www.blender.org
mtllib food_ingredient_pepperoni_chopped.mtl
o food_ingredient_pepperoni_chopped_Cylinder.353
v -0.517086 0.199890 -0.205650
v -0.658274 0.199890 -0.124476
v -0.598241 0.199890 -0.180944
v -0.515262 0.099890 -0.178917
v -0.657101 0.135577 -0.107284
v -0.596591 0.109452 -0.156767
v -0.510279 0.026684 -0.105882
v -0.653897 0.088497 -0.060313
v -0.592085 0.043247 -0.090716
v -0.503472 -0.000110 -0.006114
v -0.649519 0.071264 0.003851
v -0.585928 0.019014 -0.000488
v -0.496665 0.026684 0.093654
v -0.645141 0.088496 0.068014
v -0.579772 0.043247 0.089740
v -0.491682 0.099889 0.166689
v -0.641936 0.135577 0.114985
v -0.575266 0.109452 0.155791
v -0.489858 0.199889 0.193422
v -0.640763 0.199890 0.132178
v -0.573616 0.199890 0.179968
v -0.491682 0.299889 0.166689
v -0.641936 0.264202 0.114985
v -0.575266 0.290327 0.155791
v -0.496665 0.373095 0.093654
v -0.645141 0.311283 0.068014
v -0.579772 0.356532 0.089740
v -0.503472 0.399889 -0.006114
v -0.649519 0.328515 0.003851
v -0.585928 0.380765 -0.000488
v -0.510279 0.373095 -0.105882
v -0.653897 0.311283 -0.060313
v -0.592085 0.356532 -0.090716
v -0.515262 0.299890 -0.178917
v -0.657101 0.264202 -0.107284
v -0.596591 0.290327 -0.156767
v -0.678391 0.179437 -0.029687
v -0.678764 0.199890 -0.035154
v -0.677372 0.164465 -0.014749
v -0.675980 0.158984 0.005656
v -0.674587 0.164465 0.026061
v -0.673568 0.179437 0.040999
v -0.673195 0.199890 0.046467
v -0.673568 0.220342 0.040999
v -0.674587 0.235315 0.026061
v -0.675980 0.240795 0.005656
v -0.677372 0.235315 -0.014749
v -0.678391 0.220342 -0.029687
v -0.758350 0.171264 -0.038420
v -0.760107 0.220092 -0.064176
v -0.756350 0.124493 -0.009110
v -0.753026 0.150309 0.039605
v -0.749842 0.179687 0.086268
v -0.751600 0.228515 0.060512
v -0.753600 0.275286 0.031202
v -0.756923 0.249470 -0.017513
v -0.730060 0.199890 0.009346
v -0.006715 0.199890 -0.040007
v -0.020329 0.199890 -0.239544
v -0.018505 0.099890 -0.212811
v -0.013522 0.026684 -0.139776
v -0.013522 0.373095 -0.139775
v -0.018506 0.299890 -0.212811
v -0.006715 0.399890 -0.040007
v 0.000092 0.373095 0.059761
v 0.005075 0.299889 0.132796
v 0.006899 0.199889 0.159529
v 0.005075 0.099889 0.132796
v 0.000092 0.026684 0.059761
v -0.006715 -0.000110 -0.040008
v 0.467920 -0.004291 0.011445
v 0.490813 -0.004291 -0.187241
v 0.388403 -0.004291 -0.172069
v 0.307300 -0.004291 -0.107724
v 0.651433 -0.004291 -0.068072
v 0.587089 -0.004291 -0.149176
v 0.666606 -0.004291 0.034337
v 0.628541 -0.004291 0.130613
v 0.547437 -0.004291 0.194958
v 0.445027 -0.004291 0.210130
v 0.348752 -0.004291 0.172065
v 0.284407 -0.004291 0.090962
v 0.269235 -0.004291 -0.011448
v 0.490813 0.064029 -0.187241
v 0.388403 0.064029 -0.172069
v 0.307300 0.064029 -0.107724
v 0.651433 0.064029 -0.068072
v 0.587089 0.064029 -0.149176
v 0.666606 0.064029 0.034337
v 0.628541 0.064029 0.130613
v 0.547437 0.064029 0.194958
v 0.445027 0.064029 0.210130
v 0.348752 0.064029 0.172065
v 0.284407 0.064029 0.090962
v 0.269235 0.064029 -0.011448
v 0.467920 0.064029 0.011445
v 0.377876 0.057016 0.001069
v 0.400768 0.057016 -0.197616
v 0.302160 0.029617 -0.182006
v 0.223840 0.009560 -0.117340
v 0.554804 0.104473 -0.079206
v 0.493242 0.084416 -0.159989
v 0.568958 0.111815 0.023086
v 0.531911 0.104473 0.119479
v 0.453591 0.084416 0.184145
v 0.354983 0.057016 0.199755
v 0.262509 0.029617 0.162128
v 0.200947 0.009560 0.081345
v 0.186793 0.002218 -0.020947
v 0.382172 0.122722 -0.199759
v 0.283564 0.095323 -0.184148
v 0.205244 0.075266 -0.119483
v 0.536208 0.170179 -0.081349
v 0.474646 0.150122 -0.162131
v 0.550362 0.177521 0.020944
v 0.513315 0.170179 0.117337
v 0.434995 0.150122 0.182002
v 0.336387 0.122722 0.197612
v 0.243913 0.095323 0.159985
v 0.182351 0.075266 0.079202
v 0.168197 0.067924 -0.023090
v 0.359279 0.122722 -0.001073
v 0.289144 0.122205 -0.009154
v 0.312036 0.122205 -0.207840
v 0.228519 0.063539 -0.190491
v 0.161245 0.020592 -0.124553
v 0.439935 0.223818 -0.092442
v 0.389420 0.180872 -0.171951
v 0.450045 0.239538 0.009385
v 0.417042 0.223818 0.106244
v 0.349769 0.180871 0.172182
v 0.266251 0.122205 0.189531
v 0.188867 0.063539 0.153643
v 0.138352 0.020592 0.074133
v 0.128242 0.004873 -0.027694
v 0.272219 0.177533 -0.212428
v 0.188701 0.118867 -0.195078
v 0.121427 0.075920 -0.129140
v 0.400117 0.279146 -0.097029
v 0.349603 0.236200 -0.176539
v 0.410228 0.294866 0.004797
v 0.377225 0.279146 0.101656
v 0.309951 0.236199 0.167594
v 0.226433 0.177533 0.184943
v 0.149049 0.118867 0.149055
v 0.098535 0.075920 0.069545
v 0.088424 0.060201 -0.032282
v 0.249326 0.177533 -0.013742
vt 0.776211 0.389773
vt 0.776211 0.365756
vt 0.770066 0.368052
vt 0.770066 0.389773
vt 0.765328 0.374327
vt 0.765328 0.389773
vt 0.763356 0.336023
vt 0.763356 0.342898
vt 0.776211 0.301299
vt 0.770066 0.305277
vt 0.765328 0.316144
vt 0.763356 0.330990
vt 0.776211 0.294863
vt 0.770066 0.299457
vt 0.765328 0.312006
vt 0.763356 0.329148
vt 0.776211 0.301299
vt 0.770066 0.305277
vt 0.765328 0.316144
vt 0.763356 0.330990
vt 0.776211 0.365756
vt 0.770066 0.368052
vt 0.765328 0.374327
vt 0.763356 0.336023
vt 0.776211 0.389773
vt 0.770066 0.389773
vt 0.765328 0.389773
vt 0.763356 0.342898
vt 0.776211 0.413790
vt 0.770066 0.411494
vt 0.765328 0.405219
vt 0.763356 0.349773
vt 0.776211 0.462622
vt 0.770066 0.458645
vt 0.765328 0.447777
vt 0.763356 0.354806
vt 0.776211 0.469058
vt 0.770066 0.464465
vt 0.765328 0.451916
vt 0.763356 0.356648
vt 0.776211 0.462622
vt 0.770066 0.458645
vt 0.765328 0.447777
vt 0.763356 0.354806
vt 0.776211 0.413790
vt 0.770066 0.411494
vt 0.765328 0.405219
vt 0.763356 0.349773
vt 0.763356 0.389773
vt 0.763356 0.382898
vt 0.763356 0.382898
vt 0.763356 0.389773
vt 0.763356 0.377865
vt 0.763356 0.382898
vt 0.763356 0.382898
vt 0.763356 0.377865
vt 0.763356 0.389773
vt 0.763356 0.396648
vt 0.763356 0.396648
vt 0.763356 0.396648
vt 0.763356 0.396648
vt 0.763356 0.389773
vt 0.763356 0.401681
vt 0.763356 0.401681
vt 0.763356 0.403523
vt 0.763356 0.401681
vt 0.763356 0.401681
vt 0.763356 0.403523
vt 0.763356 0.377865
vt 0.763356 0.377865
vt 0.763356 0.376023
vt 0.763356 0.376023
vt 0.763248 0.358523
vt 0.763356 0.358523
vt 0.763356 0.351648
vt 0.763356 0.346615
vt 0.763356 0.344773
vt 0.763356 0.346615
vt 0.763356 0.351648
vt 0.763356 0.358523
vt 0.763356 0.365398
vt 0.763356 0.370431
vt 0.763356 0.372273
vt 0.763356 0.370431
vt 0.763356 0.365398
vt 0.801670 0.389773
vt 0.801670 0.365756
vt 0.801670 0.301299
vt 0.801670 0.462622
vt 0.801670 0.413790
vt 0.801670 0.469058
vt 0.801670 0.462622
vt 0.801670 0.413790
vt 0.801670 0.389773
vt 0.801670 0.365756
vt 0.801670 0.301299
vt 0.801670 0.294863
vt 0.821975 0.432278
vt 0.816174 0.435146
vt 0.816174 0.449042
vt 0.816174 0.397851
vt 0.816174 0.462938
vt 0.816174 0.491192
vt 0.816174 0.494916
vt 0.816174 0.491192
vt 0.816174 0.462938
vt 0.816174 0.449042
vt 0.816174 0.435145
vt 0.816174 0.397851
vt 0.816174 0.394128
vt 0.821975 0.432278
vt 0.816174 0.407589
vt 0.816174 0.421485
vt 0.816174 0.370294
vt 0.816174 0.435381
vt 0.816174 0.463635
vt 0.816174 0.467359
vt 0.816174 0.463635
vt 0.816174 0.435381
vt 0.816174 0.421485
vt 0.816174 0.407589
vt 0.816174 0.370294
vt 0.816174 0.366571
vt 0.821975 0.432278
vt 0.816174 0.421485
vt 0.816174 0.407589
vt 0.816174 0.370294
vt 0.816174 0.463635
vt 0.816174 0.435381
vt 0.816174 0.467359
vt 0.816174 0.463635
vt 0.816174 0.435381
vt 0.816174 0.421485
vt 0.816174 0.407589
vt 0.816174 0.370294
vt 0.816174 0.366571
vt 0.816174 0.325961
vt 0.816174 0.325961
vt 0.816174 0.329684
vt 0.816174 0.329684
vt 0.816174 0.366979
vt 0.816174 0.366979
vt 0.816174 0.380875
vt 0.816174 0.380875
vt 0.816174 0.380875
vt 0.816174 0.380875
vt 0.816174 0.366979
vt 0.816174 0.366979
vt 0.816174 0.426749
vt 0.816174 0.426749
vt 0.816174 0.423025
vt 0.816174 0.423025
vt 0.816174 0.394772
vt 0.816174 0.394772
vt 0.816174 0.329684
vt 0.816174 0.329684
vt 0.816174 0.394772
vt 0.816174 0.394772
vt 0.816174 0.423025
vt 0.816174 0.423025
vt 0.821975 0.432278
vt 0.816174 0.407589
vt 0.816174 0.421485
vt 0.816174 0.370294
vt 0.816174 0.435381
vt 0.816174 0.463635
vt 0.816174 0.467359
vt 0.816174 0.463635
vt 0.816174 0.435381
vt 0.816174 0.421485
vt 0.816174 0.407589
vt 0.816174 0.370294
vt 0.816174 0.366571
vt 0.821975 0.432278
vt 0.816174 0.421485
vt 0.816174 0.407589
vt 0.816174 0.370294
vt 0.816174 0.463635
vt 0.816174 0.435381
vt 0.816174 0.467359
vt 0.816174 0.463635
vt 0.816174 0.435381
vt 0.816174 0.421485
vt 0.816174 0.407589
vt 0.816174 0.370294
vt 0.816174 0.366571
vt 0.816174 0.325961
vt 0.816174 0.325961
vt 0.816174 0.329684
vt 0.816174 0.329684
vt 0.816174 0.366979
vt 0.816174 0.366979
vt 0.816174 0.380875
vt 0.816174 0.380875
vt 0.816174 0.380875
vt 0.816174 0.380875
vt 0.816174 0.366979
vt 0.816174 0.366979
vt 0.816174 0.426749
vt 0.816174 0.426749
vt 0.816174 0.423025
vt 0.816174 0.423025
vt 0.816174 0.394772
vt 0.816174 0.394772
vt 0.816174 0.329684
vt 0.816174 0.329684
vt 0.816174 0.394772
vt 0.816174 0.394772
vt 0.816174 0.423025
vt 0.816174 0.423025
vt 0.821975 0.432278
vt 0.816174 0.407589
vt 0.816174 0.421485
vt 0.816174 0.370294
vt 0.816174 0.435381
vt 0.816174 0.463635
vt 0.816174 0.467359
vt 0.816174 0.463635
vt 0.816174 0.435381
vt 0.816174 0.421485
vt 0.816174 0.407589
vt 0.816174 0.370294
vt 0.816174 0.366571
vt 0.821975 0.432278
vt 0.816174 0.421485
vt 0.816174 0.407589
vt 0.816174 0.370294
vt 0.816174 0.463635
vt 0.816174 0.435381
vt 0.816174 0.467359
vt 0.816174 0.463635
vt 0.816174 0.435381
vt 0.816174 0.421485
vt 0.816174 0.407589
vt 0.816174 0.370294
vt 0.816174 0.366571
vt 0.816174 0.325961
vt 0.816174 0.325961
vt 0.816174 0.329684
vt 0.816174 0.329684
vt 0.816174 0.366979
vt 0.816174 0.366979
vt 0.816174 0.380875
vt 0.816174 0.380875
vt 0.816174 0.380875
vt 0.816174 0.380875
vt 0.816174 0.366979
vt 0.816174 0.366979
vt 0.816174 0.426749
vt 0.816174 0.426749
vt 0.816174 0.423025
vt 0.816174 0.423025
vt 0.816174 0.394772
vt 0.816174 0.394772
vt 0.816174 0.329684
vt 0.816174 0.329684
vt 0.816174 0.394772
vt 0.816174 0.394772
vt 0.816174 0.423025
vt 0.816174 0.423025
vn -0.1788 0.0000 -0.9839
vn -0.1697 -0.4969 -0.8511
vn -0.4794 -0.4521 -0.7522
vn -0.4876 0.0000 -0.8731
vn -0.8422 -0.2936 -0.4522
vn -0.8476 0.0000 -0.5306
vn -0.9720 -0.1447 -0.1849
vn -0.9747 0.0000 -0.2236
vn -0.1450 -0.8606 -0.4882
vn -0.4568 -0.7831 -0.4220
vn -0.8276 -0.5084 -0.2378
vn -0.9648 -0.2506 -0.0792
vn -0.1111 -0.9938 0.0076
vn -0.4261 -0.9042 0.0291
vn -0.8076 -0.5871 0.0551
vn -0.9550 -0.2894 0.0652
vn -0.0773 -0.8606 0.5033
vn -0.3953 -0.7831 0.4801
vn -0.7877 -0.5084 0.3480
vn -0.9451 -0.2506 0.2095
vn -0.0526 -0.4969 0.8662
vn -0.3728 -0.4521 0.8103
vn -0.7730 -0.2936 0.5624
vn -0.9379 -0.1447 0.3152
vn -0.0435 -0.0000 0.9991
vn -0.3645 -0.0000 0.9312
vn -0.7677 -0.0000 0.6408
vn -0.9353 -0.0000 0.3539
vn -0.0526 0.4969 0.8662
vn -0.3728 0.4521 0.8103
vn -0.7730 0.2936 0.5624
vn -0.9379 0.1447 0.3152
vn -0.0773 0.8606 0.5033
vn -0.3953 0.7831 0.4801
vn -0.7877 0.5084 0.3480
vn -0.9451 0.2506 0.2095
vn -0.1111 0.9938 0.0076
vn -0.4261 0.9042 0.0291
vn -0.8076 0.5871 0.0551
vn -0.9550 0.2894 0.0652
vn -0.1450 0.8606 -0.4882
vn -0.4568 0.7831 -0.4220
vn -0.8276 0.5084 -0.2378
vn -0.9648 0.2506 -0.0792
vn -0.1697 0.4969 -0.8511
vn -0.4794 0.4521 -0.7522
vn -0.8422 0.2936 -0.4522
vn -0.9720 0.1447 -0.1849
vn 0.2815 -0.1329 -0.9503
vn 0.1847 -0.4851 -0.8547
vn 0.2583 0.2451 -0.9344
vn 0.2749 -0.8402 0.4674
vn 0.3950 -0.5795 0.7128
vn 0.3829 -0.2451 0.8907
vn 0.4080 0.1329 0.9033
vn 0.2945 0.5795 -0.7599
vn 0.2991 0.4851 0.8217
vn 0.3842 0.7380 0.5547
vn 0.3373 0.9147 0.2226
vn 0.3357 0.9289 -0.1561
vn 0.2089 0.8402 -0.5005
vn 0.3053 -0.7380 -0.6017
vn 0.3039 -0.9147 -0.2664
vn 0.3538 -0.9289 0.1090
vn -0.9977 0.0000 0.0681
vn -0.9302 -0.0789 0.3585
vn -0.8909 0.1999 0.4078
vn -0.9449 0.2943 0.1435
vn -0.9281 0.3463 -0.1371
vn -0.9703 0.0789 -0.2288
vn -0.9380 -0.1999 -0.2831
vn -0.9556 -0.2943 -0.0139
vn -0.9009 -0.3463 0.2618
vn -0.0681 0.0000 -0.9977
vn -0.0590 -0.5000 -0.8640
vn -0.0340 -0.8660 -0.4988
vn -0.0340 0.8660 -0.4988
vn -0.0590 0.5000 -0.8640
vn -0.0000 1.0000 -0.0000
vn 0.0340 0.8660 0.4988
vn 0.0590 0.5000 0.8640
vn 0.0681 -0.0000 0.9977
vn 0.0590 -0.5000 0.8640
vn 0.0340 -0.8660 0.4988
vn -0.0000 -1.0000 -0.0000
vn 0.9977 0.0000 -0.0681
vn -0.9934 0.0000 -0.1145
vn -0.8031 0.0000 -0.5958
vn -0.3976 0.0000 -0.9176
vn 0.1145 0.0000 -0.9934
vn -0.1145 0.0000 0.9934
vn -0.5958 -0.0000 0.8031
vn 0.9934 -0.0000 0.1145
vn 0.8031 -0.0000 0.5958
vn 0.5958 0.0000 -0.8031
vn -0.9176 -0.0000 0.3976
vn 0.3976 0.0000 0.9176
vn 0.9176 -0.0000 -0.3976
vn 0.2722 -0.9617 0.0314
vn -0.2722 0.9617 -0.0314
vn -0.9554 -0.2740 -0.1101
vn -0.7702 -0.2373 -0.5920
vn -0.3786 -0.1370 -0.9154
vn -0.5768 -0.1370 0.8053
vn 0.9554 0.2740 0.1101
vn 0.7702 0.2373 0.5920
vn 0.5768 0.1370 -0.8053
vn -0.8846 -0.2373 0.4014
vn 0.3786 0.1370 0.9154
vn 0.8846 0.2373 -0.4014
vn 0.5828 -0.8098 0.0672
vn -0.5828 0.8098 -0.0672
vn -0.8045 -0.5867 -0.0927
vn -0.6395 -0.5081 -0.5770
vn -0.3031 -0.2933 -0.9067
vn -0.5014 -0.2933 0.8140
vn 0.8045 0.5867 0.0927
vn 0.6395 0.5081 0.5770
vn 0.5014 0.2933 -0.8140
vn -0.7540 -0.5081 0.4164
vn 0.3031 0.2933 0.9067
vn 0.7540 0.5081 -0.4164
usemtl restaurant
s 1
f 1/1/1 4/2/2 6/3/3 3/4/4
f 3/4/4 6/3/3 5/5/5 2/6/6
f 2/6/6 5/5/5 37/7/7 38/8/8
f 4/2/2 7/9/9 9/10/10 6/3/3
f 6/3/3 9/10/10 8/11/11 5/5/5
f 5/5/5 8/11/11 39/12/12 37/7/7
f 7/9/9 10/13/13 12/14/14 9/10/10
f 9/10/10 12/14/14 11/15/15 8/11/11
f 8/11/11 11/15/15 40/16/16 39/12/12
f 10/13/13 13/17/17 15/18/18 12/14/14
f 12/14/14 15/18/18 14/19/19 11/15/15
f 11/15/15 14/19/19 41/20/20 40/16/16
f 13/17/17 16/21/21 18/22/22 15/18/18
f 15/18/18 18/22/22 17/23/23 14/19/19
f 14/19/19 17/23/23 42/24/24 41/20/20
f 16/21/21 19/25/25 21/26/26 18/22/22
f 18/22/22 21/26/26 20/27/27 17/23/23
f 17/23/23 20/27/27 43/28/28 42/24/24
f 19/25/25 22/29/29 24/30/30 21/26/26
f 21/26/26 24/30/30 23/31/31 20/27/27
f 20/27/27 23/31/31 44/32/32 43/28/28
f 22/29/29 25/33/33 27/34/34 24/30/30
f 24/30/30 27/34/34 26/35/35 23/31/31
f 23/31/31 26/35/35 45/36/36 44/32/32
f 25/33/33 28/37/37 30/38/38 27/34/34
f 27/34/34 30/38/38 29/39/39 26/35/35
f 26/35/35 29/39/39 46/40/40 45/36/36
f 28/37/37 31/41/41 33/42/42 30/38/38
f 30/38/38 33/42/42 32/43/43 29/39/39
f 29/39/39 32/43/43 47/44/44 46/40/40
f 31/41/41 34/45/45 36/46/46 33/42/42
f 33/42/42 36/46/46 35/47/47 32/43/43
f 32/43/43 35/47/47 48/48/48 47/44/44
f 34/45/45 1/1/1 3/4/4 36/46/46
f 36/46/46 3/4/4 2/6/6 35/47/47
f 35/47/47 2/6/6 38/8/8 48/48/48
f 38/49/49 37/50/50 49/51/50 50/52/51
f 41/53/52 42/54/53 53/55/54 52/56/52
f 42/54/53 43/57/55 53/55/54
f 48/58/56 38/49/49 50/59/51
f 43/57/55 44/60/57 54/61/57 53/62/54
f 44/60/57 45/63/58 55/64/59 54/61/57
f 45/63/58 46/65/60 55/64/59
f 46/65/60 47/66/61 56/67/61 55/68/59
f 47/66/61 48/58/56 50/59/51 56/67/61
f 37/50/50 39/69/62 51/70/63 49/51/50
f 39/69/62 40/71/64 51/70/63
f 40/71/64 41/53/52 52/56/52 51/72/63
f 57/73/65 50/74/66 49/75/67
f 57/73/65 49/75/67 51/76/68
f 57/73/65 51/77/68 52/78/69
f 57/73/65 52/78/69 53/79/70
f 57/73/65 53/80/70 54/81/71
f 57/73/65 54/81/71 55/82/72
f 57/73/65 55/83/72 56/84/73
f 57/73/65 56/84/73 50/85/66
f 1/1/1 59/86/74 60/87/75 4/2/2
f 4/2/2 60/87/75 61/88/76 7/9/9
f 31/41/41 62/89/77 63/90/78 34/45/45
f 28/37/37 64/91/79 62/89/77 31/41/41
f 25/33/33 65/92/80 64/91/79 28/37/37
f 22/29/29 66/93/81 65/92/80 25/33/33
f 19/25/25 67/94/82 66/93/81 22/29/29
f 16/21/21 68/95/83 67/94/82 19/25/25
f 13/17/17 69/96/84 68/95/83 16/21/21
f 10/13/13 70/97/85 69/96/84 13/17/17
f 7/9/9 61/88/76 70/97/85 10/13/13
f 34/45/45 63/90/78 59/86/74 1/1/1
f 58/98/86 60/99/86 59/100/86
f 58/98/86 61/101/86 60/99/86
f 58/98/86 63/102/86 62/103/86
f 58/98/86 62/103/86 64/104/86
f 58/98/86 64/104/86 65/105/86
f 58/98/86 65/105/86 66/106/86
f 58/98/86 66/106/86 67/107/86
f 58/98/86 67/107/86 68/108/86
f 58/98/86 68/108/86 69/109/86
f 58/98/86 69/109/86 70/110/86
f 58/98/86 70/110/86 61/101/86
f 58/98/86 59/100/86 63/102/86
f 71/111/85 73/112/85 72/113/85
f 71/111/85 74/114/85 73/112/85
f 71/111/85 76/115/85 75/116/85
f 71/111/85 75/116/85 77/117/85
f 71/111/85 77/117/85 78/118/85
f 71/111/85 78/118/85 79/119/85
f 71/111/85 79/119/85 80/120/85
f 71/111/85 80/120/85 81/121/85
f 71/111/85 81/121/85 82/122/85
f 71/111/85 82/122/85 83/123/85
f 71/111/85 83/123/85 74/114/85
f 71/111/85 72/113/85 76/115/85
f 96/124/79 84/125/79 85/126/79
f 96/124/79 85/126/79 86/127/79
f 96/124/79 87/128/79 88/129/79
f 96/124/79 89/130/79 87/128/79
f 96/124/79 90/131/79 89/130/79
f 96/124/79 91/132/79 90/131/79
f 96/124/79 92/133/79 91/132/79
f 96/124/79 93/134/79 92/133/79
f 96/124/79 94/135/79 93/134/79
f 96/124/79 95/136/79 94/135/79
f 96/124/79 86/127/79 95/136/79
f 96/124/79 88/129/79 84/125/79
f 83/137/87 95/138/87 86/139/88 74/140/88
f 73/141/89 85/142/89 84/143/90 72/144/90
f 80/145/91 92/146/91 93/147/92 81/148/92
f 77/149/93 89/150/93 90/151/94 78/152/94
f 72/144/90 84/143/90 88/153/95 76/154/95
f 74/140/88 86/139/88 85/142/89 73/141/89
f 81/148/92 93/147/92 94/155/96 82/156/96
f 78/152/94 90/151/94 91/157/97 79/158/97
f 76/154/95 88/153/95 87/159/98 75/160/98
f 82/156/96 94/155/96 95/138/87 83/137/87
f 79/158/97 91/157/97 92/146/91 80/145/91
f 75/160/98 87/159/98 89/150/93 77/149/93
f 97/161/99 99/162/99 98/163/99
f 97/161/99 100/164/99 99/162/99
f 97/161/99 102/165/99 101/166/99
f 97/161/99 101/166/99 103/167/99
f 97/161/99 103/167/99 104/168/99
f 97/161/99 104/168/99 105/169/99
f 97/161/99 105/169/99 106/170/99
f 97/161/99 106/170/99 107/171/99
f 97/161/99 107/171/99 108/172/99
f 97/161/99 108/172/99 109/173/99
f 97/161/99 109/173/99 100/164/99
f 97/161/99 98/163/99 102/165/99
f 122/174/100 110/175/100 111/176/100
f 122/174/100 111/176/100 112/177/100
f 122/174/100 113/178/100 114/179/100
f 122/174/100 115/180/100 113/178/100
f 122/174/100 116/181/100 115/180/100
f 122/174/100 117/182/100 116/181/100
f 122/174/100 118/183/100 117/182/100
f 122/174/100 119/184/100 118/183/100
f 122/174/100 120/185/100 119/184/100
f 122/174/100 121/186/100 120/185/100
f 122/174/100 112/177/100 121/186/100
f 122/174/100 114/179/100 110/175/100
f 109/187/101 121/188/101 112/189/102 100/190/102
f 99/191/103 111/192/103 110/193/90 98/194/90
f 106/195/91 118/196/91 119/197/104 107/198/104
f 103/199/105 115/200/105 116/201/106 104/202/106
f 98/194/90 110/193/90 114/203/107 102/204/107
f 100/190/102 112/189/102 111/192/103 99/191/103
f 107/198/104 119/197/104 120/205/108 108/206/108
f 104/202/106 116/201/106 117/207/109 105/208/109
f 102/204/107 114/203/107 113/209/110 101/210/110
f 108/206/108 120/205/108 121/188/101 109/187/101
f 105/208/109 117/207/109 118/196/91 106/195/91
f 101/210/110 113/209/110 115/200/105 103/199/105
f 123/211/111 125/212/111 124/213/111
f 123/211/111 126/214/111 125/212/111
f 123/211/111 128/215/111 127/216/111
f 123/211/111 127/216/111 129/217/111
f 123/211/111 129/217/111 130/218/111
f 123/211/111 130/218/111 131/219/111
f 123/211/111 131/219/111 132/220/111
f 123/211/111 132/220/111 133/221/111
f 123/211/111 133/221/111 134/222/111
f 123/211/111 134/222/111 135/223/111
f 123/211/111 135/223/111 126/214/111
f 123/211/111 124/213/111 128/215/111
f 148/224/112 136/225/112 137/226/112
f 148/224/112 137/226/112 138/227/112
f 148/224/112 139/228/112 140/229/112
f 148/224/112 141/230/112 139/228/112
f 148/224/112 142/231/112 141/230/112
f 148/224/112 143/232/112 142/231/112
f 148/224/112 144/233/112 143/232/112
f 148/224/112 145/234/112 144/233/112
f 148/224/112 146/235/112 145/234/112
f 148/224/112 147/236/112 146/235/112
f 148/224/112 138/227/112 147/236/112
f 148/224/112 140/229/112 136/225/112
f 135/237/113 147/238/113 138/239/114 126/240/114
f 125/241/115 137/242/115 136/243/90 124/244/90
f 132/245/91 144/246/91 145/247/116 133/248/116
f 129/249/117 141/250/117 142/251/118 130/252/118
f 124/244/90 136/243/90 140/253/119 128/254/119
f 126/240/114 138/239/114 137/242/115 125/241/115
f 133/248/116 145/247/116 146/255/120 134/256/120
f 130/252/118 142/251/118 143/257/121 131/258/121
f 128/254/119 140/253/119 139/259/122 127/260/122
f 134/256/120 146/255/120 147/238/113 135/237/113
f 131/258/121 143/257/121 144/246/91 132/245/91
f 127/260/122 139/259/122 141/250/117 129/249/117
