# Blender v3.4.1 OBJ File: 'restaurant_bits_extra_export.blend'
# www.blender.org
mtllib food_ingredient_dough.mtl
o food_ingredient_dough_Sphere.230
v -0.022929 -0.002454 -0.115273
v 0.060398 0.565786 -0.145813
v 0.111601 0.475460 -0.269427
v 0.145813 0.340278 -0.352024
v 0.153073 0.189349 -0.369552
v 0.131339 0.071821 -0.317081
v 0.091857 0.011342 -0.221762
v 0.065297 -0.002454 -0.097724
v 0.206211 0.475460 -0.206211
v 0.269427 0.340278 -0.269427
v 0.282843 0.189349 -0.282843
v 0.242683 0.071821 -0.242683
v 0.169730 0.011342 -0.169730
v 0.145813 0.565786 -0.060398
v 0.269427 0.475460 -0.111600
v 0.352024 0.340278 -0.145813
v 0.369552 0.189349 -0.153073
v 0.317081 0.071821 -0.131339
v 0.221762 0.011342 -0.091857
v 0.115273 -0.002454 -0.022929
v 0.145813 0.565786 0.060398
v 0.269427 0.475460 0.111601
v 0.352024 0.340278 0.145813
v 0.369552 0.189349 0.153073
v 0.317081 0.071821 0.131339
v 0.221762 0.011342 0.091857
v 0.097724 -0.002455 0.065297
v 0.206211 0.475460 0.206211
v 0.269427 0.340278 0.269428
v 0.282843 0.189349 0.282843
v 0.242683 0.071821 0.242683
v 0.169730 0.011342 0.169730
v 0.060398 0.565786 0.145813
v 0.111600 0.475460 0.269428
v 0.145813 0.340278 0.352024
v 0.153073 0.189349 0.369552
v 0.131339 0.071821 0.317081
v 0.091857 0.011342 0.221762
v 0.022929 -0.002454 0.115273
v -0.000000 0.586521 0.000000
v -0.060398 0.565786 0.145813
v -0.111601 0.475460 0.269427
v -0.145813 0.340278 0.352024
v -0.153074 0.189349 0.369552
v -0.131339 0.071821 0.317081
v -0.091857 0.011342 0.221762
v -0.065297 -0.002454 0.097724
v -0.206211 0.475460 0.206211
v -0.269428 0.340278 0.269427
v -0.282843 0.189349 0.282843
v -0.242683 0.071821 0.242683
v -0.169730 0.011342 0.169730
v 0.000000 0.009224 0.000000
v -0.145813 0.565786 0.060398
v -0.269427 0.475460 0.111600
v -0.352024 0.340278 0.145813
v -0.369552 0.189349 0.153073
v -0.317081 0.071821 0.131339
v -0.221762 0.011342 0.091857
v -0.115273 -0.002454 0.022929
v -0.145813 0.565786 -0.060398
v -0.269427 0.475460 -0.111601
v -0.352024 0.340278 -0.145813
v -0.369552 0.189349 -0.153074
v -0.317081 0.071821 -0.131339
v -0.221762 0.011342 -0.091857
v -0.097724 -0.002455 -0.065297
v -0.206211 0.475460 -0.206211
v -0.269427 0.340278 -0.269427
v -0.282843 0.189349 -0.282843
v -0.242683 0.071821 -0.242683
v -0.169729 0.011342 -0.169730
v -0.060398 0.565786 -0.145813
v -0.111600 0.475460 -0.269427
v -0.145813 0.340278 -0.352024
v -0.153073 0.189349 -0.369552
v -0.131339 0.071821 -0.317081
v -0.091857 0.011342 -0.221762
vt 0.548325 0.661595
vt 0.554027 0.669955
vt 0.567480 0.669955
vt 0.573183 0.661595
vt 0.560754 0.560735
vt 0.558200 0.559015
vt 0.568026 0.559015
vt 0.550523 0.561047
vt 0.570984 0.561047
vt 0.546126 0.569954
vt 0.555893 0.639500
vt 0.580797 0.654134
vt 0.575381 0.569954
vt 0.541301 0.650050
vt 0.565024 0.663990
vt 0.560754 0.701330
vt 0.576993 0.669955
vt 0.576993 0.669955
vt 0.590760 0.661595
vt 0.590760 0.661595
vt 0.575079 0.669899
vt 0.591354 0.660337
vt 0.579657 0.561047
vt 0.587782 0.569954
vt 0.583720 0.691051
vt 0.585452 0.561047
vt 0.573592 0.559015
vt 0.598407 0.664482
vt 0.596068 0.569954
vt 0.581798 0.673847
vt 0.581798 0.673847
vt 0.598407 0.664482
vt 0.585452 0.561047
vt 0.571638 0.559015
vt 0.554027 0.669955
vt 0.567480 0.669955
vt 0.596068 0.569954
vt 0.544514 0.669955
vt 0.544514 0.669955
vt 0.579657 0.561047
vt 0.591354 0.660337
vt 0.587782 0.569954
vt 0.583720 0.691051
vt 0.575079 0.669899
vt 0.570984 0.561047
vt 0.563308 0.559015
vt 0.580797 0.654134
vt 0.575381 0.569954
vt 0.573183 0.661595
vt 0.565024 0.663990
vt 0.548325 0.661595
vt 0.530748 0.661595
vt 0.530748 0.661595
vt 0.555893 0.639500
vt 0.546126 0.569954
vt 0.541301 0.650050
vt 0.550523 0.561047
vt 0.553482 0.559015
vt 0.541851 0.561047
vt 0.545337 0.633297
vt 0.533726 0.569954
vt 0.537788 0.691051
vt 0.531246 0.644141
vt 0.538284 0.629152
vt 0.525440 0.569954
vt 0.524527 0.640193
vt 0.547916 0.559015
vt 0.536056 0.561047
vt 0.538284 0.629152
vt 0.525440 0.569954
vt 0.524527 0.640193
vt 0.536056 0.561047
vt 0.549870 0.559015
vt 0.541851 0.561047
vt 0.545337 0.633297
vt 0.533726 0.569954
vt 0.537788 0.691051
vt 0.531246 0.644141
vn -0.2092 0.6844 -0.6984
vn -0.1325 0.9210 -0.3664
vn 0.1325 0.9210 -0.3664
vn 0.2092 0.6844 -0.6984
vn 0.0000 -1.0000 -0.0000
vn -0.0051 -0.9995 -0.0312
vn 0.0118 -0.9996 -0.0264
vn -0.0966 -0.9369 -0.3360
vn 0.0968 -0.9358 -0.3389
vn -0.2187 -0.6510 -0.7269
vn -0.2910 -0.1536 -0.9443
vn 0.2910 -0.1536 -0.9443
vn 0.2187 -0.6510 -0.7269
vn -0.2758 0.3332 -0.9016
vn 0.2758 0.3332 -0.9016
vn -0.0000 1.0000 0.0000
vn 0.3664 0.9210 0.1325
vn 0.3664 0.9210 -0.1325
vn 0.6984 0.6844 0.2092
vn 0.6984 0.6844 -0.2092
vn 0.6654 0.3384 -0.6654
vn 0.6984 -0.1565 -0.6984
vn 0.2394 -0.9413 -0.2381
vn 0.5308 -0.6607 -0.5308
vn 0.5085 0.6949 -0.5085
vn 0.3360 -0.9369 -0.0966
vn 0.0312 -0.9995 -0.0051
vn 0.9443 -0.1536 -0.2910
vn 0.7269 -0.6510 -0.2187
vn 0.9016 0.3332 -0.2758
vn 0.9016 0.3332 0.2758
vn 0.9443 -0.1536 0.2910
vn 0.3389 -0.9358 0.0968
vn 0.0264 -0.9996 0.0118
vn -0.1325 0.9210 0.3664
vn 0.1325 0.9210 0.3664
vn 0.7269 -0.6510 0.2187
vn -0.3664 0.9210 -0.1325
vn -0.3664 0.9210 0.1325
vn 0.2381 -0.9413 0.2394
vn 0.6984 -0.1565 0.6984
vn 0.5308 -0.6607 0.5308
vn 0.5085 0.6949 0.5085
vn 0.6654 0.3384 0.6654
vn 0.0966 -0.9369 0.3360
vn 0.0051 -0.9995 0.0312
vn 0.2910 -0.1536 0.9443
vn 0.2187 -0.6510 0.7269
vn 0.2092 0.6844 0.6984
vn 0.2758 0.3332 0.9016
vn -0.2092 0.6844 0.6984
vn -0.6984 0.6844 -0.2092
vn -0.6984 0.6844 0.2092
vn -0.2910 -0.1536 0.9443
vn -0.2187 -0.6510 0.7269
vn -0.2758 0.3332 0.9016
vn -0.0968 -0.9358 0.3389
vn -0.0118 -0.9996 0.0264
vn -0.2394 -0.9413 0.2381
vn -0.6984 -0.1565 0.6984
vn -0.5308 -0.6607 0.5308
vn -0.5085 0.6949 0.5085
vn -0.6654 0.3384 0.6654
vn -0.9443 -0.1536 0.2910
vn -0.7269 -0.6510 0.2187
vn -0.9016 0.3332 0.2758
vn -0.0312 -0.9995 0.0051
vn -0.3360 -0.9369 0.0966
vn -0.9443 -0.1536 -0.2910
vn -0.7269 -0.6510 -0.2187
vn -0.9016 0.3332 -0.2758
vn -0.3389 -0.9358 -0.0968
vn -0.0264 -0.9996 -0.0118
vn -0.2381 -0.9413 -0.2394
vn -0.6984 -0.1565 -0.6984
vn -0.5308 -0.6607 -0.5308
vn -0.5085 0.6949 -0.5085
vn -0.6654 0.3384 -0.6654
usemtl restaurant
s 1
f 74/1/1 73/2/2 2/3/3 3/4/4
f 53/5/5 1/6/6 8/7/7
f 1/6/6 78/8/8 7/9/9 8/7/7
f 77/10/10 76/11/11 5/12/12 6/13/13
f 76/11/11 75/14/14 4/15/15 5/12/12
f 40/16/16 21/17/17 14/18/18
f 78/8/8 77/10/10 6/13/13 7/9/9
f 14/18/18 21/17/17 22/19/19 15/20/20
f 5/12/12 4/15/15 10/21/21 11/22/22
f 8/7/7 7/9/9 13/23/23
f 6/13/13 5/12/12 11/22/22 12/24/24
f 4/15/15 3/4/4 9/25/25 10/21/21
f 14/18/18 9/25/25 2/3/3
f 7/9/9 6/13/13 12/24/24 13/23/23
f 8/7/7 13/23/23 19/26/26 20/27/27
f 12/24/24 11/22/22 17/28/28 18/29/29
f 10/21/21 9/25/25 15/20/20 16/30/30
f 53/5/5 8/7/7 20/27/27
f 13/23/23 12/24/24 18/29/29 19/26/26
f 11/22/22 10/21/21 16/30/30 17/28/28
f 16/30/30 23/31/31 24/32/32 17/28/28
f 19/26/26 26/33/33 27/34/34 20/27/27
f 40/16/16 41/35/35 33/36/36
f 17/28/28 24/32/32 25/37/37 18/29/29
f 15/20/20 22/19/19 23/31/31 16/30/30
f 40/16/16 61/38/38 54/39/39
f 18/29/29 25/37/37 26/33/33 19/26/26
f 53/5/5 20/27/27 27/34/34
f 27/34/34 26/33/33 32/40/40
f 25/37/37 24/32/32 30/41/41 31/42/42
f 23/31/31 22/19/19 28/43/43 29/44/44
f 33/36/36 28/43/43 21/17/17
f 26/33/33 25/37/37 31/42/42 32/40/40
f 24/32/32 23/31/31 29/44/44 30/41/41
f 27/34/34 32/40/40 38/45/45 39/46/46
f 31/42/42 30/41/41 36/47/47 37/48/48
f 29/44/44 28/43/43 34/49/49 35/50/50
f 40/16/16 33/36/36 21/17/17
f 53/5/5 27/34/34 39/46/46
f 32/40/40 31/42/42 37/48/48 38/45/45
f 30/41/41 29/44/44 35/50/50 36/47/47
f 33/36/36 41/35/35 42/51/51 34/49/49
f 54/39/39 61/38/38 62/52/52 55/53/53
f 36/47/47 44/54/54 45/55/55 37/48/48
f 34/49/49 42/51/51 43/56/56 35/50/50
f 37/48/48 45/55/55 46/57/57 38/45/45
f 35/50/50 43/56/56 44/54/54 36/47/47
f 53/5/5 39/46/46 47/58/58
f 47/58/58 46/57/57 52/59/59
f 45/55/55 44/54/54 50/60/60 51/61/61
f 43/56/56 42/51/51 48/62/62 49/63/63
f 54/39/39 48/62/62 41/35/35
f 46/57/57 45/55/55 51/61/61 52/59/59
f 44/54/54 43/56/56 49/63/63 50/60/60
f 51/61/61 50/60/60 57/64/64 58/65/65
f 49/63/63 48/62/62 55/53/53 56/66/66
f 40/16/16 14/18/18 2/3/3
f 53/5/5 47/58/58 60/67/67
f 52/59/59 51/61/61 58/65/65 59/68/68
f 50/60/60 49/63/63 56/66/66 57/64/64
f 47/58/58 52/59/59 59/68/68 60/67/67
f 73/2/2 40/16/16 2/3/3
f 57/64/64 64/69/69 65/70/70 58/65/65
f 55/53/53 62/52/52 63/71/71 56/66/66
f 38/45/45 46/57/57 47/58/58 39/46/46
f 58/65/65 65/70/70 66/72/72 59/68/68
f 56/66/66 63/71/71 64/69/69 57/64/64
f 59/68/68 66/72/72 67/73/73 60/67/67
f 53/5/5 60/67/67 67/73/73
f 67/73/73 66/72/72 72/74/74
f 65/70/70 64/69/69 70/75/75 71/76/76
f 63/71/71 62/52/52 68/77/77 69/78/78
f 73/2/2 68/77/77 61/38/38
f 66/72/72 65/70/70 71/76/76 72/74/74
f 64/69/69 63/71/71 69/78/78 70/75/75
f 40/16/16 54/39/39 41/35/35
f 69/78/78 68/77/77 74/1/1 75/14/14
f 40/16/16 73/2/2 61/38/38
f 53/5/5 67/73/73 1/6/6
f 72/74/74 71/76/76 77/10/10 78/8/8
f 70/75/75 69/78/78 75/14/14 76/11/11
f 67/73/73 72/74/74 78/8/8 1/6/6
f 71/76/76 70/75/75 76/11/11 77/10/10
f 75/14/14 74/1/1 3/4/4 4/15/15
f 34/49/49 28/43/43 33/36/36
f 22/19/19 21/17/17 28/43/43
f 15/20/20 9/25/25 14/18/18
f 3/4/4 2/3/3 9/25/25
f 74/1/1 68/77/77 73/2/2
f 62/52/52 61/38/38 68/77/77
f 55/53/53 48/62/62 54/39/39
f 42/51/51 41/35/35 48/62/62
