# Blender v3.4.1 OBJ File: 'restaurant_bits_extra_export.blend'
# www.blender.org
mtllib food_ingredient_tomato_sauce.mtl
o food_ingredient_tomato_sauce_Cylinder.334
v 0.012054 0.194555 0.013814
v 0.010069 0.194558 -0.706656
v 0.573717 0.194558 -0.419335
v 0.718646 0.194558 -0.113183
v 0.718605 0.194558 0.136254
v 0.632976 0.194558 0.370544
v 0.424296 0.194558 0.503513
v 0.203458 0.194558 0.607274
v 0.014406 0.194558 0.685067
v -0.235979 0.194558 0.686365
v -0.452449 0.194558 0.561780
v -0.597109 0.194558 0.370697
v -0.677961 0.194558 0.124684
v -0.629953 0.194558 -0.113181
v -0.613125 0.194558 -0.347631
v -0.452537 0.194558 -0.538806
v -0.236062 0.194558 -0.663515
v 0.221809 0.194558 -0.589070
v 0.365071 0.194558 -0.568610
v 0.011308 0.139978 -0.788108
v 0.639996 0.139978 -0.467633
v 0.801648 0.139978 -0.126155
v 0.801601 0.139978 0.152065
v 0.706092 0.139978 0.413389
v 0.473333 0.139978 0.561701
v 0.227012 0.139978 0.677435
v 0.016146 0.139978 0.764205
v -0.263131 0.139978 0.765652
v -0.504579 0.139978 0.626692
v -0.665931 0.139978 0.413560
v -0.756113 0.139978 0.139160
v -0.702565 0.139978 -0.126152
v -0.683794 0.139978 -0.387655
v -0.504677 0.139978 -0.600890
v -0.263224 0.139978 -0.739988
v 0.247481 0.139978 -0.656954
v 0.407274 0.139978 -0.634132
vt 0.816662 0.473479
vt 0.816548 0.445657
vt 0.802529 0.445657
vt 0.848655 0.445657
vt 0.836770 0.445657
vt 0.852030 0.445657
vt 0.856907 0.445657
vt 0.840143 0.445657
vt 0.827564 0.445657
vt 0.816795 0.445657
vt 0.802533 0.445657
vt 0.790203 0.445657
vt 0.781963 0.445657
vt 0.777358 0.445657
vt 0.780092 0.445657
vt 0.781051 0.445657
vt 0.790198 0.445657
vt 0.828609 0.445657
vt 0.856910 0.445657
vt 0.816895 0.402611
vt 0.828906 0.402611
vt 0.800982 0.402611
vt 0.787228 0.402611
vt 0.800987 0.402611
vt 0.816619 0.402611
vt 0.787234 0.402611
vt 0.861638 0.402611
vt 0.852430 0.402611
vt 0.839174 0.402611
vt 0.830072 0.402611
vt 0.778043 0.402611
vt 0.861635 0.402611
vt 0.772906 0.402611
vt 0.856195 0.402611
vt 0.775956 0.402611
vt 0.842936 0.402611
vt 0.777025 0.402611
vn -0.0000 1.0000 -0.0000
vn 0.0706 0.9365 -0.3436
vn -0.1096 0.9471 -0.3015
vn 0.2523 0.9434 -0.2155
vn 0.1199 0.9378 -0.3259
vn 0.2564 0.9410 0.2207
vn 0.3067 0.9503 0.0539
vn 0.1535 0.9467 0.2833
vn 0.1284 0.9482 0.2906
vn 0.0725 0.9424 0.3265
vn -0.0799 0.9446 0.3183
vn -0.2124 0.9477 0.2382
vn -0.2848 0.9473 0.1466
vn -0.3418 0.9397 0.0132
vn -0.2990 0.9534 -0.0411
vn -0.3241 0.9382 -0.1210
vn -0.2062 0.9471 -0.2461
vn 0.0911 0.9591 -0.2681
vn 0.3122 0.9472 -0.0732
vn 0.1039 0.8198 0.5631
vn 0.2392 0.8037 0.5449
vn -0.1901 0.8298 -0.5247
vn -0.3587 0.8295 -0.4280
vn -0.1441 0.8375 0.5272
vn 0.0811 0.8286 -0.5540
vn -0.3610 0.8361 0.4131
vn 0.5330 0.8381 -0.1160
vn 0.4283 0.8320 -0.3525
vn 0.2263 0.8151 -0.5332
vn 0.1894 0.7990 -0.5708
vn -0.4939 0.8289 0.2625
vn 0.5342 0.8400 0.0952
vn -0.5669 0.8227 0.0415
vn 0.4313 0.8387 0.3325
vn -0.5898 0.8036 -0.0795
vn 0.2877 0.8075 0.5150
vn -0.5155 0.8283 -0.2193
usemtl restaurant
s 1
f 1/1/1 2/2/2 17/3/3
f 1/1/1 3/4/4 19/5/5
f 1/1/1 6/6/6 5/7/7
f 1/1/1 7/8/8 6/6/6
f 1/1/1 8/9/9 7/8/8
f 1/1/1 9/10/10 8/9/9
f 1/1/1 10/11/11 9/10/10
f 1/1/1 11/12/12 10/11/11
f 1/1/1 12/13/13 11/12/12
f 1/1/1 13/14/14 12/13/13
f 1/1/1 14/15/15 13/14/14
f 1/1/1 15/16/16 14/15/15
f 1/1/1 16/17/17 15/16/16
f 1/1/1 17/3/3 16/17/17
f 1/1/1 18/18/18 2/2/2
f 1/1/1 4/19/19 3/4/4
f 1/1/1 5/7/7 4/19/19
f 1/1/1 19/5/5 18/18/18
f 8/9/9 9/10/10 27/20/20 26/21/21
f 16/17/17 17/3/3 35/22/22 34/23/23
f 9/10/10 10/11/11 28/24/24 27/20/20
f 17/3/3 2/2/2 20/25/25 35/22/22
f 10/11/11 11/12/12 29/26/26 28/24/24
f 3/4/4 4/19/19 22/27/27 21/28/28
f 18/18/18 19/5/5 37/29/29 36/30/30
f 11/12/12 12/13/13 30/31/31 29/26/26
f 4/19/19 5/7/7 23/32/32 22/27/27
f 2/2/2 18/18/18 36/30/30 20/25/25
f 12/13/13 13/14/14 31/33/33 30/31/31
f 5/7/7 6/6/6 24/34/34 23/32/32
f 19/5/5 3/4/4 21/28/28 37/29/29
f 13/14/14 14/15/15 32/35/35 31/33/33
f 6/6/6 7/8/8 25/36/36 24/34/34
f 14/15/15 15/16/16 33/37/37 32/35/35
f 7/8/8 8/9/9 26/21/21 25/36/36
f 15/16/16 16/17/17 34/23/23 33/37/37
