# Blender v3.4.1 OBJ File: 'restaurant_bits_extra_export.blend'
# www.blender.org
mtllib icecream_cookiestick.mtl
o icecream_cookiestick_Cylinder.319
v -0.000000 -0.250000 -0.075000
v 0.044084 0.250000 -0.060676
v 0.071329 -0.250000 -0.023176
v 0.071329 0.250000 0.023176
v 0.044084 -0.250000 0.060676
v -0.000000 0.250000 0.075000
v -0.044084 -0.250000 0.060676
v -0.071329 0.250000 0.023176
v -0.071329 -0.250000 -0.023176
v -0.044084 0.250000 -0.060676
v 0.023763 0.257920 -0.032709
v -0.023766 0.257920 -0.032709
v -0.038453 0.257920 0.012494
v -0.000001 0.257920 0.040430
v 0.038450 0.257920 0.012494
v -0.000001 -0.257920 -0.040430
v 0.038450 -0.257920 -0.012494
v 0.023763 -0.257920 0.032709
v -0.023766 -0.257920 0.032709
v -0.038453 -0.257920 -0.012494
v 0.000003 0.147571 0.000000
v 0.000003 -0.147571 0.000000
v -0.000000 -0.050000 -0.075000
v -0.000000 0.150000 -0.075000
v 0.044084 0.050000 -0.060676
v 0.044084 -0.150000 -0.060676
v 0.071329 0.150000 -0.023176
v 0.071329 -0.050000 -0.023176
v 0.071329 0.050000 0.023176
v 0.071329 -0.150000 0.023176
v 0.044084 0.150000 0.060676
v 0.044084 -0.050000 0.060676
v -0.000000 0.050000 0.075000
v -0.000000 -0.150000 0.075000
v -0.044084 0.150000 0.060676
v -0.044084 -0.050000 0.060676
v -0.071329 0.050000 0.023176
v -0.071329 -0.150000 0.023176
v -0.071329 0.150000 -0.023176
v -0.071329 -0.050000 -0.023176
v -0.044084 0.050000 -0.060676
v -0.044084 -0.150000 -0.060676
vt 0.421877 0.533433
vt 0.430870 0.533433
vt 0.421877 0.527989
vt 0.430870 0.732192
vt 0.438558 0.730340
vt 0.432187 0.730340
vt 0.427435 0.732192
vt 0.427435 0.533433
vt 0.416319 0.533433
vt 0.416319 0.669692
vt 0.412885 0.669692
vt 0.421877 0.612636
vt 0.412885 0.533433
vt 0.421877 0.669692
vt 0.412885 0.549058
vt 0.405197 0.550910
vt 0.421877 0.550910
vt 0.421877 0.549058
vt 0.412885 0.732192
vt 0.405197 0.730340
vt 0.421877 0.730340
vt 0.421877 0.732192
vt 0.430870 0.669692
vt 0.430870 0.549058
vt 0.438558 0.550910
vt 0.416319 0.732192
vt 0.411569 0.730340
vt 0.427435 0.549058
vt 0.432187 0.550910
vt 0.411569 0.550910
vt 0.416319 0.549058
vt 0.427435 0.669692
vt 0.438558 0.566535
vt 0.421877 0.597785
vt 0.432187 0.621171
vt 0.438558 0.589921
vt 0.438558 0.644557
vt 0.432187 0.613307
vt 0.438558 0.667943
vt 0.421877 0.636693
vt 0.432187 0.691329
vt 0.411569 0.660079
vt 0.421877 0.714715
vt 0.432187 0.714715
vt 0.438558 0.683465
vt 0.438558 0.660079
vt 0.432187 0.636693
vt 0.411569 0.667943
vt 0.421877 0.691329
vt 0.421877 0.613307
vt 0.405197 0.644557
vt 0.411569 0.589921
vt 0.405197 0.621171
vt 0.405197 0.566535
vt 0.411569 0.597785
vt 0.405197 0.660079
vt 0.411569 0.691329
vt 0.405197 0.714715
vt 0.405197 0.636693
vt 0.421877 0.667943
vt 0.411569 0.613307
vt 0.432187 0.644557
vt 0.421877 0.589921
vt 0.438558 0.621171
vt 0.432187 0.566535
vt 0.411569 0.566535
vt 0.432187 0.597785
vt 0.421877 0.621171
vt 0.405197 0.589921
vt 0.411569 0.644557
vt 0.405197 0.613307
vt 0.405197 0.667943
vt 0.411569 0.636693
vt 0.405197 0.691329
vt 0.411569 0.714715
vt 0.432187 0.683465
vt 0.421877 0.660079
vt 0.421877 0.566535
vt 0.405197 0.597785
vt 0.411569 0.621171
vt 0.432187 0.589921
vt 0.421877 0.644557
vt 0.438558 0.613307
vt 0.432187 0.667943
vt 0.438558 0.636693
vt 0.438558 0.691329
vt 0.438558 0.714715
vt 0.421877 0.683465
vt 0.432187 0.660079
vt 0.405197 0.683465
vt 0.411569 0.683465
vt 0.438558 0.597785
vn -0.5636 -0.2842 0.7757
vn 0.2124 0.9747 0.0690
vn 0.1313 0.9747 -0.1807
vn 0.0000 -0.2842 -0.9588
vn 0.9118 0.2842 0.2963
vn 0.9118 -0.2842 -0.2963
vn 0.5635 0.2842 -0.7757
vn -0.2124 -0.9747 -0.0690
vn 0.0000 -0.9747 -0.2233
vn -0.2124 0.9747 0.0690
vn 0.0000 0.9747 0.2233
vn 0.5635 -0.2842 0.7757
vn -0.5636 0.2842 -0.7757
vn -0.9119 -0.2842 -0.2963
vn 0.2124 -0.9747 -0.0690
vn -0.1313 0.9747 -0.1807
vn 0.1313 -0.9747 0.1807
vn -0.1313 -0.9747 0.1807
vn -0.9119 0.2842 0.2963
vn 0.7752 -0.0255 -0.6312
vn 0.5818 -0.1418 -0.8008
vn 0.8887 -0.0390 -0.4569
vn 0.9875 0.0390 -0.1528
vn 0.9875 -0.0390 0.1528
vn 0.8887 0.0390 0.4569
vn 0.7091 -0.0390 0.7040
vn 0.4504 0.0390 0.8920
vn 0.1599 -0.0390 0.9864
vn -0.1599 0.0390 0.9864
vn -0.3608 0.0255 0.9323
vn 0.8399 0.0255 -0.5422
vn 0.9414 0.1418 -0.3059
vn 0.7091 0.0390 -0.7040
vn 0.1599 0.0390 -0.9864
vn -0.1599 -0.0390 -0.9864
vn 0.4504 -0.0390 -0.8920
vn -0.4504 0.0390 -0.8920
vn -0.7091 -0.0390 -0.7040
vn -0.8887 0.0390 -0.4569
vn -0.9875 -0.0390 -0.1528
vn -0.9982 -0.0255 0.0550
vn -0.9414 -0.1418 0.3059
vn -0.9875 0.0390 0.1528
vn -0.8887 -0.0390 0.4569
vn -0.9982 0.0255 -0.0550
vn -0.7091 0.0390 0.7040
vn -0.4504 -0.0390 0.8920
vn 0.8399 -0.0255 0.5422
vn -0.2561 -0.0255 0.9663
vn -0.0000 -0.1418 0.9899
vn -0.2561 0.0255 -0.9663
vn 0.0000 0.1418 -0.9899
vn -0.3608 -0.0255 -0.9323
vn -0.5818 -0.1418 -0.8008
vn 0.7752 0.0255 0.6312
vn 0.5818 0.1418 0.8008
vn 0.0000 0.2842 0.9588
vn -0.5818 0.1418 0.8008
vn -0.9414 0.1418 -0.3059
vn 0.9414 -0.1418 0.3059
usemtl restaurant
s 1
f 16/1/1 17/2/1 22/3/1
f 15/4/2 4/5/2 2/6/3 11/7/3
f 18/8/4 19/9/4 22/3/4
f 12/10/5 13/11/5 21/12/5
f 19/9/6 20/13/6 22/3/6
f 13/11/7 14/14/7 21/12/7
f 20/15/8 9/16/8 1/17/9 16/18/9
f 13/19/10 8/20/10 6/21/11 14/22/11
f 20/13/12 16/1/12 22/3/12
f 14/14/13 15/23/13 21/12/13
f 17/2/14 18/8/14 22/3/14
f 17/24/15 16/18/9 1/17/9 3/25/15
f 12/26/16 10/27/16 8/20/10 13/19/10
f 18/28/17 5/29/17 7/30/18 19/31/18
f 18/28/17 17/24/15 3/25/15 5/29/17
f 11/32/19 21/12/19 15/23/19
f 14/22/11 6/21/11 4/5/2 15/4/2
f 12/26/16 11/7/3 2/6/3 10/27/16
f 19/31/18 7/30/18 9/16/8 20/15/8
f 3/33/20 1/34/21 26/35/22
f 30/36/23 26/35/22 28/37/24
f 32/38/25 28/37/24 29/39/26
f 33/40/27 29/39/26 31/41/28
f 35/42/29 31/41/28 6/43/30
f 2/44/31 4/45/32 27/46/33
f 25/47/34 41/48/35 24/49/36
f 23/50/37 40/51/38 41/48/35
f 42/52/39 38/53/40 40/51/38
f 9/54/41 7/55/42 38/53/40
f 39/56/43 35/57/44 8/58/45
f 35/57/44 39/56/43 37/59/46
f 33/60/47 37/59/46 36/61/29
f 32/62/28 36/61/29 34/63/27
f 30/64/26 34/63/27 5/65/48
f 7/66/49 5/67/50 34/68/47
f 38/69/46 34/68/47 36/70/44
f 40/71/43 36/70/44 37/72/40
f 41/73/39 37/72/40 39/74/38
f 10/75/51 2/76/52 24/77/37
f 1/78/53 9/79/54 42/80/35
f 26/81/34 42/80/35 23/82/36
f 28/83/33 23/82/36 25/84/22
f 29/85/23 25/84/22 27/86/24
f 4/87/55 6/88/56 31/89/25
f 11/32/57 12/10/57 21/12/57
f 8/90/58 35/42/29 6/43/30
f 33/60/47 35/57/44 37/59/46
f 41/73/39 40/71/43 37/72/40
f 23/50/37 42/52/39 40/51/38
f 26/81/34 1/78/53 42/80/35
f 30/36/23 3/33/20 26/35/22
f 28/83/33 26/81/34 23/82/36
f 25/47/34 23/50/37 41/48/35
f 24/77/37 41/73/39 39/74/38
f 10/91/59 39/56/43 8/58/45
f 27/86/24 4/87/55 31/89/25
f 35/42/29 33/40/27 31/41/28
f 32/62/28 33/60/47 36/61/29
f 40/71/43 38/69/46 36/70/44
f 42/52/39 9/54/41 38/53/40
f 38/69/46 7/66/49 34/68/47
f 30/64/26 32/62/28 34/63/27
f 33/40/27 32/38/25 29/39/26
f 31/89/25 29/85/23 27/86/24
f 24/49/36 2/44/31 27/46/33
f 39/74/38 10/75/51 24/77/37
f 27/46/33 25/47/34 24/49/36
f 29/85/23 28/83/33 25/84/22
f 32/38/25 30/36/23 28/37/24
f 3/92/60 30/64/26 5/65/48
