# Blender v3.4.1 OBJ File: 'restaurant_bits_extra_export.blend'
# www.blender.org
mtllib icecream_container_icecream_strawberry.mtl
o icecream_container_icecream_strawberry_Cube.378
v -0.407196 0.126628 0.701929
v 0.407196 0.126628 0.701929
v -0.407196 0.126628 -0.701929
v 0.407196 0.126628 -0.701929
v -0.135732 0.126628 0.701929
v 0.135732 0.126628 0.701929
v 0.135732 0.126628 -0.701929
v -0.135732 0.126628 -0.701929
v -0.407196 0.126628 -0.421157
v -0.407196 0.126628 -0.140386
v -0.407196 0.126628 0.140386
v -0.407196 0.126628 0.421157
v 0.407196 0.126628 0.421157
v 0.407196 0.126628 0.140386
v 0.407196 0.126628 -0.140386
v 0.407196 0.126628 -0.421157
v -0.135732 0.076733 0.421157
v -0.135732 0.179993 0.140386
v -0.135732 0.076733 -0.140386
v -0.135732 0.141650 -0.421157
v 0.135732 0.157899 0.421157
v 0.135732 0.076733 0.140386
v 0.135732 0.162433 -0.140386
v 0.135732 0.076733 -0.421157
v -0.242901 -0.173372 0.418716
v 0.242902 -0.173372 0.418716
v -0.242901 -0.173372 -0.418716
v 0.242902 -0.173372 -0.418716
v 0.000000 -0.173372 0.418716
v 0.000000 -0.173372 -0.418716
v -0.242901 -0.173372 0.000000
v 0.242902 -0.173372 0.000000
vt 0.718860 0.434374
vt 0.697953 0.434374
vt 0.697953 0.358509
vt 0.677047 0.434374
vt 0.656140 0.434374
vt 0.656140 0.358509
vt 0.677047 0.358509
vt 0.697953 0.358509
vt 0.677047 0.358509
vt 0.677047 0.434374
vt 0.697953 0.434374
vt 0.677047 0.434374
vt 0.697953 0.358509
vt 0.677047 0.358509
vt 0.697953 0.434374
vt 0.656140 0.434374
vt 0.656140 0.358509
vt 0.656140 0.358509
vt 0.656140 0.434374
vt 0.718860 0.434374
vt 0.718860 0.358509
vt 0.718860 0.434374
vt 0.718860 0.358509
vt 0.718860 0.358509
vt 0.697953 0.387499
vt 0.718860 0.311634
vt 0.718860 0.311634
vt 0.697953 0.387499
vt 0.718860 0.311634
vt 0.718860 0.387499
vt 0.718860 0.387499
vt 0.718860 0.311634
vt 0.677047 0.311634
vt 0.677047 0.311634
vt 0.656140 0.311634
vt 0.656140 0.387499
vt 0.656140 0.387499
vt 0.656140 0.311634
vt 0.718860 0.434374
vt 0.697953 0.311634
vt 0.697953 0.311634
vt 0.718860 0.311634
vt 0.718860 0.387499
vt 0.718860 0.387499
vt 0.718860 0.387499
vt 0.656140 0.311634
vt 0.656140 0.387499
vt 0.656140 0.387499
vt 0.656140 0.311634
vt 0.656140 0.387499
vt 0.677047 0.387499
vt 0.677047 0.387499
vt 0.656140 0.311634
vt 0.656140 0.298477
vt 0.656140 0.298477
vt 0.697953 0.298477
vt 0.718860 0.298477
vt 0.718860 0.298477
vt 0.677047 0.298477
vt 0.718860 0.298477
vt 0.656140 0.298477
vn -0.1369 0.9896 0.0449
vn -0.0445 0.9904 0.1306
vn 0.0334 0.9982 -0.0494
vn 0.0299 0.9992 0.0265
vn -0.0271 0.9993 -0.0273
vn 0.0030 0.9983 0.0589
vn 0.0583 0.9983 0.0054
vn -0.0730 0.9966 0.0374
vn -0.0596 0.9954 0.0751
vn 0.0445 0.9904 -0.1306
vn -0.0209 0.9996 -0.0176
vn 0.0465 0.9984 -0.0308
vn 0.0412 0.9985 -0.0368
vn -0.0083 0.9999 -0.0088
vn -0.0569 0.9981 0.0251
vn 0.1369 0.9896 -0.0449
vn 0.0000 1.0000 0.0000
vn -0.1018 0.9904 0.0933
vn 0.0895 0.9916 -0.0934
vn 0.0562 0.9968 0.0567
vn 0.0419 0.9964 -0.0736
vn -0.1050 0.9914 0.0775
vn 0.0543 0.9955 -0.0777
vn 0.0000 -0.6865 -0.7272
vn 0.8771 -0.4803 0.0000
vn -0.8771 -0.4803 0.0000
vn 0.0000 -0.6865 0.7272
vn 0.0000 -1.0000 0.0000
usemtl restaurant
s 1
f 16/1/1 7/2/2 24/3/3
f 20/4/4 3/5/5 9/6/6
f 24/3/3 8/7/7 20/4/4
f 6/8/8 17/9/9 5/10/10
f 21/11/11 18/12/12 17/9/9
f 22/13/13 19/14/14 18/12/12
f 23/15/15 20/4/4 19/14/14
f 5/10/10 12/16/16 1/17/17
f 17/9/9 11/18/18 12/16/16
f 18/12/12 10/19/19 11/18/18
f 19/14/14 9/6/6 10/19/19
f 2/20/20 21/11/11 6/8/8
f 13/21/21 22/13/13 21/11/11
f 14/22/22 23/15/15 22/13/13
f 15/23/23 24/3/3 23/15/15
f 16/1/1 4/24/17 7/2/2
f 20/4/4 8/7/7 3/5/5
f 24/3/3 7/2/2 8/7/7
f 6/8/8 21/11/11 17/9/9
f 21/11/11 22/13/13 18/12/12
f 22/13/13 23/15/15 19/14/14
f 23/15/15 24/3/3 20/4/4
f 5/10/10 17/9/9 12/16/16
f 17/9/9 18/12/12 11/18/18
f 18/12/12 19/14/14 10/19/19
f 19/14/14 20/4/4 9/6/6
f 2/20/20 13/21/21 21/11/11
f 13/21/21 14/22/22 22/13/13
f 14/22/22 15/23/23 23/15/15
f 15/23/23 16/1/1 24/3/3
f 7/25/24 4/26/24 28/27/24 30/28/24
f 13/29/25 2/30/25 26/31/25 32/32/25
f 8/33/24 7/25/24 30/34/24
f 1/35/26 12/36/26 31/37/26 25/38/26
f 14/22/25 13/21/25 32/39/25
f 2/30/27 6/40/27 29/41/27 26/31/27
f 15/42/25 14/43/25 32/32/25
f 4/26/25 16/44/25 32/45/25 28/27/25
f 16/44/25 15/42/25 32/45/25
f 9/46/26 3/47/26 27/48/26 31/49/26
f 3/47/24 8/33/24 30/34/24 27/48/24
f 10/50/26 9/46/26 31/37/26
f 5/51/27 1/35/27 25/38/27 29/52/27
f 11/53/26 10/50/26 31/49/26
f 6/40/27 5/51/27 29/41/27
f 12/36/26 11/53/26 31/37/26
f 31/54/28 27/55/28 30/56/28
f 32/57/28 30/56/28 28/58/28
f 29/59/28 32/57/28 26/60/28
f 31/54/28 30/56/28 32/57/28
f 25/61/28 31/54/28 29/59/28
f 29/59/28 31/54/28 32/57/28
