# Blender v3.4.1 OBJ File: 'restaurant_bits_extra_export.blend'
# www.blender.org
mtllib icecream_cherry.mtl
o icecream_cherry_Sphere.162
v -0.000000 0.170182 -0.096025
v -0.000000 0.137028 -0.117315
v 0.000000 0.040390 -0.105247
v 0.000000 0.178436 -0.041014
v 0.067900 0.170182 -0.067900
v 0.082954 0.137028 -0.082954
v 0.086390 0.090693 -0.086390
v 0.074421 0.040390 -0.074421
v 0.054435 0.016066 -0.054435
v 0.041014 0.178437 0.000000
v 0.096025 0.170182 0.000000
v 0.117315 0.137028 0.000000
v 0.122174 0.090693 0.000000
v 0.105247 0.040390 0.000000
v 0.076983 0.016066 0.000000
v 0.067900 0.170182 0.067900
v 0.082954 0.137028 0.082954
v 0.086390 0.090693 0.086390
v 0.074421 0.040390 0.074421
v 0.054435 0.016066 0.054435
v -0.000000 0.178436 0.041014
v -0.000000 0.170182 0.096025
v -0.000000 0.137028 0.117315
v -0.000000 0.090693 0.122174
v -0.000000 0.040390 0.105247
v -0.000000 0.016066 0.076983
v -0.067900 0.170182 0.067900
v -0.082954 0.137028 0.082954
v -0.086390 0.090693 0.086390
v -0.074421 0.040390 0.074421
v -0.054435 0.016066 0.054435
v 0.000000 0.002559 -0.000000
v -0.041014 0.178437 -0.000000
v -0.096025 0.170182 -0.000000
v -0.117315 0.137028 -0.000000
v -0.122174 0.090693 -0.000000
v -0.105247 0.040390 -0.000000
v -0.076983 0.016066 -0.000000
v -0.067900 0.170182 -0.067900
v -0.082954 0.137028 -0.082954
v -0.086390 0.090693 -0.086390
v -0.074421 0.040390 -0.074421
v -0.054435 0.016066 -0.054435
v 0.000000 0.090693 -0.122174
v 0.000000 0.016066 -0.076983
v -0.000000 0.149466 0.000000
v 0.049337 0.183833 -0.049337
v 0.069773 0.183834 0.000000
v 0.049337 0.183833 0.049337
v -0.000000 0.183834 0.069773
v -0.049337 0.183833 0.049337
v -0.069773 0.183834 -0.000000
v -0.049337 0.183833 -0.049337
v 0.000000 0.183834 -0.069773
v 0.000170 0.147997 -0.009953
v 0.009912 0.150055 -0.000000
v 0.000170 0.147997 0.009953
v -0.009573 0.145940 -0.000000
v -0.010717 0.239750 -0.017005
v -0.004540 0.229920 -0.026603
v -0.000967 0.241810 -0.007044
v 0.010714 0.233142 -0.011019
v -0.000967 0.241810 0.007044
v 0.010714 0.233142 0.011019
v -0.010717 0.239750 0.017005
v -0.004540 0.229920 0.026603
v -0.024506 0.236838 0.017005
v -0.026113 0.225364 0.026603
v -0.034257 0.234778 0.007044
v -0.041367 0.222142 0.011019
v -0.034257 0.234778 -0.007044
v -0.041367 0.222142 -0.011019
v -0.024506 0.236838 -0.017005
v -0.026113 0.225364 -0.026603
v -0.017646 0.238454 -0.000000
vt 0.965324 0.271193
vt 0.956767 0.271193
vt 0.936109 0.265561
vt 0.956767 0.271193
vt 0.967494 0.315604
vt 0.964352 0.294243
vt 0.936109 0.294243
vt 0.936109 0.315604
vt 0.959071 0.384865
vt 0.952793 0.339967
vt 0.959704 0.339967
vt 0.968582 0.384866
vt 0.956767 0.275671
vt 0.936109 0.275671
vt 0.936109 0.346002
vt 0.964162 0.346002
vt 0.952793 0.339967
vt 0.959071 0.384865
vt 0.976050 0.294243
vt 0.965324 0.275671
vt 0.975782 0.346002
vt 0.980494 0.315604
vt 0.941854 0.299873
vt 0.936109 0.327341
vt 0.952793 0.327341
vt 0.936109 0.271193
vt 0.912514 0.327341
vt 0.919425 0.327341
vt 0.922239 0.299874
vt 0.915451 0.271193
vt 0.967494 0.315604
vt 0.964352 0.294243
vt 0.930364 0.299873
vt 0.936109 0.339967
vt 0.936109 0.384865
vt 0.956767 0.275671
vt 0.964162 0.346002
vt 0.919425 0.339967
vt 0.913147 0.384865
vt 0.936109 0.294243
vt 0.936109 0.275671
vt 0.936109 0.346002
vt 0.936109 0.315604
vt 0.906894 0.271193
vt 0.904724 0.315604
vt 0.907866 0.294243
vt 0.912514 0.339967
vt 0.903636 0.384866
vt 0.915451 0.275671
vt 0.908056 0.346002
vt 0.915451 0.271193
vt 0.896168 0.294243
vt 0.906894 0.275671
vt 0.896436 0.346002
vt 0.891724 0.315604
vt 0.936109 0.271193
vt 0.919425 0.339967
vt 0.913147 0.384865
vt 0.930364 0.299873
vt 0.936109 0.327341
vt 0.919425 0.327341
vt 0.904724 0.315604
vt 0.907866 0.294243
vt 0.936109 0.339967
vt 0.936109 0.384865
vt 0.915451 0.275671
vt 0.908056 0.346002
vt 0.936109 0.276865
vt 0.949979 0.299874
vt 0.959704 0.327341
vt 0.952793 0.327341
vt 0.941854 0.299873
vt 0.193073 0.298493
vt 0.196053 0.369128
vt 0.200732 0.364539
vt 0.196688 0.294947
vt 0.204040 0.361294
vt 0.200732 0.364539
vt 0.193073 0.298493
vt 0.196053 0.369128
vt 0.192744 0.372373
vt 0.189458 0.302038
vt 0.192744 0.372373
vt 0.204040 0.361294
vt 0.204040 0.378764
vt 0.200732 0.382009
vt 0.200523 0.446119
vt 0.202638 0.444045
vt 0.204040 0.378764
vt 0.202638 0.444045
vt 0.200732 0.382009
vt 0.200523 0.446119
vt 0.196053 0.386598
vt 0.197532 0.449052
vt 0.192744 0.389842
vt 0.195417 0.451126
vt 0.192744 0.389842
vt 0.195417 0.451126
vt 0.196053 0.386598
vt 0.197532 0.449052
vt 0.199037 0.447708
vn 0.4787 -0.8780 0.0000
vn 0.3385 -0.8780 0.3385
vn -0.0000 -1.0000 -0.0000
vn 0.3385 -0.8780 -0.3385
vn 0.7032 -0.1046 -0.7032
vn 0.5995 -0.5302 -0.5995
vn -0.0000 -0.5302 -0.8479
vn 0.0000 -0.1046 -0.9945
vn 0.4992 0.7082 -0.4992
vn 0.1656 0.9722 -0.1656
vn 0.2240 0.9746 -0.0000
vn 0.7060 0.7082 0.0000
vn 0.0000 -0.8780 -0.4787
vn -0.0000 0.3149 -0.9491
vn 0.6711 0.3149 -0.6711
vn 0.1656 0.9722 0.1656
vn 0.4992 0.7082 0.4992
vn 0.8479 -0.5302 0.0000
vn 0.9491 0.3149 0.0000
vn 0.9945 -0.1046 0.0000
vn 0.0000 0.9641 -0.2654
vn -0.0000 0.9746 0.2240
vn -0.0000 -0.8780 0.4787
vn -0.2240 0.9746 -0.0000
vn -0.1656 0.9722 0.1656
vn 0.2654 0.9641 0.0000
vn -0.3385 -0.8780 0.3385
vn 0.7032 -0.1046 0.7032
vn 0.5995 -0.5302 0.5995
vn -0.0000 0.7082 0.7060
vn 0.6711 0.3149 0.6711
vn -0.4992 0.7082 0.4992
vn -0.0000 -0.5302 0.8479
vn -0.0000 0.3149 0.9491
vn -0.0000 -0.1046 0.9945
vn -0.4787 -0.8780 -0.0000
vn -0.7032 -0.1046 0.7032
vn -0.5995 -0.5302 0.5995
vn -0.7060 0.7082 -0.0000
vn -0.6711 0.3149 0.6711
vn -0.3385 -0.8780 -0.3385
vn -0.8479 -0.5302 -0.0000
vn -0.9491 0.3149 -0.0000
vn -0.9945 -0.1046 -0.0000
vn -0.1656 0.9722 -0.1656
vn -0.4992 0.7082 -0.4992
vn -0.0000 0.9641 0.2654
vn 0.0000 0.9746 -0.2240
vn -0.7032 -0.1046 -0.7032
vn -0.5995 -0.5302 -0.5995
vn -0.0000 0.7082 -0.7060
vn -0.6711 0.3149 -0.6711
vn -0.4997 0.7075 -0.4997
vn -0.2654 0.9641 -0.0000
vn -0.4997 0.7075 0.4997
vn 0.4997 0.7075 0.4997
vn 0.4997 0.7075 -0.4997
vn 0.0563 -0.3055 -0.9505
vn -0.3231 -0.3027 -0.8966
vn 0.4249 -0.1568 -0.8916
vn 0.9925 -0.1221 0.0000
vn 0.9236 -0.0591 0.3786
vn 0.4249 -0.1568 0.8916
vn 0.0563 -0.3055 0.9505
vn -0.3231 -0.3027 0.8966
vn -0.8312 -0.4023 0.3837
vn -0.8729 -0.4878 -0.0000
vn -0.8312 -0.4023 -0.3837
vn 0.9236 -0.0591 -0.3786
vn 0.5102 0.8144 -0.2764
vn 0.1283 0.7329 -0.6681
vn -0.0055 0.8995 -0.4368
vn 0.2445 0.9526 -0.1809
vn 0.5102 0.8144 0.2764
vn 0.2445 0.9526 0.1809
vn 0.1283 0.7329 0.6681
vn -0.0055 0.8995 0.4368
vn -0.4133 0.6176 0.6691
vn -0.3595 0.8244 0.4371
vn -0.7974 0.5359 0.2775
vn -0.6102 0.7713 0.1812
vn -0.7974 0.5359 -0.2775
vn -0.6102 0.7713 -0.1812
vn -0.4133 0.6176 -0.6691
vn -0.3595 0.8244 -0.4371
vn -0.2067 0.9784 0.0000
usemtl restaurant
s 1
f 15/1/1 20/2/2 32/3/3
f 9/4/4 15/1/1 32/3/3
f 7/5/5 8/6/6 3/7/7 44/8/8
f 5/9/9 47/10/10 48/11/11 11/12/12
f 3/7/7 8/6/6 9/13/4 45/14/13
f 2/15/14 6/16/15 7/5/5 44/8/8
f 11/12/12 48/11/11 49/17/16 16/18/17
f 8/6/6 14/19/18 15/20/1 9/13/4
f 6/16/15 12/21/19 13/22/20 7/5/5
f 21/23/21 50/24/22 49/25/16
f 20/2/2 26/26/23 32/3/3
f 7/5/5 13/22/20 14/19/18 8/6/6
f 52/27/24 51/28/25 33/29/26
f 26/26/23 31/30/27 32/3/3
f 13/22/20 18/31/28 19/32/29 14/19/18
f 51/28/25 50/24/22 21/33/21
f 16/18/17 49/17/16 50/34/22 22/35/30
f 14/19/18 19/32/29 20/36/2 15/20/1
f 12/21/19 17/37/31 18/31/28 13/22/20
f 22/35/30 50/34/22 51/38/25 27/39/32
f 19/32/29 25/40/33 26/41/23 20/36/2
f 17/37/31 23/42/34 24/43/35 18/31/28
f 31/30/27 38/44/36 32/3/3
f 18/31/28 24/43/35 25/40/33 19/32/29
f 24/43/35 29/45/37 30/46/38 25/40/33
f 27/39/32 51/38/25 52/47/24 34/48/39
f 25/40/33 30/46/38 31/49/27 26/41/23
f 23/42/34 28/50/40 29/45/37 24/43/35
f 38/44/36 43/51/41 32/3/3
f 30/46/38 37/52/42 38/53/36 31/49/27
f 28/50/40 35/54/43 36/55/44 29/45/37
f 43/51/41 45/56/13 32/3/3
f 29/45/37 36/55/44 37/52/42 30/46/38
f 34/48/39 52/47/24 53/57/45 39/58/46
f 4/59/47 54/60/48 53/61/45
f 36/55/44 41/62/49 42/63/50 37/52/42
f 9/4/4 32/3/3 45/56/13
f 39/58/46 53/57/45 54/64/48 1/65/51
f 37/52/42 42/63/50 43/66/41 38/53/36
f 35/54/43 40/67/52 41/62/49 36/55/44
f 46/68/53 21/23/21 10/69/54
f 40/67/52 2/15/14 44/8/8 41/62/49
f 49/25/16 48/70/11 10/69/54
f 47/71/10 54/60/48 4/72/47
f 41/62/49 44/8/8 3/7/7 42/63/50
f 46/68/55 10/69/54 4/72/47
f 42/63/50 3/7/7 45/14/13 43/66/41
f 10/69/54 48/70/11 47/71/10
f 39/58/46 1/65/51 2/15/14 40/67/52
f 34/48/39 39/58/46 40/67/52 35/54/43
f 27/39/32 34/48/39 35/54/43 28/50/40
f 22/35/30 27/39/32 28/50/40 23/42/34
f 16/18/17 22/35/30 23/42/34 17/37/31
f 11/12/12 16/18/17 17/37/31 12/21/19
f 5/9/9 11/12/12 12/21/19 6/16/15
f 1/65/51 5/9/9 6/16/15 2/15/14
f 53/61/45 52/27/24 33/29/26
f 33/29/26 51/28/25 21/33/21
f 21/23/21 49/25/16 10/69/54
f 10/69/54 47/71/10 4/72/47
f 4/59/47 53/61/45 33/29/26
f 46/68/56 4/59/47 33/29/26
f 46/68/57 33/29/26 21/33/21
f 55/73/58 74/74/59 60/75/60
f 56/76/61 64/77/62 66/78/63 57/79/64
f 57/79/64 66/78/63 68/80/65
f 57/79/64 68/80/65 70/81/66 58/82/67
f 58/82/67 70/81/66 72/83/68
f 58/82/67 72/83/68 74/74/59 55/73/58
f 55/73/58 60/75/60 62/84/69 56/76/61
f 56/76/61 62/84/69 64/77/62
f 62/85/70 60/86/71 59/87/72 61/88/73
f 64/89/74 62/85/70 61/88/73 63/90/75
f 66/91/76 64/89/74 63/90/75 65/92/77
f 68/93/78 66/91/76 65/92/77 67/94/79
f 70/95/80 68/93/78 67/94/79 69/96/81
f 72/97/82 70/95/80 69/96/81 71/98/83
f 74/99/84 72/97/82 71/98/83 73/100/85
f 60/86/71 74/99/84 73/100/85 59/87/72
f 61/88/73 59/87/72 75/101/86
f 59/87/72 73/100/85 75/101/86
f 73/100/85 71/98/83 75/101/86
f 71/98/83 69/96/81 75/101/86
f 69/96/81 67/94/79 75/101/86
f 67/94/79 65/92/77 75/101/86
f 65/92/77 63/90/75 75/101/86
f 63/90/75 61/88/73 75/101/86
f 1/65/51 54/64/48 47/10/10 5/9/9
