# Blender v3.4.1 OBJ File: 'restaurant_bits_extra_export.blend'
# www.blender.org
mtllib icecream_softserve_icecream_chocolate.mtl
o icecream_softserve_icecream_chocolate_Sphere.128
v 0.156432 0.068698 -0.156427
v 0.158192 0.346648 -0.000000
v -0.000000 0.012604 0.000000
v 0.082616 0.016213 -0.199443
v 0.152651 0.016213 -0.152647
v 0.199447 0.016213 -0.082612
v -0.081362 0.097759 -0.196436
v -0.000020 0.160016 -0.225000
v 0.000003 0.068698 -0.221225
v 0.081369 0.097759 -0.196436
v 0.110850 0.347135 -0.109076
v 0.159100 0.159983 -0.159100
v 0.198116 0.247243 -0.082138
v 0.003898 0.516911 0.023342
v 0.087954 0.060938 -0.212335
v 0.000003 0.016213 -0.215878
v -0.000027 0.160016 0.225000
v -0.000003 0.068698 0.221225
v -0.081464 0.247959 0.198293
v -0.081369 0.097759 0.196436
v -0.159060 0.160121 0.159100
v -0.083351 0.445541 0.023347
v -0.151946 0.318121 0.000003
v -0.083351 0.445541 -0.023342
v -0.123688 0.535895 0.000002
v 0.087947 0.060938 0.212335
v 0.082608 0.016213 0.199446
v -0.000003 0.016213 0.215878
v -0.082615 0.016213 0.199446
v -0.224857 0.159985 -0.000003
v -0.221225 0.068698 -0.000003
v -0.196436 0.097759 -0.081369
v -0.081463 0.247959 -0.198294
v -0.000380 0.339811 -0.154255
v -0.212335 0.060938 0.087947
v -0.215878 0.016213 -0.000003
v -0.199446 0.016213 -0.082615
v 0.196436 0.097759 -0.081362
v 0.225000 0.159983 0.000003
v 0.221225 0.068698 0.000003
v 0.198117 0.247242 0.082138
v 0.196436 0.097759 0.081369
v 0.110846 0.347126 0.109072
v 0.159100 0.159983 0.159100
v -0.021659 0.496012 0.056361
v 0.212335 0.060938 -0.087947
v 0.212335 0.060938 0.087954
v 0.215878 0.016213 0.000003
v -0.159056 0.160121 -0.159101
v -0.156427 0.068698 -0.156432
v -0.021653 0.496002 -0.056361
v 0.082114 0.248945 -0.198298
v 0.003895 0.516911 -0.023347
v -0.212332 0.060938 -0.087955
v -0.087950 0.060938 -0.212336
v -0.152647 0.016213 -0.152651
v -0.082612 0.016213 -0.199447
v 0.156427 0.068698 0.156432
v 0.082112 0.248942 0.198294
v 0.081365 0.097759 0.196438
v -0.000379 0.339809 0.154251
v -0.057799 0.466449 0.056362
v -0.108461 0.325720 0.109076
v 0.199443 0.016213 0.082616
v 0.152647 0.016213 0.152651
v -0.156432 0.068698 0.156427
v -0.197011 0.244987 0.082135
v -0.196438 0.097759 0.081365
v -0.197012 0.244987 -0.082136
v -0.108465 0.325719 -0.109071
v -0.057799 0.466445 -0.056358
v -0.087955 0.060938 0.212332
v -0.152651 0.016213 0.152647
v -0.199447 0.016213 0.082612
v 0.063320 -0.000010 -0.152863
v 0.000003 -0.000010 -0.165458
v -0.063320 -0.000010 0.152863
v -0.000003 -0.000010 0.165458
v -0.152863 -0.000010 -0.063320
v -0.165458 -0.000010 -0.000003
v 0.165458 -0.000010 0.000003
v 0.152863 -0.000010 -0.063313
v -0.063317 -0.000010 -0.152865
v -0.116994 -0.000010 -0.116999
v 0.116994 -0.000010 0.116999
v 0.152860 -0.000010 0.063321
v 0.063317 -0.000010 0.152865
v -0.152865 -0.000010 0.063317
v -0.116999 -0.000010 0.116994
v 0.116999 -0.000010 -0.116994
vt 0.821426 0.870197
vt 0.834827 0.887362
vt 0.822514 0.887362
vt 0.840429 0.884857
vt 0.834262 0.906126
vt 0.821426 0.841990
vt 0.845146 0.863259
vt 0.840429 0.841990
vt 0.834262 0.906126
vt 0.821633 0.814094
vt 0.822514 0.872261
vt 0.834827 0.872261
vt 0.833198 0.814094
vt 0.843055 0.872261
vt 0.840926 0.814094
vt 0.832818 0.866065
vt 0.840429 0.870197
vt 0.843055 0.887362
vt 0.827311 0.787111
vt 0.833198 0.792661
vt 0.840926 0.792661
vt 0.833233 0.787111
vt 0.818447 0.787111
vt 0.821633 0.792661
vt 0.839704 0.889449
vt 0.839704 0.932316
vt 0.826568 0.911651
vt 0.834263 0.954518
vt 0.807988 0.931695
vt 0.813431 0.940219
vt 0.821126 0.960198
vt 0.794554 0.870197
vt 0.807991 0.887362
vt 0.793465 0.887362
vt 0.821426 0.884857
vt 0.807988 0.906126
vt 0.794553 0.841990
vt 0.834262 0.863259
vt 0.821426 0.841990
vt 0.807991 0.906126
vt 0.794347 0.814094
vt 0.793465 0.872261
vt 0.807991 0.872261
vt 0.807991 0.814094
vt 0.807991 0.866065
vt 0.807991 0.787111
vt 0.807991 0.792661
vt 0.797534 0.787111
vt 0.794347 0.792661
vt 0.839704 0.889449
vt 0.821126 0.932316
vt 0.834263 0.911651
vt 0.826568 0.954518
vt 0.821126 0.940219
vt 0.821126 0.960198
vt 0.821426 0.870197
vt 0.807988 0.887362
vt 0.822513 0.887362
vt 0.775550 0.884857
vt 0.770834 0.906126
vt 0.775550 0.841990
vt 0.781717 0.863259
vt 0.821632 0.814094
vt 0.822513 0.872261
vt 0.807988 0.872261
vt 0.807988 0.814094
vt 0.793465 0.872261
vt 0.794347 0.814094
vt 0.807988 0.866065
vt 0.794553 0.870197
vt 0.793465 0.887362
vt 0.807988 0.787111
vt 0.807988 0.792661
vt 0.794347 0.792661
vt 0.797533 0.787111
vt 0.818445 0.787111
vt 0.821632 0.792661
vt 0.776275 0.889449
vt 0.794852 0.932316
vt 0.781717 0.911651
vt 0.789411 0.954518
vt 0.794853 0.940219
vt 0.794853 0.960198
vt 0.775550 0.870197
vt 0.770037 0.887362
vt 0.772924 0.887362
vt 0.840429 0.884857
vt 0.845146 0.906126
vt 0.840429 0.841990
vt 0.781717 0.863259
vt 0.775053 0.814094
vt 0.772924 0.872261
vt 0.770037 0.872261
vt 0.772341 0.814094
vt 0.772926 0.872261
vt 0.775053 0.814094
vt 0.772879 0.866065
vt 0.775550 0.870197
vt 0.772926 0.887362
vt 0.780666 0.787111
vt 0.772341 0.792661
vt 0.775053 0.792661
vt 0.782746 0.787111
vt 0.782745 0.787111
vt 0.775053 0.792661
vt 0.794853 0.889449
vt 0.776275 0.932316
vt 0.807989 0.911651
vt 0.789411 0.954518
vt 0.813431 0.940219
vt 0.802548 0.960198
vt 0.845943 0.887362
vt 0.775550 0.884857
vt 0.781717 0.906126
vt 0.794554 0.841990
vt 0.834262 0.863259
vt 0.845943 0.872261
vt 0.843639 0.814094
vt 0.843055 0.872261
vt 0.840926 0.814094
vt 0.843101 0.866065
vt 0.840429 0.870197
vt 0.843055 0.887362
vt 0.835313 0.787111
vt 0.843639 0.792661
vt 0.840926 0.792661
vt 0.833233 0.787111
vt 0.821126 0.889449
vt 0.839704 0.932316
vt 0.807989 0.911651
vt 0.826568 0.954518
vt 0.802548 0.940219
vt 0.813431 0.960198
vt 0.781152 0.887362
vt 0.821426 0.884857
vt 0.807991 0.863259
vt 0.781152 0.872261
vt 0.782782 0.814094
vt 0.783162 0.866065
vt 0.788669 0.787111
vt 0.782782 0.792661
vt 0.821126 0.889449
vt 0.794853 0.932316
vt 0.826568 0.911651
vt 0.807989 0.954518
vt 0.821126 0.940219
vt 0.813431 0.960198
vt 0.834827 0.887362
vt 0.794553 0.884857
vt 0.781717 0.906126
vt 0.775550 0.841990
vt 0.807988 0.863259
vt 0.834827 0.872261
vt 0.833197 0.814094
vt 0.832817 0.866065
vt 0.827310 0.787111
vt 0.833197 0.792661
vt 0.794852 0.889449
vt 0.821126 0.932316
vt 0.789411 0.911651
vt 0.807989 0.954518
vt 0.794853 0.940219
vt 0.802548 0.960198
vt 0.781152 0.887362
vt 0.770834 0.863259
vt 0.781152 0.872261
vt 0.782781 0.814094
vt 0.783161 0.866065
vt 0.788668 0.787111
vt 0.782781 0.792661
vt 0.776275 0.889449
vt 0.776275 0.932316
vt 0.789411 0.911651
vt 0.781717 0.954518
vt 0.802548 0.940219
vt 0.794853 0.960198
vt 0.794554 0.884857
vt 0.807988 0.851562
vt 0.821426 0.880001
vt 0.794553 0.855694
vt 0.832817 0.851562
vt 0.840429 0.880001
vt 0.821426 0.855694
vt 0.843101 0.851562
vt 0.840429 0.880001
vt 0.840429 0.855694
vt 0.832818 0.851562
vt 0.821426 0.880001
vt 0.840429 0.855694
vt 0.807991 0.851562
vt 0.794554 0.880001
vt 0.821426 0.855694
vt 0.783162 0.851562
vt 0.775550 0.880001
vt 0.794554 0.855694
vt 0.772879 0.851562
vt 0.775550 0.880001
vt 0.775550 0.855694
vt 0.783161 0.851562
vt 0.794553 0.880001
vt 0.775550 0.855694
vt 0.807991 0.787111
vt 0.782735 0.787111
vt 0.831322 0.787111
vt 0.790132 0.787111
vt 0.825848 0.787111
vt 0.817655 0.787111
vt 0.798326 0.787111
vt 0.784656 0.787111
vt 0.833245 0.787111
vn 0.3334 0.4907 -0.8050
vn 0.6879 0.2314 -0.6879
vn 0.3808 0.0983 -0.9194
vn 0.9144 -0.1425 0.3788
vn 0.7061 -0.0586 0.7057
vn 0.3787 -0.1424 0.9145
vn 0.9984 -0.0570 0.0000
vn 0.9145 -0.1425 -0.3788
vn 0.7061 -0.0586 -0.7057
vn 0.3753 -0.1959 -0.9060
vn 0.6940 -0.1916 -0.6940
vn 0.9194 0.0983 -0.3808
vn 0.9060 -0.1959 -0.3753
vn 0.8050 0.4907 -0.3334
vn 0.0996 -0.9900 -0.0996
vn 0.2166 -0.9519 -0.2166
vn 0.2830 -0.9519 -0.1172
vn 0.1302 -0.9900 -0.0539
vn 0.0539 -0.9900 -0.1302
vn 0.1172 -0.9519 -0.2830
vn 0.8847 0.2866 0.3677
vn 0.8847 0.2866 -0.3677
vn 0.5744 0.5718 0.5858
vn 0.8175 0.5760 0.0000
vn -0.7946 0.6071 -0.0000
vn 0.0230 0.6351 0.7721
vn 0.4198 0.8495 0.3194
vn -0.3334 0.4908 -0.8050
vn 0.0000 0.2314 -0.9729
vn -0.3808 0.0983 -0.9194
vn -0.0004 -0.0591 0.9983
vn -0.3789 -0.1425 0.9144
vn 0.3788 -0.1425 -0.9145
vn -0.0004 -0.0591 -0.9983
vn -0.3753 -0.1959 -0.9060
vn 0.0000 -0.1917 -0.9815
vn 0.0000 -0.9900 -0.1409
vn 0.0000 -0.9519 -0.3063
vn -0.0539 -0.9900 -0.1302
vn -0.1172 -0.9519 -0.2830
vn 0.3607 0.3046 -0.8815
vn 0.5744 0.5718 -0.5858
vn 0.4198 0.8495 -0.3195
vn 0.3334 0.4907 0.8050
vn -0.0000 0.2314 0.9729
vn 0.3808 0.0983 0.9194
vn -0.9147 -0.1412 0.3786
vn -0.9989 -0.0479 -0.0000
vn -0.9147 -0.1412 -0.3786
vn -0.7072 -0.0525 0.7051
vn 0.3752 -0.1959 0.9060
vn -0.0000 -0.1916 0.9815
vn -0.3809 0.0983 0.9194
vn -0.3753 -0.1959 0.9060
vn -0.3335 0.4907 0.8050
vn -0.0000 -0.9900 0.1409
vn -0.0000 -0.9519 0.3063
vn -0.1172 -0.9519 0.2830
vn -0.0539 -0.9900 0.1302
vn 0.0539 -0.9900 0.1302
vn 0.1172 -0.9519 0.2830
vn -0.8675 0.3534 0.3499
vn -0.3713 0.3287 0.8684
vn -0.8332 0.5530 0.0000
vn -0.6226 0.5456 0.5610
vn -0.9378 0.1520 -0.3122
vn -0.9378 0.1520 0.3122
vn -0.8050 0.4907 0.3334
vn -0.9729 0.2314 -0.0000
vn -0.9194 0.0983 0.3808
vn -0.7072 -0.0526 -0.7051
vn -0.9060 -0.1959 0.3753
vn -0.9815 -0.1916 -0.0000
vn -0.9194 0.0983 -0.3809
vn -0.9060 -0.1959 -0.3753
vn -0.8050 0.4907 -0.3335
vn -0.1409 -0.9900 -0.0000
vn -0.3063 -0.9519 -0.0000
vn -0.2830 -0.9519 -0.1172
vn -0.1302 -0.9900 -0.0539
vn -0.1302 -0.9900 0.0539
vn -0.2830 -0.9519 0.1172
vn -0.3713 0.3287 -0.8684
vn -0.8675 0.3534 -0.3499
vn -0.0325 0.5520 -0.8332
vn -0.6226 0.5456 -0.5610
vn 0.0230 0.6351 -0.7721
vn -0.5462 0.3491 -0.7615
vn 0.9729 0.2314 0.0000
vn -0.3789 -0.1425 -0.9144
vn 0.9815 -0.1916 0.0000
vn 0.9194 0.0983 0.3808
vn 0.9060 -0.1959 0.3753
vn 0.8050 0.4907 0.3334
vn 0.1409 -0.9900 0.0000
vn 0.3063 -0.9519 0.0000
vn 0.2830 -0.9519 0.1172
vn 0.1302 -0.9900 0.0539
vn 0.3607 0.3046 0.8815
vn -0.0324 0.5520 0.8332
vn -0.5462 0.3491 0.7615
vn -0.6879 0.2314 -0.6879
vn -0.6940 -0.1916 -0.6940
vn -0.0996 -0.9900 -0.0996
vn -0.2166 -0.9519 -0.2166
vn 0.6879 0.2314 0.6879
vn 0.6940 -0.1916 0.6940
vn 0.0996 -0.9900 0.0996
vn 0.2166 -0.9519 0.2166
vn -0.6879 0.2314 0.6879
vn -0.6940 -0.1916 0.6940
vn -0.0996 -0.9900 0.0996
vn -0.2166 -0.9519 0.2166
vn -0.0000 -1.0000 -0.0000
usemtl restaurant
s 1
f 10/1/1 1/2/2 15/3/3
f 42/4/4 44/5/5 60/6/6
f 39/7/7 38/8/8 12/9/9
f 4/10/10 15/11/3 1/12/2 5/13/11
f 5/13/11 1/12/2 46/14/12 6/15/13
f 1/16/2 38/17/14 46/18/12
f 90/19/15 5/20/16 6/21/17 82/22/18
f 75/23/19 4/24/20 5/20/16 90/19/15
f 41/25/21 39/7/7 13/26/22
f 43/27/23 41/25/21 2/28/24
f 25/29/25 45/30/26 14/31/27
f 7/32/28 9/33/29 55/34/30
f 60/35/6 17/36/31 20/37/32
f 12/38/9 10/39/33 8/40/34
f 57/41/35 55/42/30 9/43/29 16/44/36
f 16/44/36 9/43/29 15/11/3 4/10/10
f 9/45/29 10/1/1 15/3/3
f 76/46/37 16/47/38 4/24/20 75/23/19
f 83/48/39 57/49/40 16/47/38 76/46/37
f 13/50/22 12/38/9 52/51/41
f 2/52/24 13/50/22 11/53/42
f 25/29/25 14/54/27 53/55/43
f 60/56/44 18/57/45 26/58/46
f 68/59/47 30/60/48 32/61/49
f 21/62/50 20/37/32 17/36/31
f 27/63/51 26/64/46 18/65/45 28/66/52
f 28/66/52 18/65/45 72/67/53 29/68/54
f 18/69/45 20/70/55 72/71/53
f 78/72/56 28/73/57 29/74/58 77/75/59
f 87/76/60 27/77/61 28/73/57 78/72/56
f 67/78/62 21/62/50 19/79/63
f 23/80/64 67/78/62 63/81/65
f 25/29/25 24/82/66 22/83/67
f 68/84/68 31/85/69 35/86/70
f 38/87/8 39/88/7 42/89/4
f 49/90/71 32/61/49 30/60/48
f 74/91/72 35/92/70 31/93/69 36/94/73
f 36/94/73 31/93/69 54/95/74 37/96/75
f 31/97/69 32/98/76 54/99/74
f 80/100/77 36/101/78 37/102/79 79/103/80
f 88/104/81 74/105/82 36/101/78 80/100/77
f 33/106/83 49/90/71 69/107/84
f 34/108/85 33/106/83 70/109/86
f 25/29/25 51/110/87 71/111/88
f 38/17/14 40/112/89 46/18/12
f 32/113/49 49/114/71 7/115/90
f 44/116/5 42/89/4 39/88/7
f 6/15/13 46/14/12 40/117/89 48/118/91
f 48/118/91 40/117/89 47/119/92 64/120/93
f 40/121/89 42/122/94 47/123/92
f 81/124/95 48/125/96 64/126/97 86/127/98
f 82/22/18 6/21/17 48/125/96 81/124/95
f 59/128/99 44/116/5 41/129/21
f 61/130/100 59/128/99 43/131/23
f 25/29/25 62/132/101 45/133/26
f 32/98/76 50/134/102 54/99/74
f 10/135/33 12/9/9 38/8/8
f 8/136/34 7/115/90 49/114/71
f 37/96/75 54/95/74 50/137/102 56/138/103
f 56/138/103 50/137/102 55/42/30 57/41/35
f 50/139/102 7/32/28 55/34/30
f 84/140/104 56/141/105 57/49/40 83/48/39
f 79/103/80 37/102/79 56/141/105 84/140/104
f 52/142/41 8/136/34 33/143/83
f 11/144/42 52/142/41 34/145/85
f 25/29/25 53/146/43 51/147/87
f 42/122/94 58/148/106 47/123/92
f 20/149/32 21/150/50 68/151/47
f 17/152/31 60/6/6 44/5/5
f 64/120/93 47/119/92 58/153/106 65/154/107
f 65/154/107 58/153/106 26/64/46 27/63/51
f 58/155/106 60/56/44 26/58/46
f 85/156/108 65/157/109 27/77/61 87/76/60
f 86/127/98 64/126/97 65/157/109 85/156/108
f 19/158/63 17/152/31 59/159/99
f 63/160/65 19/158/63 61/161/100
f 25/29/25 22/162/67 62/163/101
f 20/70/55 66/164/110 72/71/53
f 30/165/48 68/151/47 21/150/50
f 29/68/54 72/67/53 66/166/110 73/167/111
f 73/167/111 66/166/110 35/92/70 74/91/72
f 66/168/110 68/84/68 35/86/70
f 89/169/112 73/170/113 74/105/82 88/104/81
f 77/75/59 29/74/58 73/170/113 89/169/112
f 69/171/84 30/165/48 67/172/62
f 70/173/86 69/171/84 23/174/64
f 25/29/25 71/175/88 24/176/66
f 62/132/101 61/130/100 45/133/26
f 45/30/26 43/27/23 14/31/27
f 14/54/27 2/52/24 53/55/43
f 53/146/43 11/144/42 51/147/87
f 71/111/88 51/110/87 34/108/85
f 71/175/88 70/173/86 24/176/66
f 22/83/67 24/82/66 23/80/64
f 62/163/101 22/162/67 63/160/65
f 7/177/90 8/40/34 10/39/33
f 45/133/26 61/130/100 43/131/23
f 14/31/27 43/27/23 2/28/24
f 53/55/43 2/52/24 11/53/42
f 51/147/87 11/144/42 34/145/85
f 71/111/88 34/108/85 70/109/86
f 24/176/66 70/173/86 23/174/64
f 22/83/67 23/80/64 63/81/65
f 62/163/101 63/160/65 61/161/100
f 61/161/100 19/158/63 59/159/99
f 43/131/23 59/128/99 41/129/21
f 2/28/24 41/25/21 13/26/22
f 11/53/42 13/50/22 52/51/41
f 34/145/85 52/142/41 33/143/83
f 70/109/86 33/106/83 69/107/84
f 23/174/64 69/171/84 67/172/62
f 63/81/65 67/78/62 19/79/63
f 59/159/99 17/152/31 44/5/5
f 41/129/21 44/116/5 39/88/7
f 13/26/22 39/7/7 12/9/9
f 52/51/41 12/38/9 8/40/34
f 33/143/83 8/136/34 49/114/71
f 69/107/84 49/90/71 30/60/48
f 67/172/62 30/165/48 21/150/50
f 19/79/63 21/62/50 17/36/31
f 18/178/45 60/179/44 20/180/55
f 58/181/106 42/182/94 60/183/44
f 40/184/89 38/185/14 42/186/94
f 1/187/2 10/188/1 38/189/14
f 9/190/29 7/191/28 10/192/1
f 50/193/102 32/194/76 7/195/28
f 31/196/69 68/197/68 32/198/76
f 66/199/110 20/200/55 68/201/68
f 3/202/114 76/46/37 75/23/19
f 3/202/114 78/72/56 77/75/59
f 3/203/114 80/100/77 79/103/80
f 3/204/114 82/22/18 81/124/95
f 3/205/114 84/140/104 83/48/39
f 3/204/114 86/127/98 85/156/108
f 3/206/114 85/156/108 87/76/60
f 3/205/114 89/169/112 88/104/81
f 3/207/114 75/23/19 90/19/15
f 3/206/114 90/19/15 82/22/18
f 3/208/114 83/48/39 76/46/37
f 3/207/114 87/76/60 78/72/56
f 3/209/114 88/104/81 80/100/77
f 3/210/114 81/124/95 86/127/98
f 3/209/114 79/103/80 84/140/104
f 3/208/114 77/75/59 89/169/112
