# Blender v3.4.1 OBJ File: 'restaurant_bits_extra_export.blend'
# www.blender.org
mtllib icecream_waffle.mtl
o icecream_waffle_Cylinder.339
v 0.000000 0.050000 -0.271705
v 0.135852 0.050000 -0.235303
v 0.235303 0.050000 -0.135852
v 0.271705 0.050000 0.000000
v 0.235303 0.050000 0.135852
v 0.135852 0.050000 0.235303
v -0.000000 0.050000 0.271705
v -0.135852 0.050000 0.235303
v -0.235303 0.050000 0.135852
v -0.271705 0.050000 -0.000000
v -0.235303 0.050000 -0.135852
v -0.135852 0.050000 -0.235303
v -0.135852 0.034834 0.000000
v -0.000000 0.030235 0.000000
v 0.135852 0.034834 0.000000
v -0.135852 0.034834 0.135852
v -0.000000 0.034834 0.135852
v 0.135852 0.034834 0.135852
v -0.135852 0.034834 -0.135852
v -0.000000 0.034834 -0.135852
v 0.135852 0.034834 -0.135852
v 0.259808 0.000000 -0.150000
v 0.300000 0.000000 0.000000
v -0.259808 0.000000 -0.150000
v -0.150000 0.000000 -0.259808
v 0.150000 0.000000 -0.259808
v -0.300000 0.000000 -0.000000
v -0.259808 0.000000 0.150000
v -0.150000 0.000000 0.259808
v -0.000000 0.000000 0.300000
v 0.150000 0.000000 0.259808
v 0.259808 0.000000 0.150000
v 0.000000 0.000000 -0.300000
v -0.178901 0.017215 -0.061685
v -0.163935 0.030670 0.165285
v -0.062334 0.009208 -0.061684
v -0.062335 0.017215 0.180250
v 0.063033 0.009208 -0.061684
v 0.063034 0.017215 0.180250
v 0.179600 0.017215 -0.061685
v 0.164635 0.030670 0.165285
v 0.063033 0.009208 0.063683
v -0.062334 0.009208 0.063683
v -0.178901 0.017215 0.063684
v 0.179600 0.017215 0.063684
v 0.063034 0.017215 -0.178251
v -0.067928 0.017361 -0.194243
v -0.163935 0.030670 -0.163286
v 0.164635 0.030670 -0.163286
v 0.000000 -0.050000 -0.271705
v 0.135852 -0.050000 -0.235303
v 0.235303 -0.050000 -0.135852
v 0.271705 -0.050000 0.000000
v 0.235303 -0.050000 0.135852
v 0.135852 -0.050000 0.235303
v -0.000000 -0.050000 0.271705
v -0.135852 -0.050000 0.235303
v -0.235303 -0.050000 0.135852
v -0.271705 -0.050000 -0.000000
v -0.235303 -0.050000 -0.135852
v -0.135852 -0.050000 -0.235303
v -0.135852 -0.034834 0.000000
v -0.000000 -0.030235 0.000000
v 0.135852 -0.034834 0.000000
v -0.135852 -0.034834 0.135852
v -0.000000 -0.034834 0.135852
v 0.135852 -0.034834 0.135852
v -0.135852 -0.034834 -0.135852
v -0.000000 -0.034834 -0.135852
v 0.135852 -0.034834 -0.135852
v -0.178901 -0.017215 -0.061685
v -0.163935 -0.030670 0.165285
v -0.062334 -0.009208 -0.061684
v -0.062335 -0.017215 0.180250
v 0.063033 -0.009208 -0.061684
v 0.063034 -0.017215 0.180250
v 0.179600 -0.017215 -0.061685
v 0.164635 -0.030670 0.165285
v 0.063033 -0.009208 0.063683
v -0.062334 -0.009208 0.063683
v -0.178901 -0.017215 0.063684
v 0.179600 -0.017215 0.063684
v 0.063034 -0.017215 -0.178251
v -0.067928 -0.017361 -0.194243
v -0.163935 -0.030670 -0.163286
v 0.164635 -0.030670 -0.163286
vt 0.458238 0.638955
vt 0.460258 0.623432
vt 0.438836 0.623432
vt 0.438836 0.638955
vt 0.417413 0.623432
vt 0.419434 0.638955
vt 0.472440 0.638955
vt 0.475940 0.623432
vt 0.481680 0.623432
vt 0.477639 0.638955
vt 0.458238 0.638955
vt 0.460258 0.623432
vt 0.438836 0.638955
vt 0.438836 0.623432
vt 0.419434 0.638955
vt 0.417413 0.623432
vt 0.405231 0.638955
vt 0.401731 0.623432
vt 0.400032 0.638955
vt 0.395991 0.623432
vt 0.405231 0.638955
vt 0.401731 0.623432
vt 0.472440 0.638955
vt 0.475940 0.623432
vt 0.407972 0.528463
vt 0.419434 0.665496
vt 0.404729 0.575499
vt 0.419434 0.665496
vt 0.415835 0.572690
vt 0.415846 0.525976
vt 0.413810 0.527923
vt 0.419434 0.665496
vt 0.415852 0.574798
vt 0.415852 0.527246
vt 0.423063 0.524804
vt 0.438836 0.679694
vt 0.423062 0.571547
vt 0.438836 0.665496
vt 0.435207 0.570785
vt 0.435206 0.524672
vt 0.423063 0.525976
vt 0.423062 0.575338
vt 0.438836 0.665496
vt 0.435207 0.575499
vt 0.435206 0.525815
vt 0.442465 0.524672
vt 0.458238 0.665496
vt 0.442464 0.570785
vt 0.458238 0.665496
vt 0.454609 0.571547
vt 0.454608 0.524804
vt 0.442465 0.525815
vt 0.442464 0.575499
vt 0.458238 0.665496
vt 0.454609 0.575338
vt 0.454608 0.525976
vt 0.461825 0.525976
vt 0.461836 0.572690
vt 0.472942 0.575499
vt 0.469700 0.528462
vt 0.461819 0.527246
vt 0.461819 0.574798
vt 0.463861 0.527923
vt 0.442464 0.523910
vt 0.442465 0.571547
vt 0.454608 0.571679
vt 0.454609 0.524672
vt 0.423062 0.524672
vt 0.423063 0.571679
vt 0.435206 0.571547
vt 0.435207 0.523910
vt 0.404729 0.528624
vt 0.407972 0.575338
vt 0.415846 0.572851
vt 0.415835 0.525815
vt 0.461836 0.525815
vt 0.461825 0.572851
vt 0.469700 0.575338
vt 0.472942 0.528624
vt 0.442464 0.528624
vt 0.442465 0.572690
vt 0.454608 0.572851
vt 0.454609 0.528462
vt 0.423062 0.528462
vt 0.423063 0.572851
vt 0.435206 0.572690
vt 0.435207 0.528624
vt 0.415852 0.527923
vt 0.413810 0.574798
vt 0.415852 0.574121
vt 0.461819 0.527923
vt 0.461819 0.574121
vt 0.463861 0.574798
vt 0.458238 0.638955
vt 0.438836 0.638955
vt 0.419434 0.638955
vt 0.472440 0.638955
vt 0.477639 0.638955
vt 0.481680 0.607807
vt 0.475940 0.607807
vt 0.458238 0.638955
vt 0.460258 0.607807
vt 0.438836 0.638955
vt 0.438836 0.607807
vt 0.419434 0.638955
vt 0.417413 0.607807
vt 0.405231 0.638955
vt 0.401731 0.607807
vt 0.400032 0.638955
vt 0.395991 0.607807
vt 0.405231 0.638955
vt 0.472440 0.638955
vt 0.407972 0.528463
vt 0.404729 0.575499
vt 0.419434 0.665496
vt 0.415835 0.572690
vt 0.419434 0.665496
vt 0.415846 0.525976
vt 0.413810 0.527923
vt 0.415852 0.574798
vt 0.419434 0.665496
vt 0.415852 0.527246
vt 0.423063 0.524804
vt 0.423062 0.571547
vt 0.438836 0.679694
vt 0.435207 0.570785
vt 0.438836 0.665496
vt 0.435206 0.524672
vt 0.423063 0.525976
vt 0.423062 0.575338
vt 0.435207 0.575499
vt 0.438836 0.665496
vt 0.435206 0.525815
vt 0.442465 0.524672
vt 0.442464 0.570785
vt 0.458238 0.665496
vt 0.454609 0.571547
vt 0.458238 0.665496
vt 0.454608 0.524804
vt 0.442465 0.525815
vt 0.442464 0.575499
vt 0.454609 0.575338
vt 0.458238 0.665496
vt 0.454608 0.525976
vt 0.461825 0.525976
vt 0.461836 0.572690
vt 0.472942 0.575499
vt 0.469700 0.528462
vt 0.461819 0.527246
vt 0.461819 0.574798
vt 0.463861 0.527923
vt 0.442464 0.523910
vt 0.442465 0.571547
vt 0.454608 0.571679
vt 0.454609 0.524672
vt 0.423062 0.524672
vt 0.423063 0.571679
vt 0.435206 0.571547
vt 0.435207 0.523910
vt 0.404729 0.528624
vt 0.407972 0.575338
vt 0.415846 0.572851
vt 0.415835 0.525815
vt 0.461836 0.525815
vt 0.461825 0.572851
vt 0.469700 0.575338
vt 0.472942 0.528624
vt 0.442464 0.528624
vt 0.442465 0.572690
vt 0.454608 0.572851
vt 0.454609 0.528462
vt 0.423062 0.528462
vt 0.423063 0.572851
vt 0.435206 0.572690
vt 0.435207 0.528624
vt 0.415852 0.527923
vt 0.413810 0.574798
vt 0.415852 0.574121
vt 0.461819 0.527923
vt 0.461819 0.574121
vt 0.463861 0.574798
vn 0.4352 0.4925 -0.7537
vn 0.0000 0.4925 -0.8703
vn -0.4352 0.4925 -0.7537
vn 0.7537 0.4925 0.4352
vn 0.8703 0.4925 0.0000
vn 0.4352 0.4925 0.7537
vn -0.0000 0.4925 0.8703
vn -0.4352 0.4925 0.7537
vn -0.7537 0.4925 0.4352
vn -0.8703 0.4925 0.0000
vn -0.7537 0.4925 -0.4352
vn 0.7537 0.4925 -0.4352
vn 0.2805 0.9445 0.1712
vn 0.2763 0.9611 -0.0001
vn 0.0262 0.9996 -0.0039
vn 0.0591 0.9983 -0.0013
vn 0.0681 0.9955 0.0655
vn 0.2831 0.9435 -0.1726
vn 0.1733 0.9431 -0.2839
vn 0.1004 0.9888 -0.1105
vn 0.0700 0.9951 -0.0704
vn -0.0053 1.0000 -0.0080
vn -0.0003 1.0000 -0.0009
vn 0.0065 0.9980 0.0622
vn -0.0012 0.9994 -0.0342
vn -0.0000 0.9604 -0.2786
vn -0.0004 0.9982 -0.0599
vn 0.0025 1.0000 -0.0081
vn -0.0595 0.9982 -0.0012
vn -0.0699 0.9951 0.0695
vn -0.0013 0.9994 -0.0344
vn -0.1738 0.9427 -0.2848
vn -0.0704 0.9950 -0.0706
vn -0.0303 0.9995 -0.0037
vn -0.2775 0.9607 -0.0001
vn -0.2818 0.9439 0.1720
vn -0.1064 0.9881 -0.1112
vn -0.2844 0.9429 -0.1734
vn 0.0029 1.0000 0.0003
vn -0.0057 1.0000 0.0001
vn 0.0268 0.9996 -0.0032
vn -0.0309 0.9995 -0.0034
vn -0.0136 0.9581 0.2860
vn -0.0008 0.9997 0.0228
vn -0.1713 0.9443 0.2810
vn 0.2073 0.9309 0.3009
vn 0.0253 0.9935 0.1107
vn 0.0990 0.9906 0.0939
vn -0.1047 0.9900 0.0943
vn 0.4352 -0.4925 -0.7537
vn 0.0000 -0.4925 -0.8703
vn -0.4352 -0.4925 -0.7537
vn 0.7537 -0.4925 0.4352
vn 0.8703 -0.4925 0.0000
vn 0.4352 -0.4925 0.7537
vn -0.0000 -0.4925 0.8703
vn -0.4352 -0.4925 0.7537
vn -0.7537 -0.4925 0.4352
vn -0.8703 -0.4925 0.0000
vn -0.7537 -0.4925 -0.4352
vn 0.7537 -0.4925 -0.4352
vn 0.2805 -0.9445 0.1712
vn 0.0262 -0.9996 -0.0039
vn 0.2763 -0.9611 -0.0001
vn 0.0591 -0.9983 -0.0013
vn 0.0681 -0.9955 0.0655
vn 0.2831 -0.9435 -0.1726
vn 0.1004 -0.9888 -0.1105
vn 0.1733 -0.9431 -0.2839
vn 0.0700 -0.9951 -0.0704
vn -0.0053 -1.0000 -0.0080
vn -0.0003 -1.0000 -0.0009
vn 0.0065 -0.9980 0.0622
vn -0.0012 -0.9994 -0.0342
vn -0.0000 -0.9604 -0.2786
vn -0.0004 -0.9982 -0.0599
vn 0.0025 -1.0000 -0.0081
vn -0.0595 -0.9982 -0.0012
vn -0.0699 -0.9951 0.0695
vn -0.0013 -0.9994 -0.0344
vn -0.1738 -0.9427 -0.2848
vn -0.0704 -0.9950 -0.0706
vn -0.0303 -0.9995 -0.0037
vn -0.2775 -0.9607 -0.0001
vn -0.2818 -0.9439 0.1720
vn -0.1064 -0.9881 -0.1112
vn -0.2844 -0.9429 -0.1734
vn 0.0029 -1.0000 0.0003
vn -0.0057 -1.0000 0.0001
vn 0.0268 -0.9996 -0.0032
vn -0.0309 -0.9995 -0.0034
vn -0.0136 -0.9581 0.2860
vn -0.0008 -0.9997 0.0228
vn -0.1713 -0.9443 0.2810
vn 0.2073 -0.9309 0.3009
vn 0.0253 -0.9935 0.1107
vn 0.0990 -0.9906 0.0939
vn -0.1047 -0.9900 0.0943
usemtl restaurant
s 1
f 2/1/1 26/2/1 33/3/2 1/4/2
f 1/4/2 33/3/2 25/5/3 12/6/3
f 5/7/4 32/8/4 23/9/5 4/10/5
f 6/11/6 31/12/6 32/8/4 5/7/4
f 7/13/7 30/14/7 31/12/6 6/11/6
f 8/15/8 29/16/8 30/14/7 7/13/7
f 9/17/9 28/18/9 29/16/8 8/15/8
f 10/19/10 27/20/10 28/18/9 9/17/9
f 11/21/11 24/22/11 27/20/10 10/19/10
f 3/23/12 22/24/12 26/2/1 2/1/1
f 12/6/3 25/5/3 24/22/11 11/21/11
f 4/10/5 23/9/5 22/24/12 3/23/12
f 11/21/13 10/19/14 34/25/15
f 10/19/14 13/26/16 34/27/15
f 13/26/16 19/28/17 34/29/15
f 19/28/17 11/21/13 34/30/15
f 9/17/18 8/15/19 35/31/20
f 8/15/19 16/32/21 35/33/20
f 16/32/21 9/17/18 35/34/20
f 19/28/17 13/26/16 36/35/22
f 13/26/16 14/36/23 36/37/22
f 14/36/23 20/38/24 36/39/22
f 20/38/24 19/28/17 36/40/22
f 16/32/21 8/15/19 37/41/25
f 8/15/19 7/13/26 37/42/25
f 7/13/26 17/43/27 37/44/25
f 17/43/27 16/32/21 37/45/25
f 20/38/24 14/36/23 38/46/28
f 14/36/23 15/47/29 38/48/28
f 15/47/29 21/49/30 38/50/28
f 21/49/30 20/38/24 38/51/28
f 17/43/27 7/13/26 39/52/31
f 7/13/26 6/11/32 39/53/31
f 6/11/32 18/54/33 39/55/31
f 18/54/33 17/43/27 39/56/31
f 21/49/30 15/47/29 40/57/34
f 15/47/29 4/10/35 40/58/34
f 4/10/35 3/23/36 40/59/34
f 3/23/36 21/49/30 40/60/34
f 18/54/33 6/11/32 41/61/37
f 6/11/32 5/7/38 41/62/37
f 5/7/38 18/54/33 41/63/37
f 14/36/23 17/43/27 42/64/39
f 17/43/27 18/54/33 42/65/39
f 18/54/33 15/47/29 42/66/39
f 15/47/29 14/36/23 42/67/39
f 13/26/16 16/32/21 43/68/40
f 16/32/21 17/43/27 43/69/40
f 17/43/27 14/36/23 43/70/40
f 14/36/23 13/26/16 43/71/40
f 10/19/14 9/17/18 44/72/41
f 9/17/18 16/32/21 44/73/41
f 16/32/21 13/26/16 44/74/41
f 13/26/16 10/19/14 44/75/41
f 15/47/29 18/54/33 45/76/42
f 18/54/33 5/7/38 45/77/42
f 5/7/38 4/10/35 45/78/42
f 4/10/35 15/47/29 45/79/42
f 1/4/43 20/38/24 46/80/44
f 20/38/24 21/49/30 46/81/44
f 21/49/30 2/1/45 46/82/44
f 2/1/45 1/4/43 46/83/44
f 12/6/46 19/28/17 47/84/47
f 19/28/17 20/38/24 47/85/47
f 20/38/24 1/4/43 47/86/47
f 1/4/43 12/6/46 47/87/47
f 12/6/46 11/21/13 48/88/48
f 11/21/13 19/28/17 48/89/48
f 19/28/17 12/6/46 48/90/48
f 2/1/45 21/49/30 49/91/49
f 21/49/30 3/23/36 49/92/49
f 3/23/36 2/1/45 49/93/49
f 51/94/50 50/95/51 33/3/51 26/2/50
f 50/95/51 61/96/52 25/5/52 33/3/51
f 54/97/53 53/98/54 23/99/54 32/100/53
f 55/101/55 54/97/53 32/100/53 31/102/55
f 56/103/56 55/101/55 31/102/55 30/104/56
f 57/105/57 56/103/56 30/104/56 29/106/57
f 58/107/58 57/105/57 29/106/57 28/108/58
f 59/109/59 58/107/58 28/108/58 27/110/59
f 60/111/60 59/109/59 27/110/59 24/22/60
f 52/112/61 51/94/50 26/2/50 22/24/61
f 61/96/52 60/111/60 24/22/60 25/5/52
f 53/98/54 52/112/61 22/24/61 23/99/54
f 60/111/62 71/113/63 59/109/64
f 59/109/64 71/114/63 62/115/65
f 62/115/65 71/116/63 68/117/66
f 68/117/66 71/118/63 60/111/62
f 58/107/67 72/119/68 57/105/69
f 57/105/69 72/120/68 65/121/70
f 65/121/70 72/122/68 58/107/67
f 68/117/66 73/123/71 62/115/65
f 62/115/65 73/124/71 63/125/72
f 63/125/72 73/126/71 69/127/73
f 69/127/73 73/128/71 68/117/66
f 65/121/70 74/129/74 57/105/69
f 57/105/69 74/130/74 56/103/75
f 56/103/75 74/131/74 66/132/76
f 66/132/76 74/133/74 65/121/70
f 69/127/73 75/134/77 63/125/72
f 63/125/72 75/135/77 64/136/78
f 64/136/78 75/137/77 70/138/79
f 70/138/79 75/139/77 69/127/73
f 66/132/76 76/140/80 56/103/75
f 56/103/75 76/141/80 55/101/81
f 55/101/81 76/142/80 67/143/82
f 67/143/82 76/144/80 66/132/76
f 70/138/79 77/145/83 64/136/78
f 64/136/78 77/146/83 53/98/84
f 53/98/84 77/147/83 52/112/85
f 52/112/85 77/148/83 70/138/79
f 67/143/82 78/149/86 55/101/81
f 55/101/81 78/150/86 54/97/87
f 54/97/87 78/151/86 67/143/82
f 63/125/72 79/152/88 66/132/76
f 66/132/76 79/153/88 67/143/82
f 67/143/82 79/154/88 64/136/78
f 64/136/78 79/155/88 63/125/72
f 62/115/65 80/156/89 65/121/70
f 65/121/70 80/157/89 66/132/76
f 66/132/76 80/158/89 63/125/72
f 63/125/72 80/159/89 62/115/65
f 59/109/64 81/160/90 58/107/67
f 58/107/67 81/161/90 65/121/70
f 65/121/70 81/162/90 62/115/65
f 62/115/65 81/163/90 59/109/64
f 64/136/78 82/164/91 67/143/82
f 67/143/82 82/165/91 54/97/87
f 54/97/87 82/166/91 53/98/84
f 53/98/84 82/167/91 64/136/78
f 50/95/92 83/168/93 69/127/73
f 69/127/73 83/169/93 70/138/79
f 70/138/79 83/170/93 51/94/94
f 51/94/94 83/171/93 50/95/92
f 61/96/95 84/172/96 68/117/66
f 68/117/66 84/173/96 69/127/73
f 69/127/73 84/174/96 50/95/92
f 50/95/92 84/175/96 61/96/95
f 61/96/95 85/176/97 60/111/62
f 60/111/62 85/177/97 68/117/66
f 68/117/66 85/178/97 61/96/95
f 51/94/94 86/179/98 70/138/79
f 70/138/79 86/180/98 52/112/85
f 52/112/85 86/181/98 51/94/94
