# Blender v3.4.1 OBJ File: 'restaurant_bits_extra_export.blend'
# www.blender.org
mtllib icecream_machine_handle_chocolate.mtl
o icecream_machine_handle_chocolate_Cube.395
v 0.500003 1.964258 0.665272
v 0.500004 2.270163 0.583895
v 0.524559 1.964258 0.675444
v 0.582102 2.270163 0.617902
v 0.534731 1.964258 0.700000
v 0.616108 2.270163 0.700000
v 0.524559 1.964258 0.724556
v 0.582102 2.270163 0.782098
v 0.500003 1.964258 0.734727
v 0.500004 2.270163 0.816105
v 0.475447 1.964258 0.724556
v 0.417905 2.270163 0.782098
v 0.465276 1.964258 0.700000
v 0.383899 2.270163 0.700000
v 0.475447 1.964258 0.675444
v 0.417905 2.270163 0.617902
v 0.500004 2.403884 0.700000
v 0.400000 1.929833 0.645349
v 0.400000 1.891189 0.661356
v 0.400000 1.875182 0.700000
v 0.400000 1.891189 0.738644
v 0.400000 1.929833 0.754651
v 0.400000 1.968477 0.738644
v 0.400000 1.984484 0.700000
v 0.400000 1.968477 0.661356
v 0.600000 1.929833 0.645349
v 0.600000 1.891189 0.661356
v 0.600000 1.875182 0.700000
v 0.600000 1.891189 0.738644
v 0.600000 1.929833 0.754651
v 0.600000 1.968477 0.738644
v 0.600000 1.984484 0.700000
v 0.600000 1.968477 0.661356
v 0.374655 1.929833 0.700000
v 0.625349 1.929833 0.700000
v 0.553413 2.381314 0.646591
v 0.500004 2.381314 0.624468
v 0.575536 2.381314 0.700000
v 0.553413 2.381314 0.753409
v 0.500004 2.381314 0.775532
v 0.446594 2.381314 0.753409
v 0.424472 2.381314 0.700000
v 0.446594 2.381314 0.646591
vt 0.816665 0.827288
vt 0.816665 0.857694
vt 0.838552 0.857694
vt 0.825379 0.827288
vt 0.847618 0.857694
vt 0.828989 0.827288
vt 0.838552 0.857694
vt 0.825379 0.827288
vt 0.816665 0.857694
vt 0.816665 0.827288
vt 0.794778 0.857694
vt 0.807951 0.827288
vt 0.785713 0.857694
vt 0.804341 0.827288
vt 0.794778 0.888944
vt 0.785713 0.888944
vt 0.796530 0.923401
vt 0.802427 0.923401
vt 0.794778 0.857694
vt 0.807951 0.827288
vt 0.847618 0.888944
vt 0.838552 0.888944
vt 0.830903 0.923401
vt 0.836801 0.923401
vt 0.794778 0.888944
vt 0.816665 0.888944
vt 0.816665 0.923401
vt 0.802427 0.923401
vt 0.816665 0.888944
vt 0.816665 0.923401
vt 0.838552 0.888944
vt 0.830903 0.923401
vt 0.403488 0.897939
vt 0.403488 0.886644
vt 0.394867 0.859375
vt 0.471513 0.897939
vt 0.471513 0.886644
vt 0.480135 0.859375
vt 0.403488 0.852060
vt 0.471513 0.852060
vt 0.471513 0.863355
vt 0.403488 0.863355
vt 0.403488 0.890625
vt 0.471513 0.890625
vt 0.471513 0.863355
vt 0.403488 0.863355
vt 0.403488 0.917894
vt 0.471513 0.917894
vt 0.403488 0.917894
vt 0.471513 0.917894
vt 0.471513 0.929189
vt 0.403488 0.929189
vt 0.471513 0.890625
vt 0.403488 0.890625
vt 0.471513 0.886644
vt 0.403488 0.859375
vt 0.403488 0.832105
vt 0.471513 0.859375
vt 0.471513 0.832105
vt 0.403488 0.820810
vt 0.471513 0.820810
vt 0.403488 0.832105
vt 0.471513 0.832105
vt 0.403488 0.859375
vt 0.471513 0.859375
vt 0.403488 0.886644
vt 0.816665 0.961648
vt 0.830903 0.954651
vt 0.816665 0.954651
vt 0.836801 0.954651
vt 0.830903 0.954651
vt 0.816665 0.954651
vt 0.802427 0.954651
vt 0.796530 0.954651
vt 0.802427 0.954651
vn -0.0000 -0.2571 -0.9664
vn 0.0000 0.0420 -0.9991
vn 0.7065 0.0420 -0.7065
vn 0.6833 -0.2571 -0.6833
vn 0.9991 0.0420 -0.0000
vn 0.9664 -0.2571 -0.0000
vn 0.7065 0.0420 0.7065
vn 0.6833 -0.2571 0.6833
vn 0.0000 0.0420 0.9991
vn -0.0000 -0.2571 0.9664
vn -0.7065 0.0420 0.7065
vn -0.6833 -0.2571 0.6833
vn -0.9991 0.0420 -0.0000
vn -0.9664 -0.2571 0.0000
vn -0.7065 0.0420 -0.7065
vn -0.9394 0.3429 -0.0000
vn -0.6642 0.3429 -0.6642
vn -0.6833 -0.2571 -0.6833
vn 0.6642 0.3429 -0.6642
vn 0.9394 0.3429 0.0000
vn 0.0000 0.3429 0.9394
vn -0.6642 0.3429 0.6642
vn 0.0000 0.3429 -0.9394
vn 0.6642 0.3429 0.6642
vn -0.9072 0.4207 0.0000
vn -0.9072 0.2975 -0.2975
vn -1.0000 0.0000 0.0000
vn 0.9072 0.4208 0.0000
vn 0.9072 0.2975 0.2975
vn 1.0000 0.0000 0.0000
vn 0.0000 -1.0000 0.0000
vn 0.0000 -0.9239 0.3827
vn 0.0000 0.0000 -1.0000
vn 0.0000 -0.3827 -0.9239
vn 0.0000 0.3827 -0.9239
vn 0.0000 0.9239 0.3827
vn 0.0000 1.0000 -0.0000
vn 0.0000 -0.3827 0.9239
vn 0.0000 -0.0000 1.0000
vn -0.0000 -0.9239 -0.3827
vn 0.0000 0.9239 -0.3827
vn 0.0000 0.3827 0.9239
vn 0.9072 0.2975 -0.2975
vn -0.9072 0.0000 -0.4207
vn -0.9072 -0.2975 -0.2975
vn 0.9072 -0.0000 -0.4208
vn 0.9072 -0.2975 -0.2975
vn -0.9072 -0.4207 -0.0000
vn 0.9072 -0.4208 0.0000
vn -0.9072 -0.2975 0.2975
vn 0.9072 -0.2975 0.2975
vn -0.9072 0.0000 0.4207
vn 0.9072 0.0000 0.4208
vn -0.9072 0.2975 0.2975
vn 0.2024 0.9581 -0.2024
vn -0.0000 0.9581 -0.2863
vn 0.2863 0.9581 -0.0000
vn 0.2024 0.9581 0.2024
vn -0.0000 0.9581 0.2863
vn -0.2024 0.9581 0.2024
vn -0.2863 0.9581 -0.0000
vn -0.2024 0.9581 -0.2024
usemtl restaurant
s 1
f 1/1/1 2/2/2 4/3/3 3/4/4
f 3/4/4 4/3/3 6/5/5 5/6/6
f 5/6/6 6/5/5 8/7/7 7/8/8
f 7/8/8 8/7/7 10/9/9 9/10/10
f 9/10/10 10/9/9 12/11/11 11/12/12
f 11/12/12 12/11/11 14/13/13 13/14/14
f 16/15/15 14/16/13 42/17/16 43/18/17
f 13/14/14 14/13/13 16/19/15 15/20/18
f 15/20/18 16/19/15 2/2/2 1/1/1
f 6/21/5 4/22/3 36/23/19 38/24/20
f 12/25/11 10/26/9 40/27/21 41/28/22
f 2/29/2 16/15/15 43/18/17 37/30/23
f 4/22/3 2/29/2 37/30/23 36/23/19
f 8/31/7 6/21/5 38/24/20 39/32/24
f 14/16/13 12/25/11 41/28/22 42/17/16
f 10/26/9 8/31/7 39/32/24 40/27/21
f 24/33/25 25/34/26 34/35/27
f 32/36/28 31/37/29 35/38/30
f 20/39/31 28/40/31 29/41/32 21/42/32
f 18/43/33 26/44/33 27/45/34 19/46/34
f 25/47/35 33/48/35 26/44/33 18/43/33
f 23/49/36 31/50/36 32/51/37 24/52/37
f 21/42/38 29/41/38 30/53/39 22/54/39
f 19/46/40 27/45/40 28/40/31 20/39/31
f 24/52/37 32/51/37 33/48/41 25/47/41
f 22/54/39 30/53/39 31/50/42 23/49/42
f 33/55/43 32/36/28 35/38/30
f 25/34/26 18/56/44 34/35/27
f 18/56/44 19/57/45 34/35/27
f 26/58/46 33/55/43 35/38/30
f 27/59/47 26/58/46 35/38/30
f 19/57/45 20/60/48 34/35/27
f 28/61/49 27/59/47 35/38/30
f 20/60/48 21/62/50 34/35/27
f 29/63/51 28/61/49 35/38/30
f 21/62/50 22/64/52 34/35/27
f 30/65/53 29/63/51 35/38/30
f 22/64/52 23/66/54 34/35/27
f 31/37/29 30/65/53 35/38/30
f 23/66/54 24/33/25 34/35/27
f 17/67/37 36/68/55 37/69/56
f 17/67/37 38/70/57 36/68/55
f 17/67/37 39/71/58 38/70/57
f 17/67/37 40/72/59 39/71/58
f 17/67/37 41/73/60 40/72/59
f 17/67/37 42/74/61 41/73/60
f 17/67/37 43/75/62 42/74/61
f 17/67/37 37/69/56 43/75/62
