# Blender v3.4.1 OBJ File: 'restaurant_bits_extra_export.blend'
# www.blender.org
mtllib icecream_bowl_icecream_vanilla.mtl
o icecream_bowl_icecream_vanilla_Sphere.103
v 0.000005 0.301395 -0.155756
v 0.000005 0.236492 -0.203505
v 0.000004 0.097760 -0.208153
v 0.032263 0.344762 -0.077878
v 0.059610 0.301395 -0.143900
v 0.077882 0.236492 -0.188014
v 0.084299 0.159934 -0.203505
v 0.079661 0.097760 -0.192308
v 0.000005 0.018474 0.000000
v 0.059610 0.344762 -0.059605
v 0.110140 0.301395 -0.110136
v 0.143904 0.236492 -0.143900
v 0.155760 0.159934 -0.155756
v 0.147191 0.097760 -0.147186
v 0.077882 0.344762 -0.032258
v 0.143904 0.301395 -0.059605
v 0.188018 0.236492 -0.077878
v 0.203509 0.159934 -0.084294
v 0.192312 0.097760 -0.079657
v 0.084299 0.344762 0.000000
v 0.155760 0.301395 0.000000
v 0.203509 0.236492 0.000000
v 0.220276 0.159934 0.000000
v 0.208157 0.097760 0.000000
v 0.077882 0.344762 0.032258
v 0.143904 0.301395 0.059605
v 0.188018 0.236492 0.077878
v 0.203509 0.159934 0.084294
v 0.192312 0.097760 0.079657
v 0.059610 0.344762 0.059605
v 0.110140 0.301395 0.110136
v 0.143904 0.236492 0.143900
v 0.155760 0.159934 0.155756
v 0.147191 0.097760 0.147186
v 0.032263 0.344762 0.077878
v 0.059610 0.301395 0.143900
v 0.077882 0.236492 0.188014
v 0.084299 0.159934 0.203505
v 0.079661 0.097760 0.192308
v 0.000005 0.359990 0.000000
v 0.000004 0.344762 0.084294
v 0.000004 0.301395 0.155756
v 0.000004 0.236492 0.203505
v 0.000004 0.159934 0.220272
v 0.000004 0.097760 0.208153
v -0.032254 0.344762 0.077878
v -0.059601 0.301395 0.143900
v -0.077873 0.236492 0.188014
v -0.084290 0.159934 0.203505
v -0.079652 0.097760 0.192308
v -0.059601 0.344762 0.059605
v -0.110132 0.301395 0.110136
v -0.143895 0.236492 0.143900
v -0.155751 0.159934 0.155756
v -0.147182 0.097760 0.147186
v -0.077873 0.344762 0.032258
v -0.143895 0.301395 0.059605
v -0.188009 0.236492 0.077878
v -0.203500 0.159934 0.084294
v -0.192303 0.097760 0.079656
v -0.084290 0.344762 -0.000000
v -0.155751 0.301395 -0.000000
v -0.203500 0.236492 -0.000000
v -0.220267 0.159934 -0.000000
v -0.208148 0.097760 -0.000000
v -0.077873 0.344762 -0.032258
v -0.143895 0.301395 -0.059605
v -0.188009 0.236492 -0.077878
v -0.203500 0.159934 -0.084295
v -0.192303 0.097760 -0.079657
v -0.059601 0.344762 -0.059605
v -0.110131 0.301395 -0.110136
v -0.143895 0.236492 -0.143900
v -0.155751 0.159934 -0.155756
v -0.147181 0.097760 -0.147186
v -0.032254 0.344762 -0.077878
v -0.059601 0.301395 -0.143900
v -0.077873 0.236492 -0.188014
v -0.084290 0.159934 -0.203505
v -0.079652 0.097760 -0.192308
v 0.000005 0.344762 -0.084294
v 0.000005 0.159934 -0.220272
v 0.086108 0.060938 -0.207873
v 0.061992 -0.000010 -0.149650
v 0.000004 0.060938 -0.225000
v 0.159104 0.060938 -0.159099
v 0.114542 -0.000010 -0.114537
v 0.207877 0.060938 -0.086104
v 0.149655 -0.000010 -0.061987
v 0.225005 0.060938 0.000000
v 0.161985 -0.000010 0.000000
v 0.207877 0.060938 0.086104
v 0.149655 -0.000010 0.061987
v 0.159104 0.060938 0.159099
v 0.114542 -0.000010 0.114537
v 0.086108 0.060938 0.207873
v 0.061992 -0.000010 0.149650
v 0.000004 0.060938 0.225000
v 0.000004 -0.000010 0.161980
v -0.086099 0.060938 0.207873
v -0.061983 -0.000010 0.149650
v -0.159095 0.060938 0.159099
v -0.114533 -0.000010 0.114537
v -0.207868 0.060938 0.086104
v -0.149646 -0.000010 0.061987
v -0.224996 0.060938 -0.000000
v -0.161976 -0.000010 -0.000000
v -0.207868 0.060938 -0.086104
v -0.149646 -0.000010 -0.061987
v -0.159094 0.060938 -0.159099
v -0.114533 -0.000010 -0.114537
v -0.086099 0.060938 -0.207873
v -0.061983 -0.000010 -0.149650
v 0.000005 -0.000010 -0.161980
v 0.080882 0.016213 -0.195254
v 0.149446 0.016213 -0.149441
v 0.195259 0.016213 -0.080877
v 0.211346 0.016213 0.000000
v 0.195259 0.016213 0.080877
v 0.149446 0.016213 0.149441
v 0.080881 0.016213 0.195254
v 0.000004 0.016213 0.211342
v -0.080873 0.016213 0.195254
v -0.149437 0.016213 0.149441
v -0.195250 0.016213 0.080877
v -0.211337 0.016213 -0.000000
v -0.195250 0.016213 -0.080877
v -0.149437 0.016213 -0.149441
v -0.080872 0.016213 -0.195254
v 0.000005 0.016213 -0.211342
vt 0.562500 0.696592
vt 0.562500 0.704668
vt 0.568372 0.704668
vt 0.573352 0.696592
vt 0.562500 0.623415
vt 0.562500 0.670249
vt 0.577848 0.670249
vt 0.577003 0.623415
vt 0.562500 0.684506
vt 0.576680 0.684506
vt 0.562500 0.707504
vt 0.600401 0.615802
vt 0.597515 0.615802
vt 0.600349 0.651814
vt 0.603469 0.651814
vt 0.590860 0.670249
vt 0.589299 0.623415
vt 0.582552 0.696592
vt 0.588700 0.684506
vt 0.573352 0.704668
vt 0.562500 0.550156
vt 0.551212 0.546714
vt 0.541644 0.546714
vt 0.583355 0.546714
vt 0.589748 0.546714
vt 0.596733 0.684506
vt 0.599554 0.638999
vt 0.576680 0.704668
vt 0.588700 0.727842
vt 0.597515 0.623415
vt 0.599554 0.684506
vt 0.602607 0.638999
vt 0.577848 0.704668
vt 0.590860 0.727842
vt 0.600401 0.623415
vt 0.562500 0.615802
vt 0.547995 0.615802
vt 0.546821 0.651814
vt 0.562500 0.651814
vt 0.599554 0.638999
vt 0.597515 0.623415
vt 0.588700 0.727842
vt 0.596733 0.684506
vt 0.576680 0.704668
vt 0.577003 0.615802
vt 0.589299 0.615802
vt 0.591469 0.651814
vt 0.578177 0.651814
vt 0.582552 0.696592
vt 0.588700 0.684506
vt 0.573352 0.704668
vt 0.589299 0.615802
vt 0.577003 0.615802
vt 0.578177 0.651814
vt 0.591469 0.651814
vt 0.590860 0.670249
vt 0.589299 0.623415
vt 0.527483 0.615802
vt 0.524598 0.615802
vt 0.521531 0.651814
vt 0.524649 0.651814
vt 0.576680 0.684506
vt 0.577848 0.670249
vt 0.568372 0.704668
vt 0.573352 0.696592
vt 0.577003 0.623415
vt 0.562500 0.704668
vt 0.562500 0.696592
vt 0.562500 0.670249
vt 0.562500 0.623415
vt 0.562500 0.684506
vt 0.591994 0.546714
vt 0.589748 0.546714
vt 0.547150 0.638999
vt 0.547995 0.623415
vt 0.551646 0.712217
vt 0.548319 0.668881
vt 0.556625 0.704668
vt 0.535699 0.615802
vt 0.533530 0.651814
vt 0.551646 0.704668
vt 0.562500 0.546714
vt 0.536297 0.684506
vt 0.534139 0.670249
vt 0.542445 0.712217
vt 0.535699 0.623415
vt 0.527483 0.615802
vt 0.535699 0.615802
vt 0.533530 0.651814
vt 0.524649 0.651814
vt 0.528265 0.684506
vt 0.525443 0.670249
vt 0.548319 0.704668
vt 0.536297 0.696592
vt 0.527483 0.623415
vt 0.522391 0.670249
vt 0.524598 0.623415
vt 0.534139 0.696592
vt 0.525443 0.684506
vt 0.547150 0.704668
vt 0.583355 0.546714
vt 0.573786 0.546714
vt 0.525443 0.638999
vt 0.527483 0.623415
vt 0.536297 0.727842
vt 0.528265 0.684506
vt 0.548319 0.704668
vt 0.535250 0.546714
vt 0.533006 0.546714
vt 0.536297 0.684506
vt 0.534139 0.638999
vt 0.551646 0.704668
vt 0.542445 0.727842
vt 0.535699 0.623415
vt 0.548319 0.684506
vt 0.547150 0.638999
vt 0.556625 0.704668
vt 0.551646 0.727842
vt 0.547995 0.623415
vt 0.535250 0.546714
vt 0.541644 0.546714
vt 0.562500 0.565360
vt 0.562500 0.620564
vt 0.578177 0.620564
vt 0.577225 0.565360
vt 0.591469 0.620564
vt 0.589710 0.565360
vt 0.600349 0.620564
vt 0.598052 0.565360
vt 0.603469 0.620564
vt 0.600982 0.565360
vt 0.600349 0.620564
vt 0.598052 0.565360
vt 0.591469 0.620564
vt 0.589710 0.565360
vt 0.578177 0.620564
vt 0.577225 0.565360
vt 0.562500 0.620564
vt 0.562500 0.565360
vt 0.546821 0.620564
vt 0.547773 0.565360
vt 0.533530 0.620564
vt 0.535287 0.565360
vt 0.524649 0.620564
vt 0.526946 0.565360
vt 0.521531 0.620564
vt 0.524018 0.565360
vt 0.524649 0.620564
vt 0.526946 0.565360
vt 0.533530 0.620564
vt 0.535287 0.565360
vt 0.546821 0.620564
vt 0.547773 0.565360
vt 0.597515 0.615802
vt 0.600349 0.651814
vt 0.551212 0.546714
vt 0.547995 0.615802
vt 0.546821 0.651814
vt 0.562500 0.546714
vt 0.573786 0.546714
vt 0.562500 0.615802
vt 0.562500 0.651814
vt 0.547773 0.549735
vt 0.562500 0.549735
vt 0.535287 0.549735
vt 0.526946 0.549735
vt 0.524018 0.549735
vt 0.526946 0.549735
vt 0.535287 0.549735
vt 0.547773 0.549735
vt 0.562500 0.549735
vt 0.577225 0.549735
vt 0.589710 0.549735
vt 0.598052 0.549735
vt 0.600982 0.549735
vt 0.598052 0.549735
vt 0.589710 0.549735
vt 0.577225 0.549735
vn -0.0000 0.7259 -0.6878
vn -0.0000 0.9275 -0.3738
vn 0.1431 0.9275 -0.3454
vn 0.2632 0.7259 -0.6354
vn -0.0000 0.1227 -0.9924
vn 0.0000 0.0113 -0.9999
vn 0.3827 0.0113 -0.9238
vn 0.3798 0.1227 -0.9169
vn -0.0000 0.4029 -0.9153
vn 0.3503 0.4029 -0.8456
vn -0.0000 1.0000 0.0000
vn 0.9924 0.1227 0.0000
vn 0.9169 0.1227 0.3798
vn 0.9220 0.0636 0.3819
vn 0.9980 0.0636 0.0000
vn 0.7071 0.0113 -0.7071
vn 0.7018 0.1227 -0.7018
vn 0.4863 0.7259 -0.4863
vn 0.6472 0.4029 -0.6472
vn 0.2643 0.9275 -0.2643
vn -0.0000 -1.0000 0.0000
vn -0.0490 -0.9918 0.1183
vn -0.0906 -0.9918 0.0906
vn 0.0906 -0.9918 -0.0906
vn 0.1183 -0.9918 -0.0490
vn 0.8456 0.4029 -0.3503
vn 0.9238 0.0113 -0.3827
vn 0.3454 0.9275 -0.1431
vn 0.6354 0.7259 -0.2632
vn 0.9169 0.1227 -0.3798
vn 0.9153 0.4029 0.0000
vn 0.9999 0.0113 0.0000
vn 0.3738 0.9275 -0.0000
vn 0.6878 0.7259 0.0000
vn -0.0000 0.1227 0.9924
vn -0.3798 0.1227 0.9169
vn -0.3819 0.0636 0.9220
vn -0.0000 0.0636 0.9980
vn 0.9238 0.0113 0.3827
vn 0.6354 0.7259 0.2632
vn 0.8456 0.4029 0.3503
vn 0.3454 0.9275 0.1431
vn 0.7057 0.0636 -0.7057
vn 0.3819 0.0636 -0.9220
vn 0.4863 0.7259 0.4863
vn 0.6472 0.4029 0.6472
vn 0.2643 0.9275 0.2643
vn 0.7018 0.1227 0.7018
vn 0.3798 0.1227 0.9169
vn 0.3819 0.0636 0.9220
vn 0.7057 0.0636 0.7057
vn 0.7071 0.0113 0.7071
vn -0.9169 0.1227 0.3798
vn -0.9924 0.1227 -0.0000
vn -0.9980 0.0636 -0.0000
vn -0.9220 0.0636 0.3819
vn 0.3503 0.4029 0.8456
vn 0.3827 0.0113 0.9238
vn 0.1431 0.9275 0.3454
vn 0.2632 0.7259 0.6354
vn -0.0000 0.9275 0.3738
vn -0.0000 0.7259 0.6878
vn -0.0000 0.0113 0.9999
vn -0.0000 0.4029 0.9153
vn 0.1281 -0.9918 0.0000
vn 0.1183 -0.9918 0.0490
vn -0.3827 0.0113 0.9238
vn -0.2632 0.7259 0.6354
vn -0.3503 0.4029 0.8456
vn -0.1431 0.9275 0.3454
vn -0.7018 0.1227 0.7018
vn -0.7057 0.0636 0.7057
vn -0.2643 0.9275 0.2643
vn -0.0000 -0.9918 0.1281
vn -0.6472 0.4029 0.6472
vn -0.7071 0.0113 0.7071
vn -0.4863 0.7259 0.4863
vn -0.9169 0.1227 -0.3798
vn -0.7018 0.1227 -0.7018
vn -0.7057 0.0636 -0.7057
vn -0.9220 0.0636 -0.3819
vn -0.8456 0.4029 0.3503
vn -0.9238 0.0113 0.3827
vn -0.3454 0.9275 0.1431
vn -0.6354 0.7259 0.2632
vn -0.9999 0.0113 -0.0000
vn -0.6878 0.7259 -0.0000
vn -0.9153 0.4029 -0.0000
vn -0.3738 0.9275 0.0000
vn 0.0906 -0.9918 0.0906
vn 0.0490 -0.9918 0.1183
vn -0.9238 0.0113 -0.3827
vn -0.6354 0.7259 -0.2632
vn -0.8456 0.4029 -0.3503
vn -0.3454 0.9275 -0.1431
vn -0.1183 -0.9918 0.0490
vn -0.1281 -0.9918 -0.0000
vn -0.6472 0.4029 -0.6472
vn -0.7071 0.0113 -0.7071
vn -0.2643 0.9275 -0.2643
vn -0.4863 0.7259 -0.4863
vn -0.3503 0.4029 -0.8456
vn -0.3827 0.0113 -0.9238
vn -0.1431 0.9275 -0.3454
vn -0.2632 0.7259 -0.6354
vn -0.3798 0.1227 -0.9169
vn -0.1183 -0.9918 -0.0490
vn -0.0906 -0.9918 -0.0906
vn -0.0000 -0.6721 -0.7405
vn -0.0000 0.0636 -0.9980
vn 0.2834 -0.6721 -0.6841
vn 0.5236 -0.6721 -0.5236
vn 0.9220 0.0636 -0.3819
vn 0.6841 -0.6721 -0.2834
vn 0.7405 -0.6721 0.0000
vn 0.6841 -0.6721 0.2834
vn 0.5236 -0.6721 0.5236
vn 0.2834 -0.6721 0.6841
vn -0.0000 -0.6721 0.7405
vn -0.2834 -0.6721 0.6841
vn -0.5236 -0.6721 0.5236
vn -0.6841 -0.6721 0.2834
vn -0.7405 -0.6721 -0.0000
vn -0.6841 -0.6721 -0.2834
vn -0.5236 -0.6721 -0.5236
vn -0.3819 0.0636 -0.9220
vn -0.2834 -0.6721 -0.6841
vn -0.0490 -0.9918 -0.1183
vn -0.0000 -0.9918 -0.1281
vn 0.0490 -0.9918 -0.1183
usemtl restaurant
s 1
f 1/1/1 81/2/2 4/3/3 5/4/4
f 3/5/5 82/6/6 7/7/7 8/8/8
f 2/9/9 1/1/1 5/4/4 6/10/10
f 81/2/2 40/11/11 4/3/3
f 24/12/12 29/13/13 92/14/14 90/15/15
f 82/6/6 2/9/9 6/10/10 7/7/7
f 8/8/8 7/7/7 13/16/16 14/17/17
f 6/10/10 5/4/4 11/18/18 12/19/19
f 4/3/3 40/11/11 10/20/20
f 9/21/21 101/22/22 103/23/23
f 7/7/7 6/10/10 12/19/19 13/16/16
f 5/4/4 4/3/3 10/20/20 11/18/18
f 9/21/21 87/24/24 89/25/25
f 13/16/16 12/19/19 17/26/26 18/27/27
f 11/18/18 10/20/20 15/28/28 16/29/29
f 14/17/17 13/16/16 18/27/27 19/30/30
f 12/19/19 11/18/18 16/29/29 17/26/26
f 10/20/20 40/11/11 15/28/28
f 18/27/27 17/26/26 22/31/31 23/32/32
f 16/29/29 15/28/28 20/33/33 21/34/34
f 19/30/30 18/27/27 23/32/32 24/35/12
f 17/26/26 16/29/29 21/34/34 22/31/31
f 15/28/28 40/11/11 20/33/33
f 45/36/35 50/37/36 100/38/37 98/39/38
f 24/35/12 23/32/32 28/40/39 29/41/13
f 22/31/31 21/34/34 26/42/40 27/43/41
f 20/33/33 40/11/11 25/44/42
f 8/45/8 14/46/17 86/47/43 83/48/44
f 23/32/32 22/31/31 27/43/41 28/40/39
f 21/34/34 20/33/33 25/44/42 26/42/40
f 27/43/41 26/42/40 31/49/45 32/50/46
f 25/44/42 40/11/11 30/51/47
f 34/52/48 39/53/49 96/54/50 94/55/51
f 28/40/39 27/43/41 32/50/46 33/56/52
f 26/42/40 25/44/42 30/51/47 31/49/45
f 29/41/13 28/40/39 33/56/52 34/57/48
f 60/58/53 65/59/54 106/60/55 104/61/56
f 33/56/52 32/50/46 37/62/57 38/63/58
f 31/49/45 30/51/47 35/64/59 36/65/60
f 34/57/48 33/56/52 38/63/58 39/66/49
f 32/50/46 31/49/45 36/65/60 37/62/57
f 30/51/47 40/11/11 35/64/59
f 36/65/60 35/64/59 41/67/61 42/68/62
f 39/66/49 38/63/58 44/69/63 45/70/35
f 37/62/57 36/65/60 42/68/62 43/71/64
f 35/64/59 40/11/11 41/67/61
f 9/21/21 91/72/65 93/73/66
f 38/63/58 37/62/57 43/71/64 44/69/63
f 45/70/35 44/69/63 49/74/67 50/75/36
f 43/71/64 42/68/62 47/76/68 48/77/69
f 41/67/61 40/11/11 46/78/70
f 55/79/71 60/58/53 104/61/56 102/80/72
f 44/69/63 43/71/64 48/77/69 49/74/67
f 42/68/62 41/67/61 46/78/70 47/76/68
f 46/78/70 40/11/11 51/81/73
f 9/21/21 99/82/74 101/22/22
f 49/74/67 48/77/69 53/83/75 54/84/76
f 47/76/68 46/78/70 51/81/73 52/85/77
f 50/75/36 49/74/67 54/84/76 55/86/71
f 48/77/69 47/76/68 52/85/77 53/83/75
f 70/87/78 75/88/79 110/89/80 108/90/81
f 54/84/76 53/83/75 58/91/82 59/92/83
f 52/85/77 51/81/73 56/93/84 57/94/85
f 55/86/71 54/84/76 59/92/83 60/95/53
f 53/83/75 52/85/77 57/94/85 58/91/82
f 51/81/73 40/11/11 56/93/84
f 60/95/53 59/92/83 64/96/86 65/97/54
f 58/91/82 57/94/85 62/98/87 63/99/88
f 56/93/84 40/11/11 61/100/89
f 9/21/21 95/101/90 97/102/91
f 59/92/83 58/91/82 63/99/88 64/96/86
f 57/94/85 56/93/84 61/100/89 62/98/87
f 65/97/54 64/96/86 69/103/92 70/104/78
f 63/99/88 62/98/87 67/105/93 68/106/94
f 61/100/89 40/11/11 66/107/95
f 9/21/21 105/108/96 107/109/97
f 64/96/86 63/99/88 68/106/94 69/103/92
f 62/98/87 61/100/89 66/107/95 67/105/93
f 9/21/21 103/23/23 105/108/96
f 69/103/92 68/106/94 73/110/98 74/111/99
f 67/105/93 66/107/95 71/112/100 72/113/101
f 70/104/78 69/103/92 74/111/99 75/114/79
f 68/106/94 67/105/93 72/113/101 73/110/98
f 66/107/95 40/11/11 71/112/100
f 74/111/99 73/110/98 78/115/102 79/116/103
f 72/113/101 71/112/100 76/117/104 77/118/105
f 75/114/79 74/111/99 79/116/103 80/119/106
f 73/110/98 72/113/101 77/118/105 78/115/102
f 71/112/100 40/11/11 76/117/104
f 9/21/21 109/120/107 111/121/108
f 80/119/106 79/116/103 82/6/6 3/5/5
f 78/115/102 77/118/105 1/1/1 2/9/9
f 76/117/104 40/11/11 81/2/2
f 65/59/54 70/87/78 108/90/81 106/60/55
f 79/116/103 78/115/102 2/9/9 82/6/6
f 77/118/105 76/117/104 81/2/2 1/1/1
f 130/122/109 85/123/110 83/124/44 115/125/111
f 115/125/111 83/124/44 86/126/43 116/127/112
f 116/127/112 86/126/43 88/128/113 117/129/114
f 117/129/114 88/128/113 90/130/15 118/131/115
f 118/131/115 90/130/15 92/132/14 119/133/116
f 119/133/116 92/132/14 94/134/51 120/135/117
f 120/135/117 94/134/51 96/136/50 121/137/118
f 121/137/118 96/136/50 98/138/38 122/139/119
f 122/139/119 98/138/38 100/140/37 123/141/120
f 123/141/120 100/140/37 102/142/72 124/143/121
f 124/143/121 102/142/72 104/144/56 125/145/122
f 125/145/122 104/144/56 106/146/55 126/147/123
f 126/147/123 106/146/55 108/148/81 127/149/124
f 127/149/124 108/148/81 110/150/80 128/151/125
f 128/151/125 110/150/80 112/152/126 129/153/127
f 129/153/127 112/152/126 85/123/110 130/122/109
f 9/21/21 97/102/91 99/82/74
f 14/46/17 19/154/30 88/155/113 86/47/43
f 9/21/21 111/121/108 113/156/128
f 50/37/36 55/79/71 102/80/72 100/38/37
f 9/21/21 93/73/66 95/101/90
f 39/53/49 45/36/35 98/39/38 96/54/50
f 75/88/79 80/157/106 112/158/126 110/89/80
f 9/21/21 114/159/129 84/160/130
f 29/13/13 34/52/48 94/55/51 92/14/14
f 9/21/21 107/109/97 109/120/107
f 9/21/21 113/156/128 114/159/129
f 9/21/21 89/25/25 91/72/65
f 19/154/30 24/12/12 90/15/15 88/155/113
f 3/161/5 8/45/8 83/48/44 85/162/110
f 80/157/106 3/161/5 85/162/110 112/158/126
f 9/21/21 84/160/130 87/24/24
f 113/156/128 129/163/127 130/164/109 114/159/129
f 111/121/108 128/165/125 129/163/127 113/156/128
f 109/120/107 127/166/124 128/165/125 111/121/108
f 107/109/97 126/167/123 127/166/124 109/120/107
f 105/108/96 125/168/122 126/167/123 107/109/97
f 103/23/23 124/169/121 125/168/122 105/108/96
f 101/22/22 123/170/120 124/169/121 103/23/23
f 99/82/74 122/171/119 123/170/120 101/22/22
f 97/102/91 121/172/118 122/171/119 99/82/74
f 95/101/90 120/173/117 121/172/118 97/102/91
f 93/73/66 119/174/116 120/173/117 95/101/90
f 91/72/65 118/175/115 119/174/116 93/73/66
f 89/25/25 117/176/114 118/175/115 91/72/65
f 87/24/24 116/177/112 117/176/114 89/25/25
f 84/160/130 115/178/111 116/177/112 87/24/24
f 114/159/129 130/164/109 115/178/111 84/160/130
