# Blender v3.4.1 OBJ File: 'restaurant_bits_extra_export.blend'
# www.blender.org
mtllib kitchencounter_outercorner_backsplash_styleB.mtl
o kitchencounter_outercorner_backsplash_styleB_Cube.019
v 1.000000 0.000000 0.800000
v 1.000000 0.800000 0.800000
v 1.000000 0.000000 -1.000000
v 1.000000 0.800000 -1.000000
v -0.800000 0.000000 -1.000000
v -0.800000 0.800000 -1.000000
v -0.800000 0.000000 0.800000
v -0.800000 0.800000 0.800000
v -0.950000 1.000000 0.950000
v 0.800000 1.000000 -1.000000
v 1.000000 1.000000 -0.800000
v 0.800000 1.000000 -0.800000
v 1.000000 1.200000 -1.000000
v -1.000000 0.950000 1.000000
v -1.000000 0.950000 -1.000000
v -0.950000 1.000000 -1.000000
v 1.000000 1.000000 0.950000
v 1.000000 0.950000 1.000000
v 0.800000 1.150000 -1.000000
v 0.850000 1.200000 -1.000000
v 1.000000 1.200000 -0.850000
v 1.000000 1.150000 -0.800000
v 0.800000 1.150000 -0.800000
v 0.850000 1.200000 -0.850000
v -0.950000 0.800000 0.950000
v -1.000000 0.850000 1.000000
v -0.950000 0.800000 -1.000000
v -1.000000 0.850000 -1.000000
v 1.000000 0.850000 1.000000
v 1.000000 0.800000 0.950000
vt 0.196988 0.894727
vt 0.196988 0.894727
vt 0.197676 0.898896
vt 0.197676 0.898896
vt 0.938787 0.799884
vt 0.938787 0.866593
vt 0.971048 0.866593
vt 0.971048 0.799884
vt 0.971048 0.866593
vt 0.971048 0.799884
vt 0.221765 0.914521
vt 0.221765 0.914521
vt 0.197676 0.914521
vt 0.197676 0.866593
vt 0.196988 0.870763
vt 0.196988 0.879102
vt 0.197676 0.883271
vt 0.196988 0.870763
vt 0.196988 0.879102
vt 0.199741 0.866593
vt 0.199741 0.835343
vt 0.199741 0.835343
vt 0.197676 0.835343
vt 0.197676 0.835343
vt 0.224518 0.866593
vt 0.224518 0.866593
vt 0.224518 0.883271
vt 0.224518 0.883271
vt 0.221765 0.883271
vt 0.221765 0.895779
vt 0.222453 0.899948
vt 0.224518 0.899948
vt 0.224518 0.870763
vt 0.224518 0.879102
vt 0.196988 0.855138
vt 0.196988 0.855138
vt 0.197676 0.850968
vt 0.197676 0.850968
vt 0.938787 0.866593
vt 0.938787 0.799884
vt 0.938787 0.768634
vt 0.971048 0.768634
vt 0.971048 0.768634
vt 0.938787 0.768634
vt 0.221765 0.883271
vt 0.221765 0.895779
vt 0.224518 0.895779
vt 0.224518 0.931198
vt 0.222453 0.931198
vt 0.222453 0.931198
vt 0.224518 0.931198
vt 0.224518 0.898896
vt 0.224518 0.894727
vt 0.221765 0.911404
vt 0.221765 0.911404
vt 0.222453 0.915573
vt 0.222453 0.915573
vt 0.224518 0.911404
vt 0.224518 0.915573
vt 0.224518 0.850968
vt 0.224518 0.855138
vt 0.224518 0.835343
vt 0.224518 0.835343
vt 0.224518 0.866593
vt 0.224518 0.899948
vt 0.197676 0.914521
vt 0.224518 0.914521
vt 0.224518 0.914521
vn -0.9239 0.3827 0.0000
vn -0.9576 0.2880 0.0000
vn -0.7071 0.7071 0.0000
vn 0.0000 0.0000 -1.0000
vn 1.0000 0.0000 0.0000
vn 0.0000 1.0000 -0.0000
vn -0.9239 -0.3827 0.0000
vn -0.9576 -0.2880 0.0000
vn 0.0000 -1.0000 0.0000
vn 0.0000 -0.2880 0.9576
vn 0.0000 -0.3827 0.9239
vn 0.0000 0.0000 1.0000
vn -0.7071 -0.7071 0.0000
vn -1.0000 0.0000 0.0000
vn -0.3827 0.9239 0.0000
vn -0.3002 0.9054 0.3002
vn 0.0000 0.9239 0.3827
vn 0.0000 0.7071 0.7071
vn 0.0000 -0.7071 0.7071
usemtl restaurant
s 1
f 15/1/1 14/2/2 9/3/3 16/4/3
f 5/5/4 6/6/4 4/7/4 3/8/4
f 3/8/5 4/7/5 2/9/5 1/10/5
f 12/11/6 10/12/6 16/13/6
f 27/14/4 28/15/4 15/16/4 16/17/4
f 15/16/1 28/15/7 26/18/8 14/19/2
f 6/20/4 27/14/4 16/17/4
f 6/21/9 8/22/9 25/23/9 27/24/9
f 2/25/5 4/26/5 11/27/5 17/28/5
f 10/29/4 19/30/4 20/31/4 13/32/4
f 26/18/10 29/33/11 18/34/12 14/19/12
f 26/35/8 28/36/7 27/37/13 25/38/13
f 1/10/12 2/9/12 8/39/12 7/40/12
f 5/5/14 7/40/14 8/39/14 6/6/14
f 5/41/9 3/42/9 1/43/9 7/44/9
f 11/27/5 4/26/5 13/32/5
f 10/29/14 12/45/14 23/46/14 19/30/14
f 12/45/12 11/27/12 22/47/12 23/46/12
f 13/48/6 20/49/15 24/50/16 21/51/17
f 17/52/18 9/3/18 14/2/18 18/53/18
f 19/54/3 23/55/3 24/56/16 20/57/15
f 23/55/18 22/58/18 21/59/17 24/56/16
f 25/38/19 30/60/19 29/61/11 26/35/10
f 2/62/9 30/63/9 25/23/9 8/22/9
f 30/64/5 17/28/5 18/34/5 29/33/5
f 4/26/4 10/29/4 13/32/4
f 22/47/5 11/27/5 13/32/5 21/65/5
f 4/26/4 6/20/4 16/17/4 10/29/4
f 30/64/5 2/25/5 17/28/5
f 12/11/6 9/66/6 17/67/6
f 11/68/6 12/11/6 17/67/6
f 9/66/6 12/11/6 16/13/6
