# Blender v3.4.1 OBJ File: 'restaurant_bits_extra_export.blend'
# www.blender.org
mtllib pizzabox_open.mtl
o pizzabox_open_Cube.077
v -0.950000 0.050000 -0.950000
v -0.950000 0.050000 0.950000
v -0.950000 0.250000 0.950000
v -0.950000 0.250000 -0.950000
v 0.950000 0.050000 -0.950000
v 0.950000 0.250000 -0.950000
v 0.950000 0.050000 0.950000
v 0.950000 0.250000 0.950000
v -0.975000 0.000000 0.975000
v -1.000000 0.025000 0.975000
v -0.975000 0.025000 1.000000
v -0.975000 0.225000 1.000000
v -1.000000 0.225000 0.975000
v -0.975000 0.250000 0.975000
v -0.975000 0.000000 -0.975000
v -0.975000 0.025000 -1.000000
v -1.000000 0.025000 -0.975000
v -1.000000 0.225000 -0.975000
v -0.975000 0.250000 -1.000000
v 0.975000 0.000000 0.975000
v 0.975000 0.025000 1.000000
v 1.000000 0.025000 0.975000
v 1.000000 0.225000 0.975000
v 0.975000 0.225000 1.000000
v 0.975000 0.250000 0.975000
v 0.975000 0.000000 -0.975000
v 1.000000 0.025000 -0.975000
v 0.975000 0.025000 -1.000000
v 0.975000 0.250000 -1.000000
v 1.000000 0.225000 -0.975000
v -0.017672 0.060000 0.022751
v -0.460967 0.060000 -0.513029
v -0.169159 0.060000 -0.661621
v -0.622572 0.060000 -0.199927
v -0.229235 0.060000 0.673546
v -0.523118 0.060000 0.469944
v -0.655532 0.060000 0.119572
v 0.379299 0.060000 -0.398338
v 0.573073 0.060000 -0.074733
v 0.127515 0.060000 -0.623140
v 0.537191 0.060000 0.546102
v 0.310201 0.060000 0.669504
v 0.683382 0.060000 0.074048
v 0.690054 0.060000 0.313993
vt 0.598594 0.832140
vt 0.598594 0.849904
vt 0.521126 0.849904
vt 0.521126 0.832140
vt 0.598594 0.898999
vt 0.597601 0.898999
vt 0.597601 0.898999
vt 0.598594 0.898999
vt 0.521126 0.898999
vt 0.522119 0.898999
vt 0.522119 0.898999
vt 0.521126 0.898999
vt 0.520133 0.832140
vt 0.520133 0.849904
vt 0.520133 0.849904
vt 0.520133 0.832140
vt 0.522119 0.818735
vt 0.522119 0.818735
vt 0.522119 0.867749
vt 0.522119 0.867749
vt 0.597601 0.818735
vt 0.597601 0.867749
vt 0.597601 0.818735
vt 0.597601 0.867749
vt 0.522119 0.849985
vt 0.522119 0.849985
vt 0.597601 0.849985
vt 0.597601 0.849985
vt 0.521126 0.832140
vt 0.521126 0.883374
vt 0.598594 0.883374
vt 0.598594 0.832140
vt 0.599587 0.832140
vt 0.599587 0.849904
vt 0.599587 0.849904
vt 0.599587 0.832140
vt 0.521126 0.814294
vt 0.521126 0.881154
vt 0.521126 0.914624
vt 0.520133 0.881154
vt 0.521126 0.814294
vt 0.598594 0.814294
vt 0.599587 0.881154
vt 0.598594 0.914624
vt 0.598594 0.881154
vt 0.598594 0.814294
vt 0.520133 0.847765
vt 0.521126 0.847765
vt 0.521126 0.865529
vt 0.520133 0.865529
vt 0.521126 0.914624
vt 0.520133 0.881154
vt 0.599587 0.881154
vt 0.598594 0.914624
vt 0.599587 0.865529
vt 0.598594 0.865529
vt 0.598594 0.847765
vt 0.599587 0.847765
vt 0.521126 0.798669
vt 0.598594 0.798669
vt 0.598594 0.798669
vt 0.521126 0.798669
vt 0.557424 0.765865
vt 0.523192 0.823476
vt 0.521452 0.823476
vt 0.543954 0.823476
vt 0.572429 0.823476
vt 0.592127 0.823476
vt 0.586305 0.823476
vt 0.584411 0.823476
vt 0.592480 0.823476
vt 0.534367 0.823476
vt 0.547125 0.823476
vt 0.529077 0.823476
vt 0.531706 0.823476
vt 0.525176 0.823476
vt 0.578149 0.823476
vt 0.562786 0.823476
vt 0.574004 0.823476
vn 0.0000 0.0000 1.0000
vn 0.0000 1.0000 0.0000
vn -1.0000 0.0000 0.0000
vn 1.0000 0.0000 0.0000
vn 0.0000 0.0000 -1.0000
vn -0.5774 -0.5774 0.5774
vn -0.5773 0.5773 0.5774
vn -0.5774 -0.5774 -0.5774
vn 0.5774 -0.5774 0.5774
vn 0.5773 0.5773 0.5774
vn 0.5774 -0.5774 -0.5774
vn -0.7071 -0.7071 -0.0000
vn -0.7071 0.0000 0.7071
vn -0.7071 0.7071 0.0000
vn -0.7071 0.0000 -0.7071
vn 0.0000 -0.7071 -0.7071
vn 0.7071 0.0000 -0.7071
vn 0.7071 -0.7071 0.0000
vn 0.7071 0.7071 0.0000
vn 0.7071 0.0000 0.7071
vn 0.0000 -0.7071 0.7071
vn 0.0000 0.7071 0.7071
vn 0.0000 -1.0000 0.0000
usemtl restaurant
s off
f 21/1/1 24/2/1 12/3/1 11/4/1
f 29/5/2 6/6/2 8/7/2 25/8/2
f 14/9/2 3/10/2 4/11/2 19/12/2
f 10/13/3 13/14/3 18/15/3 17/16/3
f 2/17/4 1/18/4 4/19/4 3/20/4
f 1/18/1 5/21/1 6/22/1 4/19/1
f 5/21/3 7/23/3 8/24/3 6/22/3
f 7/23/5 2/17/5 3/20/5 8/24/5
f 1/25/2 2/26/2 7/27/2 5/28/2
f 25/8/2 8/7/2 3/10/2 14/9/2
f 16/29/5 19/30/5 29/31/5 28/32/5
f 27/33/4 30/34/4 23/35/4 22/36/4
f 9/37/6 11/4/6 10/13/6
f 12/38/7 14/39/7 13/40/7
f 15/41/8 17/16/8 16/29/8
f 20/42/9 22/36/9 21/1/9
f 23/43/10 25/44/10 24/45/10
f 26/46/11 28/32/11 27/33/11
f 17/16/12 15/41/12 9/37/12 10/13/12
f 10/47/13 11/48/13 12/49/13 13/50/13
f 13/40/14 14/39/14 19/51/14 18/52/14
f 18/15/15 19/30/15 16/29/15 17/16/15
f 28/32/16 26/46/16 15/41/16 16/29/16
f 29/31/17 30/34/17 27/33/17 28/32/17
f 22/36/18 20/42/18 26/46/18 27/33/18
f 30/53/19 29/54/19 25/44/19 23/43/19
f 23/55/20 24/56/20 21/57/20 22/58/20
f 11/4/21 9/37/21 20/42/21 21/1/21
f 24/45/22 25/44/22 14/39/22 12/38/22
f 15/59/23 26/60/23 20/61/23 9/62/23
f 19/12/2 4/11/2 6/6/2 29/5/2
f 31/63/2 34/64/2 37/65/2
f 31/63/2 35/66/2 42/67/2
f 31/63/2 43/68/2 39/69/2
f 31/63/2 41/70/2 44/71/2
f 32/72/2 31/63/2 33/73/2
f 34/64/2 31/63/2 32/74/2
f 35/66/2 31/63/2 36/75/2
f 36/76/2 31/63/2 37/65/2
f 38/77/2 31/63/2 39/69/2
f 40/78/2 31/63/2 38/79/2
f 41/70/2 31/63/2 42/67/2
f 43/68/2 31/63/2 44/71/2
f 31/63/2 40/78/2 33/73/2
