# Blender v3.4.1 OBJ File: 'restaurant_bits_extra_export.blend'
# www.blender.org
mtllib wall_tiles_A.mtl
o wall_tiles_A_Cube.438
v -1.000000 1.000000 -1.000000
v 1.000000 1.000000 -1.000000
v -1.000000 1.000000 -0.850000
v 1.000000 1.000000 -0.850000
v -1.000000 2.000000 -1.000000
v 1.000000 2.000000 -1.000000
v 1.000000 2.000000 -0.850000
v -1.000000 2.000000 -0.850000
v -0.500000 1.000000 -1.000000
v 0.000000 1.000000 -1.000000
v 0.500000 1.000000 -1.000000
v 0.500000 1.000000 -0.850000
v 0.000000 1.000000 -0.850000
v -0.500000 1.000000 -0.850000
v -0.500000 2.000000 -1.000000
v 0.000000 2.000000 -1.000000
v 0.500000 2.000000 -1.000000
v 0.500000 2.000000 -0.850000
v 0.000000 2.000000 -0.850000
v -0.500000 2.000000 -0.850000
v -1.000000 1.500000 -0.850000
v -1.000000 1.500000 -1.000000
v 1.000000 1.500000 -1.000000
v 1.000000 1.500000 -0.850000
v -0.500000 1.500000 -0.850000
v 0.000000 1.500000 -0.850000
v 0.500000 1.500000 -0.850000
v 0.500000 1.500000 -1.000000
v 0.000000 1.500000 -1.000000
v -0.500000 1.500000 -1.000000
vt 0.541295 0.838296
vt 0.541295 0.838296
vt 0.520088 0.838296
vt 0.520088 0.838296
vt 0.541295 0.880453
vt 0.520088 0.880453
vt 0.520088 0.880453
vt 0.541295 0.880453
vt 0.520088 0.859375
vt 0.520088 0.859375
vt 0.541295 0.859375
vt 0.604915 0.859375
vt 0.604915 0.859375
vt 0.604915 0.880453
vt 0.604915 0.880453
vt 0.583708 0.859375
vt 0.583708 0.880453
vt 0.520088 0.878641
vt 0.541295 0.878641
vt 0.541295 0.899719
vt 0.520088 0.899719
vt 0.541295 0.859375
vt 0.562501 0.859375
vt 0.562501 0.880453
vt 0.562501 0.878641
vt 0.583708 0.878641
vt 0.583708 0.899719
vt 0.562501 0.899719
vt 0.583708 0.859375
vt 0.583708 0.880453
vt 0.562501 0.859375
vt 0.562501 0.880453
vt 0.604915 0.838296
vt 0.604915 0.838296
vt 0.583708 0.838296
vt 0.583708 0.838296
vt 0.562501 0.838296
vt 0.562501 0.838296
vt 0.541295 0.857562
vt 0.562501 0.857562
vt 0.583708 0.857562
vt 0.604915 0.857562
vt 0.604915 0.878641
vn 0.0000 -1.0000 0.0000
vn 0.0000 1.0000 0.0000
vn -1.0000 0.0000 0.0000
vn 0.0000 0.0000 -1.0000
vn 1.0000 0.0000 0.0000
vn 0.0000 0.0000 1.0000
usemtl restaurant
s 1
f 9/1/1 14/2/1 3/3/1 1/4/1
f 15/5/2 5/6/2 8/7/2 20/8/2
f 22/9/3 21/10/3 8/7/3 5/6/3
f 30/11/4 22/9/4 5/6/4 15/5/4
f 24/12/5 23/13/5 6/14/5 7/15/5
f 27/16/6 24/12/6 7/15/6 18/17/6
f 21/18/6 25/19/6 20/20/6 8/21/6
f 25/22/6 26/23/6 19/24/6 20/8/6
f 26/25/6 27/26/6 18/27/6 19/28/6
f 23/13/4 28/29/4 17/30/4 6/14/4
f 28/29/4 29/31/4 16/32/4 17/30/4
f 29/31/4 30/11/4 15/5/4 16/32/4
f 6/14/2 17/30/2 18/17/2 7/15/2
f 17/30/2 16/32/2 19/24/2 18/17/2
f 16/32/2 15/5/2 20/8/2 19/24/2
f 2/33/1 4/34/1 12/35/1 11/36/1
f 11/36/1 12/35/1 13/37/1 10/38/1
f 10/38/1 13/37/1 14/2/1 9/1/1
f 10/38/4 9/1/4 30/11/4 29/31/4
f 11/36/4 10/38/4 29/31/4 28/29/4
f 2/33/4 11/36/4 28/29/4 23/13/4
f 13/37/6 12/35/6 27/16/6 26/23/6
f 14/39/6 13/40/6 26/25/6 25/19/6
f 3/3/6 14/2/6 25/22/6 21/10/6
f 12/41/6 4/42/6 24/43/6 27/26/6
f 4/34/5 2/33/5 23/13/5 24/12/5
f 9/1/4 1/4/4 22/9/4 30/11/4
f 1/4/3 3/3/3 21/10/3 22/9/3
