{
    "asset" : {
        "generator" : "Khronos glTF Blender I/O v3.4.50",
        "version" : "2.0"
    },
    "scene" : 0,
    "scenes" : [
        {
            "name" : "Scene",
            "nodes" : [
                3
            ]
        }
    ],
    "nodes" : [
        {
            "mesh" : 0,
            "name" : "icecream_machine_handle_chocolate",
            "translation" : [
                0.49999237060546875,
                1.929833173751831,
                0.6999999284744263
            ]
        },
        {
            "mesh" : 1,
            "name" : "icecream_machine_handle_strawberry",
            "translation" : [
                -0.5000076293945312,
                1.929833173751831,
                0.6999999284744263
            ]
        },
        {
            "mesh" : 2,
            "name" : "icecream_machine_handle_vanilla",
            "translation" : [
                -7.62939453125e-06,
                1.929833173751831,
                0.6999999284744263
            ]
        },
        {
            "children" : [
                0,
                1,
                2
            ],
            "mesh" : 3,
            "name" : "icecream_machine"
        }
    ],
    "materials" : [
        {
            "name" : "restaurant",
            "pbrMetallicRoughness" : {
                "baseColorTexture" : {
                    "index" : 0
                },
                "metallicFactor" : 0,
                "roughnessFactor" : 0.5
            }
        }
    ],
    "meshes" : [
        {
            "name" : "Cube.395",
            "primitives" : [
                {
                    "attributes" : {
                        "POSITION" : 0,
                        "TEXCOORD_0" : 1,
                        "NORMAL" : 2
                    },
                    "indices" : 3,
                    "material" : 0
                }
            ]
        },
        {
            "name" : "Cube.396",
            "primitives" : [
                {
                    "attributes" : {
                        "POSITION" : 4,
                        "TEXCOORD_0" : 5,
                        "NORMAL" : 6
                    },
                    "indices" : 3,
                    "material" : 0
                }
            ]
        },
        {
            "name" : "Cube.394",
            "primitives" : [
                {
                    "attributes" : {
                        "POSITION" : 7,
                        "TEXCOORD_0" : 8,
                        "NORMAL" : 9
                    },
                    "indices" : 3,
                    "material" : 0
                }
            ]
        },
        {
            "name" : "Cube.397",
            "primitives" : [
                {
                    "attributes" : {
                        "POSITION" : 10,
                        "TEXCOORD_0" : 11,
                        "NORMAL" : 12
                    },
                    "indices" : 13,
                    "material" : 0
                }
            ]
        }
    ],
    "textures" : [
        {
            "sampler" : 0,
            "source" : 0
        }
    ],
    "images" : [
        {
            "mimeType" : "image/png",
            "name" : "restaurantbits_extra",
            "uri" : "restaurantbits_extra.png"
        }
    ],
    "accessors" : [
        {
            "bufferView" : 0,
            "componentType" : 5126,
            "count" : 83,
            "max" : [
                0.12535613775253296,
                0.4740504324436188,
                0.11610469967126846
            ],
            "min" : [
                -0.12533719837665558,
                -0.05465087294578552,
                -0.11610466241836548
            ],
            "type" : "VEC3"
        },
        {
            "bufferView" : 1,
            "componentType" : 5126,
            "count" : 83,
            "type" : "VEC2"
        },
        {
            "bufferView" : 2,
            "componentType" : 5126,
            "count" : 83,
            "type" : "VEC3"
        },
        {
            "bufferView" : 3,
            "componentType" : 5123,
            "count" : 216,
            "type" : "SCALAR"
        },
        {
            "bufferView" : 4,
            "componentType" : 5126,
            "count" : 83,
            "max" : [
                0.12535613775253296,
                0.4740504324436188,
                0.11610469967126846
            ],
            "min" : [
                -0.12533719837665558,
                -0.05465087294578552,
                -0.11610466241836548
            ],
            "type" : "VEC3"
        },
        {
            "bufferView" : 5,
            "componentType" : 5126,
            "count" : 83,
            "type" : "VEC2"
        },
        {
            "bufferView" : 6,
            "componentType" : 5126,
            "count" : 83,
            "type" : "VEC3"
        },
        {
            "bufferView" : 7,
            "componentType" : 5126,
            "count" : 83,
            "max" : [
                0.12535613775253296,
                0.4740504324436188,
                0.11610469967126846
            ],
            "min" : [
                -0.12533719837665558,
                -0.05465087294578552,
                -0.11610466241836548
            ],
            "type" : "VEC3"
        },
        {
            "bufferView" : 8,
            "componentType" : 5126,
            "count" : 83,
            "type" : "VEC2"
        },
        {
            "bufferView" : 9,
            "componentType" : 5126,
            "count" : 83,
            "type" : "VEC3"
        },
        {
            "bufferView" : 10,
            "componentType" : 5126,
            "count" : 1468,
            "max" : [
                1.0000030994415283,
                2.299999952316284,
                1
            ],
            "min" : [
                -1,
                -1.1920928955078125e-07,
                -1.0300002098083496
            ],
            "type" : "VEC3"
        },
        {
            "bufferView" : 11,
            "componentType" : 5126,
            "count" : 1468,
            "type" : "VEC2"
        },
        {
            "bufferView" : 12,
            "componentType" : 5126,
            "count" : 1468,
            "type" : "VEC3"
        },
        {
            "bufferView" : 13,
            "componentType" : 5123,
            "count" : 3276,
            "type" : "SCALAR"
        }
    ],
    "bufferViews" : [
        {
            "buffer" : 0,
            "byteLength" : 996,
            "byteOffset" : 0,
            "target" : 34962
        },
        {
            "buffer" : 0,
            "byteLength" : 664,
            "byteOffset" : 996,
            "target" : 34962
        },
        {
            "buffer" : 0,
            "byteLength" : 996,
            "byteOffset" : 1660,
            "target" : 34962
        },
        {
            "buffer" : 0,
            "byteLength" : 432,
            "byteOffset" : 2656,
            "target" : 34963
        },
        {
            "buffer" : 0,
            "byteLength" : 996,
            "byteOffset" : 3088,
            "target" : 34962
        },
        {
            "buffer" : 0,
            "byteLength" : 664,
            "byteOffset" : 4084,
            "target" : 34962
        },
        {
            "buffer" : 0,
            "byteLength" : 996,
            "byteOffset" : 4748,
            "target" : 34962
        },
        {
            "buffer" : 0,
            "byteLength" : 996,
            "byteOffset" : 5744,
            "target" : 34962
        },
        {
            "buffer" : 0,
            "byteLength" : 664,
            "byteOffset" : 6740,
            "target" : 34962
        },
        {
            "buffer" : 0,
            "byteLength" : 996,
            "byteOffset" : 7404,
            "target" : 34962
        },
        {
            "buffer" : 0,
            "byteLength" : 17616,
            "byteOffset" : 8400,
            "target" : 34962
        },
        {
            "buffer" : 0,
            "byteLength" : 11744,
            "byteOffset" : 26016,
            "target" : 34962
        },
        {
            "buffer" : 0,
            "byteLength" : 17616,
            "byteOffset" : 37760,
            "target" : 34962
        },
        {
            "buffer" : 0,
            "byteLength" : 6552,
            "byteOffset" : 55376,
            "target" : 34963
        }
    ],
    "samplers" : [
        {
            "magFilter" : 9729,
            "minFilter" : 9987
        }
    ],
    "buffers" : [
        {
            "byteLength" : 61928,
            "uri" : "icecream_machine.bin"
        }
    ]
}
