# Blender v2.80 (sub 75) OBJ File: 'Dungeon_Remastered_Export1.0.blend'
# www.blender.org
mtllib bookcase_double.mtl
o bookcase_double_Cube.14603
v -2.000000 0.100000 -0.250000
v -2.000000 0.300000 -0.250000
v 2.000000 0.100000 -0.250000
v 2.000000 0.300000 -0.250000
v -1.900000 0.000000 -0.250000
v -1.900000 2.800000 -0.250000
v -1.700000 0.000000 -0.250000
v -1.700000 2.800000 -0.250000
v 1.700000 0.000000 -0.250000
v 1.700000 2.800000 -0.250000
v 1.900000 0.000000 -0.250000
v 1.900000 2.800000 -0.250000
v -1.700000 1.500000 -0.250000
v -1.700000 1.600000 -0.250000
v 1.700000 1.500000 -0.250000
v 1.700000 1.600000 -0.250000
v -2.000000 0.100000 0.225000
v -2.000000 0.125000 0.250000
v -2.000000 0.275000 0.250000
v -2.000000 0.300000 0.225000
v 2.000000 0.125000 0.250000
v 2.000000 0.100000 0.225000
v 2.000000 0.300000 0.225000
v 2.000000 0.275000 0.250000
v -1.875000 0.025000 0.200000
v -1.900000 0.000000 0.175000
v -1.900000 2.800000 0.175000
v -1.875000 2.800000 0.200000
v -1.725000 0.025000 0.200000
v -1.700000 0.000000 0.175000
v -1.725000 2.800000 0.200000
v -1.700000 2.800000 0.175000
v 1.725000 0.025000 0.200000
v 1.700000 0.000000 0.175000
v 1.700000 2.800000 0.175000
v 1.725000 2.800000 0.200000
v 1.875000 0.025000 0.200000
v 1.900000 0.000000 0.175000
v 1.875000 2.800000 0.200000
v 1.900000 2.800000 0.175000
v -1.700000 1.500000 0.134554
v -1.700000 1.515446 0.150000
v -1.700000 1.584554 0.150000
v -1.700000 1.600000 0.134554
v 1.700000 1.515446 0.150000
v 1.700000 1.500000 0.134554
v 1.700000 1.600000 0.134554
v 1.700000 1.584554 0.150000
v 0.384048 1.500000 0.134554
v 0.048054 1.500000 0.134554
v 0.280000 1.500000 0.030506
v 0.384048 1.515446 0.150000
v 0.048054 1.515446 0.150000
v 0.280000 1.515446 0.045892
v 0.048054 1.600000 0.134554
v 0.384048 1.600000 0.134554
v 0.280000 1.600000 0.030506
v 0.048054 1.584554 0.150000
v 0.384048 1.584554 0.150000
v 0.280000 1.584554 0.045892
v -0.132081 0.100000 0.225000
v -0.509600 0.100000 0.225000
v -0.388744 0.100000 0.181978
v -0.132081 0.125000 0.250000
v -0.509600 0.125000 0.250000
v -0.388744 0.125000 0.206760
v -0.509600 0.300000 0.225000
v -0.132081 0.300000 0.225000
v -0.388744 0.300000 0.181978
v -0.509600 0.275000 0.250000
v -0.132081 0.275000 0.250000
v -0.388744 0.275000 0.206760
v -1.700000 0.850000 -0.250000
v -1.700000 0.950000 -0.250000
v 1.700000 0.850000 -0.250000
v 1.700000 0.950000 -0.250000
v -1.700000 0.850000 0.134554
v -1.700000 0.865446 0.150000
v -1.700000 0.934554 0.150000
v -1.700000 0.950000 0.134554
v 1.700000 0.865446 0.150000
v 1.700000 0.850000 0.134554
v 1.700000 0.950000 0.134554
v 1.700000 0.934554 0.150000
v 1.484048 0.850000 0.134554
v 1.275952 0.850000 0.134554
v 1.380000 0.850000 0.030506
v 1.484048 0.865446 0.150000
v 1.275952 0.865446 0.150000
v 1.380000 0.865446 0.045892
v 1.275952 0.950000 0.134554
v 1.484048 0.950000 0.134554
v 1.380000 0.950000 0.030506
v 1.275952 0.934554 0.150000
v 1.484048 0.934554 0.150000
v 1.380000 0.934554 0.045892
v -1.700000 2.150000 -0.250000
v -1.700000 2.250000 -0.250000
v 1.700000 2.150000 -0.250000
v 1.700000 2.250000 -0.250000
v -1.700000 2.150000 0.134554
v -1.700000 2.165446 0.150000
v -1.700000 2.234554 0.150000
v -1.700000 2.250000 0.134554
v 1.700000 2.165446 0.150000
v 1.700000 2.150000 0.134554
v 1.700000 2.250000 0.134554
v 1.700000 2.234554 0.150000
v -0.215952 2.150000 0.134554
v -0.424048 2.150000 0.134554
v -0.320000 2.150000 0.087415
v -0.215952 2.165446 0.150000
v -0.424048 2.165446 0.150000
v -0.320000 2.165446 0.102802
v -0.424048 2.250000 0.134554
v -0.215952 2.250000 0.134554
v -0.320000 2.250000 0.087415
v -0.424048 2.234554 0.150000
v -0.215952 2.234554 0.150000
v -0.320000 2.234554 0.102802
v -0.100000 0.000000 -0.250000
v -0.100000 2.800000 -0.250000
v 0.100000 0.000000 -0.250000
v 0.100000 2.800000 -0.250000
v -0.075000 0.025000 0.200000
v -0.100000 0.000000 0.175000
v -0.100000 2.800000 0.175000
v -0.075000 2.800000 0.200000
v 0.075000 0.025000 0.200000
v 0.100000 0.000000 0.175000
v 0.075000 2.800000 0.200000
v 0.100000 2.800000 0.175000
v 2.000000 2.800000 -0.250000
v 2.000000 3.000000 -0.250000
v -2.000000 2.800000 -0.250000
v -2.000000 3.000000 -0.250000
v 2.000000 2.800000 0.225000
v 2.000000 2.825000 0.250000
v 2.000000 2.975000 0.250000
v 2.000000 3.000000 0.225000
v -2.000000 2.825000 0.250000
v -2.000000 2.800000 0.225000
v -1.924880 3.000000 0.225000
v -2.000000 3.000000 0.118765
v -2.000000 2.868764 0.250000
v -1.924880 2.975000 0.250000
vt 0.599288 0.827623
vt 0.599288 0.831405
vt 0.576758 0.831405
vt 0.576758 0.827623
vt 0.514602 0.795742
vt 0.599288 0.795742
vt 0.565890 0.795742
vt 0.514602 0.826992
vt 0.514602 0.832036
vt 0.599288 0.832036
vt 0.599288 0.826992
vt 0.514602 0.826992
vt 0.514602 0.827623
vt 0.514602 0.831405
vt 0.514602 0.832036
vt 0.599288 0.826992
vt 0.599288 0.832036
vt 0.518836 0.793221
vt 0.527305 0.793221
vt 0.527305 0.793221
vt 0.518836 0.793221
vt 0.526246 0.825101
vt 0.526246 0.895078
vt 0.519895 0.895078
vt 0.519895 0.825101
vt 0.518836 0.824471
vt 0.518836 0.895078
vt 0.527305 0.895078
vt 0.527305 0.824471
vt 0.518499 0.793221
vt 0.526968 0.793221
vt 0.526968 0.793221
vt 0.518499 0.793221
vt 0.518836 0.895078
vt 0.527305 0.895078
vt 0.518836 0.824471
vt 0.527305 0.824471
vt 0.525909 0.825101
vt 0.525909 0.895078
vt 0.519558 0.895078
vt 0.519558 0.825101
vt 0.518499 0.824471
vt 0.518499 0.895078
vt 0.526968 0.895078
vt 0.526968 0.824471
vt 0.518499 0.895078
vt 0.526968 0.895078
vt 0.518499 0.824471
vt 0.526968 0.824471
vt 0.586585 0.861424
vt 0.586585 0.863167
vt 0.581675 0.863167
vt 0.581675 0.861424
vt 0.527305 0.829785
vt 0.586585 0.829785
vt 0.577269 0.829785
vt 0.519895 0.840726
vt 0.519895 0.910703
vt 0.518836 0.910703
vt 0.518836 0.840096
vt 0.526246 0.910703
vt 0.526246 0.840726
vt 0.527305 0.840096
vt 0.527305 0.910703
vt 0.518836 0.808846
vt 0.527305 0.808846
vt 0.526246 0.809476
vt 0.519895 0.809476
vt 0.519558 0.840726
vt 0.519558 0.910703
vt 0.518499 0.910703
vt 0.518499 0.840096
vt 0.525909 0.910703
vt 0.525909 0.840726
vt 0.526968 0.840096
vt 0.526968 0.910703
vt 0.518499 0.808846
vt 0.526968 0.808846
vt 0.525909 0.809476
vt 0.519558 0.809476
vt 0.560773 0.826992
vt 0.560773 0.827623
vt 0.586585 0.894807
vt 0.527305 0.894807
vt 0.577269 0.894807
vt 0.527305 0.845410
vt 0.567448 0.845410
vt 0.567448 0.845799
vt 0.527305 0.845799
vt 0.567448 0.861424
vt 0.567448 0.863167
vt 0.527305 0.863167
vt 0.527305 0.861424
vt 0.527305 0.894807
vt 0.567448 0.894807
vt 0.581675 0.845410
vt 0.586585 0.845410
vt 0.586585 0.845799
vt 0.581675 0.845799
vt 0.586585 0.879182
vt 0.581675 0.879182
vt 0.581675 0.878792
vt 0.586585 0.878792
vt 0.567448 0.879182
vt 0.527305 0.879182
vt 0.527305 0.878792
vt 0.567448 0.878792
vt 0.567448 0.863557
vt 0.577269 0.863167
vt 0.577269 0.863557
vt 0.577269 0.894417
vt 0.581675 0.894417
vt 0.581675 0.894807
vt 0.581675 0.861035
vt 0.577269 0.861424
vt 0.577269 0.861035
vt 0.577269 0.830174
vt 0.567448 0.830174
vt 0.567448 0.829785
vt 0.567448 0.847542
vt 0.577269 0.845799
vt 0.577269 0.847542
vt 0.577269 0.878792
vt 0.577269 0.877049
vt 0.581675 0.877049
vt 0.586585 0.829785
vt 0.581675 0.829785
vt 0.527305 0.861035
vt 0.527305 0.863557
vt 0.586585 0.863557
vt 0.586585 0.861035
vt 0.527305 0.829785
vt 0.586585 0.894807
vt 0.560773 0.831405
vt 0.514602 0.863286
vt 0.514602 0.863286
vt 0.560773 0.863286
vt 0.565890 0.863286
vt 0.576758 0.826992
vt 0.576758 0.832036
vt 0.560773 0.832036
vt 0.599288 0.863286
vt 0.514602 0.795742
vt 0.560773 0.795742
vt 0.599288 0.863286
vt 0.576758 0.863286
vt 0.560773 0.816411
vt 0.560773 0.815780
vt 0.565890 0.815780
vt 0.565890 0.816411
vt 0.565890 0.847661
vt 0.565890 0.847030
vt 0.576758 0.847030
vt 0.576758 0.847661
vt 0.576758 0.842617
vt 0.576758 0.843248
vt 0.565890 0.843248
vt 0.565890 0.842617
vt 0.565890 0.811367
vt 0.565890 0.811998
vt 0.560773 0.811998
vt 0.560773 0.811367
vt 0.599288 0.795742
vt 0.576758 0.795742
vt 0.527305 0.843383
vt 0.527305 0.845905
vt 0.586585 0.845905
vt 0.586585 0.843383
vt 0.586585 0.843773
vt 0.586585 0.845515
vt 0.543567 0.845515
vt 0.543567 0.843773
vt 0.527305 0.812133
vt 0.586585 0.812133
vt 0.539161 0.812133
vt 0.586585 0.877155
vt 0.527305 0.877155
vt 0.539161 0.877155
vt 0.527305 0.827758
vt 0.534755 0.827758
vt 0.534755 0.828148
vt 0.527305 0.828148
vt 0.534755 0.843773
vt 0.534755 0.845515
vt 0.527305 0.845515
vt 0.527305 0.843773
vt 0.527305 0.877155
vt 0.534755 0.877155
vt 0.543567 0.827758
vt 0.586585 0.827758
vt 0.586585 0.828148
vt 0.543567 0.828148
vt 0.586585 0.861530
vt 0.543567 0.861530
vt 0.543567 0.861140
vt 0.586585 0.861140
vt 0.534755 0.861530
vt 0.527305 0.861530
vt 0.527305 0.861140
vt 0.534755 0.861140
vt 0.534755 0.845905
vt 0.539161 0.845515
vt 0.539161 0.845905
vt 0.539161 0.876765
vt 0.543567 0.876765
vt 0.543567 0.877155
vt 0.543567 0.843383
vt 0.539161 0.843773
vt 0.539161 0.843383
vt 0.539161 0.812523
vt 0.534755 0.812523
vt 0.534755 0.812133
vt 0.534755 0.829890
vt 0.539161 0.828148
vt 0.539161 0.829890
vt 0.539161 0.861140
vt 0.539161 0.859398
vt 0.543567 0.859398
vt 0.586585 0.812133
vt 0.543567 0.812133
vt 0.586585 0.879076
vt 0.586585 0.880819
vt 0.552035 0.880819
vt 0.552035 0.879076
vt 0.527305 0.847437
vt 0.586585 0.847437
vt 0.547630 0.847437
vt 0.586585 0.912458
vt 0.527305 0.912458
vt 0.547630 0.912458
vt 0.527305 0.863062
vt 0.543224 0.863062
vt 0.543224 0.863451
vt 0.527305 0.863451
vt 0.543224 0.879076
vt 0.543224 0.880819
vt 0.527305 0.880819
vt 0.527305 0.879076
vt 0.527305 0.912458
vt 0.543224 0.912458
vt 0.552035 0.863062
vt 0.586585 0.863062
vt 0.586585 0.863451
vt 0.552035 0.863451
vt 0.586585 0.896833
vt 0.552035 0.896833
vt 0.552035 0.896444
vt 0.586585 0.896444
vt 0.543224 0.896833
vt 0.527305 0.896833
vt 0.527305 0.896444
vt 0.543224 0.896444
vt 0.543224 0.881208
vt 0.547630 0.880819
vt 0.547630 0.881208
vt 0.547630 0.912069
vt 0.552035 0.912069
vt 0.552035 0.912458
vt 0.552035 0.878687
vt 0.547630 0.879076
vt 0.547630 0.878687
vt 0.547630 0.847826
vt 0.543224 0.847826
vt 0.543224 0.847437
vt 0.543224 0.865194
vt 0.547630 0.863451
vt 0.547630 0.865194
vt 0.547630 0.896444
vt 0.547630 0.894701
vt 0.552035 0.894701
vt 0.586585 0.847437
vt 0.552035 0.847437
vt 0.586585 0.877155
vt 0.527305 0.812133
vt 0.527305 0.847437
vt 0.586585 0.912458
vt 0.527305 0.878687
vt 0.527305 0.881208
vt 0.586585 0.881208
vt 0.586585 0.878687
vt 0.518499 0.793221
vt 0.526968 0.793221
vt 0.526968 0.793221
vt 0.518499 0.793221
vt 0.525909 0.825101
vt 0.525909 0.895078
vt 0.519558 0.895078
vt 0.519558 0.825101
vt 0.518499 0.824471
vt 0.518499 0.895078
vt 0.526968 0.895078
vt 0.526968 0.824471
vt 0.518499 0.895078
vt 0.526968 0.895078
vt 0.518499 0.824471
vt 0.526968 0.824471
vt 0.519558 0.840726
vt 0.519558 0.910703
vt 0.518499 0.910703
vt 0.518499 0.840096
vt 0.525909 0.910703
vt 0.525909 0.840726
vt 0.526968 0.840096
vt 0.526968 0.910703
vt 0.518499 0.808846
vt 0.526968 0.808846
vt 0.525909 0.809476
vt 0.519558 0.809476
vt 0.514602 0.863828
vt 0.514602 0.863828
vt 0.599288 0.863828
vt 0.599288 0.863828
vt 0.599288 0.931371
vt 0.596107 0.931371
vt 0.599288 0.931371
vt 0.514602 0.895078
vt 0.599288 0.895078
vt 0.599288 0.900121
vt 0.514602 0.900121
vt 0.599288 0.895708
vt 0.596107 0.899491
vt 0.599288 0.896812
vt 0.514602 0.895078
vt 0.514602 0.900121
vt 0.514602 0.899491
vt 0.514602 0.895708
vt 0.514602 0.879453
vt 0.514602 0.880083
vt 0.599288 0.880083
vt 0.599288 0.879453
vt 0.514602 0.931371
vt 0.514602 0.931371
vt 0.596107 0.915746
vt 0.596107 0.915116
vt 0.514602 0.915116
vt 0.514602 0.915746
vt 0.599288 0.912437
vt 0.599288 0.915746
vt 0.599288 0.895078
vt 0.599288 0.900121
vn 0.0000 0.0000 1.0000
vn 0.0000 -1.0000 -0.0000
vn 0.0000 0.0000 -1.0000
vn -1.0000 0.0000 0.0000
vn 1.0000 0.0000 0.0000
vn 0.0000 1.0000 -0.0000
vn -0.7071 0.0000 0.7071
vn 0.7071 0.0000 0.7071
vn 0.0000 -0.7071 0.7071
vn 0.0000 0.7071 0.7071
vn 0.3027 0.6733 0.6746
vn -0.5778 0.5766 0.5777
vn -0.5778 -0.5766 0.5777
vn 0.3027 -0.6733 0.6746
vn 0.4095 0.0000 0.9123
vn -0.7073 0.0000 0.7069
vn 0.2452 0.6840 0.6870
vn -0.1182 0.7006 0.7037
vn -0.1182 -0.7006 0.7037
vn 0.2452 -0.6840 0.6870
vn 0.3369 0.0000 0.9416
vn -0.1661 0.0000 0.9861
vn 0.5778 0.5765 0.5777
vn -0.5778 -0.5765 0.5777
vn 0.5778 -0.5765 0.5777
vn 0.7073 0.0000 0.7069
vn 0.3055 0.6726 0.6739
vn -0.3055 0.6726 0.6739
vn -0.3055 -0.6726 0.6739
vn 0.3055 -0.6726 0.6739
vn 0.4131 0.0000 0.9107
vn -0.4131 0.0000 0.9107
vn -0.7071 0.5000 0.5000
usemtl texture
s 1
f 21/1/1 24/2/1 71/3/1 64/4/1
s 2
f 1/5/2 3/6/2 63/7/2
s 3
f 1/8/3 2/9/3 4/10/3 3/11/3
s 4
f 17/12/4 18/13/4 19/14/4 20/15/4
s 5
f 22/16/5 23/17/5 24/2/5 21/1/5
s 6
f 5/18/2 7/19/2 30/20/2 26/21/2
s 7
f 29/22/1 31/23/1 28/24/1 25/25/1
s 8
f 5/26/3 6/27/3 8/28/3 7/29/3
s 9
f 9/30/2 11/31/2 38/32/2 34/33/2
s 10
f 8/28/6 6/27/6 27/34/6 28/24/6 31/23/6 32/35/6
s 11
f 26/36/4 27/34/4 6/27/4 5/26/4
s 12
f 7/29/5 8/28/5 32/35/5 30/37/5
s 13
f 37/38/1 39/39/1 36/40/1 33/41/1
s 14
f 9/42/3 10/43/3 12/44/3 11/45/3
s 15
f 12/44/6 10/43/6 35/46/6 36/40/6 39/39/6 40/47/6
s 16
f 34/48/4 35/46/4 10/43/4 9/42/4
s 17
f 11/45/5 12/44/5 40/47/5 38/49/5
s 18
f 45/50/1 48/51/1 59/52/1 52/53/1
s 19
f 13/54/2 15/55/2 51/56/2
s 20
f 25/57/7 28/58/7 27/59/7 26/60/7
s 21
f 31/61/8 29/62/8 30/63/8 32/64/8
s 22
f 26/65/9 30/66/9 29/67/9 25/68/9
s 23
f 33/69/7 36/70/7 35/71/7 34/72/7
s 24
f 39/73/8 37/74/8 38/75/8 40/76/8
s 25
f 34/77/9 38/78/9 37/79/9 33/80/9
s 26
f 17/12/9 62/81/9 65/82/9 18/13/9
s 27
f 16/83/6 14/84/6 57/85/6
s 28
f 41/86/9 50/87/9 53/88/9 42/89/9
s 29
f 1/8/4 17/12/4 20/15/4 2/9/4
s 30
f 3/11/5 4/10/5 23/17/5 22/16/5
s 31
f 53/90/1 58/91/1 43/92/1 42/93/1
s 32
f 14/84/6 44/94/6 55/95/6 57/85/6
s 33
f 49/96/9 46/97/9 45/98/9 52/99/9
s 34
f 47/100/10 56/101/10 59/102/10 48/103/10
s 35
f 55/104/10 44/105/10 43/106/10 58/107/10
s 36
f 55/108/11 58/91/11 60/109/11 57/110/11
s 37
f 57/85/12 60/111/12 59/112/12 56/113/12
s 38
f 49/114/13 52/53/13 54/115/13 51/116/13
s 39
f 51/56/14 54/117/14 53/118/14 50/119/14
s 40
f 58/120/15 53/88/15 54/121/15 60/122/15
s 41
f 60/123/16 54/124/16 52/125/16 59/102/16
s 42
f 15/55/2 46/126/2 49/127/2 51/56/2
s 43
f 13/128/3 14/129/3 16/130/3 15/131/3
s 44
f 41/132/2 13/54/2 51/56/2 50/119/2
s 45
f 47/133/6 16/83/6 57/85/6 56/113/6
s 46
f 65/82/1 70/134/1 19/14/1 18/13/1
s 47
f 2/135/6 20/136/6 67/137/6 69/138/6
s 48
f 61/139/9 22/16/9 21/1/9 64/4/9
s 49
f 23/17/10 68/140/10 71/3/10 24/2/10
s 50
f 67/141/10 20/15/10 19/14/10 70/134/10
s 51
f 4/142/6 2/135/6 69/138/6
s 52
f 17/143/2 1/5/2 63/7/2 62/144/2
s 53
f 23/145/6 4/142/6 69/138/6 68/146/6
s 54
f 67/147/17 70/148/17 72/149/17 69/150/17
s 55
f 69/151/18 72/152/18 71/153/18 68/154/18
s 56
f 61/155/19 64/156/19 66/157/19 63/158/19
s 57
f 63/159/20 66/160/20 65/161/20 62/162/20
s 58
f 70/148/21 65/161/21 66/160/21 72/149/21
s 59
f 72/152/22 66/157/22 64/156/22 71/153/22
s 60
f 3/6/2 22/163/2 61/164/2 63/7/2
s 61
f 73/165/3 74/166/3 76/167/3 75/168/3
s 62
f 81/169/1 84/170/1 95/171/1 88/172/1
s 63
f 73/173/2 75/174/2 87/175/2
s 64
f 76/176/6 74/177/6 93/178/6
s 65
f 77/179/9 86/180/9 89/181/9 78/182/9
s 66
f 89/183/1 94/184/1 79/185/1 78/186/1
s 67
f 74/177/6 80/187/6 91/188/6 93/178/6
s 68
f 85/189/9 82/190/9 81/191/9 88/192/9
s 69
f 83/193/10 92/194/10 95/195/10 84/196/10
s 70
f 91/197/10 80/198/10 79/199/10 94/200/10
s 71
f 91/201/23 94/184/23 96/202/23 93/203/23
s 72
f 93/178/12 96/204/12 95/205/12 92/206/12
s 73
f 85/207/24 88/172/24 90/208/24 87/209/24
s 74
f 87/175/25 90/210/25 89/211/25 86/212/25
s 75
f 94/213/26 89/181/26 90/214/26 96/215/26
s 76
f 96/216/16 90/217/16 88/218/16 95/195/16
s 77
f 75/174/2 82/219/2 85/220/2 87/175/2
s 78
f 105/221/1 108/222/1 119/223/1 112/224/1
s 79
f 97/225/2 99/226/2 111/227/2
s 80
f 100/228/6 98/229/6 117/230/6
s 81
f 101/231/9 110/232/9 113/233/9 102/234/9
s 82
f 113/235/1 118/236/1 103/237/1 102/238/1
s 83
f 98/229/6 104/239/6 115/240/6 117/230/6
s 84
f 109/241/9 106/242/9 105/243/9 112/244/9
s 85
f 107/245/10 116/246/10 119/247/10 108/248/10
s 86
f 115/249/10 104/250/10 103/251/10 118/252/10
s 87
f 115/253/27 118/236/27 120/254/27 117/255/27
s 88
f 117/230/28 120/256/28 119/257/28 116/258/28
s 89
f 109/259/29 112/224/29 114/260/29 111/261/29
s 90
f 111/227/30 114/262/30 113/263/30 110/264/30
s 91
f 118/265/31 113/233/31 114/266/31 120/267/31
s 92
f 120/268/32 114/269/32 112/270/32 119/247/32
s 93
f 99/226/2 106/271/2 109/272/2 111/227/2
s 94
f 83/273/6 76/176/6 93/178/6 92/206/6
s 95
f 77/274/2 73/173/2 87/175/2 86/212/2
s 96
f 101/275/2 97/225/2 111/227/2 110/264/2
s 97
f 107/276/6 100/228/6 117/230/6 116/258/6
s 98
f 97/277/3 98/278/3 100/279/3 99/280/3
s 99
f 121/281/2 123/282/2 130/283/2 126/284/2
s 100
f 129/285/1 131/286/1 128/287/1 125/288/1
s 101
f 121/289/3 122/290/3 124/291/3 123/292/3
s 102
f 124/291/6 122/290/6 127/293/6 128/287/6 131/286/6 132/294/6
s 103
f 126/295/4 127/293/4 122/290/4 121/289/4
s 104
f 123/292/5 124/291/5 132/294/5 130/296/5
s 105
f 125/297/7 128/298/7 127/299/7 126/300/7
s 106
f 131/301/8 129/302/8 130/303/8 132/304/8
s 107
f 126/305/9 130/306/9 129/307/9 125/308/9
s 108
f 133/309/2 137/310/2 142/311/2 135/312/2
s 109
f 144/313/6 143/314/6 136/315/6
s 110
f 133/316/3 135/317/3 136/318/3 134/319/3
s 111
f 141/320/1 146/321/1 145/322/1
s 112
f 137/323/5 140/324/5 139/325/5 138/326/5
s 113
f 137/327/9 138/328/9 141/329/9 142/330/9
s 114
f 136/315/6 143/314/6 140/331/6 134/332/6
s 115
f 133/316/5 134/319/5 140/324/5 137/323/5
s 116
f 143/333/10 146/334/10 139/335/10 140/336/10
s 117
f 145/337/33 146/334/33 143/333/33 144/338/33
s 118
f 142/339/4 141/320/4 145/322/4 144/340/4
s 119
f 138/326/1 139/325/1 146/321/1 141/320/1
s 120
f 135/317/4 142/339/4 144/340/4 136/318/4
