# Blender v2.80 (sub 75) OBJ File: 'Dungeon_Remastered_Export1.0.blend'
# www.blender.org
mtllib book_tan.mtl
o book_tan_Cube.002
v -0.060000 -0.250000 -0.115147
v -0.060000 0.250000 -0.115147
v 0.060000 -0.250000 -0.115147
v 0.060000 0.250000 -0.115147
v -0.060000 -0.250000 0.187543
v -0.060000 0.250000 0.187543
v 0.060000 -0.250000 0.187543
v 0.060000 0.250000 0.187543
v -0.099999 0.250000 0.187543
v -0.099999 -0.250000 0.187543
v 0.100001 -0.250000 0.187543
v 0.100001 0.250000 0.187543
v -0.050000 -0.225000 -0.167457
v 0.050000 -0.225000 -0.167457
v -0.050000 0.225000 -0.167457
v 0.050000 0.225000 -0.167457
v 0.050000 0.225000 0.160122
v -0.050000 0.225000 0.160122
v -0.050000 -0.225000 0.160122
v 0.050000 -0.225000 0.160122
v -0.050000 -0.225000 -0.105147
v 0.050000 -0.225000 -0.105147
v -0.050000 0.225000 -0.105147
v 0.050000 0.225000 -0.105147
v -0.099999 0.250000 -0.147457
v -0.099999 -0.250000 -0.147457
v 0.100001 0.250000 -0.147457
v 0.100001 -0.250000 -0.147457
vt 0.161686 0.503780
vt 0.161686 0.503780
vt 0.161686 0.506313
vt 0.161686 0.509340
vt 0.161686 0.663322
vt 0.161686 0.663322
vt 0.161686 0.657762
vt 0.161686 0.660789
vt 0.146434 0.550655
vt 0.146434 0.647697
vt 0.146434 0.647697
vt 0.146434 0.550655
vt 0.166067 0.550655
vt 0.166067 0.647697
vt 0.166067 0.647697
vt 0.166067 0.550655
vt 0.150814 0.663322
vt 0.150814 0.657762
vt 0.150178 0.643069
vt 0.162322 0.643069
vt 0.162322 0.555282
vt 0.150178 0.555282
vt 0.150814 0.550655
vt 0.150814 0.647697
vt 0.161686 0.647697
vt 0.161686 0.550655
vt 0.150814 0.519405
vt 0.150814 0.519405
vt 0.146434 0.519405
vt 0.146434 0.519405
vt 0.161686 0.519405
vt 0.161686 0.519405
vt 0.166067 0.519405
vt 0.166067 0.519405
vt 0.150814 0.678947
vt 0.150814 0.678947
vt 0.146434 0.678947
vt 0.146434 0.678947
vt 0.161686 0.678947
vt 0.161686 0.678947
vt 0.166067 0.678947
vt 0.166067 0.678947
vt 0.051627 0.670988
vt 0.051627 0.579012
vt 0.073373 0.579012
vt 0.073373 0.670988
vt 0.073373 0.714836
vt 0.051627 0.714836
vt 0.051627 0.717863
vt 0.073373 0.717863
vt 0.051627 0.550789
vt 0.073373 0.550789
vt 0.073373 0.547762
vt 0.051627 0.547762
vt 0.161686 0.535030
vt 0.161686 0.632072
vt 0.161686 0.629539
vt 0.161686 0.537563
vt 0.150814 0.503780
vt 0.150814 0.509340
vt 0.150814 0.663322
vt 0.150814 0.660789
vt 0.150814 0.503780
vt 0.150814 0.506313
vt 0.150814 0.632072
vt 0.150814 0.535030
vt 0.150814 0.537563
vt 0.150814 0.629539
vt 0.150178 0.539657
vt 0.162322 0.539657
vt 0.166067 0.535030
vt 0.146434 0.535030
vt 0.162322 0.658694
vt 0.150178 0.658694
vt 0.146434 0.663322
vt 0.166067 0.663322
vn -0.9285 -0.3714 0.0000
vn -0.9655 -0.1818 0.1864
vn -0.9652 -0.1955 0.1738
vn -0.9655 0.1818 0.1864
vn -0.9285 0.3714 0.0000
vn -0.9652 0.1955 0.1738
vn -1.0000 0.0000 0.0000
vn 1.0000 0.0000 0.0000
vn 0.0000 0.3714 0.9285
vn -0.1302 0.2808 -0.9509
vn 0.1302 0.2808 -0.9509
vn 0.1302 -0.2808 -0.9509
vn -0.1302 -0.2808 -0.9509
vn 0.0000 0.0000 1.0000
vn 0.0000 -1.0000 0.0000
vn 0.0000 1.0000 0.0000
vn 0.0000 -0.3714 0.9285
vn 0.9285 0.3714 0.0000
vn 0.9655 0.1818 0.1864
vn 0.9652 0.1955 0.1738
vn 0.9655 -0.1818 0.1864
vn 0.9285 -0.3714 0.0000
vn 0.9652 -0.1955 0.1738
vn -0.2641 -0.2227 -0.9385
vn -0.2641 0.2227 -0.9385
vn 0.2641 0.2226 -0.9385
vn 0.2641 -0.2226 -0.9385
usemtl texture
s 1
f 3/1/1 7/2/2 20/3/3 22/4/1
s 2
f 8/5/4 4/6/5 24/7/5 17/8/6
s 3
f 10/9/7 9/10/7 25/11/7 26/12/7
s 4
f 28/13/8 27/14/8 12/15/8 11/16/8
s 5
f 4/6/9 2/17/9 23/18/9 24/7/9
s 6
f 15/19/10 16/20/11 14/21/12 13/22/13
s 7
f 5/23/14 6/24/14 9/10/14 10/9/14
s 8
f 8/25/14 7/26/14 11/16/14 12/15/14
s 9
f 1/27/15 5/28/15 10/29/15 26/30/15
s 10
f 7/31/15 3/32/15 28/33/15 11/34/15
s 11
f 6/35/16 2/36/16 25/37/16 9/38/16
s 12
f 4/39/16 8/40/16 12/41/16 27/42/16
s 13
f 3/32/15 1/27/15 26/30/15 28/33/15
s 14
f 2/36/16 4/39/16 27/42/16 25/37/16
s 15
f 18/43/14 19/44/14 20/45/14 17/46/14
s 16
f 24/47/16 23/48/16 18/49/16 17/50/16
s 17
f 21/51/15 22/52/15 20/53/15 19/54/15
s 18
f 7/55/2 8/56/4 17/57/6 20/58/3
s 19
f 1/59/17 3/1/17 22/4/17 21/60/17
s 20
f 2/17/18 6/61/19 18/62/20 23/18/18
s 21
f 5/63/21 1/59/22 21/60/22 19/64/23
s 22
f 6/65/19 5/66/21 19/67/23 18/68/20
s 23
f 15/19/10 13/22/13 26/12/24 25/11/25
s 24
f 14/21/12 16/20/11 27/14/26 28/13/27
s 25
f 13/69/13 14/70/12 28/71/27 26/72/24
s 26
f 16/73/11 15/74/10 25/75/25 27/76/26
