# Blender v2.80 (sub 75) OBJ File: 'Dungeon_Remastered_Export1.0.blend'
# www.blender.org
mtllib book_grey.mtl
o book_grey_Cube.003
v 0.060000 -0.250000 -0.115147
v 0.060000 0.250000 -0.115147
v -0.060000 -0.250000 -0.115147
v -0.060000 0.250000 -0.115147
v 0.060000 -0.250000 0.187543
v 0.060000 0.250000 0.187543
v -0.060000 -0.250000 0.187543
v -0.060000 0.250000 0.187543
v 0.099999 0.250000 0.187543
v 0.099999 -0.250000 0.187543
v -0.100001 -0.250000 0.187543
v -0.100001 0.250000 0.187543
v 0.050000 -0.225000 -0.167457
v -0.050000 -0.225000 -0.167457
v 0.050000 0.225000 -0.167457
v -0.050000 0.225000 -0.167457
v -0.050000 0.225000 0.160122
v 0.050000 0.225000 0.160122
v 0.050000 -0.225000 0.160122
v -0.050000 -0.225000 0.160122
v 0.050000 -0.225000 -0.105147
v -0.050000 -0.225000 -0.105147
v 0.050000 0.225000 -0.105147
v -0.050000 0.225000 -0.105147
v 0.099999 0.250000 -0.147457
v 0.099999 -0.250000 -0.147457
v -0.100001 0.250000 -0.147457
v -0.100001 -0.250000 -0.147457
vt 0.707530 0.819946
vt 0.707530 0.825506
vt 0.707530 0.822480
vt 0.707530 0.819946
vt 0.707530 0.979488
vt 0.707530 0.976955
vt 0.707530 0.973928
vt 0.707530 0.979488
vt 0.692277 0.866821
vt 0.692277 0.866821
vt 0.692277 0.963863
vt 0.692277 0.963863
vt 0.711910 0.866821
vt 0.711910 0.866821
vt 0.711910 0.963863
vt 0.711910 0.963863
vt 0.696657 0.973928
vt 0.696657 0.979488
vt 0.696021 0.959236
vt 0.696021 0.871449
vt 0.708165 0.871449
vt 0.708165 0.959236
vt 0.696657 0.866821
vt 0.696657 0.963863
vt 0.707530 0.963863
vt 0.707530 0.866821
vt 0.696657 0.835571
vt 0.692277 0.835571
vt 0.692277 0.835571
vt 0.696657 0.835571
vt 0.707530 0.835571
vt 0.711910 0.835571
vt 0.711910 0.835571
vt 0.707530 0.835571
vt 0.696657 0.995113
vt 0.692277 0.995113
vt 0.692277 0.995113
vt 0.696657 0.995113
vt 0.707530 0.995113
vt 0.711910 0.995113
vt 0.711910 0.995113
vt 0.707530 0.995113
vt 0.051627 0.670988
vt 0.073373 0.670988
vt 0.073373 0.579012
vt 0.051627 0.579012
vt 0.073373 0.714836
vt 0.073373 0.717863
vt 0.051627 0.717863
vt 0.051627 0.714836
vt 0.051627 0.550789
vt 0.051627 0.547762
vt 0.073373 0.547762
vt 0.073373 0.550789
vt 0.707530 0.851196
vt 0.707530 0.853730
vt 0.707530 0.945705
vt 0.707530 0.948238
vt 0.696657 0.819946
vt 0.696657 0.825506
vt 0.696657 0.976955
vt 0.696657 0.979488
vt 0.696657 0.819946
vt 0.696657 0.822480
vt 0.696657 0.948238
vt 0.696657 0.945705
vt 0.696657 0.853730
vt 0.696657 0.851196
vt 0.696021 0.855824
vt 0.692277 0.851196
vt 0.711910 0.851196
vt 0.708165 0.855824
vt 0.708165 0.974861
vt 0.711910 0.979488
vt 0.692277 0.979488
vt 0.696021 0.974861
vn 0.9285 -0.3714 -0.0000
vn 0.9652 -0.1955 0.1738
vn 0.9655 -0.1818 0.1864
vn 0.9655 0.1818 0.1864
vn 0.9652 0.1955 0.1738
vn 0.9285 0.3714 -0.0000
vn 1.0000 0.0000 -0.0000
vn -1.0000 0.0000 0.0000
vn 0.0000 0.3714 0.9285
vn 0.1302 0.2808 -0.9509
vn 0.1302 -0.2808 -0.9509
vn -0.1302 -0.2808 -0.9509
vn -0.1302 0.2808 -0.9509
vn 0.0000 0.0000 1.0000
vn 0.0000 -1.0000 0.0000
vn 0.0000 1.0000 0.0000
vn 0.0000 -0.3714 0.9285
vn -0.9285 0.3714 0.0000
vn -0.9652 0.1955 0.1738
vn -0.9655 0.1818 0.1864
vn -0.9655 -0.1818 0.1864
vn -0.9652 -0.1955 0.1738
vn -0.9285 -0.3714 0.0000
vn 0.2641 0.2227 -0.9385
vn 0.2641 -0.2227 -0.9385
vn -0.2641 -0.2226 -0.9385
vn -0.2641 0.2226 -0.9385
usemtl texture
s 1
f 3/1/1 22/2/1 20/3/2 7/4/3
s 2
f 8/5/4 17/6/5 24/7/6 4/8/6
s 3
f 10/9/7 26/10/7 25/11/7 9/12/7
s 4
f 28/13/8 11/14/8 12/15/8 27/16/8
s 5
f 4/8/9 24/7/9 23/17/9 2/18/9
s 6
f 15/19/10 13/20/11 14/21/12 16/22/13
s 7
f 5/23/14 10/9/14 9/12/14 6/24/14
s 8
f 8/25/14 12/15/14 11/14/14 7/26/14
s 9
f 1/27/15 26/28/15 10/29/15 5/30/15
s 10
f 7/31/15 11/32/15 28/33/15 3/34/15
s 11
f 6/35/16 9/36/16 25/37/16 2/38/16
s 12
f 4/39/16 27/40/16 12/41/16 8/42/16
s 13
f 3/34/15 28/33/15 26/28/15 1/27/15
s 14
f 2/38/16 25/37/16 27/40/16 4/39/16
s 15
f 18/43/14 17/44/14 20/45/14 19/46/14
s 16
f 24/47/16 17/48/16 18/49/16 23/50/16
s 17
f 21/51/15 19/52/15 20/53/15 22/54/15
s 18
f 7/55/3 20/56/2 17/57/5 8/58/4
s 19
f 1/59/17 21/60/17 22/2/17 3/1/17
s 20
f 2/18/18 23/17/18 18/61/19 6/62/20
s 21
f 5/63/21 19/64/22 21/60/23 1/59/23
s 22
f 6/65/20 18/66/19 19/67/22 5/68/21
s 23
f 15/19/10 25/11/24 26/10/25 13/20/11
s 24
f 14/21/12 28/13/26 27/16/27 16/22/13
s 25
f 13/69/11 26/70/25 28/71/26 14/72/12
s 26
f 16/73/13 27/74/27 25/75/24 15/76/10
