# Blender v2.80 (sub 75) OBJ File: 'Dungeon_Remastered_Export1.0.blend'
# www.blender.org
mtllib chest_large_gold.mtl
o chest_large_gold_Cube.049
v -1.050000 -0.000000 0.700000
v -1.050000 0.600000 0.700000
v -1.050000 -0.000000 -0.700000
v -1.050000 0.600000 -0.700000
v 1.050000 -0.000000 0.700000
v 1.050000 0.600000 0.700000
v 1.050000 -0.000000 -0.700000
v 1.050000 0.600000 -0.700000
v 1.000000 0.600000 -0.600000
v 1.000000 -0.000000 -0.600000
v -1.050000 0.600000 0.600000
v -1.050000 0.600000 -0.600000
v -1.050000 -0.000000 0.600000
v 1.000000 -0.000000 0.600000
v -1.000000 0.600000 -0.600000
v -1.050000 -0.000000 -0.600000
v -1.000000 0.600000 0.600000
v -1.000000 -0.000000 0.600000
v 1.050000 0.600000 0.600000
v 1.050000 -0.000000 -0.600000
v 1.050000 -0.000000 0.600000
v 1.050000 0.600000 -0.600000
v -1.000000 -0.000000 -0.600000
v 1.000000 0.600000 0.600000
v 0.500000 -0.000000 -0.700000
v -0.500000 -0.000000 -0.700000
v -0.500000 0.600000 -0.700000
v 0.500000 0.600000 -0.700000
v -0.500000 -0.000000 0.700000
v 0.500000 -0.000000 0.700000
v 0.500000 0.600000 0.700000
v -0.500000 0.600000 0.700000
v -0.900000 0.600000 0.600000
v 0.900000 0.600000 0.600000
v -0.900000 0.600000 -0.600000
v 0.900000 0.600000 -0.600000
v 0.900000 0.600000 -0.700000
v 0.900000 -0.000000 0.700000
v 0.900000 -0.000000 -0.700000
v 0.900000 0.600000 0.700000
v -0.900000 -0.000000 -0.700000
v -0.900000 0.600000 0.700000
v -0.900000 0.600000 -0.700000
v -0.900000 -0.000000 0.700000
v -0.855000 0.025000 0.800000
v -0.900000 -0.000000 0.775000
v -0.500000 -0.000000 0.775000
v -0.545000 0.025000 0.800000
v 0.855000 0.500000 0.800000
v 0.900000 0.525000 0.775000
v 0.500000 0.525000 0.775000
v 0.545000 0.500000 0.800000
v 0.500000 -0.000000 0.775000
v 0.545000 0.025000 0.800000
v -0.545000 0.500000 0.800000
v -0.500000 0.525000 0.775000
v 0.900000 -0.000000 0.775000
v 0.855000 0.025000 0.800000
v -0.900000 0.525000 0.775000
v -0.855000 0.500000 0.800000
v 0.855000 0.025000 -0.800000
v 0.900000 -0.000000 -0.775000
v 0.500000 -0.000000 -0.775000
v 0.545000 0.025000 -0.800000
v -0.855000 0.500000 -0.800000
v -0.900000 0.525000 -0.775000
v -0.500000 0.525000 -0.775000
v -0.545000 0.500000 -0.800000
v -0.500000 -0.000000 -0.775000
v -0.545000 0.025000 -0.800000
v 0.545000 0.500000 -0.800000
v 0.500000 0.525000 -0.775000
v 0.900000 0.525000 -0.775000
v 0.855000 0.500000 -0.800000
v -0.900000 -0.000000 -0.775000
v -0.855000 0.025000 -0.800000
v -1.050000 0.284998 0.700000
v -1.050000 0.284998 -0.700000
v 1.050000 0.284998 -0.700000
v 1.050000 0.284998 0.700000
v 1.050000 0.284998 0.600000
v 1.050000 0.284998 -0.600000
v 1.000000 0.284998 -0.600000
v 1.000000 0.284998 0.600000
v -1.000000 0.284998 0.600000
v -1.050000 0.284998 -0.600000
v -1.050000 0.284998 0.600000
v -1.000000 0.284998 -0.600000
v -0.500000 0.284998 -0.700000
v 0.500000 0.284998 -0.700000
v 0.500000 0.284998 0.700000
v -0.500000 0.284998 0.700000
v 0.900000 0.284998 0.700000
v 0.900000 0.284998 -0.700000
v -0.900000 0.284998 -0.700000
v -0.900000 0.284998 0.700000
v -0.900000 0.100000 0.600000
v -0.900000 0.100000 -0.600000
v 0.900000 0.100000 0.600000
v 0.900000 0.100000 -0.600000
v 0.150000 0.500000 0.700000
v -0.150000 0.500000 0.700000
v 0.150000 0.500000 0.800000
v -0.150000 0.500000 0.800000
v 0.150000 0.413160 0.700000
v 0.071838 0.334998 0.700000
v 0.127107 0.357891 0.700000
v -0.071838 0.334998 0.700000
v -0.150000 0.413160 0.700000
v -0.127107 0.357891 0.700000
v 0.071838 0.334998 0.800000
v 0.150000 0.413160 0.800000
v 0.127107 0.357891 0.800000
v -0.150000 0.413160 0.800000
v -0.071838 0.334998 0.800000
v -0.127107 0.357891 0.800000
v 0.661832 0.081833 0.825980
v 0.661832 0.158169 0.825980
v 0.738168 0.081833 0.825980
v 0.738168 0.158169 0.825980
v 0.653468 0.073469 0.800000
v 0.653468 0.120001 0.834344
v 0.653468 0.166533 0.800000
v 0.746532 0.073469 0.800000
v 0.746532 0.166533 0.800000
v 0.746532 0.120001 0.834344
v 0.700000 0.073469 0.834344
v 0.700000 0.166533 0.834344
v 0.635916 0.120001 0.800000
v 0.764084 0.120001 0.800000
v 0.700000 0.120001 0.845803
v 0.700000 0.055917 0.800000
v 0.700000 0.184086 0.800000
v -0.738168 0.081833 0.825980
v -0.738168 0.158169 0.825980
v -0.661832 0.081833 0.825980
v -0.661832 0.158169 0.825980
v -0.746532 0.073469 0.800000
v -0.746532 0.120001 0.834344
v -0.746532 0.166533 0.800000
v -0.653468 0.073469 0.800000
v -0.653468 0.166533 0.800000
v -0.653468 0.120001 0.834344
v -0.700000 0.073469 0.834344
v -0.700000 0.166533 0.834344
v -0.764084 0.120001 0.800000
v -0.635916 0.120001 0.800000
v -0.700000 0.120001 0.845803
v -0.700000 0.055917 0.800000
v -0.700000 0.184086 0.800000
vt 0.943698 0.457207
vt 0.943698 0.457207
vt 0.941032 0.457207
vt 0.941032 0.457207
vt 0.943698 0.457207
vt 0.941032 0.457207
vt 0.939699 0.457207
vt 0.943698 0.353887
vt 0.943698 0.435973
vt 0.941032 0.435973
vt 0.941032 0.353887
vt 0.941032 0.353887
vt 0.941032 0.276287
vt 0.939699 0.276287
vt 0.939699 0.353887
vt 0.973020 0.353887
vt 0.973020 0.435973
vt 0.975686 0.435973
vt 0.975686 0.353887
vt 0.973020 0.457207
vt 0.973020 0.457207
vt 0.975686 0.457207
vt 0.941032 0.311420
vt 0.941032 0.351039
vt 0.939699 0.351039
vt 0.939699 0.311420
vt 0.943698 0.276287
vt 0.939699 0.276287
vt 0.975686 0.417588
vt 0.975686 0.417588
vt 0.975686 0.297520
vt 0.975686 0.297520
vt 0.975686 0.276287
vt 0.977019 0.276287
vt 0.975686 0.276287
vt 0.973020 0.276287
vt 0.975686 0.457207
vt 0.973020 0.457207
vt 0.977019 0.457207
vt 0.977019 0.457207
vt 0.975686 0.311420
vt 0.975686 0.351039
vt 0.977019 0.351039
vt 0.977019 0.311420
vt 0.973020 0.457207
vt 0.939699 0.332653
vt 0.939699 0.372272
vt 0.939699 0.372272
vt 0.939699 0.332653
vt 0.975686 0.457207
vt 0.977019 0.457207
vt 0.939699 0.332653
vt 0.939699 0.372272
vt 0.939699 0.372272
vt 0.939699 0.332653
vt 0.943698 0.457207
vt 0.975686 0.353887
vt 0.975686 0.276287
vt 0.977019 0.276287
vt 0.977019 0.353887
vt 0.977019 0.276287
vt 0.973020 0.276287
vt 0.939699 0.457207
vt 0.939699 0.457207
vt 0.977019 0.332653
vt 0.977019 0.372272
vt 0.977019 0.372272
vt 0.977019 0.332653
vt 0.941032 0.332653
vt 0.941032 0.414739
vt 0.941032 0.414739
vt 0.941032 0.332653
vt 0.977019 0.332653
vt 0.977019 0.372272
vt 0.977019 0.372272
vt 0.977019 0.332653
vt 0.941032 0.276287
vt 0.943698 0.276287
vt 0.941032 0.276287
vt 0.939699 0.276287
vt 0.965023 0.457207
vt 0.965023 0.457207
vt 0.951695 0.457207
vt 0.951695 0.457207
vt 0.965023 0.457207
vt 0.951695 0.457207
vt 0.951695 0.457207
vt 0.965023 0.457207
vt 0.903216 0.282101
vt 0.882312 0.282101
vt 0.882312 0.282101
vt 0.903216 0.282101
vt 0.951695 0.353887
vt 0.951695 0.435973
vt 0.965023 0.435973
vt 0.965023 0.353887
vt 0.906049 0.329003
vt 0.906049 0.297726
vt 0.906049 0.297726
vt 0.965023 0.353887
vt 0.965023 0.435973
vt 0.951695 0.435973
vt 0.951695 0.353887
vt 0.951695 0.276287
vt 0.965023 0.276287
vt 0.965023 0.276287
vt 0.951695 0.276287
vt 0.975686 0.353887
vt 0.975686 0.435973
vt 0.973020 0.435973
vt 0.973020 0.353887
vt 0.906049 0.410809
vt 0.926953 0.410809
vt 0.923818 0.404156
vt 0.909185 0.404156
vt 0.973020 0.269995
vt 0.965023 0.269995
vt 0.965023 0.269995
vt 0.973020 0.269995
vt 0.941032 0.353887
vt 0.941032 0.435973
vt 0.943698 0.435973
vt 0.943698 0.353887
vt 0.951695 0.269995
vt 0.943698 0.269995
vt 0.943698 0.269995
vt 0.951695 0.269995
vt 0.903216 0.329003
vt 0.903216 0.399514
vt 0.903216 0.379559
vt 0.926953 0.329003
vt 0.926953 0.399514
vt 0.926953 0.379559
vt 0.882312 0.329003
vt 0.882312 0.297726
vt 0.882312 0.297726
vt 0.906049 0.282101
vt 0.926953 0.282101
vt 0.926953 0.282101
vt 0.906049 0.282101
vt 0.882312 0.379559
vt 0.903216 0.410809
vt 0.882312 0.410809
vt 0.885447 0.404156
vt 0.900080 0.404156
vt 0.926953 0.410809
vt 0.906049 0.410809
vt 0.909185 0.404156
vt 0.923818 0.404156
vt 0.900080 0.320002
vt 0.900080 0.388531
vt 0.885447 0.388531
vt 0.885447 0.320002
vt 0.926953 0.282101
vt 0.906049 0.282101
vt 0.906049 0.282101
vt 0.926953 0.282101
vt 0.882312 0.329003
vt 0.882312 0.399514
vt 0.882312 0.379559
vt 0.926953 0.329003
vt 0.926953 0.297726
vt 0.926953 0.297726
vt 0.903216 0.329003
vt 0.903216 0.297726
vt 0.903216 0.297726
vt 0.906049 0.329003
vt 0.906049 0.399514
vt 0.906049 0.379559
vt 0.906049 0.297726
vt 0.885447 0.320002
vt 0.885447 0.388531
vt 0.900080 0.388531
vt 0.900080 0.320002
vt 0.882312 0.410809
vt 0.903216 0.410809
vt 0.900080 0.404156
vt 0.885447 0.404156
vt 0.882312 0.282101
vt 0.903216 0.282101
vt 0.900080 0.288752
vt 0.885447 0.288752
vt 0.909185 0.320002
vt 0.909185 0.388531
vt 0.923818 0.388531
vt 0.923818 0.320002
vt 0.906049 0.379559
vt 0.909185 0.304377
vt 0.909185 0.372906
vt 0.923818 0.288752
vt 0.909185 0.288752
vt 0.900080 0.372906
vt 0.900080 0.304377
vt 0.903216 0.297726
vt 0.923818 0.372906
vt 0.923818 0.304377
vt 0.926953 0.297726
vt 0.909185 0.288752
vt 0.923818 0.288752
vt 0.885447 0.304377
vt 0.885447 0.372906
vt 0.903216 0.379559
vt 0.900080 0.304377
vt 0.900080 0.372906
vt 0.909185 0.372906
vt 0.909185 0.304377
vt 0.885447 0.288752
vt 0.900080 0.288752
vt 0.926953 0.379559
vt 0.923818 0.304377
vt 0.923818 0.372906
vt 0.882312 0.282101
vt 0.903216 0.282101
vt 0.882312 0.297726
vt 0.923818 0.320002
vt 0.923818 0.388531
vt 0.909185 0.388531
vt 0.909185 0.320002
vt 0.941032 0.318754
vt 0.941032 0.396354
vt 0.943698 0.396354
vt 0.943698 0.318754
vt 0.975686 0.318754
vt 0.975686 0.396354
vt 0.973020 0.396354
vt 0.973020 0.318754
vt 0.965023 0.318754
vt 0.965023 0.396354
vt 0.951695 0.396354
vt 0.951695 0.318754
vt 0.951695 0.318754
vt 0.951695 0.396354
vt 0.965023 0.396354
vt 0.965023 0.318754
vt 0.977019 0.297520
vt 0.977019 0.375121
vt 0.977019 0.375121
vt 0.977019 0.297520
vt 0.941032 0.297520
vt 0.941032 0.417588
vt 0.941032 0.417588
vt 0.941032 0.297520
vt 0.977019 0.297520
vt 0.977019 0.375121
vt 0.977019 0.375121
vt 0.977019 0.297520
vt 0.975686 0.351039
vt 0.975686 0.311420
vt 0.977019 0.311420
vt 0.977019 0.351039
vt 0.939699 0.297520
vt 0.939699 0.375121
vt 0.939699 0.375121
vt 0.939699 0.297520
vt 0.939699 0.297520
vt 0.939699 0.375121
vt 0.939699 0.375121
vt 0.939699 0.297520
vt 0.975686 0.353887
vt 0.977019 0.353887
vt 0.975686 0.414739
vt 0.975686 0.414739
vt 0.975686 0.332653
vt 0.975686 0.332653
vt 0.941032 0.353887
vt 0.939699 0.353887
vt 0.973020 0.318754
vt 0.973020 0.396354
vt 0.975686 0.396354
vt 0.975686 0.318754
vt 0.941032 0.351039
vt 0.941032 0.311420
vt 0.939699 0.311420
vt 0.939699 0.351039
vt 0.943698 0.318754
vt 0.943698 0.396354
vt 0.941032 0.396354
vt 0.941032 0.318754
vt 0.926953 0.430764
vt 0.906049 0.430764
vt 0.903216 0.430764
vt 0.882312 0.430764
vt 0.882312 0.430764
vt 0.903216 0.430764
vt 0.906049 0.430764
vt 0.926953 0.430764
vt 0.926953 0.399514
vt 0.882312 0.297726
vt 0.903216 0.297726
vt 0.906049 0.399514
vt 0.882312 0.399514
vt 0.926953 0.297726
vt 0.906049 0.297726
vt 0.903216 0.399514
vt 0.885447 0.372906
vt 0.885447 0.304377
vt 0.943698 0.372272
vt 0.943698 0.372272
vt 0.943698 0.312471
vt 0.943698 0.312471
vt 0.973020 0.372272
vt 0.973020 0.372272
vt 0.973020 0.312471
vt 0.973020 0.312471
vt 0.965023 0.393506
vt 0.951695 0.393506
vt 0.943698 0.333704
vt 0.973020 0.333704
vt 0.965023 0.393506
vt 0.973020 0.333704
vt 0.943698 0.333704
vt 0.951695 0.393506
vt 0.943698 0.354938
vt 0.973020 0.354938
vt 0.973020 0.354938
vt 0.943698 0.354938
vt 0.951695 0.371368
vt 0.965023 0.371368
vt 0.965023 0.396302
vt 0.951695 0.396302
vt 0.965023 0.408777
vt 0.951695 0.408777
vt 0.951695 0.408777
vt 0.965023 0.408777
vt 0.951695 0.383827
vt 0.951695 0.358893
vt 0.951695 0.358893
vt 0.951695 0.383827
vt 0.955167 0.325824
vt 0.961551 0.325824
vt 0.961551 0.325824
vt 0.955167 0.325824
vt 0.952034 0.328055
vt 0.951695 0.325824
vt 0.951695 0.338299
vt 0.952034 0.340530
vt 0.965023 0.358893
vt 0.965023 0.358893
vt 0.964684 0.340530
vt 0.965023 0.338299
vt 0.965023 0.325824
vt 0.964684 0.328055
vt 0.965023 0.383827
vt 0.965023 0.383827
vt 0.952034 0.353005
vt 0.964684 0.353005
vt 0.955167 0.350775
vt 0.961551 0.350775
vt 0.923325 0.295443
vt 0.920219 0.317256
vt 0.913700 0.317256
vt 0.920219 0.290663
vt 0.923325 0.387155
vt 0.920219 0.343847
vt 0.961299 0.317256
vt 0.954781 0.343847
vt 0.951675 0.387154
vt 0.954781 0.317256
vt 0.954781 0.290663
vt 0.951675 0.295443
vt 0.954781 0.341299
vt 0.937500 0.341299
vt 0.937500 0.314707
vt 0.937500 0.392341
vt 0.920219 0.341299
vt 0.937500 0.256589
vt 0.954781 0.266620
vt 0.937500 0.266620
vt 0.920219 0.266620
vt 0.937500 0.401965
vt 0.920219 0.391934
vt 0.937500 0.415571
vt 0.954781 0.391934
vt 0.923325 0.295443
vt 0.920219 0.317256
vt 0.913700 0.317256
vt 0.920219 0.290663
vt 0.923325 0.387155
vt 0.920219 0.343847
vt 0.961299 0.317256
vt 0.954781 0.343847
vt 0.951675 0.387154
vt 0.954781 0.317256
vt 0.954781 0.290663
vt 0.951675 0.295443
vt 0.954781 0.341299
vt 0.937500 0.341299
vt 0.937500 0.314707
vt 0.937500 0.392341
vt 0.920219 0.341299
vt 0.937500 0.256589
vt 0.954781 0.266620
vt 0.937500 0.266620
vt 0.920219 0.266620
vt 0.937500 0.401965
vt 0.920219 0.391934
vt 0.937500 0.415571
vt 0.954781 0.391934
vn 0.0000 1.0000 0.0000
vn 0.0000 0.0000 1.0000
vn 0.0000 0.0000 -1.0000
vn 0.0000 -1.0000 0.0000
vn 1.0000 0.0000 0.0000
vn -1.0000 0.0000 0.0000
vn 0.0000 0.7071 -0.7071
vn 0.0000 0.7071 0.7071
vn 0.0000 -0.7071 0.7071
vn -0.4856 -0.0000 0.8742
vn 0.4856 0.0000 0.8742
vn 0.0000 -0.7071 -0.7071
vn 0.4856 -0.0000 -0.8742
vn -0.4856 0.0000 -0.8742
vn -0.9808 -0.1951 0.0000
vn -0.1951 -0.9808 0.0000
vn 0.1951 -0.9808 0.0000
vn -0.7071 -0.7071 0.0000
vn 0.9808 -0.1951 0.0000
vn 0.7071 -0.7071 0.0000
vn -0.5319 -0.5319 0.6590
vn -0.6405 0.0000 0.7679
vn -0.9020 0.0000 0.4317
vn -0.6324 -0.6324 0.4473
vn -0.5319 0.5319 0.6590
vn -0.6324 0.6324 0.4473
vn 0.9020 0.0000 0.4317
vn 0.6324 0.6324 0.4473
vn 0.5319 0.5319 0.6590
vn 0.6405 0.0000 0.7679
vn 0.6324 -0.6324 0.4473
vn 0.5319 -0.5319 0.6590
vn 0.0000 -0.6405 0.7679
vn 0.0000 0.6405 0.7679
vn 0.0000 -0.9020 0.4317
vn 0.0000 0.9020 0.4317
usemtl texture
s off
f 35/1/1 43/2/1 15/3/1
f 2/4/1 42/5/1 17/6/1 11/7/1
f 96/8/2 42/9/2 2/10/2 77/11/2
f 85/12/3 18/13/3 13/14/3 87/15/3
f 94/16/3 37/17/3 8/18/3 79/19/3
f 37/20/1 36/21/1 9/22/1
f 88/23/2 15/24/2 12/25/2 86/26/2
f 18/13/4 44/27/4 1/28/4 13/14/4
f 83/29/5 84/30/5 14/31/5 10/32/5
f 14/33/4 21/34/4 5/35/4 38/36/4
f 24/37/1 40/38/1 6/39/1 19/40/1
f 84/41/3 24/42/3 19/43/3 81/44/3
f 34/45/1 40/38/1 24/37/1
f 86/46/6 12/47/6 4/48/6 78/49/6
f 8/50/1 37/20/1 9/22/1 22/51/1
f 77/52/6 2/53/6 11/54/6 87/55/6
f 33/56/1 35/1/1 15/3/1 17/6/1
f 83/57/2 10/58/2 20/59/2 82/60/2
f 7/61/4 20/59/4 10/58/4 39/62/4
f 43/2/1 4/63/1 12/64/1 15/3/1
f 81/65/5 19/66/5 6/67/5 80/68/5
f 85/69/6 17/70/6 15/71/6 88/72/6
f 79/73/5 8/74/5 22/75/5 82/76/5
f 3/77/4 41/78/4 23/79/4 16/80/4
f 34/81/1 31/82/1 40/38/1
f 34/81/1 33/83/1 32/84/1 31/82/1
f 37/20/1 28/85/1 36/21/1
f 28/85/1 27/86/1 35/87/1 36/88/1
f 26/89/4 41/90/4 75/91/4 69/92/4
f 89/93/3 27/94/3 28/95/3 90/96/3
f 91/97/6 30/98/6 53/99/6
f 91/100/2 31/101/2 32/102/2 92/103/2
f 26/104/4 25/105/4 30/106/4 29/107/4
f 14/33/4 38/36/4 39/62/4 10/58/4
f 80/108/2 6/109/2 40/110/2 93/111/2
f 42/5/1 33/56/1 17/6/1
f 72/112/7 73/113/7 74/114/7 71/115/7
f 38/116/4 30/117/4 25/118/4 39/119/4
f 44/27/4 18/13/4 23/79/4 41/78/4
f 78/120/3 4/121/3 43/122/3 95/123/3
f 36/21/1 34/45/1 24/37/1 9/22/1
f 29/124/4 44/125/4 41/126/4 26/127/4
f 33/56/1 42/5/1 32/84/1
f 27/86/1 43/2/1 35/87/1
f 92/128/5 32/129/5 56/130/5
f 93/131/5 40/132/5 50/133/5
f 96/134/6 44/135/6 46/136/6
f 30/137/4 38/138/4 57/139/4 53/140/4
f 46/136/6 59/141/6 96/134/6
f 56/142/8 59/143/8 60/144/8 55/145/8
f 50/146/8 51/147/8 52/148/8 49/149/8
f 48/150/2 55/151/2 60/152/2 45/153/2
f 39/154/4 25/155/4 63/156/4 62/157/4
f 95/158/6 43/159/6 66/160/6
f 94/161/5 39/162/5 62/163/5
f 89/164/5 26/165/5 69/166/5
f 90/167/6 28/168/6 72/169/6
f 72/169/6 63/170/6 90/167/6
f 76/171/3 65/172/3 68/173/3 70/174/3
f 66/175/7 67/176/7 68/177/7 65/178/7
f 46/179/9 47/180/9 48/181/9 45/182/9
f 64/183/3 71/184/3 74/185/3 61/186/3
f 51/187/10 53/99/10 54/188/10 52/189/10
f 53/140/9 57/139/9 58/190/9 54/191/9
f 55/192/11 48/193/11 47/194/11 56/130/11
f 49/195/11 58/196/11 57/197/11 50/133/11
f 62/157/12 63/156/12 64/198/12 61/199/12
f 59/141/10 46/136/10 45/200/10 60/201/10
f 67/202/13 69/166/13 70/203/13 68/204/13
f 71/205/14 64/206/14 63/170/14 72/169/14
f 69/92/12 75/91/12 76/207/12 70/208/12
f 73/209/13 62/163/13 61/210/13 74/211/13
f 44/212/4 29/213/4 47/180/4 46/179/4
f 95/158/6 66/160/6 75/214/6
f 58/215/2 49/216/2 52/217/2 54/218/2
f 3/219/3 78/220/3 95/221/3 41/222/3
f 5/223/2 80/224/2 93/225/2 38/226/2
f 30/227/2 91/228/2 92/229/2 29/230/2
f 26/231/3 89/232/3 90/233/3 25/234/3
f 7/235/5 79/236/5 82/237/5 20/238/5
f 18/239/6 85/240/6 88/241/6 23/242/6
f 21/243/5 81/244/5 80/245/5 5/246/5
f 9/247/2 83/248/2 82/249/2 22/250/2
f 1/251/6 77/252/6 87/253/6 13/254/6
f 16/255/6 86/256/6 78/257/6 3/258/6
f 14/33/3 84/259/3 81/260/3 21/34/3
f 9/261/5 24/262/5 84/263/5 83/264/5
f 23/79/2 88/265/2 86/266/2 16/80/2
f 39/267/3 94/268/3 79/269/3 7/270/3
f 17/271/3 85/272/3 87/273/3 11/274/3
f 44/275/2 96/276/2 77/277/2 1/278/2
f 40/279/8 31/280/8 51/147/8 50/146/8
f 32/281/8 42/282/8 59/143/8 56/142/8
f 43/283/7 27/284/7 67/176/7 66/175/7
f 28/285/7 37/286/7 73/113/7 72/112/7
f 37/287/5 94/161/5 73/209/5
f 41/288/6 95/158/6 75/214/6
f 53/99/6 51/187/6 91/97/6
f 29/289/5 92/128/5 47/194/5
f 31/290/6 91/97/6 51/187/6
f 42/291/6 96/134/6 59/141/6
f 50/133/5 57/197/5 93/131/5
f 56/130/5 47/194/5 92/128/5
f 38/292/5 93/131/5 57/197/5
f 69/166/5 67/202/5 89/164/5
f 25/293/6 90/167/6 63/170/6
f 27/294/5 89/164/5 67/202/5
f 94/161/5 62/163/5 73/209/5
f 65/295/14 76/296/14 75/214/14 66/160/14
f 35/297/5 33/298/5 97/299/5 98/300/5
f 34/301/6 36/302/6 100/303/6 99/304/6
f 36/305/2 35/306/2 98/307/2 100/308/2
f 34/309/3 99/310/3 97/311/3 33/312/3
f 97/313/1 99/314/1 100/315/1 98/316/1
s 115
f 114/317/2 112/318/2 103/319/2 104/320/2
s 116
f 101/321/1 102/322/1 104/323/1 103/324/1
s 117
f 102/325/6 109/326/15 114/327/15 104/328/6
s 118
f 108/329/16 106/330/17 111/331/17 115/332/16
s 119
f 108/329/16 115/332/16 116/333/18 110/334/18
s 120
f 110/335/18 116/336/18 114/327/15 109/326/15
s 121
f 105/337/19 112/338/19 113/339/20 107/340/20
s 122
f 107/341/20 113/342/20 111/331/17 106/330/17
s 123
f 105/337/19 101/343/5 103/344/5 112/338/19
s 124
f 116/345/2 113/346/2 112/318/2 114/317/2
s 125
f 115/347/2 111/348/2 113/346/2 116/345/2
s 126
f 117/349/21 122/350/22 129/351/23 121/352/24
s 127
f 122/350/22 118/353/25 123/354/26 129/351/23
s 128
f 130/355/27 125/356/28 120/357/29 126/358/30
s 129
f 124/359/31 130/355/27 126/358/30 119/360/32
s 130
f 119/360/32 126/361/30 131/362/2 127/363/33
s 131
f 126/361/30 120/357/29 128/364/34 131/362/2
s 132
f 131/362/2 128/364/34 118/353/25 122/365/22
s 133
f 127/363/33 131/362/2 122/365/22 117/349/21
s 134
f 132/366/35 124/367/31 119/360/32 127/368/33
s 135
f 121/369/24 132/366/35 127/368/33 117/349/21
s 136
f 133/370/36 123/371/26 118/353/25 128/372/34
s 137
f 125/373/28 133/370/36 128/372/34 120/357/29
s 138
f 134/374/21 139/375/22 146/376/23 138/377/24
s 139
f 139/375/22 135/378/25 140/379/26 146/376/23
s 140
f 147/380/27 142/381/28 137/382/29 143/383/30
s 141
f 141/384/31 147/380/27 143/383/30 136/385/32
s 142
f 136/385/32 143/386/30 148/387/2 144/388/33
s 143
f 143/386/30 137/382/29 145/389/34 148/387/2
s 144
f 148/387/2 145/389/34 135/378/25 139/390/22
s 145
f 144/388/33 148/387/2 139/390/22 134/374/21
s 146
f 149/391/35 141/392/31 136/385/32 144/393/33
s 147
f 138/394/24 149/391/35 144/393/33 134/374/21
s 148
f 150/395/36 140/396/26 135/378/25 145/397/34
s 149
f 142/398/28 150/395/36 145/397/34 137/382/29
