# Blender v2.80 (sub 75) OBJ File: 'Dungeon_Remastered_Export1.0.blend'
# www.blender.org
mtllib crate_small.mtl
o crate_small_Cube.14522
v 0.726613 0.277829 0.499999
v 0.750000 0.300268 0.477142
v 0.726613 0.021932 0.500000
v 0.750000 -0.000001 0.477143
v 0.750000 -0.000001 0.357142
v -0.750000 0.300410 0.477142
v -0.726612 0.277829 0.500000
v -0.750000 -0.000001 0.357142
v -0.750000 -0.000001 0.477143
v -0.726612 0.021932 0.500000
v 0.726613 0.576688 0.499999
v 0.750000 0.599999 0.477142
v 0.750000 0.599999 0.357142
v 0.726613 0.323075 0.500000
v -0.750000 0.599999 0.477142
v -0.726612 0.576688 0.500000
v -0.750000 0.599999 0.357142
v -0.726612 0.323075 0.500000
v 0.712500 0.277829 -0.333120
v 0.693750 0.300752 -0.357142
v 0.712500 0.021932 -0.333120
v 0.693750 -0.000001 -0.357142
v 0.562500 -0.000001 -0.357142
v 0.693751 0.300407 0.357142
v 0.712500 0.277829 0.333120
v 0.562501 -0.000001 0.357142
v 0.693751 -0.000001 0.357142
v 0.712500 0.021932 0.333120
v 0.712500 0.576688 -0.333120
v 0.693750 0.599999 -0.357142
v 0.562500 0.599999 -0.357142
v 0.712500 0.323075 -0.333120
v 0.693750 0.599999 0.357142
v 0.712500 0.576688 0.333120
v 0.562500 0.599999 0.357142
v 0.712500 0.323075 0.333120
v -0.712500 0.277829 0.333120
v -0.693750 0.300752 0.357142
v -0.712500 0.021932 0.333120
v -0.693750 -0.000001 0.357142
v -0.562500 -0.000001 0.357142
v -0.693751 0.300407 -0.357141
v -0.712500 0.277829 -0.333119
v -0.562501 -0.000001 -0.357141
v -0.693751 -0.000001 -0.357141
v -0.712501 0.021932 -0.333119
v -0.712500 0.576688 0.333120
v -0.693750 0.599999 0.357142
v -0.562500 0.599999 0.357142
v -0.712500 0.323075 0.333120
v -0.693751 0.599999 -0.357141
v -0.712500 0.576688 -0.333119
v -0.562501 0.599999 -0.357141
v -0.712501 0.323075 -0.333119
v 0.562500 -0.000001 -0.357142
v 0.562501 -0.000001 0.357142
v -0.562500 -0.000001 0.357142
v -0.562501 -0.000001 -0.357141
v 0.562501 0.074999 0.357142
v 0.562500 0.074999 -0.357142
v -0.562501 0.074999 -0.357141
v -0.562500 0.074999 0.357142
v 0.000000 -0.000001 0.357142
v 0.000000 0.323075 0.500000
v 0.157607 0.576688 0.500000
v -0.157606 0.576688 0.500000
v 0.000000 0.419082 0.500000
v -0.157606 0.599999 0.357142
v 0.157606 0.599999 0.357142
v 0.000000 0.442392 0.357142
v -0.157606 0.599999 0.477142
v 0.157606 0.599999 0.477142
v 0.000000 0.449999 0.477142
v 0.726612 0.323075 -0.500000
v 0.750000 0.599999 -0.357142
v 0.726612 0.576688 -0.500000
v 0.750000 0.599999 -0.477143
v -0.726613 0.323075 -0.499999
v -0.750000 0.599999 -0.357141
v -0.750000 0.599999 -0.477142
v -0.726613 0.576688 -0.499999
v 0.726612 0.021932 -0.500000
v 0.750000 -0.000001 -0.477143
v 0.750000 -0.000001 -0.357142
v 0.726612 0.277829 -0.500000
v 0.750000 0.300410 -0.477143
v -0.750000 -0.000001 -0.357141
v -0.750000 -0.000001 -0.477142
v -0.726613 0.021932 -0.499999
v -0.750000 0.300268 -0.477142
v -0.726613 0.277829 -0.499999
v -0.000000 -0.000001 -0.357142
v -0.000001 0.323075 -0.500000
v -0.157607 0.576688 -0.500000
v 0.157606 0.576688 -0.500000
v -0.000001 0.419082 -0.500000
v 0.157606 0.599999 -0.357142
v -0.157606 0.599999 -0.357142
v -0.000000 0.442392 -0.357142
v 0.157606 0.599999 -0.477142
v -0.157606 0.599999 -0.477142
v -0.000000 0.449999 -0.477142
vt 0.532728 0.863133
vt 0.532728 0.931615
vt 0.532728 0.794463
vt 0.595734 0.863101
vt 0.595734 0.794463
vt 0.595734 0.794463
vt 0.594751 0.783851
vt 0.595734 0.778838
vt 0.595734 0.847476
vt 0.594751 0.842347
vt 0.532728 0.754629
vt 0.595734 0.754629
vt 0.594751 0.758686
vt 0.533711 0.758686
vt 0.533711 0.904847
vt 0.594751 0.904847
vt 0.595734 0.909976
vt 0.532728 0.910008
vt 0.533711 0.857972
vt 0.533711 0.799476
vt 0.594751 0.799476
vt 0.594751 0.857972
vt 0.532728 0.794463
vt 0.533711 0.842347
vt 0.532728 0.847508
vt 0.532728 0.778838
vt 0.533711 0.783851
vt 0.595734 0.931615
vt 0.595734 0.931615
vt 0.595734 0.810165
vt 0.594751 0.814382
vt 0.564231 0.814382
vt 0.594751 0.852689
vt 0.595734 0.915990
vt 0.594751 0.910662
vt 0.594751 0.926287
vt 0.567701 0.926287
vt 0.564231 0.868314
vt 0.594751 0.868314
vt 0.533711 0.973162
vt 0.560761 0.973162
vt 0.560761 0.978490
vt 0.532728 0.978490
vt 0.532728 0.962865
vt 0.532728 0.962865
vt 0.560761 0.962865
vt 0.560761 0.962865
vt 0.532728 0.931615
vt 0.533711 0.910662
vt 0.532728 0.915990
vt 0.533711 0.852689
vt 0.593371 0.863132
vt 0.593371 0.931615
vt 0.587858 0.931615
vt 0.593371 0.863211
vt 0.593371 0.794463
vt 0.587858 0.794463
vt 0.593371 0.754629
vt 0.593371 0.754629
vt 0.594159 0.758686
vt 0.594159 0.758686
vt 0.594159 0.783851
vt 0.593371 0.778838
vt 0.593371 0.847586
vt 0.594159 0.842347
vt 0.594159 0.904847
vt 0.594159 0.904847
vt 0.593371 0.910086
vt 0.593371 0.910007
vt 0.594159 0.857972
vt 0.594159 0.799476
vt 0.594159 0.799476
vt 0.594159 0.857972
vt 0.587858 0.763213
vt 0.587858 0.763213
vt 0.593371 0.763213
vt 0.593371 0.763213
vt 0.594159 0.842347
vt 0.593371 0.847507
vt 0.593371 0.778838
vt 0.594159 0.783851
vt 0.587858 0.931615
vt 0.587858 0.915990
vt 0.587858 0.915990
vt 0.587858 0.778838
vt 0.587858 0.778838
vt 0.593371 0.931615
vt 0.593371 0.810190
vt 0.593371 0.810254
vt 0.594159 0.814382
vt 0.594159 0.814382
vt 0.594159 0.852689
vt 0.593371 0.915990
vt 0.594159 0.910662
vt 0.594159 0.973162
vt 0.594159 0.973162
vt 0.593371 0.978490
vt 0.593371 0.978490
vt 0.587858 0.962865
vt 0.593371 0.962865
vt 0.593371 0.962865
vt 0.587858 0.962865
vt 0.594159 0.926287
vt 0.594159 0.868314
vt 0.594159 0.868314
vt 0.594159 0.926287
vt 0.587858 0.794463
vt 0.594159 0.910662
vt 0.593371 0.915990
vt 0.594159 0.852689
vt 0.593371 0.794463
vt 0.535091 0.863132
vt 0.535091 0.931615
vt 0.540604 0.931615
vt 0.535091 0.863211
vt 0.535091 0.794463
vt 0.540604 0.794463
vt 0.535091 0.754629
vt 0.535091 0.754629
vt 0.534303 0.758686
vt 0.534303 0.758686
vt 0.534303 0.783851
vt 0.535091 0.778838
vt 0.535091 0.847586
vt 0.534303 0.842347
vt 0.534303 0.904847
vt 0.534303 0.904847
vt 0.535091 0.910086
vt 0.535091 0.910007
vt 0.534303 0.857972
vt 0.534303 0.799476
vt 0.534303 0.799476
vt 0.534303 0.857972
vt 0.540604 0.763213
vt 0.540604 0.763213
vt 0.535091 0.763213
vt 0.535091 0.763213
vt 0.534303 0.842347
vt 0.535091 0.847507
vt 0.535091 0.778838
vt 0.534303 0.783851
vt 0.540604 0.931615
vt 0.540604 0.915990
vt 0.540604 0.915990
vt 0.540604 0.778838
vt 0.540604 0.778838
vt 0.535091 0.931615
vt 0.535091 0.810190
vt 0.535091 0.810254
vt 0.534303 0.814382
vt 0.534303 0.814382
vt 0.534303 0.852689
vt 0.535091 0.915990
vt 0.534303 0.910662
vt 0.534303 0.973162
vt 0.534303 0.973162
vt 0.535091 0.978490
vt 0.535091 0.978490
vt 0.540604 0.962865
vt 0.535091 0.962865
vt 0.535091 0.962865
vt 0.540604 0.962865
vt 0.534303 0.926287
vt 0.534303 0.868314
vt 0.534303 0.868314
vt 0.534303 0.926287
vt 0.540604 0.794463
vt 0.534303 0.910662
vt 0.535091 0.915990
vt 0.534303 0.852689
vt 0.535091 0.794463
vt 0.587858 0.778838
vt 0.587858 0.778838
vt 0.540604 0.778838
vt 0.540604 0.778838
vt 0.587858 0.842856
vt 0.540604 0.842856
vt 0.540604 0.842856
vt 0.587858 0.842856
vt 0.567701 0.962865
vt 0.567701 0.962865
vt 0.595734 0.962865
vt 0.595734 0.962865
vt 0.567701 0.915990
vt 0.595734 0.915990
vt 0.595734 0.778838
vt 0.564231 0.778838
vt 0.560761 0.915990
vt 0.564231 0.897108
vt 0.567701 0.973162
vt 0.594751 0.973162
vt 0.595734 0.978490
vt 0.567701 0.978490
vt 0.560761 0.926287
vt 0.564231 0.907404
vt 0.533711 0.926287
vt 0.533711 0.868314
vt 0.532728 0.915990
vt 0.532728 0.778838
vt 0.567701 0.931615
vt 0.567701 0.931615
vt 0.564231 0.931615
vt 0.564231 0.931615
vt 0.564231 0.978490
vt 0.564231 0.978490
vt 0.560761 0.978490
vt 0.567701 0.941912
vt 0.567701 0.947240
vt 0.564231 0.947240
vt 0.564231 0.941912
vt 0.564231 0.988787
vt 0.564231 0.994115
vt 0.560761 0.994115
vt 0.560761 0.988787
vt 0.564231 0.763213
vt 0.595734 0.763213
vt 0.595734 0.763213
vt 0.533711 0.814382
vt 0.532728 0.810190
vt 0.532728 0.763213
vt 0.532728 0.763213
vt 0.533711 0.857972
vt 0.533711 0.799476
vt 0.594751 0.799476
vt 0.594751 0.857972
vt 0.594751 0.852689
vt 0.595734 0.847476
vt 0.595734 0.915990
vt 0.594751 0.910662
vt 0.595734 0.810165
vt 0.594751 0.814382
vt 0.564231 0.814382
vt 0.567701 0.962865
vt 0.567701 0.962865
vt 0.595734 0.962865
vt 0.595734 0.962865
vt 0.567701 0.915990
vt 0.595734 0.915990
vt 0.595734 0.778838
vt 0.564231 0.778838
vt 0.533711 0.910662
vt 0.532728 0.915990
vt 0.532728 0.847508
vt 0.533711 0.852689
vt 0.595734 0.931615
vt 0.595734 0.931615
vt 0.595734 0.863101
vt 0.532728 0.794463
vt 0.532728 0.794463
vt 0.532728 0.863133
vt 0.533711 0.842347
vt 0.532728 0.778838
vt 0.533711 0.783851
vt 0.594751 0.926287
vt 0.567701 0.926287
vt 0.564231 0.868314
vt 0.594751 0.868314
vt 0.533711 0.973162
vt 0.560761 0.973162
vt 0.560761 0.978490
vt 0.532728 0.978490
vt 0.532728 0.931615
vt 0.532728 0.931615
vt 0.532728 0.962865
vt 0.532728 0.962865
vt 0.560761 0.962865
vt 0.560761 0.962865
vt 0.594751 0.783851
vt 0.595734 0.778838
vt 0.594751 0.842347
vt 0.595734 0.794463
vt 0.595734 0.794463
vt 0.532728 0.754629
vt 0.595734 0.754629
vt 0.594751 0.758686
vt 0.533711 0.758686
vt 0.533711 0.904847
vt 0.594751 0.904847
vt 0.595734 0.909976
vt 0.532728 0.910008
vt 0.560761 0.915990
vt 0.564231 0.897108
vt 0.567701 0.973162
vt 0.594751 0.973162
vt 0.595734 0.978490
vt 0.567701 0.978490
vt 0.560761 0.926287
vt 0.564231 0.907404
vt 0.533711 0.926287
vt 0.533711 0.868314
vt 0.532728 0.915990
vt 0.532728 0.778838
vt 0.567701 0.931615
vt 0.567701 0.931615
vt 0.564231 0.931615
vt 0.564231 0.931615
vt 0.564231 0.978490
vt 0.564231 0.978490
vt 0.560761 0.978490
vt 0.567701 0.941912
vt 0.567701 0.947240
vt 0.564231 0.947240
vt 0.564231 0.941912
vt 0.564231 0.988787
vt 0.564231 0.994115
vt 0.560761 0.994115
vt 0.560761 0.988787
vt 0.564231 0.763213
vt 0.595734 0.763213
vt 0.595734 0.763213
vt 0.533711 0.814382
vt 0.532728 0.810190
vt 0.532728 0.763213
vt 0.532728 0.763213
vn -1.0000 0.0000 0.0000
vn 1.0000 0.0000 0.0000
vn 0.6990 0.0000 0.7152
vn 0.0000 -0.7215 0.6924
vn 0.0000 0.7125 0.7017
vn 0.0000 0.0000 1.0000
vn -0.6990 0.0000 0.7152
vn -0.0000 -0.7079 0.7063
vn -0.0001 -0.7090 0.7052
vn 0.0000 0.7001 0.7140
vn 0.3169 0.6365 0.7032
vn 0.2226 0.6633 0.7144
vn 0.0000 1.0000 0.0000
vn 0.0000 0.0000 -1.0000
vn 0.7601 -0.6498 -0.0000
vn 0.7883 0.0000 -0.6153
vn 0.7717 0.6360 0.0002
vn 0.0000 -1.0000 0.0000
vn 0.7883 0.0000 0.6153
vn 0.7682 -0.6403 -0.0002
vn 0.7792 0.6268 -0.0000
vn -0.7601 -0.6498 0.0000
vn -0.7883 0.0000 0.6153
vn -0.7717 0.6360 -0.0002
vn -0.7883 0.0000 -0.6153
vn -0.7682 -0.6403 0.0002
vn -0.7792 0.6268 0.0000
vn -0.3169 0.6365 0.7032
vn -0.2226 0.6633 0.7145
vn -0.6982 0.7155 -0.0227
vn 0.6982 0.7155 -0.0227
vn -0.5324 0.5456 0.6472
vn 0.5324 0.5456 0.6472
vn 0.0000 -0.7101 0.7041
vn -0.0000 -0.7100 0.7042
vn -0.6990 0.0000 -0.7152
vn 0.0000 -0.7079 -0.7063
vn 0.0001 -0.7090 -0.7052
vn 0.6990 0.0000 -0.7152
vn -0.0000 0.7001 -0.7140
vn -0.3169 0.6365 -0.7032
vn -0.2226 0.6633 -0.7144
vn -0.0000 -0.7215 -0.6924
vn -0.0000 0.7125 -0.7017
vn 0.3169 0.6365 -0.7032
vn 0.2226 0.6633 -0.7145
vn 0.6982 0.7155 0.0227
vn -0.6982 0.7155 0.0227
vn 0.5324 0.5456 -0.6472
vn -0.5324 0.5456 -0.6472
vn -0.0000 -0.7101 -0.7041
vn 0.0000 -0.7100 -0.7042
usemtl texture
s 1
f 6/1/1 17/2/1 8/3/1
s 2
f 2/4/2 4/5/2 5/6/2
s 3
f 3/7/3 4/8/3 2/9/3 1/10/3
s 4
f 9/11/4 4/12/4 3/13/4 10/14/4
s 5
f 7/15/5 1/16/5 2/17/5 6/18/5
s 6
f 7/19/6 10/20/6 3/21/6 1/22/6
s 7
f 8/3/1 9/23/1 6/1/1
s 8
f 7/24/7 6/25/7 9/26/7 10/27/7
s 9
f 5/6/2 13/28/2 2/4/2
s 10
f 13/28/2 12/29/2 2/4/2
s 11
f 2/30/8 14/31/8 64/32/9
s 12
f 14/33/3 2/9/3 12/34/3 11/35/3
s 13
f 11/36/6 65/37/6 64/38/6 14/39/6
s 14
f 16/40/10 66/41/11 71/42/12 15/43/10
s 15
f 17/44/13 15/45/13 71/46/13 68/47/13
s 16
f 6/1/1 15/48/1 17/2/1
s 17
f 16/49/7 15/50/7 6/25/7 18/51/7
s 18
f 24/52/6 33/53/6 35/54/6
s 19
f 20/55/14 22/56/14 23/57/14
s 20
f 27/58/15 22/59/15 21/60/15 28/61/15
s 21
f 21/62/16 22/63/16 20/64/16 19/65/16
s 22
f 25/66/17 19/67/17 20/68/17 24/69/17
s 23
f 25/70/2 28/71/2 21/72/2 19/73/2
s 24
f 26/74/18 23/75/18 22/76/18 27/77/18
s 25
f 25/78/19 24/79/19 27/80/19 28/81/19
s 26
f 23/57/14 31/82/14 20/55/14
s 27
f 35/83/1 31/84/1 23/85/1 26/86/1
s 28
f 31/82/14 30/87/14 20/55/14
s 29
f 24/88/20 20/89/20 32/90/20 36/91/20
s 30
f 32/92/16 20/64/16 30/93/16 29/94/16
s 31
f 34/95/21 29/96/21 30/97/21 33/98/21
s 32
f 35/99/13 33/100/13 30/101/13 31/102/13
s 33
f 34/103/2 36/104/2 32/105/2 29/106/2
s 34
f 26/107/6 24/52/6 35/54/6
s 35
f 34/108/19 33/109/19 24/79/19 36/110/19
s 36
f 26/107/6 27/111/6 24/52/6
s 37
f 42/112/14 51/113/14 53/114/14
s 38
f 38/115/6 40/116/6 41/117/6
s 39
f 45/118/22 40/119/22 39/120/22 46/121/22
s 40
f 39/122/23 40/123/23 38/124/23 37/125/23
s 41
f 43/126/24 37/127/24 38/128/24 42/129/24
s 42
f 43/130/1 46/131/1 39/132/1 37/133/1
s 43
f 44/134/18 41/135/18 40/136/18 45/137/18
s 44
f 43/138/25 42/139/25 45/140/25 46/141/25
s 45
f 41/117/6 49/142/6 38/115/6
s 46
f 53/143/2 49/144/2 41/145/2 44/146/2
s 47
f 49/142/6 48/147/6 38/115/6
s 48
f 42/148/26 38/149/26 50/150/26 54/151/26
s 49
f 50/152/23 38/124/23 48/153/23 47/154/23
s 50
f 52/155/27 47/156/27 48/157/27 51/158/27
s 51
f 53/159/13 51/160/13 48/161/13 49/162/13
s 52
f 52/163/1 54/164/1 50/165/1 47/166/1
s 53
f 44/167/14 42/112/14 53/114/14
s 54
f 52/168/25 51/169/25 42/139/25 54/170/25
s 55
f 44/167/14 45/171/14 42/112/14
s 56
f 55/172/18 56/173/18 57/174/18 58/175/18
s 57
f 60/176/13 61/177/13 62/178/13 59/179/13
s 58
f 69/180/13 72/181/13 12/182/13 13/183/13
s 59
f 69/184/14 13/185/14 5/186/14 63/187/14
s 60
f 68/188/14 70/189/14 63/187/14
s 61
f 65/190/28 11/191/10 12/192/10 72/193/29
s 62
f 66/194/6 64/38/6 67/195/6
s 63
f 16/196/6 18/197/6 64/38/6 66/194/6
s 64
f 17/198/14 68/188/14 63/187/14 8/199/14
s 65
f 70/189/14 69/184/14 63/187/14
s 66
f 72/200/30 69/201/30 70/202/30 73/203/30
s 67
f 73/204/31 70/205/31 68/206/31 71/42/31
s 68
f 65/207/28 72/208/29 73/209/32 67/210/32
s 69
f 67/211/33 73/212/33 71/213/12 66/214/11
s 70
f 63/215/18 5/216/18 4/217/18
s 71
f 65/37/6 67/195/6 64/38/6
s 72
f 18/218/34 6/219/35 64/32/9
s 73
f 6/219/35 2/30/8 64/32/9
s 74
f 8/220/18 63/215/18 9/221/18
s 75
f 9/221/18 63/215/18 4/217/18
s 76
f 85/222/14 82/223/14 89/224/14 91/225/14
s 77
f 78/226/36 90/227/36 80/228/36 81/229/36
s 78
f 90/230/37 78/231/37 93/232/38
s 79
f 98/233/13 101/234/13 80/235/13 79/236/13
s 80
f 98/237/6 79/238/6 87/239/6 92/240/6
s 81
f 76/241/39 77/242/39 86/243/39 74/244/39
s 82
f 79/245/1 80/246/1 90/247/1
s 83
f 84/248/2 83/249/2 86/250/2
s 84
f 85/251/39 86/243/39 83/252/39 82/253/39
s 85
f 81/254/14 94/255/14 93/256/14 78/257/14
s 86
f 76/258/40 95/259/41 100/260/42 77/261/40
s 87
f 86/250/2 77/262/2 75/263/2
s 88
f 75/264/13 77/265/13 100/266/13 97/267/13
s 89
f 89/268/36 88/269/36 90/227/36 91/270/36
s 90
f 86/250/2 75/263/2 84/248/2
s 91
f 90/247/1 88/271/1 87/272/1
s 92
f 87/272/1 79/245/1 90/247/1
s 93
f 83/273/43 88/274/43 89/275/43 82/276/43
s 94
f 85/277/44 91/278/44 90/279/44 86/280/44
s 95
f 97/281/6 99/282/6 92/240/6
s 96
f 94/283/45 81/284/40 80/285/40 101/286/46
s 97
f 95/287/14 93/256/14 96/288/14
s 98
f 76/289/14 74/290/14 93/256/14 95/287/14
s 99
f 75/291/6 97/281/6 92/240/6 84/292/6
s 100
f 99/282/6 98/237/6 92/240/6
s 101
f 101/293/47 98/294/47 99/295/47 102/296/47
s 102
f 102/297/48 99/298/48 97/299/48 100/260/48
s 103
f 94/300/45 101/301/46 102/302/49 96/303/49
s 104
f 96/304/50 102/305/50 100/306/42 95/307/41
s 105
f 92/308/18 87/309/18 88/310/18
s 106
f 94/255/14 96/288/14 93/256/14
s 107
f 74/311/51 86/312/52 93/232/38
s 108
f 86/312/52 90/230/37 93/232/38
s 109
f 84/313/18 92/308/18 83/314/18
s 110
f 83/314/18 92/308/18 88/310/18
