# Blender v2.80 (sub 75) OBJ File: 'Dungeon_Remastered_Export1.0.blend'
# www.blender.org
mtllib key_gold.mtl
o key_gold_Torus.034
v 0.667413 -0.050083 -0.053403
v 0.667413 0.050083 -0.053403
v 0.667413 -0.050083 0.053403
v 0.667413 0.050083 0.053403
v 0.667413 0.075863 0.000000
v 0.187413 0.187410 0.000000
v 0.161488 0.161485 0.066355
v 0.106445 0.106442 0.069726
v 0.076296 0.076292 0.000000
v 0.106445 0.106442 -0.069726
v 0.161488 0.161485 -0.066355
v 0.000003 0.265037 0.000000
v 0.000003 0.228374 0.066355
v 0.000003 0.150531 0.069726
v 0.000003 0.107894 0.000000
v 0.000003 0.150531 -0.069726
v 0.000003 0.228374 -0.066355
v -0.187407 0.187410 0.000000
v -0.161482 0.161485 0.066355
v -0.106438 0.106442 0.069726
v -0.076289 0.076292 0.000000
v -0.106438 0.106442 -0.069726
v -0.161482 0.161485 -0.066355
v -0.265034 0.000000 0.000000
v -0.228371 0.000000 0.066355
v -0.150528 0.000000 0.069726
v -0.107890 0.000000 0.000000
v -0.150528 0.000000 -0.069726
v -0.228371 0.000000 -0.066355
v -0.187407 -0.187410 0.000000
v -0.161482 -0.161485 0.066355
v -0.106438 -0.106442 0.069726
v -0.076289 -0.076292 0.000000
v -0.106438 -0.106442 -0.069726
v -0.161482 -0.161485 -0.066355
v 0.000003 -0.265037 0.000000
v 0.000003 -0.228374 0.066355
v 0.000003 -0.150531 0.069726
v 0.000003 -0.107894 0.000000
v 0.000003 -0.150531 -0.069726
v 0.000003 -0.228374 -0.066355
v 0.187413 -0.187410 0.000000
v 0.161488 -0.161485 0.066355
v 0.106445 -0.106442 0.069726
v 0.076296 -0.076292 0.000000
v 0.106445 -0.106442 -0.069726
v 0.161488 -0.161485 -0.066355
v 0.249543 -0.075863 0.000000
v 0.249543 0.075863 0.000000
v 0.212860 0.050083 0.053403
v 0.212860 -0.050083 0.053403
v 0.124755 0.062238 0.069726
v 0.124755 -0.062238 0.069726
v 0.124755 0.062238 -0.069726
v 0.124755 -0.062238 -0.069726
v 0.212860 0.050083 -0.053403
v 0.212860 -0.050083 -0.053403
v 0.667413 -0.000000 -0.070586
v 0.667413 -0.000000 0.070586
v 0.212860 0.000000 0.070586
v 0.145359 0.000000 0.070902
v 0.102738 0.000000 0.000000
v 0.145359 0.000000 -0.070902
v 0.212860 0.000000 -0.070586
v 0.444723 -0.050083 -0.053403
v 0.444723 0.050083 -0.053403
v 0.444723 0.050083 0.053403
v 0.444723 -0.075863 0.000000
v 0.444723 -0.050083 0.053403
v 0.444723 0.075863 0.000000
v 0.444723 -0.000000 -0.070586
v 0.444723 0.000000 0.070586
v 0.444723 -0.151384 -0.053403
v 0.468589 -0.179767 -0.025020
v 0.643548 -0.179767 -0.025020
v 0.667413 -0.151384 -0.053403
v 0.667413 -0.151384 0.053403
v 0.643548 -0.179767 0.025020
v 0.468589 -0.179767 0.025020
v 0.444723 -0.151384 0.053403
vt 0.930401 0.389120
vt 0.925964 0.414082
vt 0.928763 0.419891
vt 0.934361 0.394897
vt 0.920023 0.354874
vt 0.921999 0.344969
vt 0.916769 0.316869
vt 0.921999 0.344969
vt 0.920023 0.354874
vt 0.920023 0.354048
vt 0.921999 0.363953
vt 0.930401 0.366676
vt 0.925964 0.341715
vt 0.916769 0.282679
vt 0.921999 0.317078
vt 0.919622 0.331024
vt 0.925964 0.294840
vt 0.930401 0.319801
vt 0.934361 0.314025
vt 0.928763 0.289031
vt 0.928763 0.451141
vt 0.908535 0.484160
vt 0.908535 0.460320
vt 0.925964 0.445332
vt 0.925964 0.414082
vt 0.908535 0.429070
vt 0.908535 0.411628
vt 0.920023 0.401749
vt 0.920023 0.307173
vt 0.908535 0.297294
vt 0.908535 0.275598
vt 0.908535 0.297294
vt 0.920023 0.307173
vt 0.920023 0.401749
vt 0.908535 0.411628
vt 0.908535 0.429070
vt 0.925964 0.445332
vt 0.908535 0.460320
vt 0.888306 0.451141
vt 0.891105 0.445332
vt 0.891105 0.414082
vt 0.897046 0.401749
vt 0.897046 0.307173
vt 0.900299 0.282679
vt 0.897046 0.307173
vt 0.897046 0.401749
vt 0.891105 0.414082
vt 0.891105 0.445332
vt 0.888306 0.419891
vt 0.879928 0.377898
vt 0.883885 0.377898
vt 0.892287 0.377898
vt 0.892287 0.331024
vt 0.896889 0.299774
vt 0.892287 0.331024
vt 0.892287 0.377898
vt 0.883885 0.377898
vt 0.888306 0.335906
vt 0.891105 0.341715
vt 0.897046 0.354048
vt 0.897046 0.354874
vt 0.900299 0.316869
vt 0.897046 0.354874
vt 0.897046 0.354048
vt 0.891105 0.341715
vt 0.888306 0.289031
vt 0.908535 0.256012
vt 0.908535 0.279851
vt 0.891105 0.294840
vt 0.908535 0.326726
vt 0.908535 0.344169
vt 0.908535 0.364753
vt 0.908535 0.323949
vt 0.908535 0.364753
vt 0.908535 0.344169
vt 0.908535 0.326726
vt 0.891105 0.294840
vt 0.908535 0.279851
vt 0.925964 0.294840
vt 0.925964 0.341715
vt 0.920023 0.354048
vt 0.930401 0.389120
vt 0.921999 0.391844
vt 0.921999 0.317078
vt 0.921999 0.391844
vt 0.930401 0.366676
vt 0.921999 0.363953
vt 0.955427 0.366676
vt 0.955427 0.360900
vt 0.955427 0.335182
vt 0.924223 0.377898
vt 0.924223 0.331024
vt 0.924223 0.377898
vt 0.930401 0.377898
vt 0.955427 0.377898
vt 0.979463 0.366676
vt 0.979463 0.377898
vt 0.930401 0.319801
vt 0.924223 0.331024
vt 0.979463 0.335182
vt 0.955427 0.420370
vt 0.955427 0.426147
vt 0.979463 0.426147
vt 0.979463 0.420370
vt 0.955427 0.377898
vt 0.955427 0.389120
vt 0.979463 0.389120
vt 0.979463 0.377898
vt 0.955427 0.420370
vt 0.979463 0.420370
vt 0.955427 0.366676
vt 0.979463 0.366676
vt 0.930401 0.377898
vt 0.955427 0.389120
vt 0.934361 0.426147
vt 0.930401 0.420370
vt 0.955427 0.314025
vt 0.955427 0.319801
vt 0.955427 0.319801
vt 0.930401 0.420370
vt 0.979463 0.319764
vt 0.979463 0.319764
vt 0.979463 0.306368
vt 0.979463 0.306368
vt 0.979463 0.335182
vt 0.955427 0.335182
vt 0.979463 0.389120
vt 0.979463 0.394897
vt 0.955427 0.319764
vt 0.955427 0.319764
vt 0.955427 0.306368
vt 0.955427 0.306368
vt 0.955427 0.312055
vt 0.979463 0.312055
vt 0.979463 0.290743
vt 0.955427 0.290743
vt 0.955427 0.290743
vt 0.979463 0.290743
vt 0.979463 0.312055
vt 0.955427 0.312055
vn 0.2422 0.3839 -0.8911
vn 0.5718 0.6284 -0.5274
vn 0.6877 0.7260 -0.0000
vn 0.4455 0.8953 -0.0000
vn -0.2221 0.2695 0.9370
vn -0.3888 0.1668 0.9061
vn -0.7224 0.6915 -0.0000
vn -0.3888 0.1668 -0.9061
vn -0.2221 0.2695 -0.9370
vn 0.2422 -0.3839 -0.8911
vn 0.0813 -0.0116 -0.9966
vn -0.7224 -0.6915 0.0000
vn -0.3888 -0.1668 -0.9061
vn -1.0000 0.0000 -0.0000
vn 0.5718 -0.6284 -0.5274
vn 0.4455 -0.8953 -0.0000
vn 0.6877 -0.7260 -0.0000
vn -0.0000 1.0000 -0.0000
vn -0.0000 0.8753 0.4836
vn 0.5718 0.6284 0.5274
vn 0.0813 0.0116 0.9966
vn -0.0000 0.0433 0.9991
vn 0.0000 -0.3601 0.9329
vn -0.2221 -0.2695 0.9370
vn 0.0000 -1.0000 -0.0000
vn 0.0000 -0.3601 -0.9329
vn -0.2221 -0.2695 -0.9370
vn -0.0000 0.0433 -0.9991
vn 0.0813 0.0116 -0.9966
vn -0.0000 0.8753 -0.4836
vn -0.7071 0.7071 -0.0000
vn -0.6189 0.6189 0.4836
vn -0.0306 0.0306 0.9991
vn 0.2546 -0.2546 0.9329
vn 0.7071 -0.7071 0.0000
vn 0.2546 -0.2546 -0.9329
vn -0.0306 0.0306 -0.9991
vn -0.6189 0.6189 -0.4836
vn -0.8753 -0.0000 0.4836
vn -0.0433 -0.0000 0.9991
vn 0.3601 -0.0000 0.9329
vn 1.0000 -0.0000 0.0000
vn 0.3601 0.0000 -0.9329
vn -0.0433 0.0000 -0.9991
vn -0.8753 0.0000 -0.4836
vn -0.7071 -0.7071 0.0000
vn -0.6189 -0.6189 0.4836
vn -0.0306 -0.0306 0.9991
vn 0.2546 0.2546 0.9329
vn 0.7071 0.7071 -0.0000
vn 0.2546 0.2546 -0.9329
vn -0.0306 -0.0306 -0.9991
vn -0.6189 -0.6189 -0.4836
vn -0.0000 -0.8753 0.4836
vn 0.0000 -0.0433 0.9991
vn 0.0000 0.3601 0.9329
vn 0.0000 0.3601 -0.9329
vn -0.0000 -0.0433 -0.9991
vn -0.0000 -0.8753 -0.4836
vn 0.5718 -0.6284 0.5274
vn 0.0813 -0.0116 0.9966
vn 0.2422 0.3839 0.8911
vn -0.3888 -0.1668 0.9061
vn 0.2422 -0.3839 0.8911
vn -0.6504 -0.3782 0.6587
vn 0.1306 -0.0000 0.9914
vn -0.8571 0.0000 -0.5152
vn 0.1306 0.0000 -0.9914
vn 0.0023 -0.0000 -1.0000
vn -0.0000 -0.0000 1.0000
vn -0.0000 -0.5543 0.8323
vn -0.0000 -0.3245 0.9459
vn -0.8571 0.0000 0.5152
vn 0.6504 -0.3782 0.6587
vn 0.0000 0.6637 -0.7480
vn 0.0000 0.0000 -1.0000
vn -0.0000 0.6637 0.7480
vn 0.0000 -0.5543 -0.8323
vn 0.0000 -0.3245 -0.9459
vn 0.0023 -0.0000 1.0000
vn 0.6504 -0.3782 -0.6587
vn 0.3385 -0.8931 0.2962
vn 0.3385 -0.8931 -0.2962
vn -0.6504 -0.3782 -0.6587
vn -0.3385 -0.8931 -0.2962
vn -0.3385 -0.8931 0.2962
usemtl texture
s 1
f 56/1/1 11/2/2 6/3/3 49/4/4
s 2
f 44/5/5 53/6/6 45/7/7
s 3
f 45/7/7 55/8/8 46/9/9
s 4
f 46/10/9 55/11/8 57/12/10 47/13/11
s 5
f 9/14/12 54/15/13 62/16/14
s 6
f 47/17/15 57/18/10 48/19/16 42/20/17
s 7
f 6/21/3 12/22/18 13/23/19 7/24/20
s 8
f 7/25/21 13/26/22 14/27/23 8/28/24
s 9
f 8/29/24 14/30/23 15/31/25 9/14/12
s 10
f 9/14/12 15/31/25 16/32/26 10/33/27
s 11
f 10/34/27 16/35/26 17/36/28 11/2/29
s 12
f 11/37/2 17/38/30 12/22/18 6/21/3
s 13
f 12/22/18 18/39/31 19/40/32 13/23/19
s 14
f 13/26/22 19/41/33 20/42/34 14/27/23
s 15
f 14/30/23 20/43/34 21/44/35 15/31/25
s 16
f 15/31/25 21/44/35 22/45/36 16/32/26
s 17
f 16/35/26 22/46/36 23/47/37 17/36/28
s 18
f 17/38/30 23/48/38 18/39/31 12/22/18
s 19
f 18/49/31 24/50/14 25/51/39 19/41/32
s 20
f 19/41/33 25/51/40 26/52/41 20/42/34
s 21
f 20/43/34 26/53/41 27/54/42 21/44/35
s 22
f 21/44/35 27/54/42 28/55/43 22/45/36
s 23
f 22/46/36 28/56/43 29/57/44 23/47/37
s 24
f 23/47/38 29/57/45 24/50/14 18/49/31
s 25
f 24/50/14 30/58/46 31/59/47 25/51/39
s 26
f 25/51/40 31/59/48 32/60/49 26/52/41
s 27
f 26/53/41 32/61/49 33/62/50 27/54/42
s 28
f 27/54/42 33/62/50 34/63/51 28/55/43
s 29
f 28/56/43 34/64/51 35/65/52 29/57/44
s 30
f 29/57/45 35/65/53 30/58/46 24/50/14
s 31
f 30/66/46 36/67/25 37/68/54 31/69/47
s 32
f 31/59/48 37/70/55 38/71/56 32/60/49
s 33
f 32/61/49 38/72/56 39/73/18 33/62/50
s 34
f 33/62/50 39/73/18 40/74/57 34/63/51
s 35
f 34/64/51 40/75/57 41/76/58 35/65/52
s 36
f 35/77/53 41/78/59 36/67/25 30/66/46
s 37
f 36/67/25 42/20/17 43/79/60 37/68/54
s 38
f 37/70/55 43/80/61 44/81/5 38/71/56
s 39
f 38/72/56 44/5/5 45/7/7 39/73/18
s 40
f 39/73/18 45/7/7 46/9/9 40/74/57
s 41
f 40/75/57 46/10/9 47/13/11 41/76/58
s 42
f 41/78/59 47/17/15 42/20/17 36/67/25
s 43
f 49/4/4 6/3/3 7/25/20 50/82/62
s 44
f 50/82/62 7/25/21 8/28/24 52/83/63
s 45
f 52/84/63 8/29/24 9/14/12
s 46
f 9/14/12 10/33/27 54/15/13
s 47
f 54/85/13 10/34/27 11/2/29 56/1/1
s 48
f 43/80/61 51/86/64 53/87/6 44/81/5
s 49
f 69/88/14 68/89/14 80/90/65
s 50
f 61/91/66 53/87/6 51/86/64
s 51
f 62/16/14 45/7/7 53/6/6
s 52
f 62/16/14 63/92/67 55/8/8
s 53
f 63/93/68 64/94/69 57/12/10
s 54
f 72/95/70 69/88/71 3/96/72 59/97/70
s 55
f 42/20/17 48/19/16 51/98/64 43/79/60
s 56
f 61/99/73 62/16/14 53/6/6
s 57
f 69/88/70 80/90/65 77/100/74 3/96/70
s 58
f 66/101/75 70/102/18 5/103/18 2/104/75
s 59
f 71/105/76 66/106/75 2/107/75 58/108/76
s 60
f 70/102/18 67/109/77 4/110/77 5/103/18
s 61
f 61/99/73 52/84/63 62/16/14
s 62
f 56/1/1 64/94/69 63/93/68
s 63
f 54/15/13 63/92/67 62/16/14
s 64
f 52/84/63 9/14/12 62/16/14
s 65
f 50/82/62 52/83/63 61/91/66
s 66
f 65/111/78 71/105/76 58/108/76 1/112/79
s 67
f 45/7/7 62/16/14 55/8/8
s 68
f 60/113/80 50/82/62 61/91/66
s 69
f 60/113/80 61/91/66 51/86/64
s 70
f 54/85/13 56/1/1 63/93/68
s 71
f 55/11/8 63/93/68 57/12/10
s 72
f 50/82/62 60/113/80 72/95/70 67/114/77
s 73
f 57/12/10 64/94/69 71/105/76 65/111/78
s 74
f 49/115/4 50/116/62 67/109/77 70/102/18
s 75
f 64/94/69 56/1/1 66/106/75 71/105/76
s 76
f 51/98/64 48/19/16 68/117/25 69/118/71
s 77
f 48/19/16 57/18/10 65/119/78 68/117/25
s 78
f 56/120/1 49/115/4 70/102/18 66/101/75
s 79
f 60/113/80 51/86/64 69/88/71 72/95/70
s 80
f 76/121/81 77/122/74 78/123/82 75/124/83
s 81
f 1/112/76 76/125/81 73/126/84 65/111/76
s 82
f 1/112/42 3/96/42 77/100/74 76/125/81
s 83
f 68/89/14 65/111/14 73/126/84
s 84
f 1/112/42 58/108/42 59/97/42 3/96/42
s 85
f 58/108/42 2/107/42 4/127/42 59/97/42
s 86
f 5/128/42 4/127/42 2/107/42
s 87
f 67/114/77 72/95/70 59/97/70 4/127/77
s 88
f 80/90/65 68/89/14 73/126/84
s 89
f 80/129/65 73/130/84 74/131/85 79/132/86
s 90
f 73/133/84 76/134/81 75/135/83 74/136/85
s 91
f 79/137/86 78/138/82 77/139/74 80/140/65
s 92
f 79/137/86 74/136/85 75/135/83 78/138/82
