# Blender v2.80 (sub 75) OBJ File: 'Dungeon_Remastered_Export1.0.blend'
# www.blender.org
mtllib pickaxe.mtl
o pickaxe_Cube.15752
v 0.000000 0.794434 0.099973
v 0.000000 0.600829 0.072798
v 0.000000 0.794434 -0.099973
v 0.000000 0.600829 -0.072798
v -0.802233 0.489975 -0.037852
v -0.802233 0.489975 0.037852
v 0.802178 0.489990 -0.037852
v 0.802178 0.489990 0.037852
v -0.569398 0.542257 -0.046765
v -0.289985 0.586071 -0.061793
v -0.289985 0.586071 0.061793
v -0.569398 0.542257 0.046765
v -0.337065 0.752761 0.086537
v -0.596559 0.638094 0.067952
v -0.337065 0.752761 -0.086537
v -0.596559 0.638094 -0.067952
v 0.337006 0.752775 -0.086539
v 0.596501 0.638113 -0.067953
v 0.569339 0.542275 -0.046766
v 0.289925 0.586084 -0.061795
v 0.569339 0.542275 0.046766
v 0.289925 0.586084 0.061795
v 0.337006 0.752775 0.086539
v 0.596501 0.638113 0.067953
v 0.000000 0.697632 0.128380
v -0.313525 0.669416 0.110053
v -0.582979 0.590175 0.084874
v 0.313466 0.669429 0.110056
v 0.582920 0.590194 0.084876
v 0.000000 0.697632 -0.128380
v -0.313525 0.669416 -0.110053
v -0.582979 0.590175 -0.084874
v 0.582920 0.590194 -0.084876
v 0.313466 0.669429 -0.110056
v 0.000028 -0.517551 -0.065788
v 0.056286 -0.517551 -0.046519
v 0.079589 -0.521699 0.000000
v 0.056286 -0.521699 0.046519
v 0.000028 -0.521699 0.065788
v -0.056230 -0.521699 0.046519
v -0.079533 -0.521699 0.000000
v -0.056230 -0.517551 -0.046519
v 0.000035 0.085386 -0.052669
v 0.000035 0.402877 -0.052669
v 0.045074 0.402877 -0.037242
v 0.045074 0.085386 -0.037242
v 0.063730 0.402877 0.000000
v 0.063730 0.085386 0.000000
v 0.045074 0.402877 0.037242
v 0.045074 0.085386 0.037242
v 0.000035 0.402877 0.052669
v 0.000035 0.085386 0.052669
v -0.045005 0.402877 0.037242
v -0.045005 0.085386 0.037242
v -0.063661 0.402877 0.000000
v -0.063661 0.085386 0.000000
v -0.045005 0.402877 -0.037242
v -0.045005 0.085386 -0.037242
v 0.000028 -0.535788 0.000000
v 0.000028 0.854785 0.000000
v 0.000028 0.847629 -0.065347
v 0.000028 0.861182 -0.050667
v 0.043393 0.861187 -0.035858
v 0.055909 0.847629 -0.046207
v 0.061396 0.861191 0.000000
v 0.079056 0.847629 0.000000
v 0.043393 0.861187 0.035858
v 0.055909 0.847629 0.046207
v 0.000028 0.861182 0.050667
v 0.000028 0.847629 0.065347
v -0.043337 0.861187 0.035858
v -0.055853 0.847629 0.046207
v -0.061340 0.861191 0.000000
v -0.079000 0.847629 0.000000
v -0.043337 0.861187 -0.035858
v -0.055853 0.847629 -0.046207
vt 0.212633 0.821376
vt 0.212633 0.821376
vt 0.222912 0.847469
vt 0.222912 0.847469
vt 0.200299 0.835355
vt 0.200299 0.835355
vt 0.187501 0.840060
vt 0.187501 0.840060
vt 0.161169 0.914452
vt 0.161169 0.914452
vt 0.152090 0.872952
vt 0.152090 0.872952
vt 0.172622 0.951043
vt 0.172622 0.951043
vt 0.187501 0.979966
vt 0.187501 0.979966
vt 0.202377 0.951047
vt 0.202377 0.951047
vt 0.187501 0.902200
vt 0.173661 0.893197
vt 0.172622 0.919793
vt 0.187501 0.933091
vt 0.187501 0.902200
vt 0.201338 0.893201
vt 0.202377 0.919797
vt 0.187501 0.933091
vt 0.213832 0.914458
vt 0.213832 0.914458
vt 0.222912 0.878719
vt 0.222912 0.878719
vt 0.213232 0.867918
vt 0.213832 0.883208
vt 0.161767 0.872112
vt 0.162367 0.847469
vt 0.152090 0.847469
vt 0.213232 0.872106
vt 0.212633 0.887398
vt 0.161767 0.867912
vt 0.161169 0.883202
vt 0.152090 0.835936
vt 0.162367 0.821370
vt 0.152090 0.804686
vt 0.174701 0.835351
vt 0.174701 0.835351
vt 0.173661 0.893197
vt 0.172622 0.919793
vt 0.173661 0.846826
vt 0.174701 0.873422
vt 0.213232 0.872106
vt 0.212633 0.887398
vt 0.200299 0.873418
vt 0.201338 0.846822
vt 0.201338 0.846822
vt 0.200299 0.873418
vt 0.187501 0.837823
vt 0.173661 0.846826
vt 0.174701 0.873422
vt 0.187501 0.868713
vt 0.187501 0.837823
vt 0.187501 0.868713
vt 0.213232 0.867918
vt 0.213832 0.883208
vt 0.161767 0.872112
vt 0.162367 0.887404
vt 0.202377 0.919797
vt 0.201338 0.893201
vt 0.161767 0.867912
vt 0.161169 0.883202
vt 0.152090 0.904088
vt 0.557747 0.874740
vt 0.556599 0.907909
vt 0.562508 0.907909
vt 0.562508 0.874740
vt 0.567092 0.948220
vt 0.568997 0.948221
vt 0.562508 0.885131
vt 0.562508 0.948220
vt 0.557923 0.948220
vt 0.556019 0.948221
vt 0.557923 0.948220
vt 0.567271 0.859115
vt 0.568417 0.907909
vt 0.570864 0.907909
vt 0.569243 0.859115
vt 0.562508 0.948220
vt 0.570920 0.820795
vt 0.568456 0.820795
vt 0.562508 0.866372
vt 0.556560 0.781876
vt 0.557747 0.845484
vt 0.562508 0.845484
vt 0.562508 0.781876
vt 0.554095 0.781876
vt 0.555775 0.829859
vt 0.557747 0.829859
vt 0.555775 0.859115
vt 0.557747 0.859115
vt 0.556560 0.781876
vt 0.557747 0.829859
vt 0.557747 0.859115
vt 0.562508 0.781876
vt 0.562508 0.845484
vt 0.557747 0.845484
vt 0.562508 0.874740
vt 0.557747 0.874740
vt 0.568456 0.781876
vt 0.567271 0.845484
vt 0.567271 0.874740
vt 0.570920 0.781876
vt 0.569243 0.829859
vt 0.567271 0.829859
vt 0.567271 0.859115
vt 0.568456 0.781876
vt 0.567271 0.829859
vt 0.567271 0.845484
vt 0.567271 0.874740
vt 0.556599 0.907909
vt 0.554154 0.907909
vt 0.556560 0.820795
vt 0.554095 0.820795
vt 0.562508 0.820795
vt 0.556560 0.821177
vt 0.568456 0.821177
vt 0.562508 0.821177
vt 0.568417 0.907909
vt 0.567092 0.948220
vt 0.562508 0.907909
vt 0.568417 0.958581
vt 0.562508 0.958581
vt 0.562508 0.959830
vt 0.567092 0.959830
vt 0.570864 0.958581
vt 0.568997 0.959830
vt 0.568417 0.958581
vt 0.567092 0.959830
vt 0.562508 0.958581
vt 0.562508 0.959830
vt 0.556599 0.958581
vt 0.557923 0.959830
vt 0.554154 0.958581
vt 0.556019 0.959830
vt 0.556599 0.958581
vt 0.557923 0.959830
vn -0.1862 -0.9825 0.0000
vn -0.2191 -0.9757 0.0000
vn -0.1015 -0.9948 0.0000
vn 0.0000 -1.0000 0.0000
vn -0.4916 0.8708 0.0000
vn -0.5844 0.8115 0.0000
vn -0.2615 0.9652 0.0000
vn -0.0000 1.0000 0.0000
vn 0.2615 0.9652 0.0000
vn -0.0000 0.2678 -0.9635
vn -0.1196 0.2575 -0.9588
vn -0.1232 0.2567 -0.9586
vn -0.0000 0.2678 0.9635
vn 0.1196 0.2575 0.9588
vn 0.1232 0.2568 0.9586
vn 0.4916 0.8708 0.0000
vn 0.5844 0.8115 0.0000
vn 0.2398 0.2429 -0.9400
vn 0.2293 0.2434 -0.9424
vn 0.3066 0.2385 -0.9215
vn 0.0794 -0.5663 -0.8204
vn 0.0811 -0.5687 -0.8186
vn 0.1045 -0.6007 -0.7926
vn -0.0794 -0.5663 0.8204
vn -0.0811 -0.5687 0.8186
vn -0.1045 -0.6007 0.7926
vn -0.2398 0.2429 0.9400
vn -0.2293 0.2434 0.9424
vn -0.3066 0.2385 0.9215
vn 0.1862 -0.9825 0.0000
vn 0.2191 -0.9757 0.0000
vn 0.1015 -0.9948 0.0000
vn -0.1196 0.2575 0.9588
vn -0.1232 0.2567 0.9586
vn 0.0270 -0.5195 -0.8541
vn 0.0236 -0.5175 -0.8554
vn -0.0794 -0.5663 -0.8204
vn -0.0811 -0.5687 -0.8186
vn -0.0236 -0.5175 -0.8554
vn -0.0270 -0.5195 -0.8541
vn -0.0270 -0.5195 0.8541
vn -0.0236 -0.5175 0.8554
vn 0.0000 -0.5000 0.8660
vn 0.0270 -0.5195 0.8541
vn 0.0236 -0.5175 0.8554
vn 0.0000 -0.5000 -0.8660
vn 0.2398 0.2429 0.9400
vn 0.2293 0.2434 0.9424
vn 0.0794 -0.5663 0.8204
vn 0.0811 -0.5687 0.8186
vn 0.1232 0.2568 -0.9586
vn 0.1196 0.2575 -0.9588
vn -0.2398 0.2429 -0.9400
vn -0.2293 0.2434 -0.9424
vn -0.3066 0.2385 -0.9215
vn 0.1045 -0.6007 0.7926
vn 0.3066 0.2385 0.9215
vn -0.1045 -0.6007 -0.7926
vn -0.6575 -0.0157 -0.7533
vn -0.6586 -0.0312 -0.7518
vn -0.0000 -0.0285 -0.9996
vn 0.0000 -0.0143 -0.9999
vn -0.0775 0.9935 -0.0837
vn -0.1038 0.9946 -0.0000
vn 0.0000 0.9921 -0.1253
vn 0.0775 0.9935 -0.0837
vn 0.1038 0.9946 -0.0000
vn 0.0775 0.9935 0.0837
vn 0.6575 -0.0157 -0.7533
vn 0.6586 -0.0312 -0.7518
vn 0.8937 -0.0308 -0.4477
vn 0.8940 -0.0155 -0.4478
vn 0.0000 0.9921 0.1253
vn 0.1742 -0.9837 -0.0441
vn 0.1298 -0.9816 0.1403
vn 0.0000 -0.9994 -0.0349
vn -0.6665 0.0238 -0.7451
vn -0.6578 0.0119 -0.7531
vn 0.0000 0.0109 -0.9999
vn -0.0000 0.0218 -0.9998
vn -0.8943 0.0235 -0.4468
vn -0.8943 0.0118 -0.4474
vn -0.8940 -0.0155 -0.4478
vn -0.6585 0.0237 0.7522
vn -0.6576 0.0119 0.7533
vn -0.8940 0.0117 0.4479
vn -0.8938 0.0234 0.4478
vn -0.6575 -0.0157 0.7533
vn -0.8940 -0.0155 0.4478
vn -0.0000 0.0216 0.9998
vn 0.0000 0.0108 0.9999
vn 0.0000 -0.0143 0.9999
vn 0.6585 0.0237 0.7522
vn 0.6576 0.0119 0.7533
vn 0.6575 -0.0157 0.7533
vn 0.8938 0.0234 0.4478
vn 0.8940 0.0117 0.4479
vn 0.8940 -0.0155 0.4478
vn 0.6665 0.0238 -0.7451
vn 0.6578 0.0119 -0.7531
vn 0.8943 0.0118 -0.4474
vn 0.8943 0.0234 -0.4468
vn -0.6586 -0.0312 0.7518
vn -0.8937 -0.0308 0.4477
vn -0.1298 -0.9816 0.1403
vn -0.1742 -0.9837 -0.0441
vn -0.0000 -0.9778 0.2094
vn -0.1367 -0.9672 -0.2139
vn 0.1367 -0.9672 -0.2139
vn 0.0000 -0.9637 -0.2671
vn 0.8937 -0.0308 0.4477
vn 0.6586 -0.0312 0.7518
vn -0.0775 0.9935 0.0837
vn -0.0000 -0.0285 0.9996
vn -0.8937 -0.0308 -0.4477
vn 0.4353 0.7646 -0.4752
vn 0.0000 0.7341 -0.6790
vn 0.4063 0.7612 -0.5055
vn 0.6085 0.7935 0.0000
vn 0.4353 0.7646 0.4752
vn 0.4063 0.7612 0.5056
vn 0.0000 0.7341 0.6790
vn -0.4353 0.7646 0.4752
vn -0.4063 0.7612 0.5056
vn -0.6085 0.7935 0.0000
vn -0.4353 0.7646 -0.4752
vn -0.4063 0.7612 -0.5056
usemtl texture
s 1
f 21/1/1 19/2/1 7/3/2 8/4/2
s 2
f 20/5/3 22/6/3 2/7/4 4/8/4
s 3
f 14/9/5 16/10/5 5/11/6 6/12/6
s 4
f 15/13/7 13/14/7 1/15/8 3/16/8
s 5
f 23/17/9 17/18/9 3/16/8 1/15/8
s 6
f 30/19/10 31/20/11 15/21/12 3/22/10
s 7
f 25/23/13 28/24/14 23/25/15 1/26/13
s 8
f 18/27/16 24/28/16 8/29/17 7/30/17
s 9
f 33/31/18 18/32/19 7/3/20
s 10
f 32/33/21 9/34/22 5/35/23
s 11
f 29/36/24 21/37/25 8/4/26
s 12
f 27/38/27 14/39/28 6/40/29
s 13
f 9/34/30 12/41/30 6/42/31 5/35/31
s 14
f 10/43/32 11/44/32 12/41/30 9/34/30
s 15
f 26/45/33 13/46/34 14/39/28 27/38/27
s 16
f 13/14/7 15/13/7 16/10/5 14/9/5
s 17
f 31/47/35 10/48/36 9/34/22 32/33/21
s 18
f 33/49/37 19/50/38 20/51/39 34/52/40
s 19
f 22/6/3 20/5/3 19/2/1 21/1/1
s 20
f 17/18/9 23/17/9 24/28/16 18/27/16
s 21
f 28/53/41 22/54/42 21/37/25 29/36/24
s 22
f 25/55/43 26/56/44 11/57/45 2/58/43
s 23
f 30/59/46 34/52/40 20/51/39 4/60/46
s 24
f 11/44/32 10/43/32 4/8/4 2/7/4
s 25
f 1/26/13 13/46/34 26/45/33 25/23/13
s 26
f 23/25/15 28/24/14 29/61/47 24/62/48
s 27
f 11/57/45 26/56/44 27/63/49 12/64/50
s 28
f 2/58/43 22/54/42 28/53/41 25/55/43
s 29
f 3/22/10 17/65/51 34/66/52 30/19/10
s 30
f 18/32/19 33/31/18 34/66/52 17/65/51
s 31
f 15/21/12 31/20/11 32/67/53 16/68/54
s 32
f 4/60/46 10/48/36 31/47/35 30/59/46
s 33
f 16/68/54 32/67/53 5/35/55
s 34
f 12/64/50 27/63/49 6/69/56
s 35
f 24/62/48 29/61/47 8/4/57
s 36
f 19/50/38 33/49/37 7/3/58
s 37
f 57/70/59 76/71/60 61/72/61 44/73/62
s 38
f 67/74/63 65/75/64 60/76/8
s 39
f 69/77/65 67/74/63 60/76/8
s 40
f 71/78/66 69/77/65 60/76/8
s 41
f 73/79/67 71/78/66 60/76/8
s 42
f 75/80/68 73/79/67 60/76/8
s 43
f 45/81/69 64/82/70 66/83/71 47/84/72
s 44
f 62/85/73 75/80/68 60/76/8
s 45
f 37/86/74 38/87/75 59/88/76
s 46
f 42/89/77 58/90/78 43/91/79 35/92/80
s 47
f 58/90/78 57/70/59 44/73/62 43/91/79
s 48
f 41/93/81 56/94/82 58/95/78 42/89/77
s 49
f 56/94/82 55/96/83 57/97/59 58/95/78
s 50
f 40/98/84 54/99/85 56/94/86 41/93/87
s 51
f 54/99/85 53/100/88 55/96/89 56/94/86
s 52
f 39/101/90 52/102/91 54/103/85 40/98/84
s 53
f 52/102/91 51/104/92 53/105/88 54/103/85
s 54
f 38/106/93 50/107/94 52/102/91 39/101/90
s 55
f 50/107/94 49/108/95 51/104/92 52/102/91
s 56
f 37/109/96 48/110/97 50/111/94 38/106/93
s 57
f 48/110/97 47/84/98 49/112/95 50/111/94
s 58
f 36/113/99 46/114/100 48/110/101 37/109/102
s 59
f 46/114/100 45/81/69 47/84/72 48/110/101
s 60
f 35/92/80 43/91/79 46/115/100 36/113/99
s 61
f 43/91/79 44/73/62 45/116/69 46/115/100
s 62
f 53/100/88 72/117/103 74/118/104 55/96/89
s 63
f 40/119/105 41/120/106 59/88/76
s 64
f 38/87/75 39/121/107 59/88/76
s 65
f 41/120/106 42/122/108 59/88/76
s 66
f 36/123/109 37/86/74 59/88/76
s 67
f 39/121/107 40/119/105 59/88/76
s 68
f 42/122/108 35/124/110 59/88/76
s 69
f 35/124/110 36/123/109 59/88/76
s 70
f 47/84/98 66/83/111 68/125/112 49/112/95
s 71
f 44/73/62 61/72/61 64/82/70 45/116/69
s 72
f 65/75/64 63/126/113 60/76/8
s 73
f 51/104/92 70/127/114 72/117/103 53/105/88
s 74
f 49/108/95 68/125/112 70/127/114 51/104/92
s 75
f 55/96/83 74/118/115 76/71/60 57/97/59
s 76
f 64/128/116 61/129/117 62/130/117 63/131/118
s 77
f 66/132/119 64/128/116 63/131/118 65/133/119
s 78
f 68/134/120 66/132/119 65/133/119 67/135/121
s 79
f 70/136/122 68/134/120 67/135/121 69/137/122
s 80
f 72/138/123 70/136/122 69/137/122 71/139/124
s 81
f 74/140/125 72/138/123 71/139/124 73/141/125
s 82
f 76/142/126 74/140/125 73/141/125 75/143/127
s 83
f 61/129/117 76/142/126 75/143/127 62/130/117
s 84
f 63/126/113 62/85/73 60/76/8
