# Blender v2.80 (sub 75) OBJ File: 'Dungeon_Remastered_Export1.0.blend'
# www.blender.org
mtllib rocks_small.mtl
o rocks_small_Cylinder.301
v 0.243266 0.000000 0.703123
v 0.250053 0.192429 0.769625
v -0.396347 0.000000 0.686531
v -0.396347 0.351353 0.686531
v -0.177009 0.000000 -1.087421
v 0.701330 0.000000 -0.718307
v 0.936724 0.000000 0.235195
v 0.700301 0.351353 -0.695296
v -0.174770 0.351353 -0.931003
v 0.827604 0.351353 0.269507
v -1.216083 0.192429 0.315625
v -1.134299 0.000000 0.318808
v -0.961696 0.000000 -0.660463
v -0.961696 0.404324 -0.660463
v -0.184598 0.351279 0.218630
v -0.196148 0.513084 0.215102
v -0.466366 0.351279 -0.094761
v -0.432951 0.537239 -0.100425
v 0.299486 0.351279 -0.609408
v 0.552177 0.351279 -0.118520
v 0.320865 0.351279 0.372598
v 0.544920 0.677629 -0.095325
v 0.271013 0.714174 -0.566013
v 0.297393 0.638057 0.371344
v -0.632686 0.473740 -0.594391
v -0.647825 0.351279 -0.591863
v -0.161526 0.351279 -0.845736
v -0.152752 0.731986 -0.779598
v 0.282468 0.465391 0.155829
v 0.301049 0.577923 0.175224
v -0.209536 0.515595 0.134001
v -0.187272 0.750823 0.105809
v -0.187470 0.422396 -0.544910
v 0.234645 0.381599 -0.494591
v 0.385038 0.411662 -0.182408
v 0.296735 0.638148 -0.543405
v -0.150719 0.810671 -0.591444
v 0.452724 0.813385 -0.214301
v -0.453259 0.458930 -0.327391
v -0.318998 0.713180 -0.350578
v 0.487577 0.327352 -0.355294
v 0.542434 0.327352 -0.375777
v 0.569401 0.386068 -0.373645
v 0.548272 0.327352 -0.506560
v 0.454772 0.327352 -0.492910
v 0.444171 0.327352 -0.394223
v 0.530893 0.380915 -0.463386
v 0.474663 0.402086 -0.391812
v 0.624695 0.327352 -0.401417
v 0.622826 0.327352 -0.460503
v -0.289568 0.312073 0.169670
v -0.377356 0.324221 0.126473
v -0.390496 0.424911 0.087277
v -0.540896 0.355668 0.270868
v -0.416761 0.339948 0.369123
v -0.286213 0.315388 0.267725
v -0.455064 0.432235 0.238561
v -0.298886 0.443108 0.222862
v -0.502913 0.341247 0.055820
v -0.571605 0.354852 0.126553
v -0.861495 0.351284 -0.345686
v -0.767750 0.351284 -0.250688
v -0.720664 0.419169 -0.277823
v -0.597742 0.351284 -0.496546
v -0.750199 0.351284 -0.584790
v -0.879892 0.351284 -0.452814
v -0.708544 0.437689 -0.495729
v -0.557950 0.419634 -0.459584
v -0.838113 0.437689 -0.414006
v -0.607708 0.351284 -0.254432
v -0.542067 0.351284 -0.342956
v -0.166023 0.365252 0.319899
v -0.097769 0.372563 0.362394
v -0.214567 0.407933 0.556506
v -0.250009 0.396023 0.434481
v -0.214539 0.298114 0.566602
v -0.319042 0.291623 0.480514
v -0.269809 0.329085 0.367265
v -0.123304 0.428672 0.461241
v -0.926008 0.319645 0.053988
v -0.931471 0.411998 0.065109
v -0.861938 0.307487 0.186426
v -0.867401 0.399840 0.197547
v -0.552408 0.328280 0.165797
v -0.614981 0.349596 -0.041960
v -0.796677 0.346360 -0.104343
v -0.627596 0.569939 -0.006113
v -0.565374 0.547478 0.192191
v -0.805244 0.498296 -0.076733
v -0.742624 0.388193 0.355565
v -0.737162 0.295840 0.344444
v -0.596477 0.306471 0.325267
v -0.642409 0.482132 0.318104
v -0.125635 0.341111 0.472309
v -0.140385 0.320510 0.548159
v 0.508862 0.312681 0.009842
v 0.502019 0.312681 0.067997
v 0.487803 0.417448 0.091011
v 0.615690 0.312681 0.132938
v 0.646263 0.312681 0.043531
v 0.563320 0.312681 -0.010985
v 0.585225 0.408254 0.097756
v 0.547246 0.446031 0.015038
v 0.487247 0.312681 0.152885
v 0.540660 0.312681 0.178216
vt 0.919261 0.843179
vt 0.942484 0.874429
vt 0.942484 0.791913
vt 0.942484 0.760663
vt 0.970204 0.788468
vt 0.961034 0.788468
vt 0.970204 0.843179
vt 0.895254 0.819718
vt 0.919261 0.819718
vt 0.895254 0.788468
vt 0.934098 0.760663
vt 0.904424 0.788468
vt 0.942484 0.952554
vt 0.919261 0.921304
vt 0.895254 0.954300
vt 0.934098 0.985550
vt 0.904424 0.954300
vt 0.904424 0.819718
vt 0.904424 0.876175
vt 0.895254 0.876175
vt 0.934098 0.791913
vt 0.934098 0.907425
vt 0.970204 0.811929
vt 0.961034 0.819718
vt 0.961034 0.876175
vt 0.961034 0.954300
vt 0.970204 0.921304
vt 0.919261 0.788468
vt 0.970204 0.819718
vt 0.919261 0.843179
vt 0.942484 0.874429
vt 0.942484 0.791913
vt 0.942484 0.760663
vt 0.970204 0.788468
vt 0.961034 0.788468
vt 0.970204 0.843179
vt 0.895254 0.819718
vt 0.919261 0.819718
vt 0.895254 0.788468
vt 0.934098 0.760663
vt 0.904424 0.788468
vt 0.942484 0.952554
vt 0.919261 0.921304
vt 0.895254 0.954300
vt 0.934098 0.985550
vt 0.904424 0.954300
vt 0.904424 0.819718
vt 0.904424 0.876175
vt 0.895254 0.876175
vt 0.934098 0.791913
vt 0.934098 0.907425
vt 0.970204 0.811929
vt 0.961034 0.819718
vt 0.961034 0.876175
vt 0.961034 0.954300
vt 0.970204 0.921304
vt 0.919261 0.788468
vt 0.970204 0.819718
vt 0.919261 0.843179
vt 0.942484 0.874429
vt 0.942484 0.791913
vt 0.961034 0.788468
vt 0.961034 0.876175
vt 0.895254 0.819718
vt 0.919261 0.819718
vt 0.942484 0.952554
vt 0.919261 0.921304
vt 0.895254 0.954300
vt 0.934098 0.985550
vt 0.904424 0.954300
vt 0.904424 0.819718
vt 0.904424 0.876175
vt 0.895254 0.876175
vt 0.934098 0.791913
vt 0.934098 0.907425
vt 0.961034 0.954300
vt 0.961034 0.819718
vt 0.920955 0.843179
vt 0.939037 0.791913
vt 0.939037 0.874429
vt 0.960620 0.843179
vt 0.939037 0.952554
vt 0.902263 0.954300
vt 0.920955 0.921304
vt 0.909403 0.819718
vt 0.902263 0.876175
vt 0.909403 0.876175
vt 0.932507 0.907425
vt 0.932507 0.791913
vt 0.902263 0.819718
vt 0.953480 0.954300
vt 0.932507 0.985550
vt 0.953480 0.819718
vt 0.960620 0.921304
vt 0.920955 0.843179
vt 0.939037 0.791913
vt 0.939037 0.874429
vt 0.960620 0.843179
vt 0.939037 0.952554
vt 0.902263 0.954300
vt 0.920955 0.921304
vt 0.909403 0.819718
vt 0.902263 0.876175
vt 0.909403 0.876175
vt 0.932507 0.907425
vt 0.932507 0.791913
vt 0.902263 0.819718
vt 0.953480 0.954300
vt 0.932507 0.985550
vt 0.953480 0.819718
vt 0.960620 0.921304
vt 0.920955 0.843179
vt 0.939037 0.791913
vt 0.939037 0.874429
vt 0.960620 0.843179
vt 0.939037 0.952554
vt 0.902263 0.954300
vt 0.920955 0.921304
vt 0.932507 0.985550
vt 0.909403 0.954300
vt 0.909403 0.819718
vt 0.902263 0.876175
vt 0.909403 0.876175
vt 0.932507 0.907425
vt 0.932507 0.791913
vt 0.902263 0.819718
vt 0.953480 0.954300
vt 0.953480 0.819718
vt 0.960620 0.921304
vt 0.939037 0.952554
vt 0.902263 0.954300
vt 0.920955 0.921304
vt 0.932507 0.985550
vt 0.939037 0.791913
vt 0.960620 0.843179
vt 0.939037 0.874429
vt 0.909403 0.819718
vt 0.932507 0.907425
vt 0.932507 0.791913
vt 0.902263 0.819718
vt 0.902263 0.876175
vt 0.920955 0.843179
vt 0.953480 0.954300
vt 0.919680 0.855216
vt 0.937762 0.797353
vt 0.937762 0.850211
vt 0.959345 0.830193
vt 0.900989 0.815164
vt 0.919680 0.815164
vt 0.937762 0.900257
vt 0.900989 0.901375
vt 0.931232 0.921394
vt 0.908128 0.901375
vt 0.908128 0.851330
vt 0.908128 0.815164
vt 0.931232 0.871348
vt 0.931232 0.797353
vt 0.900989 0.851330
vt 0.959345 0.795146
vt 0.952205 0.795146
vt 0.959345 0.810175
vt 0.952205 0.815164
vt 0.952205 0.851330
vt 0.952205 0.901375
vt 0.959345 0.880239
vt 0.959345 0.815164
vt 0.953480 0.819718
vt 0.960620 0.921304
vt 0.909403 0.876175
vt 0.920955 0.843179
vt 0.939037 0.791913
vt 0.939037 0.874429
vt 0.960620 0.843179
vt 0.939037 0.952554
vt 0.902263 0.954300
vt 0.920955 0.921304
vt 0.909403 0.819718
vt 0.902263 0.876175
vt 0.909403 0.876175
vt 0.932507 0.907425
vt 0.932507 0.791913
vt 0.902263 0.819718
vt 0.953480 0.954300
vt 0.932507 0.985550
vt 0.953480 0.819718
vt 0.960620 0.921304
vn -0.0562 -0.2308 0.9714
vn -0.2763 0.0000 0.9611
vn -0.2661 -0.0438 0.9630
vn 0.0000 -1.0000 0.0000
vn -0.4331 -0.1244 0.8927
vn 0.6219 0.0484 0.7816
vn 0.5702 -0.1869 0.8000
vn 0.5348 -0.2928 0.7926
vn -0.0268 0.9921 0.1228
vn 0.1562 0.8749 0.4584
vn 0.0314 0.9952 0.0922
vn 0.0306 0.9995 0.0042
vn 0.0000 1.0000 -0.0000
vn 0.9845 0.0820 -0.1550
vn 0.9913 0.0115 -0.1308
vn 0.9468 0.2454 -0.2083
vn 0.2876 0.1438 -0.9469
vn 0.3587 0.3777 -0.8536
vn 0.3406 0.3124 -0.8868
vn 0.6306 0.1210 0.7666
vn -0.9075 -0.3883 -0.1600
vn -0.9351 -0.3029 -0.1840
vn -0.9688 -0.0506 -0.2425
vn -0.9677 0.0000 -0.2522
vn -0.0287 0.9983 0.0513
vn -0.4205 0.2764 -0.8642
vn -0.4447 0.3667 -0.8172
vn -0.3632 0.1003 -0.9263
vn -0.2502 0.9576 0.1427
vn 0.2596 0.0639 -0.9636
vn -0.3251 0.0000 -0.9457
vn -0.4393 -0.1721 0.8817
vn -0.0245 -0.3258 0.9451
vn 0.9233 0.3090 -0.2279
vn -0.7569 0.0129 0.6534
vn -0.8568 0.1688 0.4873
vn -0.8632 0.1419 0.4846
vn -0.9301 0.1334 0.3423
vn -0.2960 -0.0162 0.9550
vn -0.2931 -0.0061 0.9560
vn -0.2914 0.0001 0.9566
vn -0.2661 0.9532 0.1433
vn -0.3249 0.8927 0.3122
vn -0.1606 0.9795 0.1217
vn -0.1102 0.9824 0.1508
vn -0.0064 0.9967 0.0811
vn 0.8907 0.0150 0.4544
vn 0.8838 -0.0136 0.4676
vn 0.8968 0.0451 0.4401
vn 0.8721 0.0805 -0.4827
vn 0.8823 0.1235 -0.4542
vn 0.8770 0.1001 -0.4699
vn -0.2971 -0.0201 0.9546
vn -0.4624 0.0389 -0.8858
vn -0.4530 0.0796 -0.8880
vn -0.4359 0.1456 -0.8881
vn -0.4308 0.1641 -0.8874
vn -0.2137 0.9589 0.1868
vn 0.4511 0.1416 -0.8812
vn 0.4516 0.1408 -0.8810
vn 0.4508 0.1419 -0.8813
vn -0.4521 0.8893 0.0685
vn 0.8649 0.0547 -0.4990
vn 0.4503 0.1427 -0.8814
vn -0.9323 0.1223 0.3403
vn -0.7431 -0.0385 0.6681
vn 0.9021 0.0757 0.4249
vn -0.0700 -0.0843 0.9940
vn -0.0953 0.1273 0.9873
vn -0.0907 0.0871 0.9921
vn -0.8072 0.4600 0.3699
vn -0.9217 0.2390 0.3056
vn -0.8595 0.3751 0.3471
vn -0.9562 0.1224 0.2659
vn 0.9448 -0.1498 0.2915
vn 0.9377 -0.1736 0.3009
vn 0.9266 -0.2071 0.3139
vn 0.2035 0.8008 0.5633
vn 0.3491 0.7484 -0.5640
vn 0.9070 -0.2284 -0.3539
vn 0.9170 -0.2766 -0.2874
vn 0.9053 -0.2222 -0.3621
vn 0.0631 -0.1655 -0.9842
vn 0.1052 -0.1281 -0.9862
vn 0.0780 -0.1524 -0.9852
vn 0.9483 -0.1370 0.2864
vn -0.1593 0.9843 0.0761
vn -0.1975 0.9775 0.0736
vn -0.4419 0.8954 0.0537
vn -0.6357 -0.0323 -0.7713
vn -0.0560 0.9950 0.0825
vn 0.0305 -0.1939 -0.9805
vn -0.8203 0.3955 -0.4130
vn -0.0600 -0.1599 0.9853
vn 0.8925 -0.1831 -0.4123
vn 0.3433 -0.1911 0.9196
vn 0.3247 -0.1828 0.9280
vn 0.3093 -0.1760 0.9345
vn 0.2933 -0.1689 0.9410
vn -0.1013 0.4226 0.9006
vn -0.2446 0.7110 -0.6592
vn -0.3539 0.7840 -0.5099
vn -0.2541 0.7181 -0.6479
vn -0.1155 0.6004 -0.7913
vn -0.6480 0.2411 0.7225
vn 0.4316 0.8861 -0.1692
vn 0.5621 0.7648 -0.3149
vn 0.3803 0.8575 -0.3464
vn 0.3992 0.6504 -0.6462
vn 0.1907 0.9719 -0.1377
vn 0.7224 0.6911 -0.0228
vn -0.9202 0.3787 -0.0989
vn 0.3901 -0.2894 -0.8741
vn 0.4101 -0.2839 -0.8667
vn 0.4264 -0.2793 -0.8604
vn 0.4430 -0.2744 -0.8535
vn 0.7765 0.2836 -0.5627
vn -0.1914 0.7742 0.6034
vn 0.0011 0.8168 0.5770
vn -0.1757 0.7789 0.6021
vn -0.3910 0.6936 0.6050
vn 0.9956 0.0858 -0.0370
vn -0.2780 0.9325 -0.2306
vn -0.4900 0.8434 -0.2202
vn -0.3736 0.9249 -0.0704
vn -0.6323 0.7637 0.1302
vn -0.0773 0.9937 -0.0811
vn -0.4032 0.7428 -0.5345
vn 0.6185 0.3143 0.7202
vn -0.5630 0.6042 0.5639
vn -0.5628 0.6123 0.5553
vn -0.5629 0.6075 0.5604
vn 0.0218 0.3580 0.9335
vn -0.5631 0.6009 0.5673
vn 0.0793 0.9924 0.0945
vn 0.0857 0.9870 0.1359
vn 0.0785 0.9929 0.0890
vn -0.4528 0.6797 -0.5770
vn -0.5086 0.6340 -0.5826
vn -0.3537 0.7486 -0.5608
vn 0.4933 0.1737 -0.8523
vn -0.9149 0.3718 0.1571
vn 0.4445 0.8171 0.3671
vn 0.4467 0.8093 0.3813
vn 0.4502 0.7958 0.4051
vn 0.8837 -0.3412 -0.3203
vn 0.0755 0.9947 0.0701
vn 0.4371 0.8390 0.3241
vn 0.2516 0.6332 -0.7320
vn -0.5954 0.5507 -0.5851
vn 0.5973 0.4430 0.6686
vn -0.2952 0.9017 -0.3159
vn -0.2448 0.9693 -0.0235
vn -0.1288 0.9588 -0.2533
vn 0.9773 0.0007 0.2117
vn 0.9689 0.0055 0.2472
vn 0.9734 0.0031 0.2292
vn -0.8372 0.5466 -0.0158
vn -0.8342 0.5514 -0.0004
vn -0.8556 0.4703 -0.2164
vn -0.6368 0.0704 0.7678
vn 0.2149 0.0895 0.9725
vn -0.1553 0.8717 -0.4647
vn -0.8990 -0.1044 0.4253
vn -0.8463 -0.1128 0.5207
vn -0.7834 -0.1198 0.6098
vn -0.7695 0.0608 -0.6357
vn -0.7766 0.0298 -0.6293
vn -0.7729 0.0464 -0.6328
vn -0.4249 0.8645 0.2683
vn -0.4103 0.8824 0.2304
vn -0.3410 0.9067 0.2482
vn -0.4302 0.8771 0.2137
vn -0.4429 0.8647 0.2369
vn 0.3081 0.1776 -0.9346
vn 0.3088 0.1771 -0.9345
vn 0.3173 0.1700 -0.9330
vn 0.9544 0.0955 -0.2829
vn 0.9543 0.0958 -0.2831
vn 0.9561 0.0901 -0.2787
vn -0.7666 0.0727 -0.6380
vn 0.1424 -0.1100 0.9837
vn 0.2125 0.0178 0.9770
vn 0.2084 0.0101 0.9780
vn 0.2587 0.1068 0.9600
vn -0.4597 0.8416 0.2834
vn 0.8865 0.1307 0.4439
vn 0.9090 0.1054 0.4033
vn 0.9627 0.0245 0.2694
vn -0.5112 0.7277 0.4573
vn 0.9524 0.1013 -0.2874
vn 0.7741 0.2265 0.5912
vn 0.2969 0.1869 -0.9364
vn -0.4860 0.6867 -0.5406
vn 0.1855 0.8744 -0.4484
vn -0.7858 0.5946 0.1702
vn 0.9817 -0.0021 0.1903
vn -0.9873 -0.1085 -0.1162
vn -0.9849 -0.1030 -0.1394
vn -0.9835 -0.1003 -0.1508
vn -0.9807 -0.0956 -0.1707
vn -0.8059 0.2528 -0.5354
vn 0.8690 0.4735 0.1436
vn 0.8091 0.5778 -0.1076
vn 0.8491 0.5275 0.0260
vn 0.8722 0.3878 0.2982
vn -0.3538 0.1379 -0.9251
vn -0.0346 0.7621 0.6466
vn 0.0325 0.5433 0.8389
vn 0.1374 0.7257 0.6742
vn 0.4658 0.4326 0.7719
vn 0.0595 0.9181 0.3919
vn -0.3777 0.4723 0.7964
vn 0.5354 0.2235 -0.8145
usemtl texture
s 1
f 2/1/1 4/2/2 3/3/3
s 2
f 3/4/4 12/5/4 13/6/4
s 3
f 3/3/3 4/2/2 11/7/5
s 4
f 7/8/6 2/1/7 1/9/8
s 5
f 7/10/4 5/11/4 6/12/4
s 6
f 4/13/9 2/14/10 10/15/11
s 7
f 3/4/4 5/11/4 7/10/4
s 8
f 9/16/12 10/15/11 8/17/13
s 9
f 6/18/14 8/19/15 10/20/16
s 10
f 6/18/17 5/21/18 9/22/19
s 11
f 2/1/7 7/8/6 10/20/20
s 12
f 12/5/21 11/23/22 13/6/23
s 13
f 13/24/23 11/7/22 14/25/24
s 14
f 4/13/9 9/16/12 14/26/25
s 15
f 9/22/26 5/21/27 13/24/28
s 16
f 9/16/12 4/13/9 10/15/11
s 17
f 11/27/29 4/13/9 14/26/25
s 18
f 5/11/4 3/4/4 13/6/4
s 19
f 8/19/30 6/18/17 9/22/19
s 20
f 14/25/31 9/22/26 13/24/28
s 21
f 1/28/4 3/4/4 7/10/4
s 22
f 12/29/32 3/3/3 11/7/5
s 23
f 1/9/33 2/1/1 3/3/3
s 24
f 7/8/34 6/18/14 10/20/16
s 25
f 16/30/35 18/31/36 17/32/37
s 26
f 17/33/4 26/34/4 27/35/4
s 27
f 17/32/37 18/31/36 25/36/38
s 28
f 21/37/39 16/30/40 15/38/41
s 29
f 21/39/4 19/40/4 20/41/4
s 30
f 18/42/42 16/43/43 24/44/44
s 31
f 17/33/4 19/40/4 21/39/4
s 32
f 23/45/45 24/44/44 22/46/46
s 33
f 20/47/47 22/48/48 24/49/49
s 34
f 20/47/50 19/50/51 23/51/52
s 35
f 16/30/40 21/37/39 24/49/53
s 36
f 26/34/54 25/52/55 27/35/56
s 37
f 27/53/56 25/36/55 28/54/57
s 38
f 18/42/42 23/45/45 28/55/58
s 39
f 23/51/59 19/50/60 27/53/61
s 40
f 23/45/45 18/42/42 24/44/44
s 41
f 25/56/62 18/42/42 28/55/58
s 42
f 19/40/4 17/33/4 27/35/4
s 43
f 22/48/63 20/47/50 23/51/52
s 44
f 28/54/64 23/51/59 27/53/61
s 45
f 15/57/4 17/33/4 21/39/4
s 46
f 26/58/65 17/32/37 25/36/38
s 47
f 15/38/66 16/30/35 17/32/37
s 48
f 21/37/67 20/47/47 24/49/49
s 49
f 30/59/68 32/60/69 31/61/70
s 50
f 39/62/71 31/61/72 40/63/73
s 51
f 31/61/72 32/60/74 40/63/73
s 52
f 35/64/75 30/59/76 29/65/77
s 53
f 32/66/78 30/67/78 38/68/78
s 54
f 37/69/79 38/68/79 36/70/79
s 55
f 34/71/80 36/72/81 38/73/82
s 56
f 34/71/83 33/74/84 37/75/85
s 57
f 30/59/76 35/64/75 38/73/86
s 58
f 32/66/87 37/69/88 40/76/89
s 59
f 37/75/90 33/74/90 39/77/90
s 60
f 37/69/88 32/66/87 38/68/91
s 61
f 36/72/92 34/71/83 37/75/85
s 62
f 40/63/93 37/75/93 39/77/93
s 63
f 29/65/94 30/59/68 31/61/70
s 64
f 35/64/95 34/71/80 38/73/82
s 65
f 41/78/96 42/79/97 43/80/98
s 66
f 42/79/97 49/81/99 43/80/98
s 67
f 43/82/100 48/83/100 41/84/100
s 68
f 45/85/101 48/86/102 47/87/103
s 69
f 45/85/101 47/88/103 44/89/104
s 70
f 41/78/105 48/86/105 46/90/105
s 71
f 43/82/106 50/91/107 47/92/108
s 72
f 47/88/108 50/93/107 44/89/109
s 73
f 47/92/108 48/83/110 43/82/106
s 74
f 49/94/111 50/91/107 43/82/106
s 75
f 46/90/112 48/86/112 45/85/112
s 76
f 51/95/113 52/96/114 53/97/115
s 77
f 52/96/114 59/98/116 53/97/115
s 78
f 53/99/117 58/100/117 51/101/117
s 79
f 55/102/118 58/103/119 57/104/120
s 80
f 55/102/118 57/105/120 54/106/121
s 81
f 51/95/122 58/103/122 56/107/122
s 82
f 53/99/123 60/108/124 57/109/125
s 83
f 57/105/125 60/110/124 54/106/126
s 84
f 57/109/125 58/100/127 53/99/123
s 85
f 59/111/128 60/108/124 53/99/123
s 86
f 56/107/129 58/103/129 55/102/129
s 87
f 61/112/130 62/113/131 63/114/132
s 88
f 62/113/133 70/115/133 63/114/133
s 89
f 63/116/132 69/117/134 61/118/130
s 90
f 68/119/135 67/120/136 69/117/137
s 91
f 65/121/138 69/122/139 67/123/140
s 92
f 65/121/141 68/124/141 64/125/141
s 93
f 61/112/142 69/122/142 66/126/142
s 94
f 63/116/143 71/127/144 68/119/145
s 95
f 68/124/146 71/128/146 64/125/146
s 96
f 68/119/135 69/117/137 63/116/147
s 97
f 70/129/148 71/127/144 63/116/143
s 98
f 67/123/149 68/124/149 65/121/149
s 99
f 66/126/150 69/122/139 65/121/138
s 100
f 79/130/151 74/131/151 95/132/151
s 101
f 75/133/152 74/131/153 79/130/154
s 102
f 94/134/155 73/135/156 79/136/157
s 103
f 77/137/158 75/138/159 78/139/160
s 104
f 76/140/161 74/141/161 77/137/161
s 105
f 95/142/162 74/141/162 76/140/162
s 106
f 79/130/154 72/143/163 75/133/152
s 107
f 81/144/164 82/145/165 83/146/165
s 108
f 82/145/165 90/147/166 83/146/165
s 109
f 86/148/167 80/149/168 81/144/169
s 110
f 83/150/170 89/151/171 81/144/172
s 111
f 88/152/173 87/153/174 89/151/171
s 112
f 86/148/175 87/154/176 85/155/177
s 113
f 85/155/178 88/156/179 84/157/180
s 114
f 81/144/169 89/158/181 86/148/167
s 115
f 91/159/182 92/160/183 90/161/184
s 116
f 92/162/183 93/163/185 90/147/184
s 117
f 83/150/170 93/164/186 88/152/173
s 118
f 88/156/187 92/162/188 84/157/189
s 119
f 88/152/173 89/151/171 83/150/170
s 120
f 90/165/190 93/164/186 83/150/170
s 121
f 87/154/191 88/156/179 85/155/178
s 122
f 93/163/192 92/162/188 88/156/187
s 123
f 91/166/166 90/147/166 82/145/165
s 124
f 80/149/164 82/145/165 81/144/164
s 125
f 89/158/193 87/154/176 86/148/175
s 126
f 75/138/152 72/167/163 78/139/194
s 127
f 73/168/195 72/143/163 79/130/154
s 128
f 77/137/158 74/141/196 75/169/159
s 129
f 95/142/197 94/134/155 79/136/157
s 130
f 96/170/198 97/171/199 98/172/200
s 131
f 97/171/199 104/173/201 98/172/200
s 132
f 98/174/202 103/175/202 96/176/202
s 133
f 100/177/203 103/178/204 102/179/205
s 134
f 100/177/203 102/180/205 99/181/206
s 135
f 96/170/207 103/178/207 101/182/207
s 136
f 98/174/208 105/183/209 102/184/210
s 137
f 102/180/210 105/185/209 99/181/211
s 138
f 102/184/210 103/175/212 98/174/208
s 139
f 104/186/213 105/183/209 98/174/208
s 140
f 101/182/214 103/178/214 100/177/214
