# Blender v2.80 (sub 75) OBJ File: 'Dungeon_Remastered_Export1.0.blend'
# www.blender.org
mtllib rocks.mtl
o rocks_Cylinder.359
v 0.144186 0.000000 0.953784
v -0.348731 0.846932 0.754768
v -0.307213 0.000000 -0.553081
v 0.445410 0.000000 -0.384354
v 0.461852 0.000000 0.413710
v 0.373591 0.670797 -0.384354
v -0.379351 0.627261 -0.553081
v 0.373591 0.670797 0.413710
v -0.928175 0.000000 0.497018
v -0.931437 0.000000 -0.231025
v -0.978351 0.447417 -0.231025
v -0.368985 1.556177 0.499334
v -0.349599 1.485784 -0.553081
v 0.403342 1.529320 -0.384354
v 0.403342 1.529320 0.413710
v -0.950553 0.939657 0.241583
v -0.948600 1.305940 -0.231025
v 0.119277 1.265588 0.698349
v -0.092663 0.000000 1.213621
v -0.637262 0.000000 1.244453
v -0.569228 0.627240 1.124922
v -0.930710 0.000000 0.925929
v -0.397235 1.270631 0.712278
v -0.102297 0.000000 -1.316019
v -0.107268 0.185488 -1.365022
v 0.448335 0.000000 -1.293962
v 0.448334 0.185488 -1.293962
v 0.236225 0.000000 -0.108002
v -0.454633 0.000000 -0.318875
v -0.705678 0.000000 -0.982638
v -0.514308 0.392291 -0.294803
v 0.236224 0.392291 -0.108002
v -0.746235 0.392291 -1.008601
v 1.149431 0.185488 -1.008601
v 1.079041 0.000000 -1.012202
v 0.917506 0.000000 -0.294803
v 0.917504 0.392291 -0.294803
v -0.435648 0.221290 -0.820159
v -0.464966 0.392343 -0.849635
v 0.065806 0.171091 -1.224389
v 0.080085 0.537870 -1.233614
v 0.626273 0.170638 -0.528912
v 0.168867 0.210885 -0.213120
v -0.246143 0.234306 -0.394990
v 0.163157 0.624503 -0.173972
v 0.649842 0.776054 -0.544140
v -0.264746 0.865330 -0.401497
v 0.699497 0.112317 -0.970753
v 0.601104 0.536508 -0.895135
v -0.424091 0.198815 0.307865
v -0.451499 0.285489 0.341415
v 0.100688 0.000000 0.173554
v 0.010032 0.451649 0.289198
v 0.811242 0.000000 0.777336
v 0.149170 0.000000 1.310907
v -0.368558 0.000000 0.887959
v 0.103505 0.212572 1.371806
v 0.641000 0.694303 0.990400
v -0.414222 0.212572 0.948857
v 0.588599 0.745224 0.003423
v 0.616007 0.658551 -0.030127
v 0.973592 0.641231 0.306741
v 0.866598 0.979581 0.437711
v 0.528415 0.111327 0.671860
v 0.528415 0.170910 0.671860
v 0.765598 0.000000 0.544130
v 0.768843 0.170910 0.544130
v 1.201698 0.000000 0.916417
v 0.880759 0.000000 1.158626
v 0.543214 0.000000 1.051682
v 0.894809 0.346955 1.145399
v 1.204942 0.343924 0.916417
v 0.556996 0.253650 1.038456
v 1.127341 0.141118 0.445035
v 0.850058 0.000000 -0.531470
v 1.314787 0.111327 0.628925
v 1.314787 0.343924 0.628925
v -1.128728 0.475755 -0.186010
v -0.601333 0.000000 0.051570
v -0.729245 0.777217 -0.148515
v -0.614772 0.000000 0.734350
v -1.183629 0.000000 0.606216
v -1.183629 0.000000 0.116594
v -1.420314 0.352081 0.606216
v -1.003984 0.821839 0.734350
v -1.525973 0.583046 0.116594
v -0.443888 0.789047 0.247310
v -0.218182 0.227465 0.606216
v -0.537276 1.016245 0.541097
v 0.868252 0.118109 -0.523156
v 1.243721 0.000000 -0.034453
v 1.218656 0.252554 -0.016585
v 0.554400 0.000000 0.511362
v 0.247418 0.000000 0.058451
v 0.429945 0.000000 -0.348525
v 0.239083 0.332590 0.051757
v 0.577192 0.472600 0.504299
v 0.452667 0.555078 -0.341743
v 0.988703 0.000000 0.587172
v 0.901833 0.251296 0.462058
vt 0.968567 0.825856
vt 0.968567 0.825856
vt 0.940847 0.841642
vt 0.959397 0.842524
vt 0.961419 0.874475
vt 0.893616 0.842524
vt 0.893616 0.842524
vt 0.910475 0.874475
vt 0.902786 0.814004
vt 0.902786 0.842524
vt 0.932460 0.799959
vt 0.932460 0.858310
vt 0.917623 0.825856
vt 0.893616 0.814004
vt 0.959397 0.814004
vt 0.959397 0.842524
vt 0.902786 0.842524
vt 0.940847 0.841642
vt 0.940847 0.885337
vt 0.893616 0.881989
vt 0.932460 0.922419
vt 0.893616 0.906633
vt 0.902786 0.906633
vt 0.940847 0.909981
vt 0.959397 0.906633
vt 0.933699 0.874475
vt 0.959397 0.881989
vt 0.932460 0.858310
vt 0.917623 0.825856
vt 0.940847 0.799959
vt 0.919261 0.836097
vt 0.942484 0.860740
vt 0.942484 0.795669
vt 0.970204 0.836097
vt 0.895254 0.817595
vt 0.919261 0.817595
vt 0.942484 0.922348
vt 0.919261 0.897705
vt 0.895254 0.923725
vt 0.934098 0.948368
vt 0.904424 0.923725
vt 0.904424 0.817595
vt 0.904424 0.862117
vt 0.895254 0.862117
vt 0.934098 0.795669
vt 0.934098 0.886760
vt 0.970204 0.792952
vt 0.970204 0.811453
vt 0.961034 0.792952
vt 0.961034 0.817595
vt 0.961034 0.862117
vt 0.961034 0.923725
vt 0.970204 0.897705
vt 0.970204 0.817595
vt 0.919261 0.836097
vt 0.942484 0.860740
vt 0.942484 0.795669
vt 0.961034 0.792952
vt 0.961034 0.862117
vt 0.895254 0.817595
vt 0.919261 0.817595
vt 0.942484 0.922348
vt 0.919261 0.897705
vt 0.895254 0.923725
vt 0.934098 0.948368
vt 0.904424 0.923725
vt 0.904424 0.817595
vt 0.904424 0.862117
vt 0.895254 0.862117
vt 0.934098 0.795669
vt 0.934098 0.886760
vt 0.961034 0.923725
vt 0.961034 0.817595
vt 0.919261 0.866901
vt 0.942484 0.860740
vt 0.942484 0.795669
vt 0.942484 0.771026
vt 0.970204 0.792952
vt 0.961034 0.792952
vt 0.970204 0.836097
vt 0.895254 0.817595
vt 0.919261 0.817595
vt 0.942484 0.922348
vt 0.895254 0.923725
vt 0.934098 0.948368
vt 0.904424 0.923725
vt 0.904424 0.817595
vt 0.904424 0.862117
vt 0.895254 0.862117
vt 0.934098 0.795669
vt 0.934098 0.886760
vt 0.970204 0.811453
vt 0.961034 0.817595
vt 0.961034 0.862117
vt 0.961034 0.923725
vt 0.970204 0.897705
vt 0.934098 0.771026
vt 0.919261 0.792952
vt 0.895254 0.792952
vt 0.970204 0.817595
vt 0.919261 0.866901
vt 0.942484 0.860740
vt 0.942484 0.795669
vt 0.942484 0.771026
vt 0.970204 0.792952
vt 0.961034 0.792952
vt 0.970204 0.836097
vt 0.895254 0.817595
vt 0.919261 0.817595
vt 0.942484 0.922348
vt 0.895254 0.923725
vt 0.934098 0.948368
vt 0.904424 0.923725
vt 0.904424 0.817595
vt 0.904424 0.862117
vt 0.934098 0.795669
vt 0.934098 0.886760
vt 0.895254 0.862117
vt 0.961034 0.792952
vt 0.942484 0.795669
vt 0.961034 0.862117
vt 0.961034 0.817595
vt 0.961034 0.862117
vt 0.961034 0.923725
vt 0.970204 0.897705
vt 0.934098 0.771026
vt 0.919261 0.792952
vt 0.895254 0.792952
vt 0.919261 0.836097
vt 0.942484 0.860740
vt 0.942484 0.771026
vt 0.970204 0.792952
vt 0.961034 0.792952
vt 0.942484 0.922348
vt 0.919261 0.866901
vt 0.895254 0.923725
vt 0.934098 0.948368
vt 0.904424 0.923725
vt 0.895254 0.817595
vt 0.904424 0.817595
vt 0.904424 0.862117
vt 0.895254 0.862117
vt 0.934098 0.795669
vt 0.934098 0.886760
vt 0.961034 0.817595
vt 0.970204 0.836097
vt 0.961034 0.862117
vt 0.961034 0.923725
vt 0.970204 0.897705
vt 0.934098 0.771026
vt 0.919261 0.792952
vt 0.895254 0.792952
vt 0.942484 0.795669
vt 0.942484 0.839197
vt 0.895254 0.817595
vt 0.919261 0.817595
vt 0.942484 0.922348
vt 0.919261 0.897705
vt 0.895254 0.923725
vt 0.934098 0.948368
vt 0.904424 0.923725
vt 0.904424 0.817595
vt 0.904424 0.862117
vt 0.895254 0.862117
vt 0.934098 0.795669
vt 0.934098 0.886760
vt 0.961034 0.923725
vt 0.961034 0.817595
vn -0.8449 0.5327 -0.0492
vn -0.8657 0.5005 -0.0051
vn -0.8166 0.5683 -0.1009
vn -0.9990 -0.0281 0.0351
vn -0.9981 -0.0477 0.0395
vn -0.9990 0.0178 0.0402
vn 0.8330 0.0921 0.5456
vn 0.7190 -0.0249 0.6945
vn 0.7665 0.0205 0.6420
vn 0.9931 0.1172 -0.0091
vn 0.9994 0.0360 -0.0000
vn 0.9991 0.0427 -0.0057
vn 0.2179 0.0241 -0.9757
vn 0.2187 0.0251 -0.9755
vn 0.2186 0.0085 -0.9758
vn 0.8545 0.1155 0.5064
vn 0.8565 0.1127 0.5038
vn -0.9945 -0.1043 0.0045
vn -0.4698 -0.0127 -0.8827
vn -0.4686 -0.0208 -0.8832
vn -0.4773 0.0165 -0.8786
vn -0.4579 -0.0527 -0.8875
vn -0.4599 -0.0504 -0.8865
vn 0.9994 -0.0346 -0.0000
vn -0.0281 0.1643 0.9860
vn -0.0577 0.1964 0.9788
vn -0.0181 0.1534 0.9880
vn 0.2182 0.0076 -0.9759
vn 0.9912 0.1304 -0.0204
vn 0.0579 0.6285 0.7756
vn 0.0827 0.6539 0.7520
vn 0.1044 0.6754 0.7300
vn -0.1534 0.9869 -0.0497
vn -0.0061 0.9992 -0.0402
vn -0.0577 0.9983 0.0000
vn -0.0884 0.9938 -0.0681
vn -0.3208 0.9446 -0.0691
vn -0.7046 0.5623 0.4329
vn -0.7519 0.4750 0.4572
vn -0.7267 0.5239 0.4443
vn 0.2191 -0.0076 -0.9757
vn 0.0278 0.1029 0.9943
vn -0.6194 0.1922 0.7612
vn -0.6384 0.0883 0.7646
vn -0.6307 0.1356 0.7641
vn -0.9991 0.0346 0.0227
vn 0.0556 0.1811 0.9819
vn -0.7199 0.2045 0.6632
vn 0.6075 0.5295 0.5921
vn 0.5872 0.4927 0.6422
vn 0.5939 0.5045 0.6268
vn -0.7998 0.5863 -0.1285
vn 0.6177 0.5490 0.5631
vn 0.0275 0.5958 0.8026
vn -0.6487 0.0021 0.7611
vn -0.7741 0.4259 0.4684
vn 0.0576 -0.2021 -0.9777
vn 0.2541 0.0000 -0.9672
vn 0.2478 -0.0376 -0.9681
vn 0.3994 -0.1095 -0.9102
vn -0.5049 -0.1301 -0.8533
vn -0.4834 -0.1983 -0.8527
vn -0.4698 -0.2372 -0.8503
vn 0.0769 0.9725 -0.2196
vn 0.0545 0.9030 -0.4262
vn 0.0839 0.9849 -0.1514
vn 0.0306 0.9905 -0.1342
vn -0.0000 1.0000 0.0000
vn -0.9378 -0.1345 0.3200
vn -0.9386 -0.1615 0.3050
vn -0.9358 -0.1025 0.3373
vn -0.2558 -0.0679 0.9643
vn -0.2919 -0.0000 0.9564
vn -0.2759 -0.0305 0.9607
vn -0.5110 -0.1093 -0.8526
vn 0.9136 -0.3507 0.2057
vn 0.9376 -0.2525 0.2390
vn 0.9538 -0.0578 0.2949
vn 0.9511 0.0000 0.3090
vn 0.0022 0.9790 -0.2037
vn 0.2644 0.0000 0.9644
vn 0.1004 0.9639 -0.2466
vn -0.2404 -0.0958 0.9659
vn 0.4041 -0.1358 -0.9046
vn 0.0387 -0.2543 -0.9664
vn -0.9328 -0.0731 0.3528
vn -0.6135 -0.1631 -0.7727
vn -0.5763 0.0019 -0.8173
vn -0.5868 -0.0379 -0.8088
vn 0.3797 0.2470 -0.8915
vn 0.4879 0.0692 -0.8701
vn 0.4365 0.1585 -0.8856
vn 0.5442 -0.0423 -0.8379
vn -0.9053 -0.0356 0.4233
vn -0.9069 -0.0535 0.4179
vn -0.9091 -0.0855 0.4078
vn -0.5307 0.6904 -0.4916
vn 0.1659 0.8168 0.5525
vn -0.4469 -0.0388 0.8938
vn -0.5059 -0.0882 0.8581
vn -0.4497 -0.0412 0.8922
vn 0.5935 -0.0341 0.8041
vn 0.5681 -0.0014 0.8230
vn 0.5887 -0.0279 0.8078
vn -0.9038 -0.0222 0.4273
vn 0.1304 0.8989 -0.4183
vn 0.1566 0.8864 -0.4356
vn 0.3650 0.7446 -0.5589
vn 0.9852 -0.0341 0.1678
vn 0.0362 0.9350 -0.3529
vn 0.6170 -0.0657 0.7843
vn 0.9129 0.2668 -0.3089
vn -0.6241 -0.2354 -0.7450
vn -0.4015 -0.0024 0.9159
vn -0.1520 0.2657 -0.9520
vn -0.3537 0.1648 -0.9207
vn -0.3399 0.1772 -0.9236
vn 0.5275 -0.5914 -0.6099
vn 0.5324 -0.6010 -0.5961
vn 0.5284 -0.5931 -0.6075
vn -0.5152 0.1444 -0.8448
vn -0.9734 -0.2274 0.0290
vn -0.9595 -0.2818 -0.0016
vn -0.9546 -0.2977 -0.0107
vn -0.4358 0.8970 0.0736
vn -0.3225 0.9373 0.1323
vn -0.3873 0.8968 0.2141
vn -0.4751 0.8509 0.2241
vn -0.3822 0.7969 0.4679
vn -0.5957 -0.3369 0.7292
vn 0.6263 -0.0860 0.7748
vn 0.7721 -0.0057 0.6354
vn 0.8008 0.0177 0.5987
vn -0.9751 -0.2191 0.0335
vn 0.6252 0.4457 -0.6407
vn -0.5323 0.8436 0.0712
vn 0.8975 0.1037 0.4286
vn -0.5019 0.8536 -0.1393
vn 0.5247 -0.5860 -0.6175
vn 0.6272 -0.0870 0.7740
vn 0.8965 0.1182 0.4270
vn -0.3999 -0.8781 -0.2627
vn -0.5288 0.1557 -0.8343
vn -0.1165 0.3263 -0.9381
vn -0.4724 0.0032 -0.8814
vn -0.3713 0.0070 -0.9285
vn -0.3703 0.0064 -0.9289
vn 0.2356 -0.9170 -0.3219
vn 0.2403 -0.8893 -0.3891
vn 0.2348 -0.9204 -0.3126
vn -0.2660 0.0051 -0.9640
vn -0.9968 0.0511 0.0618
vn -0.9986 0.0207 0.0482
vn -0.9992 0.0000 0.0389
vn -0.1827 0.9622 -0.2022
vn -0.1118 0.9712 -0.2105
vn -0.1627 0.9582 -0.2353
vn -0.2304 0.9564 -0.1797
vn -0.1807 0.9493 -0.2573
vn -0.3098 0.0576 0.9490
vn -0.3017 0.0485 0.9522
vn -0.3080 0.0556 0.9497
vn 0.5979 0.0009 0.8016
vn 0.6024 -0.0057 0.7982
vn 0.5986 -0.0001 0.8010
vn -0.9962 0.0575 0.0647
vn 0.8246 0.4535 0.3383
vn 0.8496 0.1687 0.4997
vn 0.8420 0.3702 0.3924
vn 0.7003 0.0000 -0.7138
vn -0.2849 0.9524 -0.1089
vn 0.9327 -0.0052 0.3606
vn 0.9317 -0.0088 0.3631
vn 0.9329 -0.0046 0.3601
vn -0.1259 0.7277 -0.6742
vn 0.2312 -0.9344 -0.2709
vn 0.5940 0.0066 0.8044
vn 0.9341 0.0000 0.3569
vn -0.5102 -0.8305 -0.2235
vn 0.7883 -0.0354 -0.6142
vn 0.8011 0.1210 -0.5862
vn 0.8004 0.0972 -0.5915
vn -0.4741 0.0000 -0.8804
vn -0.3178 0.0666 0.9458
vn 0.8212 -0.0224 -0.5702
vn 0.8184 -0.0208 -0.5743
vn 0.8274 -0.0259 -0.5610
vn -0.3806 0.5927 -0.7098
vn -0.7347 0.5386 0.4126
vn -0.8498 -0.5262 -0.0324
vn -0.2006 -0.1080 0.9737
vn 0.0457 0.0217 0.9987
vn 0.0773 0.0523 0.9956
vn -0.6244 -0.3666 -0.6897
vn 0.9269 0.3753 0.0044
vn -0.3421 0.9271 -0.1533
vn -0.3579 0.9203 -0.1579
vn -0.4413 0.8788 -0.1817
vn 0.2644 0.1439 0.9536
vn -0.2766 0.9516 -0.1342
vn 0.5319 0.7433 -0.4057
vn 0.4999 -0.8660 0.0098
vn -0.1713 -0.1151 0.9785
vn 0.3028 0.1994 0.9319
vn 0.1137 -0.3401 -0.9335
vn 0.0539 -0.3976 -0.9160
vn -0.0944 -0.5265 -0.8449
vn 0.8113 -0.0169 -0.5844
vn 0.2430 -0.2041 -0.9483
vn 0.8330 0.0437 0.5515
vn -0.3797 0.0425 -0.9241
vn -0.3875 0.0804 -0.9183
vn -0.3961 0.1251 -0.9096
vn 0.4962 0.6904 -0.5264
vn -0.5539 0.8168 0.1612
vn -0.8955 0.0104 -0.4448
vn -0.8708 -0.0317 -0.4906
vn -0.8972 0.0136 -0.4414
vn -0.8123 0.0168 0.5830
vn -0.8268 0.0482 0.5604
vn -0.8178 0.0284 0.5748
vn -0.3762 0.0267 -0.9262
vn 0.4171 0.8989 0.1340
vn 0.4519 0.8506 0.2689
vn 0.5121 0.6424 0.5701
vn -0.1719 0.0230 0.9848
vn 0.3526 0.9350 0.0392
vn -0.7999 -0.0080 0.6001
vn 0.4478 0.5177 0.7290
vn 0.7816 -0.0768 -0.6191
vn -0.9116 0.0423 -0.4089
usemtl texture
s 1
f 9/1/1 22/2/2 21/3/3
s 2
f 11/4/4 9/1/5 16/5/6
s 3
f 8/6/7 15/7/8 18/8/9
s 4
f 4/9/10 6/10/11 8/6/12
s 5
f 4/9/13 3/11/14 7/12/15
s 6
f 1/13/16 5/14/17 8/6/7
s 7
f 10/15/18 9/1/5 11/4/4
s 8
f 7/12/19 11/4/20 17/16/21
s 9
f 7/12/19 3/11/22 10/15/23
s 10
f 8/6/12 6/10/11 14/17/24
s 11
f 2/18/25 1/13/26 18/8/27
s 12
f 6/10/28 4/9/13 7/12/15
s 13
f 11/4/20 7/12/19 10/15/23
s 14
f 5/14/29 4/9/10 8/6/12
s 15
f 12/19/30 18/8/31 15/20/32
s 16
f 13/21/33 15/22/34 14/23/35
s 17
f 12/24/36 13/21/33 17/25/37
s 18
f 13/21/33 12/24/36 15/22/34
s 19
f 16/5/38 23/26/39 17/27/40
s 20
f 6/10/28 7/12/15 13/28/41
s 21
f 1/13/16 8/6/7 18/8/9
s 22
f 23/26/42 2/18/25 18/8/27
s 23
f 9/1/43 2/18/44 16/5/45
s 24
f 17/16/46 11/4/4 16/5/6
s 25
f 13/28/21 7/12/19 17/16/21
s 26
f 14/17/41 6/10/28 13/28/41
s 27
f 15/7/24 8/6/12 14/17/24
s 28
f 19/29/47 21/3/47 20/30/47
s 29
f 20/30/48 21/3/48 22/2/48
s 30
f 1/13/49 2/18/50 21/3/51
s 31
f 2/18/52 9/1/1 21/3/3
s 32
f 19/29/53 1/13/49 21/3/51
s 33
f 12/19/30 23/26/54 18/8/31
s 34
f 2/18/44 23/26/55 16/5/45
s 35
f 23/26/39 12/19/56 17/27/40
s 36
f 25/31/57 27/32/58 26/33/59
s 37
f 26/33/59 27/32/58 34/34/60
s 38
f 30/35/61 25/31/62 24/36/63
s 39
f 27/37/64 25/38/65 33/39/66
s 40
f 32/40/67 33/39/66 31/41/68
s 41
f 29/42/69 31/43/70 33/44/71
s 42
f 29/42/72 28/45/73 32/46/74
s 43
f 25/31/62 30/35/61 33/44/75
s 44
f 35/47/76 34/48/77 36/49/78
s 45
f 36/50/78 34/34/77 37/51/79
s 46
f 27/37/64 32/40/67 37/52/80
s 47
f 32/46/81 28/45/81 36/50/81
s 48
f 32/40/67 27/37/64 33/39/66
s 49
f 34/53/82 27/37/64 37/52/80
s 50
f 31/43/83 29/42/72 32/46/74
s 51
f 37/51/81 32/46/81 36/50/81
s 52
f 35/54/84 26/33/59 34/34/60
s 53
f 24/36/85 25/31/57 26/33/59
s 54
f 30/35/86 29/42/69 33/44/71
s 55
f 39/55/87 41/56/88 40/57/89
s 56
f 48/58/90 40/57/91 49/59/92
s 57
f 40/57/91 41/56/93 49/59/92
s 58
f 44/60/94 39/55/95 38/61/96
s 59
f 41/62/97 39/63/97 47/64/97
s 60
f 46/65/98 47/64/98 45/66/98
s 61
f 43/67/99 45/68/100 47/69/101
s 62
f 43/67/102 42/70/103 46/71/104
s 63
f 39/55/95 44/60/94 47/69/105
s 64
f 41/62/106 46/65/107 49/72/108
s 65
f 46/71/109 42/70/109 48/73/109
s 66
f 46/65/107 41/62/106 47/64/110
s 67
f 45/68/111 43/67/102 46/71/104
s 68
f 49/59/112 46/71/112 48/73/112
s 69
f 38/61/113 39/55/87 40/57/89
s 70
f 44/60/114 43/67/99 47/69/101
s 71
f 51/74/115 53/75/116 52/76/117
s 72
f 52/77/118 61/78/119 62/79/120
s 73
f 52/76/117 53/75/116 60/80/121
s 74
f 56/81/122 51/74/123 50/82/124
s 75
f 53/83/125 51/74/126 59/84/127
s 76
f 58/85/128 59/84/127 57/86/129
s 77
f 56/81/130 55/87/130 57/88/130 59/89/130
s 78
f 55/87/131 54/90/132 58/91/133
s 79
f 51/74/123 56/81/122 59/89/134
s 80
f 61/78/135 60/92/135 62/79/135
s 81
f 62/93/135 60/80/135 63/94/135
s 82
f 53/83/125 58/85/128 63/95/136
s 83
f 58/91/133 54/90/132 62/93/137
s 84
f 58/85/128 53/83/125 59/84/127
s 85
f 60/96/138 53/83/125 63/95/136
s 86
f 54/97/139 52/77/118 62/79/120
s 87
f 57/88/140 55/87/131 58/91/133
s 88
f 63/94/141 58/91/133 62/93/137
s 89
f 50/98/142 52/77/142 56/99/142
s 90
f 61/100/143 52/76/117 60/80/121
s 91
f 50/82/144 51/74/115 52/76/117
s 92
f 65/101/145 67/102/146 66/103/147
s 93
f 66/104/148 74/105/149 76/106/150
s 94
f 66/103/147 67/102/146 74/107/151
s 95
f 70/108/152 65/101/153 64/109/154
s 96
f 67/110/155 65/101/156 73/111/157
s 97
f 72/112/158 73/111/157 71/113/159
s 98
f 70/108/160 69/114/161 71/115/162
s 99
f 69/114/163 68/116/164 72/117/165
s 100
f 65/101/153 70/108/152 73/118/166
s 101
f 99/119/167 91/120/168 100/121/169
s 102
f 76/122/170 74/107/170 77/123/170
s 103
f 67/110/155 72/112/158 77/124/171
s 104
f 72/117/172 68/116/173 76/122/174
s 105
f 72/112/158 67/110/155 73/111/157
s 106
f 74/125/175 67/110/175 77/124/175
s 107
f 68/126/176 66/104/148 76/106/150
s 108
f 71/115/177 69/114/163 72/117/165
s 109
f 77/123/178 72/117/172 76/122/174
s 110
f 64/127/179 66/104/179 70/128/179
s 111
f 90/129/180 92/130/181 91/120/182
s 112
f 64/109/183 65/101/145 66/103/147
s 113
f 73/118/184 70/108/160 71/115/162
s 114
f 79/131/185 87/132/186 88/133/187
s 115
f 80/134/188 78/135/188 86/136/188
s 116
f 85/137/189 86/136/189 84/138/189
s 117
f 83/139/190 82/140/190 84/141/190 86/142/190
s 118
f 82/140/191 81/143/192 85/144/193
s 119
f 78/135/194 83/139/194 86/142/194
s 120
f 88/145/195 87/146/195 89/147/195
s 121
f 80/134/196 85/137/197 89/148/198
s 122
f 85/144/193 81/143/192 88/145/199
s 123
f 85/137/197 80/134/196 86/136/200
s 124
f 87/149/201 80/134/201 89/148/201
s 125
f 81/150/202 79/131/202 88/133/202
s 126
f 84/141/203 82/140/191 85/144/193
s 127
f 89/147/204 85/144/193 88/145/199
s 128
f 78/151/205 79/131/206 83/152/207
s 129
f 79/153/185 80/154/208 87/146/186
s 130
f 79/153/206 78/135/205 80/154/209
s 131
f 91/120/168 92/130/210 100/121/169
s 132
f 95/155/211 90/129/212 75/156/213
s 133
f 92/157/214 90/158/214 98/159/214
s 134
f 97/160/215 98/159/215 96/161/215
s 135
f 94/162/216 96/163/217 98/164/218
s 136
f 94/162/219 93/165/220 97/166/221
s 137
f 90/129/212 95/155/211 98/164/222
s 138
f 92/157/223 97/160/224 100/167/225
s 139
f 97/166/226 93/165/226 99/168/226
s 140
f 97/160/224 92/157/223 98/159/227
s 141
f 96/163/228 94/162/219 97/166/221
s 142
f 100/121/225 97/166/224 99/168/229
s 143
f 75/156/230 90/129/180 91/120/182
s 144
f 95/155/231 94/162/216 98/164/218
