# Blender v2.80 (sub 75) OBJ File: 'Dungeon_Remastered_Export1.0.blend'
# www.blender.org
mtllib scaffold_frame_large.mtl
o scaffold_frame_large_Plane.078
v 3.499994 3.999999 -3.500000
v 3.499994 3.649998 -3.500000
v 3.149994 3.649998 -3.150000
v 3.454062 3.949998 -2.393414
v 2.393401 3.949998 -3.454074
v 3.206574 3.699998 -2.145926
v 3.454062 3.699998 -2.393414
v 2.145914 3.699998 -3.206586
v 2.393401 3.699998 -3.454074
v 3.174994 3.999999 -3.175000
v 3.149994 3.974998 -3.150000
v 3.224252 3.949998 -2.163604
v 3.206574 3.924998 -2.145926
v 2.145914 3.924998 -3.206586
v 2.163592 3.949998 -3.224264
v 3.150000 3.650000 -3.500000
v 3.150000 0.000000 -3.500000
v 3.500000 0.000000 -3.500000
v 3.500000 3.650000 -3.150000
v 3.500000 0.000000 -3.150000
v 3.150000 3.650000 -3.175000
v 3.175000 3.650000 -3.150000
v 3.175000 0.000000 -3.150000
v 3.150000 0.000000 -3.175000
v 3.500000 3.999999 3.499994
v 3.500000 3.649998 3.499994
v 3.150000 3.649998 3.149994
v 2.393414 3.949998 3.454062
v 3.454074 3.949998 2.393402
v 2.145926 3.699998 3.206574
v 2.393414 3.699998 3.454062
v 3.206586 3.699998 2.145915
v 3.454074 3.699998 2.393402
v 3.175000 3.999999 3.174994
v 3.150000 3.974998 3.149994
v 2.163604 3.949998 3.224252
v 2.145926 3.924998 3.206574
v 3.206586 3.924998 2.145915
v 3.224264 3.949998 2.163592
v 3.500000 3.650000 3.150001
v 3.500000 0.000000 3.150001
v 3.500000 0.000000 3.500000
v 3.150000 3.650000 3.500000
v 3.150000 0.000000 3.500000
v 3.175000 3.650000 3.150001
v 3.150000 3.650000 3.175000
v 3.150000 0.000000 3.175000
v 3.175000 0.000000 3.150001
v -3.499994 3.999999 3.500001
v -3.499994 3.649998 3.500001
v -3.149994 3.649998 3.150001
v -3.454061 3.949998 2.393414
v -2.393401 3.949998 3.454075
v -3.206573 3.699998 2.145927
v -3.454061 3.699998 2.393414
v -2.145914 3.699998 3.206587
v -2.393401 3.699998 3.454075
v -3.174994 3.999999 3.175001
v -3.149994 3.974998 3.150001
v -3.224251 3.949998 2.163605
v -3.206573 3.924998 2.145927
v -2.145914 3.924998 3.206587
v -2.163591 3.949998 3.224265
v -3.150000 3.650000 3.500001
v -3.150000 0.000000 3.500001
v -3.500000 0.000000 3.500001
v -3.500000 3.650000 3.150001
v -3.500000 0.000000 3.150001
v -3.150000 3.650000 3.175001
v -3.175000 3.650000 3.150001
v -3.175000 0.000000 3.150001
v -3.150000 0.000000 3.175001
v -3.500000 3.999999 -3.499994
v -3.500000 3.649998 -3.499994
v -3.150000 3.649998 -3.149994
v -2.393414 3.949998 -3.454062
v -3.454074 3.949998 -2.393401
v -2.145926 3.699998 -3.206574
v -2.393414 3.699998 -3.454062
v -3.206586 3.699998 -2.145914
v -3.454074 3.699998 -2.393401
v -3.175000 3.999999 -3.174994
v -3.150000 3.974998 -3.149994
v -2.163604 3.949998 -3.224252
v -2.145926 3.924998 -3.206574
v -3.206586 3.924998 -2.145914
v -3.224264 3.949998 -2.163592
v -3.500000 3.650000 -3.150000
v -3.500000 0.000000 -3.150000
v -3.500000 0.000000 -3.500000
v -3.150000 3.650000 -3.500000
v -3.150000 0.000000 -3.500000
v -3.175000 3.650000 -3.150000
v -3.150000 3.650000 -3.175000
v -3.150000 0.000000 -3.175000
v -3.175000 0.000000 -3.150000
vt 0.582357 0.801087
vt 0.582357 0.801087
vt 0.600315 0.801087
vt 0.582357 0.801087
vt 0.582357 0.832337
vt 0.600315 0.832337
vt 0.600315 0.886415
vt 0.582357 0.886415
vt 0.582357 0.801087
vt 0.582357 0.801087
vt 0.600315 0.801087
vt 0.582357 0.801087
vt 0.582357 0.933290
vt 0.600315 0.933290
vt 0.583640 0.933290
vt 0.582357 0.933290
vt 0.582357 0.832337
vt 0.600315 0.832337
vt 0.600315 0.886415
vt 0.582357 0.886415
vt 0.586166 0.909940
vt 0.597957 0.909940
vt 0.543537 0.909940
vt 0.531746 0.909940
vt 0.582357 0.882553
vt 0.582357 0.832337
vt 0.582357 0.832337
vt 0.582357 0.882553
vt 0.582357 0.832337
vt 0.600315 0.832337
vt 0.600315 0.886415
vt 0.582357 0.886415
vt 0.530839 0.840062
vt 0.585259 0.840062
vt 0.585259 0.874827
vt 0.530839 0.874827
vt 0.585259 0.808812
vt 0.530839 0.808812
vt 0.543537 0.808812
vt 0.597957 0.808812
vt 0.597957 0.878690
vt 0.597957 0.840062
vt 0.543537 0.840062
vt 0.543537 0.878690
vt 0.582357 0.882553
vt 0.582357 0.832337
vt 0.582357 0.933290
vt 0.600315 0.933290
vt 0.583640 0.933290
vt 0.582357 0.933290
vt 0.530839 0.921702
vt 0.585259 0.921702
vt 0.586166 0.925565
vt 0.531746 0.925565
vt 0.582357 0.945053
vt 0.582357 0.948915
vt 0.583640 0.948915
vt 0.582357 0.945053
vt 0.554855 0.901366
vt 0.554855 0.802924
vt 0.554855 0.802924
vt 0.554855 0.901366
vt 0.509926 0.802924
vt 0.509926 0.901366
vt 0.513135 0.802924
vt 0.513135 0.901366
vt 0.509926 0.948241
vt 0.509926 0.849799
vt 0.513135 0.849799
vt 0.513135 0.948241
vt 0.509926 0.802924
vt 0.509926 0.901366
vt 0.582357 0.945053
vt 0.582357 0.948915
vt 0.583640 0.948915
vt 0.582357 0.945053
vt 0.582357 0.948915
vt 0.583640 0.948915
vt 0.582357 0.882553
vt 0.582357 0.832337
vt 0.586166 0.909940
vt 0.597957 0.909940
vt 0.543537 0.909940
vt 0.531746 0.909940
vt 0.530839 0.840062
vt 0.585259 0.840062
vt 0.585259 0.874827
vt 0.530839 0.874827
vt 0.585259 0.808812
vt 0.530839 0.808812
vt 0.543537 0.808812
vt 0.597957 0.808812
vt 0.597957 0.878690
vt 0.597957 0.840062
vt 0.543537 0.840062
vt 0.543537 0.878690
vt 0.582357 0.933290
vt 0.600315 0.933290
vt 0.583640 0.933290
vt 0.582357 0.933290
vt 0.530839 0.921702
vt 0.585259 0.921702
vt 0.586166 0.925565
vt 0.531746 0.925565
vt 0.582357 0.832337
vt 0.600315 0.832337
vt 0.600315 0.886415
vt 0.582357 0.886415
vt 0.554855 0.901366
vt 0.554855 0.802924
vt 0.554855 0.802924
vt 0.554855 0.901366
vt 0.509926 0.802924
vt 0.509926 0.901366
vt 0.513135 0.802924
vt 0.513135 0.901366
vt 0.509926 0.948241
vt 0.509926 0.849799
vt 0.513135 0.849799
vt 0.513135 0.948241
vt 0.509926 0.802924
vt 0.509926 0.901366
vt 0.582357 0.948915
vt 0.583640 0.948915
vt 0.586166 0.909940
vt 0.597957 0.909940
vt 0.543537 0.909940
vt 0.531746 0.909940
vt 0.530839 0.840062
vt 0.585259 0.840062
vt 0.585259 0.874827
vt 0.530839 0.874827
vt 0.585259 0.808812
vt 0.530839 0.808812
vt 0.543537 0.808812
vt 0.597957 0.808812
vt 0.597957 0.878690
vt 0.597957 0.840062
vt 0.543537 0.840062
vt 0.543537 0.878690
vt 0.582357 0.933290
vt 0.600315 0.933290
vt 0.583640 0.933290
vt 0.582357 0.933290
vt 0.530839 0.921702
vt 0.585259 0.921702
vt 0.586166 0.925565
vt 0.531746 0.925565
vt 0.554855 0.901366
vt 0.554855 0.802924
vt 0.554855 0.802924
vt 0.554855 0.901366
vt 0.509926 0.802924
vt 0.509926 0.901366
vt 0.513135 0.802924
vt 0.513135 0.901366
vt 0.509926 0.948241
vt 0.509926 0.849799
vt 0.513135 0.849799
vt 0.513135 0.948241
vt 0.509926 0.802924
vt 0.509926 0.901366
vt 0.600315 0.801087
vt 0.582357 0.801087
vt 0.586166 0.909940
vt 0.597957 0.909940
vt 0.543537 0.909940
vt 0.531746 0.909940
vt 0.600315 0.801087
vt 0.582357 0.801087
vt 0.530839 0.840062
vt 0.585259 0.840062
vt 0.585259 0.874827
vt 0.530839 0.874827
vt 0.585259 0.808812
vt 0.530839 0.808812
vt 0.543537 0.808812
vt 0.597957 0.808812
vt 0.597957 0.878690
vt 0.597957 0.840062
vt 0.543537 0.840062
vt 0.543537 0.878690
vt 0.530839 0.921702
vt 0.585259 0.921702
vt 0.586166 0.925565
vt 0.531746 0.925565
vt 0.554855 0.901366
vt 0.554855 0.802924
vt 0.554855 0.802924
vt 0.554855 0.901366
vt 0.509926 0.802924
vt 0.509926 0.901366
vt 0.513135 0.802924
vt 0.513135 0.901366
vt 0.509926 0.948241
vt 0.509926 0.849799
vt 0.513135 0.849799
vt 0.513135 0.948241
vt 0.509926 0.802924
vt 0.509926 0.901366
vn 0.0000 -1.0000 0.0000
vn -0.0000 0.0000 -1.0000
vn 0.0000 1.0000 0.0000
vn 1.0000 0.0000 -0.0000
vn 0.0000 0.0000 1.0000
vn -0.7071 0.0000 0.7071
vn 0.7071 0.0000 -0.7071
vn -1.0000 0.0000 0.0000
vn -0.5000 0.7071 0.5000
vn -0.7071 0.7071 0.0000
vn 0.7071 0.7071 -0.0000
vn -0.0000 0.7071 -0.7071
vn -0.7071 0.0000 -0.7071
vn 0.7071 0.0000 0.7071
vn -0.5000 0.7071 -0.5000
vn 0.0000 0.7071 0.7071
vn 0.5000 0.7071 -0.5000
vn 0.5000 0.7071 0.5000
usemtl texture
s 1
f 51/1/1 27/2/1 26/3/1 50/4/1
s 2
f 2/5/2 74/6/2 73/7/2 1/8/2
s 3
f 3/9/1 75/10/1 74/11/1 2/12/1
s 4
f 25/13/3 1/14/3 10/15/3 34/16/3
s 5
f 26/17/4 2/18/4 1/19/4 25/20/4
s 6
f 12/21/3 4/22/3 5/23/3 15/24/3
s 7
f 83/25/5 75/26/5 3/27/5 11/28/5
s 8
f 50/29/5 26/30/5 25/31/5 49/32/5
s 9
f 8/33/6 6/34/6 13/35/6 14/36/6
s 10
f 6/37/1 8/38/1 9/39/1 7/40/1
s 11
f 4/41/7 7/42/7 9/43/7 5/44/7
s 12
f 35/45/8 11/28/8 3/27/8 27/46/8
s 13
f 1/47/3 73/48/3 82/49/3 10/50/3
s 14
f 14/51/9 13/52/9 12/53/9 15/54/9
s 15
f 35/55/10 34/56/10 10/57/10 11/58/10
s 16
f 19/59/4 20/60/4 18/61/4 2/62/4
s 17
f 2/62/2 18/61/2 17/63/2 16/64/2
s 18
f 20/60/1 17/63/1 18/61/1
s 19
f 23/65/5 20/60/5 19/59/5 22/66/5
s 20
f 21/67/6 24/68/6 23/69/6 22/70/6
s 21
f 17/63/8 24/71/8 21/72/8 16/64/8
s 22
f 83/73/11 82/74/11 58/75/11 59/76/11
s 23
f 35/55/12 59/76/12 58/77/12 34/78/12
s 24
f 59/79/2 35/45/2 27/46/2 51/80/2
s 25
f 36/81/3 28/82/3 29/83/3 39/84/3
s 26
f 32/85/13 30/86/13 37/87/13 38/88/13
s 27
f 30/89/1 32/90/1 33/91/1 31/92/1
s 28
f 28/93/14 31/94/14 33/95/14 29/96/14
s 29
f 49/97/3 25/98/3 34/99/3 58/100/3
s 30
f 38/101/15 37/102/15 36/103/15 39/104/15
s 31
f 74/105/8 50/106/8 49/107/8 73/108/8
s 32
f 43/109/5 44/110/5 42/111/5 26/112/5
s 33
f 26/112/4 42/111/4 41/113/4 40/114/4
s 34
f 44/110/1 41/113/1 42/111/1
s 35
f 47/115/8 44/110/8 43/109/8 46/116/8
s 36
f 45/117/13 48/118/13 47/119/13 46/120/13
s 37
f 41/113/2 48/121/2 45/122/2 40/114/2
s 38
f 83/73/16 11/58/16 10/123/16 82/124/16
s 39
f 83/25/4 59/79/4 51/80/4 75/26/4
s 40
f 60/125/3 52/126/3 53/127/3 63/128/3
s 41
f 56/129/7 54/130/7 61/131/7 62/132/7
s 42
f 54/133/1 56/134/1 57/135/1 55/136/1
s 43
f 52/137/6 55/138/6 57/139/6 53/140/6
s 44
f 73/141/3 49/142/3 58/143/3 82/144/3
s 45
f 62/145/17 61/146/17 60/147/17 63/148/17
s 46
f 67/149/8 68/150/8 66/151/8 50/152/8
s 47
f 50/152/5 66/151/5 65/153/5 64/154/5
s 48
f 68/150/1 65/153/1 66/151/1
s 49
f 71/155/2 68/150/2 67/149/2 70/156/2
s 50
f 69/157/7 72/158/7 71/159/7 70/160/7
s 51
f 65/153/4 72/161/4 69/162/4 64/154/4
s 52
f 75/10/1 51/1/1 50/163/1 74/164/1
s 53
f 84/165/3 76/166/3 77/167/3 87/168/3
s 54
f 27/2/1 3/9/1 2/169/1 26/170/1
s 55
f 80/171/14 78/172/14 85/173/14 86/174/14
s 56
f 78/175/1 80/176/1 81/177/1 79/178/1
s 57
f 76/179/13 79/180/13 81/181/13 77/182/13
s 58
f 86/183/18 85/184/18 84/185/18 87/186/18
s 59
f 91/187/2 92/188/2 90/189/2 74/190/2
s 60
f 74/190/8 90/189/8 89/191/8 88/192/8
s 61
f 92/188/1 89/191/1 90/189/1
s 62
f 95/193/4 92/188/4 91/187/4 94/194/4
s 63
f 93/195/14 96/196/14 95/197/14 94/198/14
s 64
f 89/191/5 96/199/5 93/200/5 88/192/5
s 65
f 95/193/1 96/199/1 89/191/1 92/188/1
s 66
f 71/155/1 72/161/1 65/153/1 68/150/1
s 67
f 47/115/1 48/121/1 41/113/1 44/110/1
s 68
f 23/65/1 24/71/1 17/63/1 20/60/1
