# Blender v2.80 (sub 75) OBJ File: 'Dungeon_Remastered_Export1.0.blend'
# www.blender.org
mtllib scaffold_beam_corner.mtl
o scaffold_beam_corner_Plane.061
v -0.500006 3.999999 2.000000
v -0.500006 3.999999 0.500000
v -0.850006 3.649998 2.000000
v -0.500006 3.649998 2.000000
v -0.500006 3.649998 0.500000
v -0.850006 3.649998 0.850000
v -2.000006 3.649998 0.500000
v -2.000006 3.999999 0.500000
v -2.000006 3.649998 0.850000
v -0.545938 3.949998 1.606586
v -1.606599 3.949998 0.545926
v -0.793426 3.699998 1.854074
v -0.545938 3.699998 1.606586
v -1.854086 3.699998 0.793414
v -1.606599 3.699998 0.545926
v -0.825006 3.999999 2.000000
v -0.850006 3.974998 2.000000
v -0.825006 3.999999 0.825000
v -0.850006 3.974998 0.850000
v -2.000006 3.974998 0.850000
v -2.000006 3.999999 0.825000
v -0.775748 3.949998 1.836396
v -0.793426 3.924998 1.854074
v -1.854086 3.924998 0.793414
v -1.836408 3.949998 0.775736
vt 0.582357 0.933290
vt 0.523353 0.933290
vt 0.523353 0.933290
vt 0.582357 0.933290
vt 0.582357 0.882553
vt 0.582357 0.832337
vt 0.582357 0.832337
vt 0.582357 0.882553
vt 0.582357 0.832337
vt 0.523353 0.832337
vt 0.523353 0.886415
vt 0.582357 0.886415
vt 0.600315 0.886415
vt 0.600315 0.832337
vt 0.600315 0.832337
vt 0.600315 0.886415
vt 0.582357 0.801087
vt 0.582357 0.801087
vt 0.600315 0.801087
vt 0.600315 0.801087
vt 0.600315 0.917665
vt 0.582357 0.863587
vt 0.600315 0.863587
vt 0.586166 0.909940
vt 0.597957 0.909940
vt 0.543537 0.909940
vt 0.531746 0.909940
vt 0.523353 0.917665
vt 0.523353 0.863587
vt 0.523353 0.863587
vt 0.523353 0.801087
vt 0.523353 0.801087
vt 0.582357 0.801087
vt 0.523353 0.882553
vt 0.523353 0.832337
vt 0.530839 0.840062
vt 0.585259 0.840062
vt 0.585259 0.874827
vt 0.530839 0.874827
vt 0.585259 0.808812
vt 0.530839 0.808812
vt 0.543537 0.808812
vt 0.597957 0.808812
vt 0.597957 0.878690
vt 0.597957 0.840062
vt 0.543537 0.840062
vt 0.543537 0.878690
vt 0.582357 0.945053
vt 0.582357 0.945053
vt 0.583640 0.948915
vt 0.583640 0.948915
vt 0.523353 0.945053
vt 0.582357 0.948915
vt 0.523353 0.948915
vt 0.530839 0.921702
vt 0.585259 0.921702
vt 0.586166 0.925565
vt 0.531746 0.925565
vt 0.583640 0.933290
vt 0.600315 0.933290
vt 0.600315 0.933290
vt 0.583640 0.933290
vt 0.583640 0.917665
vt 0.582357 0.913803
vt 0.523353 0.917665
vt 0.523353 0.913803
vn 0.0000 1.0000 0.0000
vn -1.0000 0.0000 0.0000
vn 0.0000 0.0000 -1.0000
vn 1.0000 0.0000 0.0000
vn 0.0000 -1.0000 0.0000
vn 0.0000 0.0000 1.0000
vn -0.7071 0.0000 0.7071
vn 0.7071 0.0000 -0.7071
vn -0.7071 0.7071 0.0000
vn 0.0000 0.7071 0.7071
vn -0.5000 0.7071 0.5000
usemtl texture
s 1
f 2/1/1 8/2/1 21/3/1 18/4/1
s 2
f 19/5/2 6/6/2 3/7/2 17/8/2
s 3
f 5/9/3 7/10/3 8/11/3 2/12/3
s 4
f 1/13/4 4/14/4 5/15/4 2/16/4
s 5
f 3/17/5 6/18/5 5/19/5 4/20/5
s 6
f 1/21/6 3/22/6 4/23/6
s 7
f 22/24/1 10/25/1 11/26/1 25/27/1
s 8
f 8/28/2 7/29/2 9/30/2
s 9
f 6/18/5 9/31/5 7/32/5 5/33/5
s 10
f 19/5/6 20/34/6 9/35/6 6/6/6
s 11
f 14/36/7 12/37/7 23/38/7 24/39/7
s 12
f 12/40/5 14/41/5 15/42/5 13/43/5
s 13
f 10/44/8 13/45/8 15/46/8 11/47/8
s 14
f 19/48/9 17/49/9 16/50/9 18/51/9
s 15
f 20/52/10 19/48/10 18/53/10 21/54/10
s 16
f 24/55/11 23/56/11 22/57/11 25/58/11
s 17
f 16/59/1 1/60/1 2/61/1 18/62/1
s 18
f 16/63/6 17/64/6 3/22/6 1/21/6
s 19
f 21/65/2 8/28/2 9/30/2 20/66/2
