# Blender v2.80 (sub 75) OBJ File: 'Dungeon_Remastered_Export1.0.blend'
# www.blender.org
mtllib scaffold_beam_wall.mtl
o scaffold_beam_wall_Plane.014
v 2.000000 3.999999 0.500006
v 2.000000 3.649998 0.850006
v 2.000000 3.649998 0.500006
v 2.000000 3.999999 0.825006
v 2.000000 3.974998 0.850006
v -2.000000 3.649998 0.500000
v -2.000000 3.999999 0.500000
v -2.000000 3.649998 0.850000
v -2.000000 3.974998 0.850000
v -2.000000 3.999999 0.825000
vt 0.600315 0.933290
vt 0.523353 0.933290
vt 0.523353 0.933290
vt 0.583640 0.933290
vt 0.523353 0.886415
vt 0.600315 0.886415
vt 0.600315 0.832337
vt 0.523353 0.832337
vt 0.600315 0.917665
vt 0.582357 0.863587
vt 0.600315 0.863587
vt 0.582357 0.882553
vt 0.523353 0.882553
vt 0.523353 0.832337
vt 0.582357 0.832337
vt 0.583640 0.917665
vt 0.582357 0.913803
vt 0.523353 0.945053
vt 0.582357 0.945053
vt 0.583640 0.948915
vt 0.523353 0.948915
vt 0.523353 0.917665
vt 0.523353 0.863587
vt 0.523353 0.863587
vt 0.523353 0.917665
vt 0.523353 0.913803
vt 0.523353 0.801087
vt 0.600315 0.801087
vt 0.582357 0.801087
vt 0.523353 0.801087
vn 0.0000 1.0000 0.0000
vn 0.0000 0.0000 -1.0000
vn 1.0000 0.0000 0.0000
vn -0.0000 0.0000 1.0000
vn -0.0000 0.7071 0.7071
vn -1.0000 0.0000 0.0000
vn 0.0000 -1.0000 0.0000
usemtl texture
s 1
f 1/1/1 7/2/1 10/3/1 4/4/1
s 2
f 7/5/2 1/6/2 3/7/2 6/8/2
s 3
f 1/9/3 2/10/3 3/11/3
s 4
f 5/12/4 9/13/4 8/14/4 2/15/4
s 5
f 4/16/3 5/17/3 2/10/3 1/9/3
s 6
f 9/18/5 5/19/5 4/20/5 10/21/5
s 7
f 7/22/6 6/23/6 8/24/6
s 8
f 10/25/6 7/22/6 8/24/6 9/26/6
s 9
f 6/27/7 3/28/7 2/29/7 8/30/7
