# Blender v2.80 (sub 75) OBJ File: 'Dungeon_Remastered_Export1.0.blend'
# www.blender.org
mtllib scaffold_beams_connected.mtl
o scaffold_beams_connected_Plane.106
v -3.499993 3.999999 -2.000000
v -3.149993 3.649998 -2.000000
v -3.499993 3.649998 -2.000000
v -3.149994 3.649998 -0.200000
v -3.174993 3.999999 -2.000000
v -3.149993 3.974998 -2.000000
v -3.174994 3.999999 -0.175000
v -3.149994 3.974998 -0.200000
v -3.499997 3.649998 0.000004
v -3.499997 3.999999 0.000004
v -3.150000 3.649998 0.200007
v -3.500001 3.649998 2.000000
v -3.500001 3.999999 2.000000
v -3.150001 3.649998 2.000000
v -3.175000 3.999999 0.175007
v -3.150000 3.974998 0.200007
v -3.150001 3.974998 2.000000
v -3.175001 3.999999 2.000000
v -2.393414 3.949998 -0.104060
v -3.454074 3.949998 0.956600
v -2.145926 3.699998 0.143427
v -2.393414 3.699998 -0.104060
v -3.206587 3.699998 1.204087
v -3.454074 3.699998 0.956600
v -2.163604 3.949998 0.125750
v -2.145926 3.924998 0.143427
v -3.206587 3.924998 1.204087
v -3.224264 3.949998 1.186409
v -3.454061 3.949998 -0.956585
v -2.393401 3.949998 0.104075
v -3.206574 3.699998 -1.204072
v -3.454061 3.699998 -0.956585
v -2.145914 3.699998 -0.143412
v -2.393401 3.699998 0.104075
v -3.224252 3.949998 -1.186395
v -3.206574 3.924998 -1.204072
v -2.145914 3.924998 -0.143412
v -2.163592 3.949998 -0.125735
v 3.499994 3.999999 2.000000
v 3.149994 3.649998 2.000000
v 3.499994 3.649998 2.000000
v 3.149994 3.649998 0.200000
v 3.174994 3.999999 2.000000
v 3.149994 3.974998 2.000000
v 3.174994 3.999999 0.175000
v 3.149994 3.974998 0.200000
v 3.499997 3.649998 -0.000003
v 3.499997 3.999999 -0.000003
v 3.150000 3.649998 -0.200007
v 3.500000 3.649998 -2.000000
v 3.500000 3.999999 -2.000000
v 3.150000 3.649998 -2.000000
v 3.175000 3.999999 -0.175007
v 3.150000 3.974998 -0.200007
v 3.150000 3.974998 -2.000000
v 3.175000 3.999999 -2.000000
v 2.393414 3.949998 0.104061
v 3.454074 3.949998 -0.956599
v 2.145926 3.699998 -0.143427
v 2.393414 3.699998 0.104061
v 3.206586 3.699998 -1.204087
v 3.454074 3.699998 -0.956599
v 2.163604 3.949998 -0.125749
v 2.145926 3.924998 -0.143427
v 3.206586 3.924998 -1.204087
v 3.224264 3.949998 -1.186409
v 3.454062 3.949998 0.956586
v 2.393401 3.949998 -0.104075
v 3.206574 3.699998 1.204073
v 3.454062 3.699998 0.956586
v 2.145914 3.699998 0.143413
v 2.393401 3.699998 -0.104075
v 3.224252 3.949998 1.186395
v 3.206574 3.924998 1.204073
v 2.145914 3.924998 0.143413
v 2.163591 3.949998 0.125735
vt 0.582357 0.882553
vt 0.582357 0.832337
vt 0.582357 0.832337
vt 0.582357 0.882553
vt 0.561834 0.933290
vt 0.583640 0.933290
vt 0.583640 0.933290
vt 0.600315 0.933290
vt 0.523353 0.801087
vt 0.561834 0.801087
vt 0.582357 0.801087
vt 0.523353 0.801087
vt 0.600315 0.917665
vt 0.582357 0.863587
vt 0.600315 0.863587
vt 0.582357 0.945053
vt 0.582357 0.945053
vt 0.583640 0.948915
vt 0.583640 0.948915
vt 0.583640 0.917665
vt 0.582357 0.913803
vt 0.561834 0.886415
vt 0.600315 0.886415
vt 0.600315 0.832337
vt 0.561834 0.832337
vt 0.600315 0.801087
vt 0.582357 0.801087
vt 0.582357 0.801087
vt 0.523353 0.886415
vt 0.523353 0.832337
vt 0.523353 0.917665
vt 0.523353 0.863587
vt 0.523353 0.863587
vt 0.582357 0.882553
vt 0.523353 0.882553
vt 0.523353 0.832337
vt 0.582357 0.832337
vt 0.523353 0.945053
vt 0.582357 0.945053
vt 0.582357 0.948915
vt 0.523353 0.948915
vt 0.523353 0.917665
vt 0.523353 0.913803
vt 0.583640 0.933290
vt 0.523353 0.933290
vt 0.523353 0.933290
vt 0.582357 0.948915
vt 0.583640 0.948915
vt 0.582357 0.945053
vt 0.586166 0.909940
vt 0.597957 0.909940
vt 0.543537 0.909940
vt 0.531746 0.909940
vt 0.530839 0.840062
vt 0.585259 0.840062
vt 0.585259 0.874827
vt 0.530839 0.874827
vt 0.585259 0.808812
vt 0.530839 0.808812
vt 0.543537 0.808812
vt 0.597957 0.808812
vt 0.597957 0.878690
vt 0.597957 0.840062
vt 0.543537 0.840062
vt 0.543537 0.878690
vt 0.530839 0.921702
vt 0.585259 0.921702
vt 0.586166 0.925565
vt 0.531746 0.925565
vt 0.586166 0.909940
vt 0.597957 0.909940
vt 0.543537 0.909940
vt 0.531746 0.909940
vt 0.530839 0.840062
vt 0.585259 0.840062
vt 0.585259 0.874827
vt 0.530839 0.874827
vt 0.585259 0.808812
vt 0.530839 0.808812
vt 0.543537 0.808812
vt 0.597957 0.808812
vt 0.597957 0.878690
vt 0.597957 0.840062
vt 0.543537 0.840062
vt 0.543537 0.878690
vt 0.530839 0.921702
vt 0.585259 0.921702
vt 0.586166 0.925565
vt 0.531746 0.925565
vt 0.582357 0.882553
vt 0.582357 0.832337
vt 0.582357 0.832337
vt 0.582357 0.882553
vt 0.561834 0.933290
vt 0.583640 0.933290
vt 0.583640 0.933290
vt 0.600315 0.933290
vt 0.523353 0.801087
vt 0.561834 0.801087
vt 0.582357 0.801087
vt 0.523353 0.801087
vt 0.600315 0.917665
vt 0.582357 0.863587
vt 0.600315 0.863587
vt 0.582357 0.945053
vt 0.582357 0.948915
vt 0.583640 0.948915
vt 0.582357 0.945053
vt 0.583640 0.948915
vt 0.583640 0.948915
vt 0.583640 0.917665
vt 0.582357 0.913803
vt 0.561834 0.886415
vt 0.600315 0.886415
vt 0.600315 0.832337
vt 0.561834 0.832337
vt 0.600315 0.801087
vt 0.582357 0.801087
vt 0.582357 0.801087
vt 0.523353 0.886415
vt 0.523353 0.832337
vt 0.523353 0.917665
vt 0.523353 0.863587
vt 0.523353 0.863587
vt 0.582357 0.882553
vt 0.523353 0.882553
vt 0.523353 0.832337
vt 0.582357 0.832337
vt 0.523353 0.945053
vt 0.582357 0.948915
vt 0.523353 0.948915
vt 0.523353 0.917665
vt 0.523353 0.913803
vt 0.583640 0.933290
vt 0.523353 0.933290
vt 0.523353 0.933290
vt 0.586166 0.909940
vt 0.597957 0.909940
vt 0.543537 0.909940
vt 0.531746 0.909940
vt 0.530839 0.840062
vt 0.585259 0.840062
vt 0.585259 0.874827
vt 0.530839 0.874827
vt 0.585259 0.808812
vt 0.530839 0.808812
vt 0.543537 0.808812
vt 0.597957 0.808812
vt 0.597957 0.878690
vt 0.597957 0.840062
vt 0.543537 0.840062
vt 0.543537 0.878690
vt 0.530839 0.921702
vt 0.585259 0.921702
vt 0.586166 0.925565
vt 0.531746 0.925565
vt 0.586166 0.909940
vt 0.597957 0.909940
vt 0.543537 0.909940
vt 0.531746 0.909940
vt 0.530839 0.840062
vt 0.585259 0.840062
vt 0.585259 0.874827
vt 0.530839 0.874827
vt 0.585259 0.808812
vt 0.530839 0.808812
vt 0.543537 0.808812
vt 0.597957 0.808812
vt 0.597957 0.878690
vt 0.597957 0.840062
vt 0.543537 0.840062
vt 0.543537 0.878690
vt 0.530839 0.921702
vt 0.585259 0.921702
vt 0.586166 0.925565
vt 0.531746 0.925565
vn 1.0000 0.0000 0.0000
vn 0.0000 1.0000 0.0000
vn 0.0000 -1.0000 -0.0000
vn 0.0000 0.0000 -1.0000
vn 0.7071 0.7071 0.0000
vn -1.0000 0.0000 -0.0000
vn 0.0000 0.0000 1.0000
vn 0.0000 0.7071 0.7071
vn 0.7071 0.0000 0.7071
vn -0.7071 0.0000 -0.7071
vn 0.5000 0.7071 0.5000
vn 0.7071 0.0000 -0.7071
vn -0.7071 0.0000 0.7071
vn 0.5000 0.7071 -0.5000
vn -0.0000 0.7071 -0.7071
vn -0.7071 0.7071 0.0000
vn -0.5000 0.7071 -0.5000
vn -0.5000 0.7071 0.5000
usemtl texture
s 1
f 8/1/1 4/2/1 2/3/1 6/4/1
s 2
f 10/5/2 7/6/2 5/7/2 1/8/2
s 3
f 12/9/3 9/10/3 11/11/3 14/12/3
s 4
f 1/13/4 2/14/4 3/15/4
s 5
f 8/16/5 6/17/5 5/18/5 7/19/5
s 6
f 5/20/4 6/21/4 2/14/4 1/13/4
s 7
f 10/22/6 1/23/6 3/24/6 9/25/6
s 8
f 9/10/3 3/26/3 2/27/3 4/28/3
s 9
f 13/29/6 10/22/6 9/25/6 12/30/6
s 10
f 13/31/7 12/32/7 14/33/7
s 11
f 16/34/1 17/35/1 14/36/1 11/37/1
s 12
f 17/38/5 16/39/5 15/40/5 18/41/5
s 13
f 18/42/7 13/31/7 14/33/7 17/43/7
s 14
f 15/44/2 10/5/2 13/45/2 18/46/2
s 15
f 45/47/8 15/48/8 16/39/8 46/49/8
s 16
f 25/50/2 19/51/2 20/52/2 28/53/2
s 17
f 23/54/9 21/55/9 26/56/9 27/57/9
s 18
f 21/58/3 23/59/3 24/60/3 22/61/3
s 19
f 19/62/10 22/63/10 24/64/10 20/65/10
s 20
f 27/66/11 26/67/11 25/68/11 28/69/11
s 21
f 35/70/2 29/71/2 30/72/2 38/73/2
s 22
f 33/74/12 31/75/12 36/76/12 37/77/12
s 23
f 31/78/3 33/79/3 34/80/3 32/81/3
s 24
f 29/82/13 32/83/13 34/84/13 30/85/13
s 25
f 37/86/14 36/87/14 35/88/14 38/89/14
s 26
f 46/90/6 42/91/6 40/92/6 44/93/6
s 27
f 48/94/2 45/95/2 43/96/2 39/97/2
s 28
f 50/98/3 47/99/3 49/100/3 52/101/3
s 29
f 39/102/7 40/103/7 41/104/7
s 30
f 11/11/3 9/10/3 4/28/3
s 31
f 54/105/15 8/16/15 7/106/15 53/107/15
s 32
f 46/49/16 44/108/16 43/109/16 45/110/16
s 33
f 46/90/7 16/34/7 11/37/7 42/91/7
s 34
f 43/111/7 44/112/7 40/103/7 39/102/7
s 35
f 48/113/1 39/114/1 41/115/1 47/116/1
s 36
f 7/6/2 10/5/2 15/44/2
s 37
f 47/99/3 41/117/3 40/118/3 42/119/3
s 38
f 51/120/1 48/113/1 47/116/1 50/121/1
s 39
f 51/122/4 50/123/4 52/124/4
s 40
f 54/125/6 55/126/6 52/127/6 49/128/6
s 41
f 49/128/4 4/2/4 8/1/4 54/125/4
s 42
f 55/129/16 54/105/16 53/130/16 56/131/16
s 43
f 56/132/4 51/122/4 52/124/4 55/133/4
s 44
f 53/134/2 48/94/2 51/135/2 56/136/2
s 45
f 63/137/2 57/138/2 58/139/2 66/140/2
s 46
f 61/141/10 59/142/10 64/143/10 65/144/10
s 47
f 59/145/3 61/146/3 62/147/3 60/148/3
s 48
f 57/149/9 60/150/9 62/151/9 58/152/9
s 49
f 65/153/17 64/154/17 63/155/17 66/156/17
s 50
f 73/157/2 67/158/2 68/159/2 76/160/2
s 51
f 71/161/13 69/162/13 74/163/13 75/164/13
s 52
f 69/165/3 71/166/3 72/167/3 70/168/3
s 53
f 67/169/12 70/170/12 72/171/12 68/172/12
s 54
f 75/173/18 74/174/18 73/175/18 76/176/18
s 55
f 48/94/2 53/134/2 45/95/2
s 56
f 53/134/2 7/6/2 15/44/2 45/95/2
s 57
f 42/119/3 11/11/3 4/28/3 49/100/3
s 58
f 47/99/3 42/119/3 49/100/3
