# Blender v2.80 (sub 75) OBJ File: 'Dungeon_Remastered_Export1.0.blend'
# www.blender.org
mtllib shelf_small_books.mtl
o shelf_small_books_Cube.15766
v -0.500000 -0.100000 0.000000
v -0.500000 0.100000 -0.000000
v 0.500000 -0.100000 0.000000
v 0.500000 0.100000 -0.000000
v -0.500000 -0.100000 0.475000
v -0.500000 -0.075000 0.500000
v -0.500000 0.075000 0.500000
v -0.500000 0.100000 0.475000
v 0.500000 -0.075000 0.500000
v 0.500000 -0.100000 0.475000
v 0.500000 0.100000 0.475000
v 0.500000 0.075000 0.500000
v 0.355990 -0.100000 0.475000
v 0.078470 -0.100000 0.475000
v 0.199327 -0.100000 0.431978
v 0.355990 -0.075000 0.500000
v 0.078470 -0.075000 0.500000
v 0.199327 -0.075000 0.456760
v 0.078470 0.100000 0.475000
v 0.355990 0.100000 0.475000
v 0.199327 0.100000 0.431978
v 0.078470 0.075000 0.500000
v 0.355990 0.075000 0.500000
v 0.199327 0.075000 0.456760
v -0.100000 -0.300000 -0.000000
v -0.100000 -0.100000 0.000000
v 0.100000 -0.300000 -0.000000
v 0.100000 -0.100000 0.000000
v -0.075000 -0.275000 0.150000
v -0.100000 -0.300000 0.125000
v -0.100000 -0.100000 0.325000
v -0.075000 -0.100000 0.350000
v 0.075000 -0.275000 0.150000
v 0.100000 -0.300000 0.125000
v 0.075000 -0.100000 0.350000
v 0.100000 -0.100000 0.325000
v -0.359993 0.100000 0.119089
v -0.359993 0.600000 0.119089
v -0.239993 0.100000 0.119089
v -0.239993 0.600000 0.119089
v -0.359993 0.100000 0.421778
v -0.359993 0.600000 0.421778
v -0.239993 0.100000 0.421778
v -0.239993 0.600000 0.421778
v -0.399992 0.600000 0.421778
v -0.399992 0.100000 0.421778
v -0.199992 0.100000 0.421778
v -0.199992 0.600000 0.421778
v -0.349993 0.124999 0.066778
v -0.249993 0.124999 0.066778
v -0.349993 0.574999 0.066778
v -0.249993 0.574999 0.066778
v -0.249993 0.574999 0.394358
v -0.349993 0.574999 0.394358
v -0.349993 0.124999 0.394358
v -0.249993 0.124999 0.394358
v -0.349993 0.124999 0.129089
v -0.249993 0.124999 0.129089
v -0.349993 0.574999 0.129089
v -0.249993 0.574999 0.129089
v -0.399992 0.600000 0.086778
v -0.399992 0.100000 0.086778
v -0.199992 0.600000 0.086778
v -0.199992 0.100000 0.086778
v -0.159992 0.100000 0.405625
v -0.159992 0.600000 0.405625
v -0.039992 0.100000 0.405625
v -0.039992 0.600000 0.405625
v -0.159992 0.100000 0.102935
v -0.159992 0.600000 0.102935
v -0.039992 0.100000 0.102935
v -0.039992 0.600000 0.102935
v -0.199990 0.600000 0.102935
v -0.199990 0.100000 0.102935
v 0.000009 0.100000 0.102935
v 0.000009 0.600000 0.102935
v -0.149992 0.124999 0.457935
v -0.049992 0.124999 0.457935
v -0.149992 0.574999 0.457935
v -0.049992 0.574999 0.457935
v -0.049992 0.574999 0.130356
v -0.149992 0.574999 0.130356
v -0.149992 0.124999 0.130356
v -0.049992 0.124999 0.130356
v -0.149992 0.124999 0.395625
v -0.049992 0.124999 0.395625
v -0.149992 0.574999 0.395625
v -0.049992 0.574999 0.395625
v -0.199990 0.600000 0.437935
v -0.199990 0.100000 0.437935
v 0.000009 0.600000 0.437935
v 0.000009 0.100000 0.437935
v 0.266003 0.114229 0.329179
v 0.030941 0.555530 0.329179
v 0.371915 0.170644 0.329179
v 0.136853 0.611944 0.329179
v 0.266003 0.114229 0.026489
v 0.030941 0.555530 0.026489
v 0.371915 0.170644 0.026489
v 0.136853 0.611944 0.026489
v -0.004362 0.536725 0.026489
v 0.230700 0.095425 0.026489
v 0.407220 0.189450 0.026489
v 0.172158 0.630750 0.026489
v 0.263076 0.140995 0.381489
v 0.351336 0.188007 0.381489
v 0.051521 0.538166 0.381489
v 0.139781 0.585178 0.381489
v 0.139781 0.585178 0.053910
v 0.051521 0.538166 0.053910
v 0.263076 0.140995 0.053910
v 0.351336 0.188008 0.053910
v 0.263076 0.140995 0.319179
v 0.351336 0.188007 0.319179
v 0.051521 0.538166 0.319179
v 0.139781 0.585178 0.319179
v -0.004362 0.536725 0.361489
v 0.230700 0.095425 0.361489
v 0.172158 0.630750 0.361489
v 0.407220 0.189450 0.361489
vt 0.599288 0.827623
vt 0.599288 0.831405
vt 0.576758 0.831405
vt 0.576758 0.827623
vt 0.514602 0.795742
vt 0.599288 0.795742
vt 0.565890 0.795742
vt 0.514602 0.826992
vt 0.514602 0.832036
vt 0.599288 0.832036
vt 0.599288 0.826992
vt 0.514602 0.826992
vt 0.514602 0.827623
vt 0.514602 0.831405
vt 0.514602 0.832036
vt 0.599288 0.826992
vt 0.599288 0.832036
vt 0.514602 0.795742
vt 0.560773 0.795742
vt 0.560773 0.796373
vt 0.514602 0.796373
vt 0.560773 0.827623
vt 0.560773 0.831405
vt 0.514602 0.863286
vt 0.514602 0.863286
vt 0.560773 0.863286
vt 0.565890 0.863286
vt 0.576758 0.795742
vt 0.599288 0.795742
vt 0.599288 0.796373
vt 0.576758 0.796373
vt 0.599288 0.863286
vt 0.576758 0.863286
vt 0.576758 0.862655
vt 0.599288 0.862655
vt 0.514602 0.862655
vt 0.560773 0.862655
vt 0.599288 0.863286
vt 0.560773 0.847661
vt 0.560773 0.847030
vt 0.565890 0.847030
vt 0.565890 0.847661
vt 0.565890 0.878911
vt 0.565890 0.878280
vt 0.576758 0.878280
vt 0.576758 0.878911
vt 0.576758 0.811367
vt 0.576758 0.811998
vt 0.565890 0.811998
vt 0.565890 0.811367
vt 0.565890 0.780117
vt 0.565890 0.780748
vt 0.560773 0.780748
vt 0.560773 0.780117
vt 0.560773 0.815780
vt 0.560773 0.811998
vt 0.565890 0.815780
vt 0.565890 0.843248
vt 0.576758 0.843248
vt 0.576758 0.847030
vt 0.518836 0.793221
vt 0.527305 0.793221
vt 0.527305 0.793221
vt 0.518836 0.793221
vt 0.526246 0.825101
vt 0.526246 0.895078
vt 0.519895 0.895078
vt 0.519895 0.825101
vt 0.518836 0.824471
vt 0.518836 0.895078
vt 0.527305 0.895078
vt 0.527305 0.824471
vt 0.518836 0.824471
vt 0.518836 0.895078
vt 0.527305 0.895078
vt 0.527305 0.824471
vt 0.519895 0.840726
vt 0.519895 0.910703
vt 0.518836 0.910703
vt 0.526246 0.840726
vt 0.527305 0.840096
vt 0.527305 0.910703
vt 0.518836 0.808846
vt 0.527305 0.808846
vt 0.526246 0.809476
vt 0.519895 0.809476
vt 0.526246 0.910703
vt 0.518836 0.840096
vt 0.707530 0.819946
vt 0.707530 0.819946
vt 0.707530 0.822480
vt 0.707530 0.825506
vt 0.707530 0.979488
vt 0.707530 0.979488
vt 0.707530 0.973928
vt 0.707530 0.976955
vt 0.692277 0.866821
vt 0.692277 0.963863
vt 0.692277 0.963863
vt 0.692277 0.866821
vt 0.711910 0.866821
vt 0.711910 0.963863
vt 0.711910 0.963863
vt 0.711910 0.866821
vt 0.696657 0.979488
vt 0.696657 0.973928
vt 0.696021 0.959236
vt 0.708165 0.959236
vt 0.708165 0.871449
vt 0.696021 0.871449
vt 0.696657 0.866821
vt 0.696657 0.963863
vt 0.707530 0.963863
vt 0.707530 0.866821
vt 0.696657 0.835571
vt 0.696657 0.835571
vt 0.692277 0.835571
vt 0.692277 0.835571
vt 0.707530 0.835571
vt 0.707530 0.835571
vt 0.711910 0.835571
vt 0.711910 0.835571
vt 0.696657 0.995113
vt 0.696657 0.995113
vt 0.692277 0.995113
vt 0.692277 0.995113
vt 0.707530 0.995113
vt 0.707530 0.995113
vt 0.711910 0.995113
vt 0.711910 0.995113
vt 0.051627 0.670988
vt 0.051627 0.579012
vt 0.073373 0.579012
vt 0.073373 0.670988
vt 0.073373 0.714836
vt 0.051627 0.714836
vt 0.051627 0.717863
vt 0.073373 0.717863
vt 0.051627 0.550789
vt 0.073373 0.550789
vt 0.073373 0.547762
vt 0.051627 0.547762
vt 0.707530 0.851196
vt 0.707530 0.948238
vt 0.707530 0.945705
vt 0.707530 0.853730
vt 0.696657 0.819946
vt 0.696657 0.825506
vt 0.696657 0.979488
vt 0.696657 0.976955
vt 0.696657 0.819946
vt 0.696657 0.822480
vt 0.696657 0.948238
vt 0.696657 0.851196
vt 0.696657 0.853730
vt 0.696657 0.945705
vt 0.696021 0.855824
vt 0.708165 0.855824
vt 0.711910 0.851196
vt 0.692277 0.851196
vt 0.708165 0.974861
vt 0.696021 0.974861
vt 0.692277 0.979488
vt 0.711910 0.979488
vt 0.833561 0.815445
vt 0.833561 0.821004
vt 0.833561 0.817978
vt 0.833561 0.815445
vt 0.833561 0.974986
vt 0.833561 0.972453
vt 0.833561 0.969427
vt 0.833561 0.974986
vt 0.818308 0.862320
vt 0.818308 0.862320
vt 0.818308 0.959361
vt 0.818308 0.959361
vt 0.837941 0.862320
vt 0.837941 0.862320
vt 0.837941 0.959361
vt 0.837941 0.959361
vt 0.822688 0.969427
vt 0.822688 0.974986
vt 0.822053 0.954734
vt 0.822053 0.866947
vt 0.834196 0.866947
vt 0.834196 0.954734
vt 0.822688 0.862320
vt 0.822688 0.959361
vt 0.833561 0.959361
vt 0.833561 0.862320
vt 0.822688 0.831070
vt 0.818308 0.831070
vt 0.818308 0.831070
vt 0.822688 0.831070
vt 0.833561 0.831070
vt 0.837941 0.831070
vt 0.837941 0.831070
vt 0.833561 0.831070
vt 0.822688 0.990611
vt 0.818308 0.990611
vt 0.818308 0.990611
vt 0.822688 0.990611
vt 0.833561 0.990611
vt 0.837941 0.990611
vt 0.837941 0.990611
vt 0.833561 0.990611
vt 0.051627 0.670988
vt 0.073373 0.670988
vt 0.073373 0.579012
vt 0.051627 0.579012
vt 0.073373 0.714836
vt 0.073373 0.717863
vt 0.051627 0.717863
vt 0.051627 0.714836
vt 0.051627 0.550789
vt 0.051627 0.547762
vt 0.073373 0.547762
vt 0.073373 0.550789
vt 0.833561 0.846695
vt 0.833561 0.849228
vt 0.833561 0.941203
vt 0.833561 0.943736
vt 0.822688 0.815445
vt 0.822688 0.821004
vt 0.822688 0.972453
vt 0.822688 0.974986
vt 0.822688 0.815445
vt 0.822688 0.817978
vt 0.822688 0.943736
vt 0.822688 0.941203
vt 0.822688 0.849228
vt 0.822688 0.846695
vt 0.822053 0.851322
vt 0.818308 0.846695
vt 0.837941 0.846695
vt 0.834196 0.851322
vt 0.834196 0.970359
vt 0.837941 0.974986
vt 0.818308 0.974986
vt 0.822053 0.970359
vt 0.161686 0.503780
vt 0.161686 0.509340
vt 0.161686 0.506313
vt 0.161686 0.503780
vt 0.161686 0.663322
vt 0.161686 0.660789
vt 0.161686 0.657762
vt 0.161686 0.663322
vt 0.146434 0.550655
vt 0.146434 0.550655
vt 0.146434 0.647697
vt 0.146434 0.647697
vt 0.166067 0.550655
vt 0.166067 0.550655
vt 0.166067 0.647697
vt 0.166067 0.647697
vt 0.150814 0.657762
vt 0.150814 0.663322
vt 0.150178 0.643069
vt 0.150178 0.555282
vt 0.162322 0.555282
vt 0.162322 0.643069
vt 0.150814 0.550655
vt 0.150814 0.647697
vt 0.161686 0.647697
vt 0.161686 0.550655
vt 0.150814 0.519405
vt 0.146434 0.519405
vt 0.146434 0.519405
vt 0.150814 0.519405
vt 0.161686 0.519405
vt 0.166067 0.519405
vt 0.166067 0.519405
vt 0.161686 0.519405
vt 0.150814 0.678947
vt 0.146434 0.678947
vt 0.146434 0.678947
vt 0.150814 0.678947
vt 0.161686 0.678947
vt 0.166067 0.678947
vt 0.166067 0.678947
vt 0.161686 0.678947
vt 0.051627 0.670988
vt 0.073373 0.670988
vt 0.073373 0.579012
vt 0.051627 0.579012
vt 0.073373 0.714836
vt 0.073373 0.717863
vt 0.051627 0.717863
vt 0.051627 0.714836
vt 0.051627 0.550789
vt 0.051627 0.547762
vt 0.073373 0.547762
vt 0.073373 0.550789
vt 0.161686 0.535030
vt 0.161686 0.537563
vt 0.161686 0.629539
vt 0.161686 0.632072
vt 0.150814 0.503780
vt 0.150814 0.509340
vt 0.150814 0.660789
vt 0.150814 0.663322
vt 0.150814 0.503780
vt 0.150814 0.506313
vt 0.150814 0.632072
vt 0.150814 0.629539
vt 0.150814 0.537563
vt 0.150814 0.535030
vt 0.150178 0.539657
vt 0.146434 0.535030
vt 0.166067 0.535030
vt 0.162322 0.539657
vt 0.162322 0.658694
vt 0.166067 0.663322
vt 0.146434 0.663322
vt 0.150178 0.658694
vn 0.0000 0.0000 1.0000
vn 0.0000 -1.0000 0.0000
vn 0.0000 -0.0000 -1.0000
vn -1.0000 0.0000 0.0000
vn 1.0000 0.0000 0.0000
vn 0.0000 -0.7071 0.7071
vn 0.0000 1.0000 0.0000
vn 0.0000 0.7071 0.7071
vn 0.2452 0.6840 0.6870
vn -0.1915 0.6925 0.6955
vn -0.1915 -0.6925 0.6955
vn 0.2452 -0.6840 0.6870
vn 0.3369 0.0000 0.9416
vn -0.2661 0.0000 0.9640
vn 0.0106 -0.7195 0.6944
vn 0.2242 -0.7334 0.6417
vn -0.2242 -0.7334 0.6417
vn -0.0106 -0.7195 0.6944
vn -0.5278 -0.6371 0.5617
vn 0.5278 -0.6371 0.5617
vn -0.9285 -0.3714 0.0000
vn -0.9655 -0.1818 0.1864
vn -0.9652 -0.1955 0.1738
vn -0.9655 0.1818 0.1864
vn -0.9285 0.3714 0.0000
vn -0.9652 0.1955 0.1738
vn 0.0000 0.3714 0.9285
vn -0.1302 0.2808 -0.9509
vn 0.1302 0.2808 -0.9509
vn 0.1302 -0.2808 -0.9509
vn -0.1302 -0.2808 -0.9509
vn 0.0000 -0.3714 0.9285
vn 0.9285 0.3714 0.0000
vn 0.9655 0.1818 0.1864
vn 0.9652 0.1955 0.1738
vn 0.9655 -0.1818 0.1864
vn 0.9285 -0.3714 0.0000
vn 0.9652 -0.1955 0.1738
vn -0.2641 -0.2227 -0.9385
vn -0.2641 0.2227 -0.9385
vn 0.2641 0.2226 -0.9385
vn 0.2641 -0.2226 -0.9385
vn -0.9652 -0.1955 -0.1738
vn -0.9655 -0.1818 -0.1864
vn -0.9655 0.1818 -0.1864
vn -0.9652 0.1955 -0.1738
vn 0.0000 0.3714 -0.9285
vn -0.1302 0.2808 0.9509
vn -0.1302 -0.2808 0.9509
vn 0.1302 -0.2808 0.9509
vn 0.1302 0.2808 0.9509
vn 0.0000 -0.3714 -0.9285
vn 0.9652 0.1955 -0.1738
vn 0.9655 0.1818 -0.1864
vn 0.9655 -0.1818 -0.1864
vn 0.9652 -0.1955 -0.1738
vn -0.2641 0.2227 0.9385
vn -0.2641 -0.2227 0.9385
vn 0.2641 -0.2226 0.9385
vn 0.2641 0.2226 0.9385
vn -0.6449 -0.7643 -0.0000
vn -0.7600 -0.6263 -0.1738
vn -0.7667 -0.6144 -0.1864
vn -0.9376 -0.2934 -0.1864
vn -0.9438 -0.2812 -0.1738
vn -0.9941 -0.1087 -0.0000
vn -0.8826 -0.4701 0.0000
vn 0.8826 0.4701 0.0000
vn -0.1746 0.3278 -0.9285
vn -0.2469 0.1866 0.9509
vn 0.0171 -0.3090 0.9509
vn 0.2469 -0.1866 0.9509
vn -0.0171 0.3090 0.9509
vn 0.4701 -0.8826 0.0000
vn -0.4701 0.8826 0.0000
vn 0.1746 -0.3278 -0.9285
vn 0.6449 0.7643 0.0000
vn 0.7600 0.6263 -0.1738
vn 0.7667 0.6144 -0.1864
vn 0.9376 0.2934 -0.1864
vn 0.9438 0.2812 -0.1738
vn 0.9941 0.1087 0.0000
vn -0.3377 0.0724 0.9385
vn -0.1284 -0.3207 0.9385
vn 0.3377 -0.0724 0.9385
vn 0.1284 0.3206 0.9385
usemtl texture
s 1
f 9/1/1 12/2/1 23/3/1 16/4/1
s 2
f 1/5/2 3/6/2 15/7/2
s 3
f 1/8/3 2/9/3 4/10/3 3/11/3
s 4
f 5/12/4 6/13/4 7/14/4 8/15/4
s 5
f 10/16/5 11/17/5 12/2/5 9/1/5
s 6
f 5/18/6 14/19/6 17/20/6 6/21/6
s 7
f 1/8/4 5/12/4 8/15/4 2/9/4
s 8
f 3/11/5 4/10/5 11/17/5 10/16/5
s 9
f 17/22/1 22/23/1 7/14/1 6/13/1
s 10
f 2/24/7 8/25/7 19/26/7 21/27/7
s 11
f 13/28/6 10/29/6 9/30/6 16/31/6
s 12
f 11/32/8 20/33/8 23/34/8 12/35/8
s 13
f 19/26/8 8/25/8 7/36/8 22/37/8
s 14
f 4/38/7 2/24/7 21/27/7
s 15
f 5/18/2 1/5/2 15/7/2 14/19/2
s 16
f 11/32/7 4/38/7 21/27/7 20/33/7
s 17
f 19/39/9 22/40/9 24/41/9 21/42/9
s 18
f 21/43/10 24/44/10 23/45/10 20/46/10
s 19
f 13/47/11 16/48/11 18/49/11 15/50/11
s 20
f 15/51/12 18/52/12 17/53/12 14/54/12
s 21
f 22/55/13 17/56/13 18/49/13 24/57/13
s 22
f 24/41/14 18/58/14 16/59/14 23/60/14
s 23
f 3/6/2 10/29/2 13/28/2 15/7/2
s 24
f 25/61/2 27/62/2 34/63/2 30/64/2
s 25
f 33/65/15 35/66/16 32/67/17 29/68/18
s 26
f 25/69/3 26/70/3 28/71/3 27/72/3
s 27
f 30/73/4 31/74/4 26/70/4 25/69/4
s 28
f 27/72/5 28/71/5 36/75/5 34/76/5
s 29
f 29/77/18 32/78/17 31/79/19
s 30
f 33/80/15 34/81/6 36/82/20
s 31
f 30/83/6 34/84/6 33/85/15 29/86/18
s 32
f 35/87/16 33/80/15 36/82/20
s 33
f 30/88/6 29/77/18 31/79/19
s 34
f 39/89/21 43/90/22 56/91/23 58/92/21
s 35
f 44/93/24 40/94/25 60/95/25 53/96/26
s 36
f 46/97/4 45/98/4 61/99/4 62/100/4
s 37
f 64/101/5 63/102/5 48/103/5 47/104/5
s 38
f 40/94/27 38/105/27 59/106/27 60/95/27
s 39
f 51/107/28 52/108/29 50/109/30 49/110/31
s 40
f 41/111/1 42/112/1 45/98/1 46/97/1
s 41
f 44/113/1 43/114/1 47/104/1 48/103/1
s 42
f 37/115/2 41/116/2 46/117/2 62/118/2
s 43
f 43/119/2 39/120/2 64/121/2 47/122/2
s 44
f 42/123/7 38/124/7 61/125/7 45/126/7
s 45
f 40/127/7 44/128/7 48/129/7 63/130/7
s 46
f 39/120/2 37/115/2 62/118/2 64/121/2
s 47
f 38/124/7 40/127/7 63/130/7 61/125/7
s 48
f 54/131/1 55/132/1 56/133/1 53/134/1
s 49
f 60/135/7 59/136/7 54/137/7 53/138/7
s 50
f 57/139/2 58/140/2 56/141/2 55/142/2
s 51
f 43/143/22 44/144/24 53/145/26 56/146/23
s 52
f 37/147/32 39/89/32 58/92/32 57/148/32
s 53
f 38/105/33 42/149/34 54/150/35 59/106/33
s 54
f 41/151/36 37/147/37 57/148/37 55/152/38
s 55
f 42/153/34 41/154/36 55/155/38 54/156/35
s 56
f 51/107/28 49/110/31 62/100/39 61/99/40
s 57
f 50/109/30 52/108/29 63/102/41 64/101/42
s 58
f 49/157/31 50/158/30 64/159/42 62/160/39
s 59
f 52/161/29 51/162/28 61/163/40 63/164/41
s 60
f 67/165/21 86/166/21 84/167/43 71/168/44
s 61
f 72/169/45 81/170/46 88/171/25 68/172/25
s 62
f 74/173/4 90/174/4 89/175/4 73/176/4
s 63
f 92/177/5 75/178/5 76/179/5 91/180/5
s 64
f 68/172/47 88/171/47 87/181/47 66/182/47
s 65
f 79/183/48 77/184/49 78/185/50 80/186/51
s 66
f 69/187/3 74/173/3 73/176/3 70/188/3
s 67
f 72/189/3 76/179/3 75/178/3 71/190/3
s 68
f 65/191/2 90/192/2 74/193/2 69/194/2
s 69
f 71/195/2 75/196/2 92/197/2 67/198/2
s 70
f 70/199/7 73/200/7 89/201/7 66/202/7
s 71
f 68/203/7 91/204/7 76/205/7 72/206/7
s 72
f 67/198/2 92/197/2 90/192/2 65/191/2
s 73
f 66/202/7 89/201/7 91/204/7 68/203/7
s 74
f 82/207/3 81/208/3 84/209/3 83/210/3
s 75
f 88/211/7 81/212/7 82/213/7 87/214/7
s 76
f 85/215/2 83/216/2 84/217/2 86/218/2
s 77
f 71/219/44 84/220/43 81/221/46 72/222/45
s 78
f 65/223/52 85/224/52 86/166/52 67/165/52
s 79
f 66/182/33 87/181/33 82/225/53 70/226/54
s 80
f 69/227/55 83/228/56 85/224/37 65/223/37
s 81
f 70/229/54 82/230/53 83/231/56 69/232/55
s 82
f 79/183/48 89/175/57 90/174/58 77/184/49
s 83
f 78/185/50 92/177/59 91/180/60 80/186/51
s 84
f 77/233/49 90/234/58 92/235/59 78/236/50
s 85
f 80/237/51 91/238/60 89/239/57 79/240/48
s 86
f 95/241/61 114/242/61 112/243/62 99/244/63
s 87
f 100/245/64 109/246/65 116/247/66 96/248/66
s 88
f 102/249/67 118/250/67 117/251/67 101/252/67
s 89
f 120/253/68 103/254/68 104/255/68 119/256/68
s 90
f 96/248/69 116/247/69 115/257/69 94/258/69
s 91
f 107/259/70 105/260/71 106/261/72 108/262/73
s 92
f 97/263/3 102/249/3 101/252/3 98/264/3
s 93
f 100/265/3 104/255/3 103/254/3 99/266/3
s 94
f 93/267/74 118/268/74 102/269/74 97/270/74
s 95
f 99/271/74 103/272/74 120/273/74 95/274/74
s 96
f 98/275/75 101/276/75 117/277/75 94/278/75
s 97
f 96/279/75 119/280/75 104/281/75 100/282/75
s 98
f 95/274/74 120/273/74 118/268/74 93/267/74
s 99
f 94/278/75 117/277/75 119/280/75 96/279/75
s 100
f 110/283/3 109/284/3 112/285/3 111/286/3
s 101
f 116/287/75 109/288/75 110/289/75 115/290/75
s 102
f 113/291/74 111/292/74 112/293/74 114/294/74
s 103
f 99/295/63 112/296/62 109/297/65 100/298/64
s 104
f 93/299/76 113/300/76 114/242/76 95/241/76
s 105
f 94/258/77 115/257/77 110/301/78 98/302/79
s 106
f 97/303/80 111/304/81 113/300/82 93/299/82
s 107
f 98/305/79 110/306/78 111/307/81 97/308/80
s 108
f 107/259/70 117/251/83 118/250/84 105/260/71
s 109
f 106/261/72 120/253/85 119/256/86 108/262/73
s 110
f 105/309/71 118/310/84 120/311/85 106/312/72
s 111
f 108/313/73 119/314/86 117/315/83 107/316/70
